<?xml version="1.0" encoding="utf-8"?>
<!-- Generator: Adobe Illustrator 16.0.0, SVG Export Plug-In . SVG Version: 6.00 Build 0)  -->
<!DOCTYPE svg PUBLIC "-//W3C//DTD SVG 1.1//EN" "http://www.w3.org/Graphics/SVG/1.1/DTD/svg11.dtd">
<svg version="1.1" id="Layer_1" xmlns="http://www.w3.org/2000/svg" xmlns:xlink="http://www.w3.org/1999/xlink" x="0px" y="0px"
	 width="570px" height="412.5px" viewBox="0 0 570 412.5" enable-background="new 0 0 570 412.5" xml:space="preserve">
<path fill="#E4F2FC" d="M373.808,33.535c-44.845,35.624-94.119,48.132-139.003,51.673v149.861
	c-0.001,74.776,139.003,168.466,139.003,168.466s139.003-93.689,139.003-168.466V85.208
	C467.922,81.667,418.651,69.159,373.808,33.535"/>
<path fill="none" stroke="#2887C8" stroke-width="1.5" stroke-linecap="round" stroke-linejoin="round" stroke-miterlimit="10" d="
	M474.841,282.298c14.356-21.882,17.947-33.641,21.756-55.156V83.174c-44.881-3.404-94.158-15.418-139.003-49.639
	c-44.845,34.221-94.111,46.235-138.999,49.639v26.919"/>
<path fill="none" stroke="#2887C8" stroke-width="1.5" stroke-linecap="round" stroke-linejoin="round" stroke-miterlimit="10" d="
	M461.162,300.321c1.662-1.949,3.291-3.908,4.877-5.883"/>
<path fill="none" stroke="#2887C8" stroke-width="1.5" stroke-linecap="round" stroke-linejoin="round" stroke-miterlimit="10" d="
	M218.595,195.205v31.936c0,71.834,139.003,161.837,139.003,161.837s54.16-35.067,94.866-78.898"/>
<line fill="none" stroke="#2887C8" stroke-width="1.5" stroke-linecap="round" stroke-linejoin="round" stroke-miterlimit="10" x1="218.595" y1="148.628" x2="218.595" y2="178.468"/>
<line fill="none" stroke="#2887C8" stroke-width="1.5" stroke-linecap="round" stroke-linejoin="round" stroke-miterlimit="10" x1="218.595" y1="123.094" x2="218.595" y2="131.892"/>
<path fill="#FFFFFF" d="M428.576,205.853c0,39.202-31.778,70.986-70.982,70.986c-39.2,0-70.982-31.784-70.982-70.986
	c0-39.2,31.782-70.979,70.982-70.979C396.798,134.873,428.576,166.652,428.576,205.853"/>
<path fill="#B1D465" d="M283.398,173.933c0.322-0.742,0.645-1.486,1.008-2.211c-0.021,0-0.021-0.018-0.043-0.018
	c-2.088-1.592-3.436-4.104-3.436-6.92c0-4.806,3.88-8.688,8.686-8.688c1.33,0,2.573,0.281,3.7,0.821
	c0.021,0,0.021,0.023,0.039,0.023c0.926,0.44,1.753,1.025,2.454,1.769l0.026,0.023c1.546,1.546,2.492,3.676,2.492,6.052
	c0,4.788-3.906,8.71-8.712,8.71c-0.862,0-1.709-0.141-2.515-0.402h-0.019c-0.347,0.725-0.665,1.445-0.986,2.171
	c-0.784,1.832-1.507,3.7-2.149,5.607c-0.911,2.718-1.691,5.496-2.313,8.349c0,0-0.587,0.584-1.489,0.483
	c-0.947-0.098-1.512-0.825-1.512-0.825c0.645-3.153,1.528-6.251,2.538-9.25C281.831,177.698,282.572,175.783,283.398,173.933"/>
<path fill="#B1D465" d="M357.598,135.276c-0.523,0-1.048-0.038-1.528-0.159v27.677h-16.552c-1.11,0-2.013,0.906-2.013,2.009
	c0,1.104,0.902,2.012,2.013,2.012h16.552v30.37c-3.399,0.586-6.136,3.199-6.919,6.538h-20.878c-1.109,0-2.016,0.905-2.016,2.009
	c0,1.11,0.906,2.014,2.016,2.014h20.878c0.783,3.358,3.52,5.952,6.919,6.556v30.352h-16.552c-1.11,0-2.013,0.907-2.013,2.013
	c0,1.104,0.902,2.009,2.013,2.009h16.552v27.897c0.48-0.081,1.005-0.141,1.528-0.141c0.521,0,1.04,0.06,1.547,0.141v-65.428
	c-0.505,0.142-1.005,0.201-1.547,0.201c-0.546,0-1.048-0.06-1.528-0.201c-1.708-0.483-3.097-1.771-3.725-3.441
	c-0.237-0.603-0.361-1.265-0.361-1.972c0-0.698,0.124-1.365,0.361-1.969c0.628-1.667,2.017-2.954,3.725-3.438
	c0.48-0.122,0.982-0.202,1.528-0.202c0.542,0,1.04,0.081,1.547,0.202v-65.189C358.62,135.238,358.117,135.276,357.598,135.276
	 M377.889,162.793H367.35c-1.105,0-2.012,0.907-2.012,2.009c0,1.105,0.906,2.013,2.012,2.013h10.539
	c-0.161-0.643-0.237-1.329-0.237-2.013C377.651,164.121,377.728,163.436,377.889,162.793 M359.144,197.184v3.141
	c-0.506-0.122-1.004-0.202-1.547-0.202c-0.545,0-1.047,0.081-1.527,0.202c-1.71,0.483-3.098,1.771-3.725,3.438
	c-0.24,0.604-0.361,1.271-0.361,1.969c0,0.707,0.121,1.368,0.361,1.972c0.627,1.67,2.015,2.958,3.725,3.441
	c0.48,0.142,0.982,0.201,1.527,0.201c0.543,0,1.041-0.06,1.547-0.201v3.157c4.062-0.723,7.162-4.281,7.162-8.57
	C366.306,201.47,363.205,197.891,359.144,197.184 M437.968,197.347c-1.246-11.787-5.026-22.828-10.782-32.544
	c-0.018-0.038-0.04-0.061-0.058-0.077l-1.188-1.932c-12.871-20.354-34.594-34.596-59.714-37.271v-0.019
	c-0.523-4.307-4.205-7.625-8.628-7.625c-4.426,0-8.086,3.319-8.61,7.625v0.019c-0.563,0.06-1.146,0.123-1.73,0.201
	c-1.586,0.205-3.158,0.442-4.704,0.746c-1.55,0.282-3.079,0.622-4.607,1.008c-1.506,0.379-3.013,0.802-4.506,1.283
	c-1.488,0.463-2.938,0.967-4.387,1.511c-1.445,0.543-2.873,1.147-4.277,1.769c-1.409,0.625-2.797,1.288-4.146,1.992
	c-1.369,0.705-2.698,1.448-4.021,2.233c-1.312,0.766-2.598,1.586-3.862,2.434c-1.269,0.843-2.519,1.729-3.726,2.654
	c-1.221,0.905-2.41,1.872-3.556,2.854c-1.171,0.967-2.297,1.991-3.403,3.039c-1.104,1.048-2.172,2.114-3.193,3.217
	c0,0-0.083,0.928,0.482,1.468c0.539,0.544,1.851,0.404,1.851,0.404h0.019c0.545-0.563,1.084-1.148,1.651-1.688
	c1.084-1.087,2.212-2.111,3.335-3.136c1.148-1.007,2.331-1.972,3.541-2.916c1.185-0.948,2.413-1.85,3.682-2.717
	c1.247-0.865,2.529-1.713,3.841-2.497c1.304-0.802,2.656-1.564,4.001-2.272c1.368-0.721,2.738-1.406,4.144-2.049
	c1.409-0.643,2.837-1.247,4.286-1.79c1.448-0.564,2.916-1.086,4.383-1.549c1.51-0.484,2.999-0.905,4.523-1.291
	c1.531-0.381,3.062-0.723,4.625-1.025c1.554-0.28,3.122-0.521,4.712-0.721c0.401-0.04,0.783-0.103,1.186-0.121v0.019
	c0.259,1.105,0.744,2.135,1.409,3.037c-5.854,6.415-14.928,17.44-22.244,31.177H306.43c-1.109,0-2.013,0.907-2.013,2.009
	c0,1.105,0.903,2.013,2.013,2.013h19.827c-5.385,11.063-9.432,23.674-9.789,36.907h-21.887c-1.104,0-2.012,0.905-2.012,2.009
	c0,1.11,0.906,2.014,2.012,2.014h21.887c0.357,13.335,4.444,26.023,9.893,37.169h-19.93c-1.11,0-2.013,0.903-2.013,2.009
	c0,1.111,0.902,2.014,2.013,2.014h21.986c7.277,13.716,16.307,24.719,22.139,31.135c-0.683,0.903-1.168,1.949-1.427,3.057v0.019
	c-33.287-3.598-60.32-28.319-67.46-60.44c-0.42-1.949-0.784-3.939-1.084-5.953c-0.102-0.78-0.198-1.546-0.281-2.33h0.035
	c3.826-0.906,6.682-4.345,6.682-8.447c0-4.123-2.876-7.581-6.719-8.47h-0.021c-0.645-0.159-1.286-0.24-1.974-0.24
	c-0.36,0-0.7,0.021-1.062,0.081h-0.022c-4.285,0.522-7.602,4.185-7.602,8.629s3.342,8.102,7.646,8.61h0.018
	c0.08,0.803,0.163,1.604,0.278,2.412c0.304,2.05,0.669,4.063,1.093,6.054c7.299,33.588,35.558,59.432,70.332,63.113v0.042
	c0.523,4.283,4.184,7.622,8.611,7.622c4.421,0,8.104-3.339,8.628-7.622v-0.024c25.34-2.691,47.243-17.173,60.056-37.831
	c0.321-0.504,0.622-0.983,0.903-1.488c5.734-9.652,9.496-20.594,10.742-32.277h0.021c4.282-0.508,7.62-4.166,7.62-8.61
	S442.253,197.891,437.968,197.347 M377.889,162.793H367.35c-1.105,0-2.012,0.907-2.012,2.009c0,1.105,0.906,2.013,2.012,2.013
	h10.539c0.905,3.842,4.365,6.678,8.467,6.678c0.744,0,1.472-0.08,2.153-0.263c3.92,9.231,6.819,19.611,7.137,30.492h-21.274
	c-1.107,0-2.009,0.905-2.009,2.009c0,1.11,0.901,2.014,2.009,2.014h21.274c-0.297,10.842-3.154,21.24-7.216,30.713
	c-0.665-0.14-1.349-0.241-2.074-0.241c-4,0-7.399,2.736-8.383,6.437H367.35c-1.105,0-2.012,0.906-2.012,2.012
	s0.906,2.009,2.012,2.009h10.5c0.38,1.911,1.406,3.603,2.837,4.827c-6.378,10.602-13.421,19.129-18.243,24.44
	c-0.965-0.688-2.092-1.148-3.299-1.37v-62.27c4.061-0.723,7.161-4.281,7.161-8.57c0-4.262-3.101-7.841-7.161-8.547v-62.049
	c1.229-0.218,2.373-0.702,3.36-1.387c3.677,4.043,8.668,9.938,13.637,17.179c1.528,2.211,3.097,4.625,4.644,7.199
	C379.378,159.313,378.331,160.942,377.889,162.793 M331.571,248.352c-0.626-1.125-1.229-2.272-1.814-3.438
	c-5.633-11.202-9.911-24.075-10.215-37.593v-3.178c0.304-13.614,4.687-26.507,10.096-37.328c0.585-1.207,1.207-2.372,1.831-3.521
	c2.454-4.564,5.067-8.709,7.541-12.31c4.986-7.281,9.999-13.194,13.699-17.237c1.008,0.685,2.113,1.169,3.36,1.369v27.677h-16.554
	c-1.108,0-2.012,0.906-2.012,2.009c0,1.105,0.903,2.013,2.012,2.013h16.554v30.369c-3.401,0.586-6.136,3.199-6.919,6.538h-20.879
	c-1.108,0-2.015,0.905-2.015,2.009c0,1.11,0.906,2.014,2.015,2.014h20.879c0.783,3.358,3.518,5.952,6.919,6.557v30.351h-16.554
	c-1.108,0-2.012,0.907-2.012,2.013c0,1.104,0.903,2.009,2.012,2.009h16.554v27.897c-1.229,0.221-2.352,0.683-3.343,1.37
	C347.155,271.784,338.591,261.346,331.571,248.352 M424.996,244.652h-21.502c-1.107,0-2.014,0.906-2.014,2.012
	s0.906,2.009,2.014,2.009h19.009c-12.473,18.825-32.907,31.941-56.457,34.494v-0.04c-0.265-1.107-0.727-2.173-1.41-3.077
	c4.942-5.41,12.166-14.138,18.682-25c0.95,0.384,1.972,0.582,3.038,0.582c4.81,0,8.712-3.921,8.712-8.728
	c0-2.975-1.528-5.63-3.841-7.199c4.304-10.04,7.339-21.14,7.541-32.725c0.021-0.42,0.021-0.824,0.021-1.25
	c0-0.419,0-0.843-0.021-1.244c-0.202-11.525-3.217-22.547-7.462-32.526c2.273-1.565,3.762-4.181,3.762-7.158
	c0-4.784-3.902-8.706-8.712-8.706c-1.023,0-2.03,0.2-2.955,0.522c-6.537-10.842-13.774-19.552-18.742-25.002
	c0.661-0.901,1.123-1.931,1.388-3.037v-0.039c23.39,2.535,43.725,15.485,56.193,34.112h-18.745c-1.105,0-2.012,0.906-2.012,2.009
	c0,1.108,0.906,2.012,2.012,2.012h21.282c5.405,9.232,8.989,19.692,10.175,30.833h-0.061c-3.115,0.726-5.591,3.119-6.414,6.216
	h-18.023c-1.105,0-2.009,0.905-2.009,2.009c0,1.11,0.903,2.014,2.009,2.014h17.9c0.684,3.3,3.241,5.916,6.516,6.679h0.043
	C433.704,225.345,430.242,235.579,424.996,244.652 M339.516,162.793c-1.108,0-2.012,0.907-2.012,2.009
	c0,1.105,0.903,2.013,2.012,2.013h16.554v-4.021H339.516L339.516,162.793z M356.069,200.324v-3.141
	c-3.399,0.587-6.136,3.199-6.919,6.538h-20.878c-1.109,0-2.016,0.905-2.016,2.009c0,1.11,0.906,2.014,2.016,2.014h20.878
	c0.783,3.358,3.52,5.952,6.919,6.557v-3.157c-1.708-0.483-3.097-1.771-3.725-3.441c-0.237-0.603-0.361-1.265-0.361-1.972
	c0-0.698,0.124-1.365,0.361-1.969C352.973,202.095,354.359,200.808,356.069,200.324 M339.516,244.652
	c-1.108,0-2.012,0.906-2.012,2.012s0.903,2.009,2.012,2.009h16.554v-4.021H339.516L339.516,244.652z"/>
<path fill="#0B9D49" d="M295.833,158.729l-0.022-0.019c-0.705-0.744-1.528-1.327-2.453-1.772c-0.025,0-0.025-0.019-0.04-0.019
	c-1.131-0.544-2.377-0.825-3.699-0.825c-4.811,0-8.695,3.881-8.695,8.688c0,2.82,1.353,5.331,3.441,6.921
	c0.021,0,0.021,0.02,0.043,0.02c0.803,0.621,1.709,1.084,2.675,1.368h0.018c0.807,0.26,1.651,0.401,2.519,0.401
	c4.807,0,8.709-3.923,8.709-8.71C298.325,162.409,297.379,160.278,295.833,158.729 M289.618,170.395
	c-0.388,0-0.767-0.041-1.132-0.101c-0.019,0-0.019,0-0.035-0.021c-1.03-0.218-1.955-0.703-2.678-1.388l-0.021-0.019
	c-1.063-1.025-1.749-2.475-1.749-4.084c0-3.098,2.515-5.61,5.614-5.61c0.644,0,1.265,0.1,1.829,0.3c0.021,0,0.021,0,0.035,0.022
	c0.968,0.341,1.835,0.942,2.479,1.709l0.019,0.02c0.788,0.987,1.269,2.211,1.269,3.56
	C295.246,167.879,292.711,170.395,289.618,170.395"/>
<path fill="#0B9D49" d="M380.788,158.128c-1.41,1.185-2.457,2.815-2.899,4.666h1.691c0.521,0,1.006,0.198,1.367,0.54
	c0.241-0.943,0.744-1.81,1.431-2.494C381.85,159.914,381.329,159.011,380.788,158.128 M386.358,156.096
	c-1.029,0-2.029,0.2-2.954,0.522c-0.969,0.34-1.858,0.865-2.616,1.51c-1.41,1.185-2.457,2.815-2.899,4.666
	c-0.158,0.643-0.241,1.327-0.241,2.009c0,0.685,0.083,1.369,0.241,2.012c0.905,3.842,4.365,6.68,8.47,6.68
	c0.746,0,1.469-0.082,2.147-0.263c1.03-0.263,1.955-0.687,2.801-1.27c2.272-1.566,3.761-4.18,3.761-7.159
	C395.067,160.018,391.165,156.096,386.358,156.096 M390.016,169.087c-0.767,0.645-1.727,1.105-2.775,1.247
	c-0.28,0.062-0.584,0.082-0.882,0.082c-2.593,0-4.765-1.751-5.411-4.145c-0.145-0.462-0.202-0.966-0.202-1.469
	c0-0.499,0.058-1.003,0.202-1.469c0.241-0.944,0.743-1.81,1.431-2.495c0.7-0.701,1.604-1.243,2.612-1.488
	c0.443-0.099,0.886-0.159,1.368-0.159c3.119,0,5.631,2.514,5.631,5.61C391.989,166.511,391.224,168.043,390.016,169.087"/>
<path fill="#0B9D49" d="M386.358,238.216c-4.003,0-7.399,2.736-8.389,6.437h1.61c0.543,0,1.045,0.223,1.41,0.563
	c0.743-2.255,2.854-3.924,5.368-3.924c0.261,0,0.543,0.021,0.78,0.06c0.445-0.942,0.887-1.91,1.291-2.896
	C387.761,238.314,387.081,238.216,386.358,238.216 M391.224,239.705c-0.847-0.563-1.772-1.006-2.794-1.249
	c-0.669-0.142-1.349-0.24-2.071-0.24c-4.003,0-7.399,2.736-8.389,6.437c-0.226,0.727-0.322,1.469-0.322,2.252
	c0,0.604,0.063,1.208,0.202,1.77c0.384,1.91,1.406,3.602,2.837,4.83c0.784,0.68,1.669,1.203,2.634,1.546
	c0.947,0.38,1.969,0.583,3.038,0.583c4.807,0,8.709-3.921,8.709-8.728C395.067,243.927,393.539,241.274,391.224,239.705
	 M386.358,252.554c-0.506,0-1.003-0.058-1.47-0.198c-1.004-0.265-1.912-0.826-2.616-1.568c-0.66-0.705-1.146-1.609-1.388-2.594
	c-0.101-0.424-0.14-0.847-0.14-1.289c0-0.583,0.078-1.146,0.245-1.67v-0.019c0.743-2.255,2.854-3.924,5.368-3.924
	c0.261,0,0.543,0.02,0.78,0.059c1.07,0.143,2.018,0.586,2.798,1.229c1.249,1.045,2.053,2.595,2.053,4.325
	C391.989,250.021,389.475,252.554,386.358,252.554"/>
<path fill="#0B9D49" d="M280.302,197.507h-0.021c-0.645-0.16-1.286-0.239-1.974-0.239c-0.36,0-0.7,0.018-1.062,0.079h-0.022
	c-4.28,0.521-7.602,4.183-7.602,8.629c0,4.444,3.342,8.104,7.646,8.606h0.018c0.34,0.059,0.684,0.081,1.024,0.081
	c0.686,0,1.373-0.081,1.994-0.24h0.039c3.82-0.907,6.678-4.347,6.678-8.447C287.021,201.85,284.145,198.391,280.302,197.507
	 M280.061,211.305h-0.04c-0.543,0.181-1.127,0.279-1.713,0.279c-0.463,0-0.882-0.059-1.305-0.159h-0.021
	c-2.473-0.601-4.282-2.838-4.282-5.449c0-2.634,1.81-4.87,4.264-5.452h0.019c0.444-0.12,0.863-0.178,1.326-0.178
	c0.586,0,1.17,0.096,1.69,0.238c0.022,0.021,0.022,0.021,0.045,0.021c2.251,0.742,3.898,2.877,3.898,5.37
	C283.941,208.467,282.311,210.579,280.061,211.305"/>
<path fill="#0B9D49" d="M434.893,197.506c-3.122,0.726-5.594,3.121-6.418,6.216h1.587c0.102,0,0.22,0,0.321,0.038
	c0.058,0,0.102,0,0.142,0.021c0.181,0.041,0.344,0.1,0.503,0.199c0.061,0.023,0.141,0.065,0.202,0.123
	c0.061,0.041,0.122,0.082,0.184,0.142l0.076,0.082h0.021c0.544-1.773,1.894-3.139,3.64-3.722
	C435.092,199.561,435.008,198.532,434.893,197.506 M434.893,197.506c-3.122,0.726-5.594,3.121-6.418,6.216h1.587
	c0.102,0,0.22,0,0.321,0.038c0.058,0,0.102,0,0.142,0.021c0.181,0.041,0.344,0.1,0.503,0.199c0.061,0.023,0.141,0.065,0.202,0.123
	c0.061,0.041,0.122,0.082,0.184,0.142l0.076,0.082h0.021c0.544-1.773,1.894-3.139,3.64-3.722
	C435.092,199.561,435.008,198.532,434.893,197.506 M434.893,197.506c-3.122,0.726-5.594,3.121-6.418,6.216h1.587
	c0.102,0,0.22,0,0.321,0.038c0.058,0,0.102,0,0.142,0.021c0.181,0.041,0.344,0.1,0.503,0.199c0.061,0.023,0.141,0.065,0.202,0.123
	c0.061,0.041,0.122,0.082,0.184,0.142l0.076,0.082h0.021c0.544-1.773,1.894-3.139,3.64-3.722
	C435.092,199.561,435.008,198.532,434.893,197.506 M434.893,197.506c-3.122,0.726-5.594,3.121-6.418,6.216h1.587
	c0.102,0,0.22,0,0.321,0.038c0.058,0,0.102,0,0.142,0.021c0.181,0.041,0.344,0.1,0.503,0.199c0.061,0.023,0.141,0.065,0.202,0.123
	c0.061,0.041,0.122,0.082,0.184,0.142l0.076,0.082h0.021c0.544-1.773,1.894-3.139,3.64-3.722
	C435.092,199.561,435.008,198.532,434.893,197.506 M434.893,197.506c-3.122,0.726-5.594,3.121-6.418,6.216h1.587
	c0.102,0,0.22,0,0.321,0.038c0.058,0,0.102,0,0.142,0.021c0.181,0.041,0.344,0.1,0.503,0.199c0.061,0.023,0.141,0.065,0.202,0.123
	c0.061,0.041,0.122,0.082,0.184,0.142l0.076,0.082h0.021c0.544-1.773,1.894-3.139,3.64-3.722
	C435.092,199.561,435.008,198.532,434.893,197.506 M434.893,197.506c-3.122,0.726-5.594,3.121-6.418,6.216h1.587
	c0.102,0,0.22,0,0.321,0.038c0.058,0,0.102,0,0.142,0.021c0.181,0.041,0.344,0.1,0.503,0.199c0.061,0.023,0.141,0.065,0.202,0.123
	c0.061,0.041,0.122,0.082,0.184,0.142l0.076,0.082h0.021c0.544-1.773,1.894-3.139,3.64-3.722
	C435.092,199.561,435.008,198.532,434.893,197.506 M434.893,197.506c-3.122,0.726-5.594,3.121-6.418,6.216h1.587
	c0.102,0,0.22,0,0.321,0.038c0.058,0,0.102,0,0.142,0.021c0.181,0.041,0.344,0.1,0.503,0.199c0.061,0.023,0.141,0.065,0.202,0.123
	c0.061,0.041,0.122,0.082,0.184,0.142l0.076,0.082h0.021c0.544-1.773,1.894-3.139,3.64-3.722
	C435.092,199.561,435.008,198.532,434.893,197.506 M434.95,197.506h-0.058c-3.122,0.726-5.594,3.121-6.418,6.216h1.587
	c0.102,0,0.22,0,0.321,0.038c0.058,0,0.102,0,0.142,0.021c0.181,0.041,0.344,0.1,0.503,0.199c0.061,0.023,0.141,0.065,0.202,0.123
	c0.061,0.041,0.122,0.082,0.184,0.142l0.076,0.082h0.021c0.544-1.773,1.894-3.139,3.64-3.722c0.021,0,0.04-0.021,0.061-0.021
	C435.149,199.561,435.051,198.532,434.95,197.506 M434.95,197.506h-0.058c-3.122,0.726-5.594,3.121-6.418,6.216h1.587
	c0.102,0,0.22,0,0.321,0.038c0.058,0,0.102,0,0.142,0.021c0.181,0.041,0.344,0.1,0.503,0.199c0.061,0.023,0.141,0.065,0.202,0.123
	c0.061,0.041,0.122,0.082,0.184,0.142l0.076,0.082h0.021c0.544-1.773,1.894-3.139,3.64-3.722c0.021,0,0.04-0.021,0.061-0.021
	C435.149,199.561,435.051,198.532,434.95,197.506 M434.95,197.506h-0.058c-3.122,0.726-5.594,3.121-6.418,6.216h1.587
	c0.102,0,0.22,0,0.321,0.038c0.058,0,0.102,0,0.142,0.021c0.181,0.041,0.344,0.1,0.503,0.199c0.061,0.023,0.141,0.065,0.202,0.123
	c0.061,0.041,0.122,0.082,0.184,0.142l0.076,0.082h0.021c0.544-1.773,1.894-3.139,3.64-3.722c0.021,0,0.04-0.021,0.061-0.021
	C435.149,199.561,435.051,198.532,434.95,197.506 M437.968,197.347c-0.344-0.04-0.723-0.079-1.087-0.079
	c-0.665,0-1.305,0.079-1.931,0.238h-0.058c-3.122,0.726-5.594,3.121-6.418,6.216c-0.202,0.722-0.303,1.47-0.303,2.254
	c0,0.603,0.062,1.207,0.182,1.771c0.686,3.295,3.237,5.911,6.514,6.677h0.039c0.63,0.159,1.291,0.241,1.975,0.241
	c0.338,0,0.686-0.021,1.047-0.082h0.019c4.285-0.503,7.624-4.162,7.624-8.606C445.57,201.53,442.249,197.893,437.968,197.347
	 M438.206,211.425c-0.419,0.101-0.863,0.159-1.325,0.159c-0.587,0-1.128-0.099-1.671-0.261c-0.021,0-0.061-0.019-0.078-0.019
	c-1.85-0.604-3.277-2.153-3.7-4.087V207.2c-0.124-0.403-0.163-0.803-0.163-1.226c0-0.566,0.083-1.105,0.241-1.632v-0.018
	c0.544-1.773,1.894-3.138,3.64-3.722c0.021,0,0.04-0.021,0.061-0.021c0.524-0.144,1.084-0.238,1.671-0.238
	c0.462,0,0.925,0.058,1.347,0.178c2.454,0.583,4.267,2.818,4.267,5.452C442.494,208.587,440.663,210.824,438.206,211.425
	 M434.95,197.506h-0.058c-3.122,0.726-5.594,3.121-6.418,6.216h1.587c0.102,0,0.22,0,0.321,0.038c0.058,0,0.102,0,0.142,0.021
	c0.181,0.041,0.344,0.1,0.503,0.199c0.061,0.023,0.141,0.065,0.202,0.123c0.061,0.041,0.122,0.082,0.184,0.142l0.076,0.082h0.021
	c0.544-1.773,1.894-3.139,3.64-3.722c0.021,0,0.04-0.021,0.061-0.021C435.149,199.561,435.051,198.532,434.95,197.506
	 M434.95,197.506h-0.058c-3.122,0.726-5.594,3.121-6.418,6.216h1.587c0.102,0,0.22,0,0.321,0.038c0.058,0,0.102,0,0.142,0.021
	c0.181,0.041,0.344,0.1,0.503,0.199c0.061,0.023,0.141,0.065,0.202,0.123c0.061,0.041,0.122,0.082,0.184,0.142l0.076,0.082h0.021
	c0.544-1.773,1.894-3.139,3.64-3.722c0.021,0,0.04-0.021,0.061-0.021C435.149,199.561,435.051,198.532,434.95,197.506
	 M434.95,197.506h-0.058c-3.122,0.726-5.594,3.121-6.418,6.216h1.587c0.102,0,0.22,0,0.321,0.038c0.058,0,0.102,0,0.142,0.021
	c0.181,0.041,0.344,0.1,0.503,0.199c0.061,0.023,0.141,0.065,0.202,0.123c0.061,0.041,0.122,0.082,0.184,0.142l0.076,0.082h0.021
	c0.544-1.773,1.894-3.139,3.64-3.722c0.021,0,0.04-0.021,0.061-0.021C435.149,199.561,435.051,198.532,434.95,197.506
	 M434.893,197.506c-3.122,0.726-5.594,3.121-6.418,6.216h1.587c0.102,0,0.22,0,0.321,0.038c0.058,0,0.102,0,0.142,0.021
	c0.181,0.041,0.344,0.1,0.503,0.199c0.061,0.023,0.141,0.065,0.202,0.123c0.061,0.041,0.122,0.082,0.184,0.142l0.076,0.082h0.021
	c0.544-1.773,1.894-3.139,3.64-3.722C435.092,199.561,435.008,198.532,434.893,197.506 M434.893,197.506
	c-3.122,0.726-5.594,3.121-6.418,6.216h1.587c0.102,0,0.22,0,0.321,0.038c0.058,0,0.102,0,0.142,0.021
	c0.181,0.041,0.344,0.1,0.503,0.199c0.061,0.023,0.141,0.065,0.202,0.123c0.061,0.041,0.122,0.082,0.184,0.142l0.076,0.082h0.021
	c0.544-1.773,1.894-3.139,3.64-3.722C435.092,199.561,435.008,198.532,434.893,197.506 M434.893,197.506
	c-3.122,0.726-5.594,3.121-6.418,6.216h1.587c0.102,0,0.22,0,0.321,0.038c0.058,0,0.102,0,0.142,0.021
	c0.181,0.041,0.344,0.1,0.503,0.199c0.061,0.023,0.141,0.065,0.202,0.123c0.061,0.041,0.122,0.082,0.184,0.142l0.076,0.082h0.021
	c0.544-1.773,1.894-3.139,3.64-3.722C435.092,199.561,435.008,198.532,434.893,197.506 M434.893,197.506
	c-3.122,0.726-5.594,3.121-6.418,6.216h1.587c0.102,0,0.22,0,0.321,0.038c0.058,0,0.102,0,0.142,0.021
	c0.181,0.041,0.344,0.1,0.503,0.199c0.061,0.023,0.141,0.065,0.202,0.123c0.061,0.041,0.122,0.082,0.184,0.142l0.076,0.082h0.021
	c0.544-1.773,1.894-3.139,3.64-3.722C435.092,199.561,435.008,198.532,434.893,197.506 M434.893,197.506
	c-3.122,0.726-5.594,3.121-6.418,6.216h1.587c0.102,0,0.22,0,0.321,0.038c0.058,0,0.102,0,0.142,0.021
	c0.181,0.041,0.344,0.1,0.503,0.199c0.061,0.023,0.141,0.065,0.202,0.123c0.061,0.041,0.122,0.082,0.184,0.142l0.076,0.082h0.021
	c0.544-1.773,1.894-3.139,3.64-3.722C435.092,199.561,435.008,198.532,434.893,197.506 M434.893,197.506
	c-3.122,0.726-5.594,3.121-6.418,6.216h1.587c0.102,0,0.22,0,0.321,0.038c0.058,0,0.102,0,0.142,0.021
	c0.181,0.041,0.344,0.1,0.503,0.199c0.061,0.023,0.141,0.065,0.202,0.123c0.061,0.041,0.122,0.082,0.184,0.142l0.076,0.082h0.021
	c0.544-1.773,1.894-3.139,3.64-3.722C435.092,199.561,435.008,198.532,434.893,197.506 M434.893,197.506
	c-3.122,0.726-5.594,3.121-6.418,6.216h1.587c0.102,0,0.22,0,0.321,0.038c0.058,0,0.102,0,0.142,0.021
	c0.181,0.041,0.344,0.1,0.503,0.199c0.061,0.023,0.141,0.065,0.202,0.123c0.061,0.041,0.122,0.082,0.184,0.142l0.076,0.082h0.021
	c0.544-1.773,1.894-3.139,3.64-3.722C435.092,199.561,435.008,198.532,434.893,197.506 M434.893,197.506
	c-3.122,0.726-5.594,3.121-6.418,6.216h1.587c0.102,0,0.22,0,0.321,0.038c0.058,0,0.102,0,0.142,0.021
	c0.181,0.041,0.344,0.1,0.503,0.199c0.061,0.023,0.141,0.065,0.202,0.123c0.061,0.041,0.122,0.082,0.184,0.142l0.097,0.099v-0.017
	c0.544-1.773,1.894-3.139,3.64-3.722C435.092,199.561,435.008,198.532,434.893,197.506"/>
<path fill="#0B9D49" d="M360.352,131.477c-0.383,0.221-0.785,0.383-1.207,0.502c-0.503,0.141-1.005,0.222-1.55,0.222
	c-0.539,0-1.045-0.082-1.527-0.222c-0.442-0.119-0.847-0.282-1.227-0.502c-0.906-0.504-1.649-1.267-2.152-2.171
	c-0.181-0.323-0.321-0.646-0.441-1.008c-1.045,0.063-2.094,0.163-3.118,0.282c0.263,1.105,0.744,2.132,1.409,3.039
	c0.563,0.846,1.325,1.568,2.171,2.13c1.009,0.685,2.11,1.169,3.355,1.369c0.485,0.121,1.006,0.159,1.529,0.159
	s1.029-0.038,1.55-0.142c1.229-0.218,2.37-0.702,3.361-1.387C361.721,132.904,360.993,132.16,360.352,131.477 M360.352,131.477
	c-0.383,0.221-0.785,0.383-1.207,0.502c-0.503,0.141-1.005,0.222-1.55,0.222c-0.539,0-1.045-0.082-1.527-0.222
	c-0.442-0.119-0.847-0.282-1.227-0.502c-0.906-0.504-1.649-1.267-2.152-2.171c-0.181-0.323-0.321-0.646-0.441-1.008
	c-1.045,0.063-2.094,0.163-3.118,0.282c0.263,1.105,0.744,2.132,1.409,3.039c0.563,0.846,1.325,1.568,2.171,2.13
	c1.009,0.685,2.11,1.169,3.355,1.369c0.485,0.121,1.006,0.159,1.529,0.159s1.029-0.038,1.55-0.142
	c1.229-0.218,2.37-0.702,3.361-1.387C361.721,132.904,360.993,132.16,360.352,131.477 M360.352,131.477
	c-0.383,0.221-0.785,0.383-1.207,0.502c-0.503,0.141-1.005,0.222-1.55,0.222c-0.539,0-1.045-0.082-1.527-0.222
	c-0.442-0.119-0.847-0.282-1.227-0.502c-0.906-0.504-1.649-1.267-2.152-2.171c-0.181-0.323-0.321-0.646-0.441-1.008
	c-1.045,0.063-2.094,0.163-3.118,0.282c0.263,1.105,0.744,2.132,1.409,3.039c0.563,0.846,1.325,1.568,2.171,2.13
	c1.009,0.685,2.11,1.169,3.355,1.369c0.485,0.121,1.006,0.159,1.529,0.159s1.029-0.038,1.55-0.142
	c1.229-0.218,2.37-0.702,3.361-1.387C361.721,132.904,360.993,132.16,360.352,131.477 M360.352,131.477
	c-0.383,0.221-0.785,0.383-1.207,0.502c-0.503,0.141-1.005,0.222-1.55,0.222c-0.539,0-1.045-0.082-1.527-0.222
	c-0.442-0.119-0.847-0.282-1.227-0.502c-0.906-0.504-1.649-1.267-2.152-2.171c-0.181-0.323-0.321-0.646-0.441-1.008
	c-1.045,0.063-2.094,0.163-3.118,0.282c0.263,1.105,0.744,2.132,1.409,3.039c0.563,0.846,1.325,1.568,2.171,2.13
	c1.009,0.685,2.11,1.169,3.355,1.369c0.485,0.121,1.006,0.159,1.529,0.159s1.029-0.038,1.55-0.142
	c1.229-0.218,2.37-0.702,3.361-1.387C361.721,132.904,360.993,132.16,360.352,131.477 M360.352,131.477
	c-0.383,0.221-0.785,0.383-1.207,0.502c-0.503,0.141-1.005,0.222-1.55,0.222c-0.539,0-1.045-0.082-1.527-0.222
	c-0.442-0.119-0.847-0.282-1.227-0.502c-0.906-0.504-1.649-1.267-2.152-2.171c-0.181-0.323-0.321-0.646-0.441-1.008
	c-1.045,0.063-2.094,0.163-3.118,0.282c0.263,1.105,0.744,2.132,1.409,3.039c0.563,0.846,1.325,1.568,2.171,2.13
	c1.009,0.685,2.11,1.169,3.355,1.369c0.485,0.121,1.006,0.159,1.529,0.159s1.029-0.038,1.55-0.142
	c1.229-0.218,2.37-0.702,3.361-1.387C361.721,132.904,360.993,132.16,360.352,131.477 M360.352,131.477
	c-0.383,0.221-0.785,0.383-1.207,0.502c-0.503,0.141-1.005,0.222-1.55,0.222c-0.539,0-1.045-0.082-1.527-0.222
	c-0.442-0.119-0.847-0.282-1.227-0.502c-0.906-0.504-1.649-1.267-2.152-2.171c-0.181-0.323-0.321-0.646-0.441-1.008
	c-1.045,0.063-2.094,0.163-3.118,0.282c0.263,1.105,0.744,2.132,1.409,3.039c0.563,0.846,1.325,1.568,2.171,2.13
	c1.009,0.685,2.11,1.169,3.355,1.369c0.485,0.121,1.006,0.159,1.529,0.159s1.029-0.038,1.55-0.142
	c1.229-0.218,2.37-0.702,3.361-1.387C361.721,132.904,360.993,132.16,360.352,131.477 M360.352,131.477
	c-0.383,0.221-0.785,0.383-1.207,0.502c-0.503,0.141-1.005,0.222-1.55,0.222c-0.539,0-1.045-0.082-1.527-0.222
	c-0.442-0.119-0.847-0.282-1.227-0.502c-0.906-0.504-1.649-1.267-2.152-2.171c-0.181-0.323-0.321-0.646-0.441-1.008
	c-1.045,0.063-2.094,0.163-3.118,0.282c0.263,1.105,0.744,2.132,1.409,3.039c0.563,0.846,1.325,1.568,2.171,2.13
	c1.009,0.685,2.11,1.169,3.355,1.369c0.485,0.121,1.006,0.159,1.529,0.159s1.029-0.038,1.55-0.142
	c1.229-0.218,2.37-0.702,3.361-1.387C361.721,132.904,360.993,132.16,360.352,131.477 M360.352,131.477
	c-0.383,0.221-0.785,0.383-1.207,0.502c-0.503,0.141-1.005,0.222-1.55,0.222c-0.539,0-1.045-0.082-1.527-0.222
	c-0.442-0.119-0.847-0.282-1.227-0.502c-0.643,0.683-1.348,1.427-2.131,2.271c1.008,0.685,2.11,1.169,3.356,1.369
	c0.483,0.121,1.004,0.159,1.528,0.159c0.523,0,1.028-0.038,1.55-0.142c1.229-0.218,2.369-0.702,3.36-1.387
	C361.721,132.904,360.993,132.16,360.352,131.477 M360.352,131.477c-0.383,0.221-0.785,0.383-1.207,0.502
	c-0.503,0.141-1.005,0.222-1.55,0.222c-0.539,0-1.045-0.082-1.527-0.222c-0.442-0.119-0.847-0.282-1.227-0.502
	c-0.906-0.504-1.649-1.267-2.152-2.171c-0.181-0.323-0.321-0.646-0.441-1.008c-1.045,0.063-2.094,0.163-3.118,0.282
	c0.263,1.105,0.744,2.132,1.409,3.039c0.563,0.846,1.325,1.568,2.171,2.13c1.009,0.685,2.11,1.169,3.355,1.369
	c0.485,0.121,1.006,0.159,1.529,0.159s1.029-0.038,1.55-0.142c1.229-0.218,2.37-0.702,3.361-1.387
	C361.721,132.904,360.993,132.16,360.352,131.477 M360.352,131.477c-0.383,0.221-0.785,0.383-1.207,0.502
	c-0.503,0.141-1.005,0.222-1.55,0.222c-0.539,0-1.045-0.082-1.527-0.222c-0.442-0.119-0.847-0.282-1.227-0.502
	c-0.906-0.504-1.649-1.267-2.152-2.171c-0.181-0.323-0.321-0.646-0.441-1.008c-1.045,0.063-2.094,0.163-3.118,0.282
	c0.263,1.105,0.744,2.132,1.409,3.039c0.563,0.846,1.325,1.568,2.171,2.13c1.009,0.685,2.11,1.169,3.355,1.369
	c0.485,0.121,1.006,0.159,1.529,0.159s1.029-0.038,1.55-0.142c1.229-0.218,2.37-0.702,3.361-1.387
	C361.721,132.904,360.993,132.16,360.352,131.477 M360.352,131.477c-0.383,0.221-0.785,0.383-1.207,0.502
	c-0.503,0.141-1.005,0.222-1.55,0.222c-0.539,0-1.045-0.082-1.527-0.222c-0.442-0.119-0.847-0.282-1.227-0.502
	c-0.906-0.504-1.649-1.267-2.152-2.171c-0.181-0.323-0.321-0.646-0.441-1.008c-1.045,0.063-2.094,0.163-3.118,0.282
	c0.263,1.105,0.744,2.132,1.409,3.039c0.563,0.846,1.325,1.568,2.171,2.13c1.009,0.685,2.11,1.169,3.355,1.369
	c0.485,0.121,1.006,0.159,1.529,0.159s1.029-0.038,1.55-0.142c1.229-0.218,2.37-0.702,3.361-1.387
	C361.721,132.904,360.993,132.16,360.352,131.477 M360.352,131.477c-0.383,0.221-0.785,0.383-1.207,0.502
	c-0.503,0.141-1.005,0.222-1.55,0.222c-0.539,0-1.045-0.082-1.527-0.222c-0.442-0.119-0.847-0.282-1.227-0.502
	c-0.906-0.504-1.649-1.267-2.152-2.171c-0.181-0.323-0.321-0.646-0.441-1.008c-1.045,0.063-2.094,0.163-3.118,0.282
	c0.263,1.105,0.744,2.132,1.409,3.039c0.563,0.846,1.325,1.568,2.171,2.13c1.009,0.685,2.11,1.169,3.355,1.369
	c0.485,0.121,1.006,0.159,1.529,0.159s1.029-0.038,1.55-0.142c1.229-0.218,2.37-0.702,3.361-1.387
	C361.721,132.904,360.993,132.16,360.352,131.477 M360.352,131.477c-0.383,0.221-0.785,0.383-1.207,0.502
	c-0.503,0.141-1.005,0.222-1.55,0.222c-0.539,0-1.045-0.082-1.527-0.222c-0.442-0.119-0.847-0.282-1.227-0.502
	c-0.906-0.504-1.649-1.267-2.152-2.171c-0.181-0.323-0.321-0.646-0.441-1.008c-1.045,0.063-2.094,0.163-3.118,0.282
	c0.263,1.105,0.744,2.132,1.409,3.039c0.563,0.846,1.325,1.568,2.171,2.13c1.009,0.685,2.11,1.169,3.355,1.369
	c0.485,0.121,1.006,0.159,1.529,0.159s1.029-0.038,1.55-0.142c1.229-0.218,2.37-0.702,3.361-1.387
	C361.721,132.904,360.993,132.16,360.352,131.477 M360.352,131.477c-0.383,0.221-0.785,0.383-1.207,0.502
	c-0.503,0.141-1.005,0.222-1.55,0.222c-0.539,0-1.045-0.082-1.527-0.222c-0.442-0.119-0.847-0.282-1.227-0.502
	c-0.906-0.504-1.649-1.267-2.152-2.171c-0.181-0.323-0.321-0.646-0.441-1.008c-1.045,0.063-2.094,0.163-3.118,0.282
	c0.263,1.105,0.744,2.132,1.409,3.039c0.563,0.846,1.325,1.568,2.171,2.13c1.009,0.685,2.11,1.169,3.355,1.369
	c0.485,0.121,1.006,0.159,1.529,0.159s1.029-0.038,1.55-0.142c1.229-0.218,2.37-0.702,3.361-1.387
	C361.721,132.904,360.993,132.16,360.352,131.477 M360.352,131.477c-0.383,0.221-0.785,0.383-1.207,0.502
	c-0.503,0.141-1.005,0.222-1.55,0.222c-0.539,0-1.045-0.082-1.527-0.222c-0.442-0.119-0.847-0.282-1.227-0.502
	c-0.906-0.504-1.649-1.267-2.152-2.171c-0.181-0.323-0.321-0.646-0.441-1.008c-1.045,0.063-2.094,0.163-3.118,0.282
	c0.263,1.105,0.744,2.132,1.409,3.039c0.563,0.846,1.325,1.568,2.171,2.13c1.009,0.685,2.11,1.169,3.355,1.369
	c0.485,0.121,1.006,0.159,1.529,0.159s1.029-0.038,1.55-0.142c1.229-0.218,2.37-0.702,3.361-1.387
	C361.721,132.904,360.993,132.16,360.352,131.477 M360.352,131.477c-0.383,0.221-0.785,0.383-1.207,0.502
	c-0.503,0.141-1.005,0.222-1.55,0.222c-0.539,0-1.045-0.082-1.527-0.222c-0.442-0.119-0.847-0.282-1.227-0.502
	c-0.906-0.504-1.649-1.267-2.152-2.171c-0.181-0.323-0.321-0.646-0.441-1.008c-1.045,0.063-2.094,0.163-3.118,0.282
	c0.263,1.105,0.744,2.132,1.409,3.039c0.563,0.846,1.325,1.568,2.171,2.13c1.009,0.685,2.11,1.169,3.355,1.369
	c0.485,0.121,1.006,0.159,1.529,0.159s1.029-0.038,1.55-0.142c1.229-0.218,2.37-0.702,3.361-1.387
	C361.721,132.904,360.993,132.16,360.352,131.477 M360.352,131.477c-0.383,0.221-0.785,0.383-1.207,0.502
	c-0.503,0.141-1.005,0.222-1.55,0.222c-0.539,0-1.045-0.082-1.527-0.222c-0.442-0.119-0.847-0.282-1.227-0.502
	c-0.643,0.683-1.348,1.427-2.131,2.271c1.008,0.685,2.11,1.169,3.356,1.369c0.483,0.121,1.004,0.159,1.528,0.159
	c0.523,0,1.028-0.038,1.55-0.142c1.229-0.218,2.369-0.702,3.36-1.387C361.721,132.904,360.993,132.16,360.352,131.477
	 M360.352,131.477c-0.383,0.221-0.785,0.383-1.207,0.502c-0.503,0.141-1.005,0.222-1.55,0.222c-0.539,0-1.045-0.082-1.527-0.222
	c-0.442-0.119-0.847-0.282-1.227-0.502c-0.643,0.683-1.348,1.427-2.131,2.271c1.008,0.685,2.11,1.169,3.356,1.369
	c0.483,0.121,1.004,0.159,1.528,0.159c0.523,0,1.028-0.038,1.55-0.142c1.229-0.218,2.369-0.702,3.36-1.387
	C361.721,132.904,360.993,132.16,360.352,131.477 M360.352,131.477c-0.383,0.221-0.785,0.383-1.207,0.502
	c-0.503,0.141-1.005,0.222-1.55,0.222c-0.539,0-1.045-0.082-1.527-0.222c-0.442-0.119-0.847-0.282-1.227-0.502
	c-0.643,0.683-1.348,1.427-2.131,2.271c1.008,0.685,2.11,1.169,3.356,1.369c0.483,0.121,1.004,0.159,1.528,0.159
	c0.523,0,1.028-0.038,1.55-0.142c1.229-0.218,2.369-0.702,3.36-1.387C361.721,132.904,360.993,132.16,360.352,131.477
	 M366.224,125.522v-0.018c-0.524-4.307-4.2-7.626-8.629-7.626c-4.423,0-8.083,3.319-8.606,7.626v0.018
	c-0.08,0.341-0.08,0.685-0.08,1.048c0,0.703,0.08,1.348,0.222,1.991v0.019c0.263,1.105,0.743,2.131,1.408,3.039
	c0.563,0.846,1.326,1.568,2.172,2.13c1.008,0.685,2.11,1.169,3.356,1.369c0.483,0.121,1.004,0.159,1.528,0.159
	c0.523,0,1.028-0.038,1.55-0.142c1.229-0.218,2.369-0.702,3.36-1.387c0.843-0.562,1.568-1.285,2.153-2.13
	c0.661-0.907,1.123-1.933,1.388-3.039v-0.036c0.178-0.625,0.26-1.292,0.26-1.973C366.306,126.207,366.283,125.863,366.224,125.522
	 M362.968,128.297c-0.142,0.363-0.283,0.708-0.463,1.026c-0.506,0.887-1.247,1.649-2.153,2.153
	c-0.385,0.221-0.785,0.383-1.208,0.502c-0.502,0.141-1.004,0.222-1.55,0.222c-0.538,0-1.044-0.082-1.529-0.222
	c-0.439-0.119-0.844-0.282-1.224-0.502c-0.906-0.504-1.652-1.267-2.153-2.171c-0.181-0.323-0.322-0.646-0.441-1.008v-0.04
	c-0.181-0.523-0.264-1.102-0.264-1.688c0-0.462,0.062-0.885,0.163-1.328v-0.02c0.604-2.456,2.814-4.265,5.448-4.265
	c2.638,0,4.845,1.81,5.452,4.265v0.02c0.101,0.443,0.182,0.866,0.182,1.328c0,0.585-0.102,1.165-0.26,1.688V128.297z
	 M360.352,131.477c-0.383,0.221-0.785,0.383-1.207,0.502c-0.503,0.141-1.005,0.222-1.55,0.222c-0.539,0-1.045-0.082-1.527-0.222
	c-0.442-0.119-0.847-0.282-1.227-0.502c-0.643,0.683-1.348,1.427-2.131,2.271c1.008,0.685,2.11,1.169,3.356,1.369
	c0.483,0.121,1.004,0.159,1.528,0.159c0.523,0,1.028-0.038,1.55-0.142c1.229-0.218,2.369-0.702,3.36-1.387
	C361.721,132.904,360.993,132.16,360.352,131.477 M360.352,131.477c-0.383,0.221-0.785,0.383-1.207,0.502
	c-0.503,0.141-1.005,0.222-1.55,0.222c-0.539,0-1.045-0.082-1.527-0.222c-0.442-0.119-0.847-0.282-1.227-0.502
	c-0.643,0.683-1.348,1.427-2.131,2.271c1.008,0.685,2.11,1.169,3.356,1.369c0.483,0.121,1.004,0.159,1.528,0.159
	c0.523,0,1.028-0.038,1.55-0.142c1.229-0.218,2.369-0.702,3.36-1.387C361.721,132.904,360.993,132.16,360.352,131.477
	 M360.352,131.477c-0.383,0.221-0.785,0.383-1.207,0.502c-0.503,0.141-1.005,0.222-1.55,0.222c-0.539,0-1.045-0.082-1.527-0.222
	c-0.442-0.119-0.847-0.282-1.227-0.502c-0.643,0.683-1.348,1.427-2.131,2.271c1.008,0.685,2.11,1.169,3.356,1.369
	c0.483,0.121,1.004,0.159,1.528,0.159c0.523,0,1.028-0.038,1.55-0.142c1.229-0.218,2.369-0.702,3.36-1.387
	C361.721,132.904,360.993,132.16,360.352,131.477 M360.352,131.477c-0.383,0.221-0.785,0.383-1.207,0.502
	c-0.503,0.141-1.005,0.222-1.55,0.222c-0.539,0-1.045-0.082-1.527-0.222c-0.442-0.119-0.847-0.282-1.227-0.502
	c-0.906-0.504-1.649-1.267-2.152-2.171c-0.181-0.323-0.321-0.646-0.441-1.008c-1.045,0.063-2.094,0.163-3.118,0.282
	c0.263,1.105,0.744,2.132,1.409,3.039c0.563,0.846,1.325,1.568,2.171,2.13c1.009,0.685,2.11,1.169,3.355,1.369
	c0.485,0.121,1.006,0.159,1.529,0.159s1.029-0.038,1.55-0.142c1.229-0.218,2.37-0.702,3.361-1.387
	C361.721,132.904,360.993,132.16,360.352,131.477 M360.352,131.477c-0.383,0.221-0.785,0.383-1.207,0.502
	c-0.503,0.141-1.005,0.222-1.55,0.222c-0.539,0-1.045-0.082-1.527-0.222c-0.442-0.119-0.847-0.282-1.227-0.502
	c-0.906-0.504-1.649-1.267-2.152-2.171c-0.181-0.323-0.321-0.646-0.441-1.008c-1.045,0.063-2.094,0.163-3.118,0.282
	c0.263,1.105,0.744,2.132,1.409,3.039c0.563,0.846,1.325,1.568,2.171,2.13c1.009,0.685,2.11,1.169,3.355,1.369
	c0.485,0.121,1.006,0.159,1.529,0.159s1.029-0.038,1.55-0.142c1.229-0.218,2.37-0.702,3.361-1.387
	C361.721,132.904,360.993,132.16,360.352,131.477 M360.352,131.477c-0.383,0.221-0.785,0.383-1.207,0.502
	c-0.503,0.141-1.005,0.222-1.55,0.222c-0.539,0-1.045-0.082-1.527-0.222c-0.442-0.119-0.847-0.282-1.227-0.502
	c-0.906-0.504-1.649-1.267-2.152-2.171c-0.181-0.323-0.321-0.646-0.441-1.008c-1.045,0.063-2.094,0.163-3.118,0.282
	c0.263,1.105,0.744,2.132,1.409,3.039c0.563,0.846,1.325,1.568,2.171,2.13c1.009,0.685,2.11,1.169,3.355,1.369
	c0.485,0.121,1.006,0.159,1.529,0.159s1.029-0.038,1.55-0.142c1.229-0.218,2.37-0.702,3.361-1.387
	C361.721,132.904,360.993,132.16,360.352,131.477 M360.352,131.477c-0.383,0.221-0.785,0.383-1.207,0.502
	c-0.503,0.141-1.005,0.222-1.55,0.222c-0.539,0-1.045-0.082-1.527-0.222c-0.442-0.119-0.847-0.282-1.227-0.502
	c-0.906-0.504-1.649-1.267-2.152-2.171c-0.181-0.323-0.321-0.646-0.441-1.008c-1.045,0.063-2.094,0.163-3.118,0.282
	c0.263,1.105,0.744,2.132,1.409,3.039c0.563,0.846,1.325,1.568,2.171,2.13c1.009,0.685,2.11,1.169,3.355,1.369
	c0.485,0.121,1.006,0.159,1.529,0.159s1.029-0.038,1.55-0.142c1.229-0.218,2.37-0.702,3.361-1.387
	C361.721,132.904,360.993,132.16,360.352,131.477 M360.352,131.477c-0.383,0.221-0.785,0.383-1.207,0.502
	c-0.503,0.141-1.005,0.222-1.55,0.222c-0.539,0-1.045-0.082-1.527-0.222c-0.442-0.119-0.847-0.282-1.227-0.502
	c-0.906-0.504-1.649-1.267-2.152-2.171c-0.181-0.323-0.321-0.646-0.441-1.008c-1.045,0.063-2.094,0.163-3.118,0.282
	c0.263,1.105,0.744,2.132,1.409,3.039c0.563,0.846,1.325,1.568,2.171,2.13c1.009,0.685,2.11,1.169,3.355,1.369
	c0.485,0.121,1.006,0.159,1.529,0.159s1.029-0.038,1.55-0.142c1.229-0.218,2.37-0.702,3.361-1.387
	C361.721,132.904,360.993,132.16,360.352,131.477 M360.352,131.477c-0.383,0.221-0.785,0.383-1.207,0.502
	c-0.503,0.141-1.005,0.222-1.55,0.222c-0.539,0-1.045-0.082-1.527-0.222c-0.442-0.119-0.847-0.282-1.227-0.502
	c-0.906-0.504-1.649-1.267-2.152-2.171c-0.181-0.323-0.321-0.646-0.441-1.008c-1.045,0.063-2.094,0.163-3.118,0.282
	c0.263,1.105,0.744,2.132,1.409,3.039c0.563,0.846,1.325,1.568,2.171,2.13c1.009,0.685,2.11,1.169,3.355,1.369
	c0.485,0.121,1.006,0.159,1.529,0.159s1.029-0.038,1.55-0.142c1.229-0.218,2.37-0.702,3.361-1.387
	C361.721,132.904,360.993,132.16,360.352,131.477 M360.352,131.477c-0.383,0.221-0.785,0.383-1.207,0.502
	c-0.503,0.141-1.005,0.222-1.55,0.222c-0.539,0-1.045-0.082-1.527-0.222c-0.442-0.119-0.847-0.282-1.227-0.502
	c-0.906-0.504-1.649-1.267-2.152-2.171c-0.181-0.323-0.321-0.646-0.441-1.008c-1.045,0.063-2.094,0.163-3.118,0.282
	c0.263,1.105,0.744,2.132,1.409,3.039c0.563,0.846,1.325,1.568,2.171,2.13c1.009,0.685,2.11,1.169,3.355,1.369
	c0.485,0.121,1.006,0.159,1.529,0.159s1.029-0.038,1.55-0.142c1.229-0.218,2.37-0.702,3.361-1.387
	C361.721,132.904,360.993,132.16,360.352,131.477 M360.352,131.477c-0.383,0.221-0.785,0.383-1.207,0.502
	c-0.503,0.141-1.005,0.222-1.55,0.222c-0.539,0-1.045-0.082-1.527-0.222c-0.442-0.119-0.847-0.282-1.227-0.502
	c-0.643,0.683-1.348,1.427-2.131,2.271c1.008,0.685,2.11,1.169,3.356,1.369c0.483,0.121,1.004,0.159,1.528,0.159
	c0.523,0,1.028-0.038,1.55-0.142c1.229-0.218,2.369-0.702,3.36-1.387C361.721,132.904,360.993,132.16,360.352,131.477
	 M360.352,131.477c-0.383,0.221-0.785,0.383-1.207,0.502c-0.503,0.141-1.005,0.222-1.55,0.222c-0.539,0-1.045-0.082-1.527-0.222
	c-0.442-0.119-0.847-0.282-1.227-0.502c-0.643,0.683-1.348,1.427-2.131,2.271c1.008,0.685,2.11,1.169,3.356,1.369
	c0.483,0.121,1.004,0.159,1.528,0.159c0.523,0,1.028-0.038,1.55-0.142c1.229-0.218,2.369-0.702,3.36-1.387
	C361.721,132.904,360.993,132.16,360.352,131.477 M360.352,131.477c-0.383,0.221-0.785,0.383-1.207,0.502
	c-0.503,0.141-1.005,0.222-1.55,0.222c-0.539,0-1.045-0.082-1.527-0.222c-0.442-0.119-0.847-0.282-1.227-0.502
	c-0.906-0.504-1.649-1.267-2.152-2.171c-0.181-0.323-0.321-0.646-0.441-1.008c-1.045,0.063-2.094,0.163-3.118,0.282
	c0.263,1.105,0.744,2.132,1.409,3.039c0.563,0.846,1.325,1.568,2.171,2.13c1.009,0.685,2.11,1.169,3.355,1.369
	c0.485,0.121,1.006,0.159,1.529,0.159s1.029-0.038,1.55-0.142c1.229-0.218,2.37-0.702,3.361-1.387
	C361.721,132.904,360.993,132.16,360.352,131.477 M360.352,131.477c-0.383,0.221-0.785,0.383-1.207,0.502
	c-0.503,0.141-1.005,0.222-1.55,0.222c-0.539,0-1.045-0.082-1.527-0.222c-0.442-0.119-0.847-0.282-1.227-0.502
	c-0.906-0.504-1.649-1.267-2.152-2.171c-0.181-0.323-0.321-0.646-0.441-1.008c-1.045,0.063-2.094,0.163-3.118,0.282
	c0.263,1.105,0.744,2.132,1.409,3.039c0.563,0.846,1.325,1.568,2.171,2.13c1.009,0.685,2.11,1.169,3.355,1.369
	c0.485,0.121,1.006,0.159,1.529,0.159s1.029-0.038,1.55-0.142c1.229-0.218,2.37-0.702,3.361-1.387
	C361.721,132.904,360.993,132.16,360.352,131.477 M360.352,131.477c-0.383,0.221-0.785,0.383-1.207,0.502
	c-0.503,0.141-1.005,0.222-1.55,0.222c-0.539,0-1.045-0.082-1.527-0.222c-0.442-0.119-0.847-0.282-1.227-0.502
	c-0.906-0.504-1.649-1.267-2.152-2.171c-0.181-0.323-0.321-0.646-0.441-1.008c-1.045,0.063-2.094,0.163-3.118,0.282
	c0.263,1.105,0.744,2.132,1.409,3.039c0.563,0.846,1.325,1.568,2.171,2.13c1.009,0.685,2.11,1.169,3.355,1.369
	c0.485,0.121,1.006,0.159,1.529,0.159s1.029-0.038,1.55-0.142c1.229-0.218,2.37-0.702,3.361-1.387
	C361.721,132.904,360.993,132.16,360.352,131.477 M360.352,131.477c-0.383,0.221-0.785,0.383-1.207,0.502
	c-0.503,0.141-1.005,0.222-1.55,0.222c-0.539,0-1.045-0.082-1.527-0.222c-0.442-0.119-0.847-0.282-1.227-0.502
	c-0.906-0.504-1.649-1.267-2.152-2.171c-0.181-0.323-0.321-0.646-0.441-1.008c-1.045,0.063-2.094,0.163-3.118,0.282
	c0.263,1.105,0.744,2.132,1.409,3.039c0.563,0.846,1.325,1.568,2.171,2.13c1.009,0.685,2.11,1.169,3.355,1.369
	c0.485,0.121,1.006,0.159,1.529,0.159s1.029-0.038,1.55-0.142c1.229-0.218,2.37-0.702,3.361-1.387
	C361.721,132.904,360.993,132.16,360.352,131.477 M360.352,131.477c-0.383,0.221-0.785,0.383-1.207,0.502
	c-0.503,0.141-1.005,0.222-1.55,0.222c-0.539,0-1.045-0.082-1.527-0.222c-0.442-0.119-0.847-0.282-1.227-0.502
	c-0.906-0.504-1.649-1.267-2.152-2.171c-0.181-0.323-0.321-0.646-0.441-1.008c-1.045,0.063-2.094,0.163-3.118,0.282
	c0.263,1.105,0.744,2.132,1.409,3.039c0.563,0.846,1.325,1.568,2.171,2.13c1.009,0.685,2.11,1.169,3.355,1.369
	c0.485,0.121,1.006,0.159,1.529,0.159s1.029-0.038,1.55-0.142c1.229-0.218,2.37-0.702,3.361-1.387
	C361.721,132.904,360.993,132.16,360.352,131.477 M360.352,131.477c-0.383,0.221-0.785,0.383-1.207,0.502
	c-0.503,0.141-1.005,0.222-1.55,0.222c-0.539,0-1.045-0.082-1.527-0.222c-0.442-0.119-0.847-0.282-1.227-0.502
	c-0.906-0.504-1.649-1.267-2.152-2.171c-0.181-0.323-0.321-0.646-0.441-1.008c-1.045,0.063-2.094,0.163-3.118,0.282
	c0.263,1.105,0.744,2.132,1.409,3.039c0.563,0.846,1.325,1.568,2.171,2.13c1.009,0.685,2.11,1.169,3.355,1.369
	c0.485,0.121,1.006,0.159,1.529,0.159s1.029-0.038,1.55-0.142c1.229-0.218,2.37-0.702,3.361-1.387
	C361.721,132.904,360.993,132.16,360.352,131.477"/>
<path fill="#0B9D49" d="M359.144,197.188c-0.521-0.104-1.026-0.145-1.547-0.145c-0.526,0-1.047,0.041-1.532,0.145
	c-3.396,0.58-6.131,3.196-6.914,6.533c-0.163,0.646-0.246,1.33-0.246,2.013c0,0.685,0.083,1.366,0.246,2.013
	c0.783,3.357,3.518,5.951,6.914,6.559c0.485,0.075,1.006,0.117,1.532,0.117c0.521,0,1.026-0.042,1.547-0.117
	c4.062-0.727,7.162-4.285,7.162-8.571C366.306,201.468,363.205,197.891,359.144,197.188 M359.144,211.143
	c-0.506,0.142-1.004,0.201-1.547,0.201c-0.545,0-1.047-0.06-1.532-0.201c-1.705-0.48-3.093-1.771-3.717-3.44
	c-0.243-0.603-0.365-1.265-0.365-1.97c0-0.703,0.122-1.366,0.365-1.971c0.624-1.669,2.012-2.957,3.717-3.438
	c0.485-0.122,0.987-0.202,1.532-0.202c0.543,0,1.041,0.081,1.547,0.202c2.335,0.663,4.084,2.835,4.084,5.408
	S361.479,210.48,359.144,211.143"/>
<path fill="#0B9D49" d="M359.144,276.571c-0.506-0.083-1.026-0.14-1.547-0.14c-0.526,0-1.047,0.057-1.532,0.14
	c-1.224,0.221-2.347,0.684-3.338,1.37c0.784,0.842,1.511,1.607,2.153,2.288c0.361-0.199,0.763-0.38,1.185-0.5
	c0.484-0.143,0.987-0.202,1.532-0.202c0.542,0,1.041,0.06,1.547,0.202c0.404,0.12,0.806,0.282,1.163,0.483
	c0.668-0.686,1.369-1.43,2.135-2.271C361.479,277.254,360.352,276.792,359.144,276.571 M359.144,276.571
	c-0.506-0.083-1.026-0.14-1.547-0.14c-0.526,0-1.047,0.057-1.532,0.14c-1.224,0.221-2.347,0.684-3.338,1.37
	c0.784,0.842,1.511,1.607,2.153,2.288c0.361-0.199,0.763-0.38,1.185-0.5c0.484-0.143,0.987-0.202,1.532-0.202
	c0.542,0,1.041,0.06,1.547,0.202c0.404,0.12,0.806,0.282,1.163,0.483c0.668-0.686,1.369-1.43,2.135-2.271
	C361.479,277.254,360.352,276.792,359.144,276.571 M359.144,276.571c-0.506-0.083-1.026-0.14-1.547-0.14
	c-0.526,0-1.047,0.057-1.532,0.14c-1.224,0.221-2.347,0.684-3.338,1.37c0.784,0.842,1.511,1.607,2.153,2.288
	c0.361-0.199,0.763-0.38,1.185-0.5c0.484-0.143,0.987-0.202,1.532-0.202c0.542,0,1.041,0.06,1.547,0.202
	c0.404,0.12,0.806,0.282,1.163,0.483c0.668-0.686,1.369-1.43,2.135-2.271C361.479,277.254,360.352,276.792,359.144,276.571
	 M359.144,276.571c-0.506-0.083-1.026-0.14-1.547-0.14c-0.526,0-1.047,0.057-1.532,0.14c-1.224,0.221-2.347,0.684-3.338,1.37
	c0.784,0.842,1.511,1.607,2.153,2.288c0.361-0.199,0.763-0.38,1.185-0.5c0.484-0.143,0.987-0.202,1.532-0.202
	c0.542,0,1.041,0.06,1.547,0.202c0.404,0.12,0.806,0.282,1.163,0.483c0.668-0.686,1.369-1.43,2.135-2.271
	C361.479,277.254,360.352,276.792,359.144,276.571 M359.144,276.571v3.158c0.404,0.12,0.807,0.282,1.163,0.483
	c0.669-0.686,1.37-1.43,2.137-2.271C361.479,277.254,360.352,276.792,359.144,276.571 M359.144,276.571
	c-0.506-0.083-1.026-0.14-1.547-0.14c-0.526,0-1.047,0.057-1.532,0.14c-1.224,0.221-2.347,0.684-3.338,1.37
	c0.784,0.842,1.511,1.607,2.153,2.288c0.361-0.199,0.763-0.38,1.185-0.5c0.484-0.143,0.987-0.202,1.532-0.202
	c0.542,0,1.041,0.06,1.547,0.202c0.404,0.12,0.806,0.282,1.163,0.483c0.668-0.686,1.369-1.43,2.135-2.271
	C361.479,277.254,360.352,276.792,359.144,276.571 M359.144,276.571c-0.506-0.083-1.026-0.14-1.547-0.14
	c-0.526,0-1.047,0.057-1.532,0.14c-1.224,0.221-2.347,0.684-3.338,1.37c0.784,0.842,1.511,1.607,2.153,2.288
	c0.361-0.199,0.763-0.38,1.185-0.5c0.484-0.143,0.987-0.202,1.532-0.202c0.542,0,1.041,0.06,1.547,0.202
	c0.404,0.12,0.806,0.282,1.163,0.483c0.668-0.686,1.369-1.43,2.135-2.271C361.479,277.254,360.352,276.792,359.144,276.571
	 M359.144,276.571c-0.506-0.083-1.026-0.14-1.547-0.14c-0.526,0-1.047,0.057-1.532,0.14c-1.224,0.221-2.347,0.684-3.338,1.37
	c0.784,0.842,1.511,1.607,2.153,2.288c0.361-0.199,0.763-0.38,1.185-0.5c0.484-0.143,0.987-0.202,1.532-0.202
	c0.542,0,1.041,0.06,1.547,0.202c0.404,0.12,0.806,0.282,1.163,0.483c0.668-0.686,1.369-1.43,2.135-2.271
	C361.479,277.254,360.352,276.792,359.144,276.571 M359.144,276.571c-0.506-0.083-1.026-0.14-1.547-0.14
	c-0.526,0-1.047,0.057-1.532,0.14c-1.224,0.221-2.347,0.684-3.338,1.37c0.784,0.842,1.511,1.607,2.153,2.288
	c0.361-0.199,0.763-0.38,1.185-0.5c0.484-0.143,0.987-0.202,1.532-0.202c0.542,0,1.041,0.06,1.547,0.202
	c0.404,0.12,0.806,0.282,1.163,0.483c0.668-0.686,1.369-1.43,2.135-2.271C361.479,277.254,360.352,276.792,359.144,276.571
	 M359.144,276.571c-0.506-0.083-1.026-0.14-1.547-0.14c-0.526,0-1.047,0.057-1.532,0.14c-1.224,0.221-2.347,0.684-3.338,1.37
	c0.784,0.842,1.511,1.607,2.153,2.288c0.361-0.199,0.763-0.38,1.185-0.5c0.484-0.143,0.987-0.202,1.532-0.202
	c0.542,0,1.041,0.06,1.547,0.202c0.404,0.12,0.806,0.282,1.163,0.483c0.668-0.686,1.369-1.43,2.135-2.271
	C361.479,277.254,360.352,276.792,359.144,276.571 M359.144,276.571c-0.506-0.083-1.026-0.14-1.547-0.14
	c-0.526,0-1.047,0.057-1.532,0.14c-1.224,0.221-2.347,0.684-3.338,1.37c0.784,0.842,1.511,1.607,2.153,2.288
	c0.361-0.199,0.763-0.38,1.185-0.5c0.484-0.143,0.987-0.202,1.532-0.202c0.542,0,1.041,0.06,1.547,0.202
	c0.404,0.12,0.806,0.282,1.163,0.483c0.668-0.686,1.369-1.43,2.135-2.271C361.479,277.254,360.352,276.792,359.144,276.571
	 M359.144,276.571c-0.506-0.083-1.026-0.14-1.547-0.14c-0.526,0-1.047,0.057-1.532,0.14c-1.224,0.221-2.347,0.684-3.338,1.37
	c0.784,0.842,1.511,1.607,2.153,2.288c0.361-0.199,0.763-0.38,1.185-0.5c0.484-0.143,0.987-0.202,1.532-0.202
	c0.542,0,1.041,0.06,1.547,0.202c0.404,0.12,0.806,0.282,1.163,0.483c0.668-0.686,1.369-1.43,2.135-2.271
	C361.479,277.254,360.352,276.792,359.144,276.571 M359.144,276.571c-0.506-0.083-1.026-0.14-1.547-0.14
	c-0.526,0-1.047,0.057-1.532,0.14c-1.224,0.221-2.347,0.684-3.338,1.37c0.784,0.842,1.511,1.607,2.153,2.288
	c0.361-0.199,0.763-0.38,1.185-0.5c0.484-0.143,0.987-0.202,1.532-0.202c0.542,0,1.041,0.06,1.547,0.202
	c0.404,0.12,0.806,0.282,1.163,0.483c0.668-0.686,1.369-1.43,2.135-2.271C361.479,277.254,360.352,276.792,359.144,276.571
	 M359.144,276.571v3.158c0.404,0.12,0.807,0.282,1.163,0.483c0.669-0.686,1.37-1.43,2.137-2.271
	C361.479,277.254,360.352,276.792,359.144,276.571 M359.144,276.571v3.158c0.404,0.12,0.807,0.282,1.163,0.483
	c0.669-0.686,1.37-1.43,2.137-2.271C361.479,277.254,360.352,276.792,359.144,276.571 M359.144,276.571v3.158
	c0.404,0.12,0.807,0.282,1.163,0.483c0.669-0.686,1.37-1.43,2.137-2.271C361.479,277.254,360.352,276.792,359.144,276.571
	 M366.046,283.167v-0.039c-0.265-1.107-0.727-2.173-1.41-3.078c-0.581-0.822-1.33-1.547-2.192-2.108
	c-0.965-0.687-2.092-1.148-3.299-1.37c-0.505-0.082-1.026-0.14-1.547-0.14c-0.527,0-1.048,0.058-1.531,0.14
	c-1.226,0.222-2.349,0.684-3.339,1.37c-0.843,0.562-1.587,1.286-2.172,2.13c-0.683,0.903-1.168,1.949-1.429,3.057v0.019
	c-0.14,0.666-0.223,1.288-0.223,1.995c0,0.34,0,0.702,0.083,1.023v0.04c0.524,4.285,4.184,7.624,8.61,7.624
	c4.422,0,8.102-3.339,8.628-7.624v-0.022c0.058-0.339,0.08-0.679,0.08-1.041C366.306,284.456,366.226,283.813,366.046,283.167
	 M363.046,286.486c-0.603,2.454-2.814,4.267-5.448,4.267c-2.633,0-4.849-1.813-5.456-4.267v-0.04
	c-0.094-0.4-0.158-0.863-0.158-1.305c0-0.605,0.082-1.17,0.264-1.712v-0.021c0.12-0.34,0.281-0.68,0.463-1.003
	c0.481-0.929,1.247-1.671,2.172-2.176c0.36-0.199,0.762-0.38,1.186-0.5c0.482-0.143,0.985-0.202,1.53-0.202
	c0.542,0,1.04,0.06,1.547,0.202c0.404,0.12,0.806,0.282,1.163,0.483v0.017c0.907,0.487,1.673,1.247,2.197,2.153
	c0.18,0.322,0.321,0.686,0.463,1.025v0.042c0.163,0.521,0.26,1.104,0.26,1.691c0,0.462-0.079,0.904-0.181,1.323L363.046,286.486
	L363.046,286.486z M359.144,276.571v3.158c0.404,0.12,0.807,0.282,1.163,0.483c0.669-0.686,1.37-1.43,2.137-2.271
	C361.479,277.254,360.352,276.792,359.144,276.571 M359.144,276.571v3.158c0.404,0.12,0.807,0.282,1.163,0.483
	c0.669-0.686,1.37-1.43,2.137-2.271C361.479,277.254,360.352,276.792,359.144,276.571 M359.144,276.571v3.158
	c0.404,0.12,0.807,0.282,1.163,0.483c0.669-0.686,1.37-1.43,2.137-2.271C361.479,277.254,360.352,276.792,359.144,276.571
	 M359.144,276.571c-0.506-0.083-1.026-0.14-1.547-0.14c-0.526,0-1.047,0.057-1.532,0.14c-1.224,0.221-2.347,0.684-3.338,1.37
	c0.784,0.842,1.511,1.607,2.153,2.288c0.361-0.199,0.763-0.38,1.185-0.5c0.484-0.143,0.987-0.202,1.532-0.202
	c0.542,0,1.041,0.06,1.547,0.202c0.404,0.12,0.806,0.282,1.163,0.483c0.668-0.686,1.369-1.43,2.135-2.271
	C361.479,277.254,360.352,276.792,359.144,276.571 M359.144,276.571c-0.506-0.083-1.026-0.14-1.547-0.14
	c-0.526,0-1.047,0.057-1.532,0.14c-1.224,0.221-2.347,0.684-3.338,1.37c0.784,0.842,1.511,1.607,2.153,2.288
	c0.361-0.199,0.763-0.38,1.185-0.5c0.484-0.143,0.987-0.202,1.532-0.202c0.542,0,1.041,0.06,1.547,0.202
	c0.404,0.12,0.806,0.282,1.163,0.483c0.668-0.686,1.369-1.43,2.135-2.271C361.479,277.254,360.352,276.792,359.144,276.571
	 M359.144,276.571c-0.506-0.083-1.026-0.14-1.547-0.14c-0.526,0-1.047,0.057-1.532,0.14c-1.224,0.221-2.347,0.684-3.338,1.37
	c0.784,0.842,1.511,1.607,2.153,2.288c0.361-0.199,0.763-0.38,1.185-0.5c0.484-0.143,0.987-0.202,1.532-0.202
	c0.542,0,1.041,0.06,1.547,0.202c0.404,0.12,0.806,0.282,1.163,0.483c0.668-0.686,1.369-1.43,2.135-2.271
	C361.479,277.254,360.352,276.792,359.144,276.571 M359.144,276.571c-0.506-0.083-1.026-0.14-1.547-0.14
	c-0.526,0-1.047,0.057-1.532,0.14c-1.224,0.221-2.347,0.684-3.338,1.37c0.784,0.842,1.511,1.607,2.153,2.288
	c0.361-0.199,0.763-0.38,1.185-0.5c0.484-0.143,0.987-0.202,1.532-0.202c0.542,0,1.041,0.06,1.547,0.202
	c0.404,0.12,0.806,0.282,1.163,0.483c0.668-0.686,1.369-1.43,2.135-2.271C361.479,277.254,360.352,276.792,359.144,276.571
	 M359.144,276.571c-0.506-0.083-1.026-0.14-1.547-0.14c-0.526,0-1.047,0.057-1.532,0.14c-1.224,0.221-2.347,0.684-3.338,1.37
	c0.784,0.842,1.511,1.607,2.153,2.288c0.361-0.199,0.763-0.38,1.185-0.5c0.484-0.143,0.987-0.202,1.532-0.202
	c0.542,0,1.041,0.06,1.547,0.202c0.404,0.12,0.806,0.282,1.163,0.483c0.668-0.686,1.369-1.43,2.135-2.271
	C361.479,277.254,360.352,276.792,359.144,276.571 M359.144,276.571c-0.506-0.083-1.026-0.14-1.547-0.14
	c-0.526,0-1.047,0.057-1.532,0.14c-1.224,0.221-2.347,0.684-3.338,1.37c0.784,0.842,1.511,1.607,2.153,2.288
	c0.361-0.199,0.763-0.38,1.185-0.5c0.484-0.143,0.987-0.202,1.532-0.202c0.542,0,1.041,0.06,1.547,0.202
	c0.404,0.12,0.806,0.282,1.163,0.483c0.668-0.686,1.369-1.43,2.135-2.271C361.479,277.254,360.352,276.792,359.144,276.571
	 M359.144,276.571c-0.506-0.083-1.026-0.14-1.547-0.14c-0.526,0-1.047,0.057-1.532,0.14c-1.224,0.221-2.347,0.684-3.338,1.37
	c0.784,0.842,1.511,1.607,2.153,2.288c0.361-0.199,0.763-0.38,1.185-0.5c0.484-0.143,0.987-0.202,1.532-0.202
	c0.542,0,1.041,0.06,1.547,0.202c0.404,0.12,0.806,0.282,1.163,0.483c0.668-0.686,1.369-1.43,2.135-2.271
	C361.479,277.254,360.352,276.792,359.144,276.571 M359.144,276.571v3.158c0.404,0.12,0.807,0.282,1.163,0.483
	c0.669-0.686,1.37-1.43,2.137-2.271C361.479,277.254,360.352,276.792,359.144,276.571 M359.144,276.571v3.158
	c0.404,0.12,0.807,0.282,1.163,0.483c0.669-0.686,1.37-1.43,2.137-2.271C361.479,277.254,360.352,276.792,359.144,276.571
	 M359.144,276.571c-0.506-0.083-1.026-0.14-1.547-0.14c-0.526,0-1.047,0.057-1.532,0.14c-1.224,0.221-2.347,0.684-3.338,1.37
	c0.784,0.842,1.511,1.607,2.153,2.288c0.361-0.199,0.763-0.38,1.185-0.5c0.484-0.143,0.987-0.202,1.532-0.202
	c0.542,0,1.041,0.06,1.547,0.202c0.404,0.12,0.806,0.282,1.163,0.483c0.668-0.686,1.369-1.43,2.135-2.271
	C361.479,277.254,360.352,276.792,359.144,276.571 M359.144,276.571c-0.506-0.083-1.026-0.14-1.547-0.14
	c-0.526,0-1.047,0.057-1.532,0.14c-1.224,0.221-2.347,0.684-3.338,1.37c0.784,0.842,1.511,1.607,2.153,2.288
	c0.361-0.199,0.763-0.38,1.185-0.5c0.484-0.143,0.987-0.202,1.532-0.202c0.542,0,1.041,0.06,1.547,0.202
	c0.404,0.12,0.806,0.282,1.163,0.483c0.668-0.686,1.369-1.43,2.135-2.271C361.479,277.254,360.352,276.792,359.144,276.571
	 M359.144,276.571c-0.506-0.083-1.026-0.14-1.547-0.14c-0.526,0-1.047,0.057-1.532,0.14c-1.224,0.221-2.347,0.684-3.338,1.37
	c0.784,0.842,1.511,1.607,2.153,2.288c0.361-0.199,0.763-0.38,1.185-0.5c0.484-0.143,0.987-0.202,1.532-0.202
	c0.542,0,1.041,0.06,1.547,0.202c0.404,0.12,0.806,0.282,1.163,0.483c0.668-0.686,1.369-1.43,2.135-2.271
	C361.479,277.254,360.352,276.792,359.144,276.571"/>
<path fill="#0B9D49" d="M354.88,280.231c-0.925,0.503-1.691,1.247-2.171,2.172c-0.661-0.702-1.37-1.468-2.15-2.331
	c-5.835-6.417-14.864-17.42-22.146-31.135c-0.705-1.311-1.391-2.658-2.053-4.021c-5.451-11.146-9.535-23.837-9.893-37.171
	c-0.048-0.667-0.048-1.329-0.048-2.014c0-0.662,0-1.346,0.048-2.009c0.357-13.233,4.4-25.848,9.792-36.908
	c0.661-1.369,1.348-2.715,2.034-4.021c7.317-13.738,16.391-24.761,22.244-31.176c0.766-0.843,1.484-1.629,2.153-2.313
	c0.5,0.907,1.247,1.668,2.147,2.171c-0.645,0.685-1.346,1.427-2.129,2.271c-3.7,4.045-8.708,9.956-13.697,17.239
	c-2.476,3.6-5.089,7.745-7.542,12.31c-0.624,1.147-1.247,2.313-1.832,3.518c-5.409,10.819-9.792,23.715-10.095,37.329v0.021
	c-0.043,0.525-0.043,1.045-0.043,1.567c0,0.544,0,1.048,0.043,1.573v0.019c0.303,13.517,4.582,26.388,10.214,37.593
	c0.586,1.164,1.189,2.313,1.814,3.437c7.017,12.996,15.588,23.433,21.156,29.586C353.511,278.784,354.237,279.548,354.88,280.231"/>
<path fill="#0B9D49" d="M384.889,252.355c-0.502,0.925-1.044,1.831-1.568,2.695c-6.516,10.861-13.742,19.589-18.685,24.999
	c-0.767,0.865-1.489,1.631-2.131,2.333c-0.524-0.904-1.289-1.666-2.197-2.153v-0.017c0.668-0.686,1.369-1.43,2.136-2.271
	c4.822-5.315,11.867-13.84,18.243-24.44c0.541-0.884,1.062-1.809,1.586-2.715C382.977,251.529,383.884,252.091,384.889,252.355"/>
<path fill="#0B9D49" d="M384.99,159.354c-1.008,0.239-1.912,0.784-2.616,1.486c-0.524-0.925-1.045-1.828-1.586-2.715
	c-1.555-2.572-3.122-4.988-4.647-7.197c-4.968-7.242-9.959-13.135-13.636-17.178c-0.789-0.846-1.512-1.588-2.154-2.273
	c0.903-0.502,1.651-1.265,2.154-2.153c0.661,0.663,1.388,1.451,2.149,2.294c4.968,5.449,12.209,14.161,18.75,25
	C383.942,157.521,384.488,158.429,384.99,159.354"/>
<path fill="#0B9D49" d="M398.788,205.732c0,0.423,0,0.824-0.021,1.247c-0.202,11.585-3.237,22.688-7.544,32.726
	c-0.399,0.964-0.843,1.928-1.287,2.876c-0.784-0.646-1.728-1.087-2.793-1.229c0.441-0.942,0.886-1.91,1.286-2.896
	c4.065-9.474,6.916-19.87,7.22-30.71c0.04-0.666,0.04-1.348,0.04-2.014c0-0.662-0.019-1.347-0.04-2.008
	c-0.321-10.884-3.221-21.262-7.141-30.493c-0.401-0.987-0.82-1.952-1.269-2.897c1.049-0.142,2.009-0.603,2.775-1.247
	c0.447,0.947,0.867,1.91,1.29,2.876c4.245,9.976,7.26,20.997,7.462,32.523C398.788,204.89,398.788,205.311,398.788,205.732"/>
<path fill="#0B9D49" d="M359.144,131.979v68.343c-0.506-0.121-1.004-0.199-1.547-0.199c-0.545,0-1.047,0.078-1.532,0.199v-68.343
	c0.485,0.141,0.987,0.224,1.532,0.224C358.14,132.203,358.638,132.12,359.144,131.979"/>
<path fill="#0B9D49" d="M359.144,211.143v68.587c-0.506-0.141-1.004-0.202-1.547-0.202c-0.545,0-1.047,0.062-1.532,0.202v-68.587
	c0.485,0.142,0.987,0.201,1.532,0.201C358.14,211.343,358.638,211.283,359.144,211.143"/>
<path fill="#0B9D49" d="M351.983,205.732c0,0.703,0.121,1.37,0.365,1.971c-0.124,0.024-0.244,0.043-0.365,0.043h-23.712
	c-1.104,0-2.015-0.907-2.015-2.014c0-1.107,0.91-2.009,2.015-2.009h23.712c0.121,0,0.241,0.019,0.365,0.036
	C352.104,204.364,351.983,205.028,351.983,205.732"/>
<path fill="#0B9D49" d="M359.144,163.537v2.553c-0.382,0.443-0.925,0.725-1.547,0.725h-18.081c-1.104,0-2.015-0.907-2.015-2.013
	s0.91-2.009,2.015-2.009h18.081C358.219,162.793,358.782,163.075,359.144,163.537"/>
<path fill="#0B9D49" d="M380.947,163.335v2.938c-0.361,0.34-0.847,0.541-1.37,0.541h-12.225c-1.112,0-2.011-0.903-2.011-2.009
	c0-1.107,0.898-2.011,2.011-2.011h12.225C380.101,162.793,380.586,162.994,380.947,163.335"/>
<path fill="#0B9D49" d="M380.99,245.216v0.019l-0.101,2.959c-0.361,0.299-0.81,0.48-1.313,0.48H367.35
	c-1.105,0-2.008-0.906-2.008-2.009c0-1.109,0.902-2.013,2.008-2.013h12.228C380.123,244.652,380.625,244.875,380.99,245.216"/>
<path fill="#0B9D49" d="M359.144,245.396v2.553c-0.382,0.442-0.925,0.725-1.547,0.725h-18.081c-1.104,0-2.015-0.904-2.015-2.009
	c0-1.109,0.91-2.013,2.015-2.013h18.081C358.219,244.652,358.782,244.934,359.144,245.396"/>
<path fill="#0B9D49" d="M319.542,204.144v3.18c-0.339,0.262-0.782,0.422-1.246,0.422h-23.715c-1.104,0-2.012-0.902-2.012-2.014
	c0-1.105,0.906-2.009,2.012-2.009h23.715C318.76,203.722,319.203,203.881,319.542,204.144"/>
<path fill="#0B9D49" d="M331.47,163.295c-0.621,1.146-1.247,2.313-1.831,3.518h-23.212c-1.106,0-2.009-0.901-2.009-2.009
	c0-1.105,0.902-2.014,2.009-2.014h23.714C330.642,162.79,331.105,162.974,331.47,163.295"/>
<path fill="#0B9D49" d="M331.567,248.352c-0.36,0.362-0.882,0.586-1.427,0.586H306.43c-1.109,0-2.013-0.907-2.013-2.013
	c0-1.106,0.903-2.013,2.013-2.013h23.331C330.339,246.081,330.945,247.225,331.567,248.352"/>
<path fill="#0B9D49" d="M398.768,204.486v2.493c-0.361,0.463-0.925,0.767-1.569,0.767h-22.827c-1.107,0-2.009-0.906-2.009-2.014
	c0-1.105,0.901-2.012,2.009-2.012h22.827C397.843,203.721,398.406,204.024,398.768,204.486"/>
<path fill="#0B9D49" d="M431.51,204.347c-0.158,0.523-0.241,1.065-0.241,1.628c0,0.424,0.039,0.824,0.163,1.229v0.018
	c-0.365,0.32-0.847,0.525-1.367,0.525h-19.612c-1.104,0-2.012-0.906-2.012-2.014s0.907-2.008,2.012-2.008h19.612
	c0.099,0,0.217,0,0.318,0.035c0.063,0,0.102,0,0.145,0.021c0.182,0.042,0.341,0.102,0.503,0.2c0.058,0.022,0.142,0.061,0.199,0.122
	c0.058,0.041,0.122,0.083,0.18,0.142l0.084,0.083h0.017V204.347L431.51,204.347z"/>
<path fill="#0B9D49" d="M427.188,164.803c-0.063,1.048-0.925,1.874-1.994,1.874h-21.7c-1.105,0-2.009-0.908-2.009-2.014
	c0-1.107,0.903-2.012,2.009-2.012h21.7c0.26,0,0.506,0.063,0.745,0.143l1.186,1.933
	C427.146,164.744,427.168,164.763,427.188,164.803"/>
<path fill="#0B9D49" d="M427.207,246.665c0,0.076,0,0.141-0.019,0.198c-0.283,0.504-0.584,0.984-0.906,1.493
	c-0.321,0.198-0.684,0.317-1.083,0.317h-21.705c-1.105,0-2.012-0.904-2.012-2.009c0-1.107,0.906-2.013,2.012-2.013h21.705
	C426.301,244.652,427.207,245.557,427.207,246.665"/>
<path fill="#0B9D49" d="M280.281,197.506c-0.124,1.026-0.221,2.055-0.283,3.078c-0.521-0.144-1.104-0.238-1.69-0.238
	c-0.463,0-0.882,0.058-1.326,0.178c0.063-1.066,0.142-2.132,0.265-3.177c0.361-0.062,0.701-0.079,1.062-0.079
	C278.995,197.268,279.637,197.347,280.281,197.506"/>
<path fill="#0B9D49" d="M352.247,128.257c-1.049,0.062-2.094,0.161-3.118,0.304c-0.402,0.02-0.788,0.079-1.186,0.119
	c-1.59,0.201-3.158,0.444-4.712,0.726c-1.563,0.304-3.094,0.643-4.625,1.024c-1.524,0.381-3.014,0.806-4.523,1.288
	c-1.467,0.463-2.935,0.983-4.387,1.55c-1.445,0.538-2.873,1.146-4.278,1.787c-1.41,0.643-2.774,1.328-4.147,2.054
	c-1.345,0.701-2.697,1.467-4.001,2.271c-1.312,0.784-2.594,1.628-3.841,2.493c-1.269,0.865-2.497,1.772-3.682,2.715
	c-1.21,0.945-2.393,1.909-3.541,2.916c-1.123,1.026-2.251,2.054-3.335,3.138c-0.567,0.544-1.106,1.125-1.651,1.691h-0.019
	c0,0-1.312,0.142-1.851-0.403c-0.566-0.544-0.482-1.469-0.482-1.469c1.021-1.107,2.087-2.173,3.193-3.219
	c1.106-1.043,2.237-2.069,3.403-3.034c1.146-0.988,2.335-1.955,3.556-2.858c1.212-0.925,2.457-1.812,3.726-2.655
	c1.269-0.844,2.551-1.669,3.862-2.432c1.323-0.784,2.652-1.532,4.021-2.233c1.349-0.704,2.736-1.369,4.146-1.991
	c1.404-0.622,2.832-1.229,4.277-1.772c1.453-0.54,2.898-1.044,4.387-1.507c1.489-0.484,3-0.905,4.506-1.288
	c1.528-0.379,3.058-0.724,4.607-1.004c1.546-0.3,3.118-0.542,4.704-0.744c0.585-0.082,1.167-0.142,1.73-0.201
	c1.021-0.121,2.03-0.204,3.039-0.279h0.12c-0.099,0.439-0.163,0.862-0.163,1.324C351.983,127.152,352.065,127.733,352.247,128.257"
	/>
<path fill="#0B9D49" d="M438.23,200.523c-0.422-0.121-0.884-0.181-1.347-0.181c-0.585,0-1.149,0.102-1.669,0.241
	c-0.063-1.025-0.164-2.05-0.265-3.074c-1.186-11.146-4.77-21.605-10.178-30.832c-0.803-1.373-1.651-2.718-2.533-4.027
	c-12.47-18.625-32.805-31.575-56.197-34.11c-1.022-0.123-2.049-0.204-3.074-0.282c0.158-0.525,0.26-1.105,0.26-1.691
	c0-0.462-0.081-0.883-0.182-1.328c1.063,0.081,2.133,0.163,3.177,0.281c25.122,2.678,46.843,16.916,59.717,37.269l1.186,1.932
	c0.021,0.022,0.043,0.042,0.063,0.082c5.75,9.712,9.533,20.757,10.779,32.542C438.069,198.393,438.167,199.459,438.23,200.523"/>
<path fill="#0B9D49" d="M351.983,285.14c0,0.443,0.064,0.906,0.158,1.307c-1.063-0.06-2.106-0.141-3.154-0.281
	c-34.771-3.682-63.034-29.525-70.333-63.114c-0.426-1.992-0.784-4.005-1.087-6.055c-0.123-0.806-0.203-1.607-0.282-2.412
	c-0.123-1.046-0.221-2.112-0.282-3.16c0.423,0.102,0.843,0.163,1.305,0.163c0.586,0,1.17-0.103,1.713-0.283
	c0.063,1.046,0.163,2.071,0.281,3.118c0.08,0.786,0.182,1.55,0.283,2.336c0.299,2.009,0.664,4.003,1.084,5.949
	c7.14,32.124,34.173,56.842,67.458,60.439c1.026,0.143,2.071,0.223,3.119,0.283C352.065,283.975,351.983,284.536,351.983,285.14"/>
<path fill="#0B9D49" d="M438.21,211.424c-0.061,1.066-0.161,2.114-0.281,3.162c-1.25,11.684-5.008,22.625-10.742,32.277
	c-0.281,0.504-0.582,0.984-0.903,1.488c-12.813,20.658-34.716,35.14-60.056,37.831c-1.048,0.123-2.114,0.205-3.18,0.282
	c0.102-0.421,0.181-0.861,0.181-1.323c0-0.587-0.102-1.17-0.26-1.691c1.043-0.082,2.069-0.163,3.074-0.283
	c23.556-2.552,43.983-15.669,56.457-34.493c0.864-1.306,1.69-2.653,2.497-4.021c5.251-9.073,8.708-19.308,9.915-30.229
	c0.119-1.025,0.221-2.053,0.301-3.098c0.541,0.161,1.087,0.26,1.672,0.26C437.347,211.585,437.787,211.525,438.21,211.424"/>
<path fill="#0B9D49" d="M288.447,170.272c-0.481,0.925-0.943,1.873-1.367,2.815c-0.343,0.726-0.665,1.449-0.985,2.173
	c-0.784,1.831-1.511,3.705-2.154,5.612c-0.903,2.718-1.688,5.492-2.313,8.347c0,0-0.582,0.583-1.485,0.482
	c-0.946-0.098-1.51-0.825-1.51-0.825c0.643-3.155,1.524-6.252,2.533-9.25c0.66-1.932,1.408-3.841,2.229-5.694
	c0.329-0.74,0.65-1.486,1.008-2.207c0.423-0.971,0.886-1.916,1.37-2.841C286.499,169.572,287.424,170.052,288.447,170.272"/>
<path fill="#0B9D49" d="M295.811,158.71c-0.646,0.823-1.25,1.65-1.85,2.494c-0.647-0.767-1.511-1.37-2.475-1.71
	c0.603-0.867,1.225-1.709,1.869-2.557C294.278,157.381,295.105,157.966,295.811,158.71"/>
<path fill="#E4F2FC" d="M202.455,204.095"/>
<path fill="#B1D465" d="M297.157,199.249c-2.516,0-4.571,2.057-4.571,4.573c0,2.512,2.056,4.572,4.571,4.572 M191.215,242.415
	c-0.963-4.437-1.786-8.966-2.469-13.536c-0.234-1.784-0.46-3.521-0.64-5.305h0.088c8.688-2.057,15.185-9.875,15.185-19.203
	c0-9.376-6.543-17.242-15.272-19.255h-0.048c-1.466-0.363-2.925-0.547-4.481-0.547c-0.825,0-1.6,0.047-2.424,0.184h-0.043
	c-9.741,1.188-17.286,9.514-17.286,19.618c0,10.104,7.589,18.427,17.373,19.567h0.047c0.185,1.832,0.366,3.659,0.641,5.488
	c0.685,4.663,1.508,9.234,2.469,13.763 M297.159,199.249c-2.516,0-4.573,2.057-4.573,4.573c0,2.512,2.058,4.572,4.573,4.572
	 M297.157,199.251c-2.516,0-4.571,2.056-4.571,4.571c0,2.513,2.056,4.572,4.571,4.572"/>
<path fill="#2887C8" d="M188.105,185.116h-0.046c-1.465-0.362-2.928-0.547-4.484-0.547c-0.82,0-1.6,0.047-2.42,0.185h-0.047
	c-9.74,1.187-17.286,9.513-17.286,19.615c0,10.104,7.593,18.429,17.378,19.569h0.043c0.781,0.141,1.556,0.183,2.332,0.183
	c1.559,0,3.114-0.183,4.53-0.547h0.091c8.687-2.057,15.181-9.877,15.181-19.205C203.377,194.995,196.835,187.132,188.105,185.116
	 M187.556,216.485h-0.091c-1.237,0.412-2.562,0.641-3.89,0.641c-1.047,0-2.012-0.136-2.97-0.364h-0.046
	c-5.623-1.37-9.74-6.448-9.74-12.393c0-5.987,4.117-11.065,9.695-12.394h0.045c1.004-0.271,1.969-0.406,3.016-0.406
	c1.328,0,2.652,0.227,3.844,0.544c0.046,0.049,0.046,0.049,0.093,0.049c5.121,1.692,8.868,6.539,8.868,12.207
	C196.38,210.041,192.676,214.842,187.556,216.485"/>
<path fill="#2887C8" d="M297.159,208.395c-2.516,0-4.572-2.06-4.572-4.575s2.057-4.568,4.572-4.568"/>
<path fill="#2887C8" d="M277.313,200.207v7.225c-0.777,0.596-1.784,0.96-2.836,0.96h-53.908c-2.516,0-4.572-2.057-4.572-4.572
	s2.057-4.571,4.572-4.571h53.908C275.529,199.248,276.537,199.616,277.313,200.207"/>
<path fill="#2887C8" d="M188.059,185.116c-0.276,2.333-0.505,4.666-0.64,6.997c-1.188-0.318-2.516-0.547-3.84-0.547
	c-1.054,0-2.015,0.138-3.022,0.413c0.141-2.424,0.32-4.848,0.599-7.226c0.822-0.138,1.599-0.185,2.424-0.185
	C185.13,184.569,186.596,184.754,188.059,185.116"/>
<path fill="#2887C8" d="M184.355,243.191c-0.96-4.526-1.784-9.102-2.468-13.765c-0.277-1.831-0.461-3.659-0.641-5.487
	c-0.276-2.376-0.504-4.802-0.641-7.183c0.961,0.234,1.919,0.369,2.973,0.369c1.324,0,2.652-0.229,3.883-0.641
	c0.141,2.378,0.37,4.709,0.641,7.089c0.184,1.781,0.412,3.521,0.641,5.305c0.688,4.571,1.512,9.1,2.472,13.534"/>
<g>
	<path fill="#FFFFFF" d="M82.229,343.465c2.725,0,4.947,2.216,4.947,4.938"/>
	<path fill="#FFFFFF" d="M87.176,348.402"/>
</g>
<g>
	<path fill="#2887C8" d="M82.229,342.947c3.013,0,5.463,2.447,5.463,5.455"/>
</g>
<g>
	<path fill="#B1D465" d="M73.118,372.484c0,4.652-3.771,8.422-8.418,8.422c-4.649,0-8.418-3.77-8.418-8.422
		c0-4.646,3.769-8.421,8.418-8.421C69.348,364.063,73.118,367.839,73.118,372.484"/>
</g>
<g>
	<path fill="#0B9D49" d="M70.333,372.484c0,3.112-2.527,5.632-5.641,5.632c-3.106,0-5.628-2.52-5.628-5.632
		c0-3.115,2.522-5.626,5.628-5.626C67.808,366.858,70.333,369.369,70.333,372.484"/>
</g>
<g>
	<path fill="#B1D465" d="M45.89,372.484c0,4.652-3.766,8.422-8.416,8.422c-4.65,0-8.42-3.77-8.42-8.422
		c0-4.646,3.769-8.421,8.42-8.421C42.124,364.063,45.89,367.839,45.89,372.484"/>
</g>
<g>
	<path fill="#0B9D49" d="M43.105,372.484c0,3.112-2.522,5.632-5.635,5.632c-3.106,0-5.631-2.52-5.631-5.632
		c0-3.115,2.524-5.626,5.631-5.626C40.583,366.858,43.105,369.369,43.105,372.484"/>
</g>
<g>
	<path fill="#FFFFFF" d="M82.229,266.365c2.725,0.002,4.947,2.228,4.947,4.947"/>
	<path fill="#FFFFFF" d="M87.176,271.313v53.111c0,2.741-2.223,4.942-4.947,4.942"/>
</g>
<g>
	<path fill="#2887C8" d="M82.229,265.849c3.013,0,5.463,2.45,5.463,5.464v53.111c-0.002,3.01-2.451,5.456-5.463,5.456
		 M82.229,328.85c2.444,0,4.431-1.987,4.431-4.426v-53.111c0-2.442-1.989-4.431-4.431-4.431"/>
</g>
<g>
	<path fill="#B1D465" d="M73.118,295.39c0,4.653-3.771,8.419-8.418,8.419c-4.649,0-8.418-3.766-8.418-8.419
		c0-4.646,3.769-8.417,8.418-8.417C69.348,286.973,73.118,290.742,73.118,295.39"/>
</g>
<g>
	<path fill="#0B9D49" d="M70.333,295.39c0,3.116-2.527,5.633-5.641,5.633c-3.106,0-5.628-2.517-5.628-5.633
		c0-3.112,2.522-5.63,5.628-5.63C67.808,289.76,70.333,292.277,70.333,295.39"/>
</g>
<g>
	<path fill="#B1D465" d="M45.89,295.39c0,4.653-3.766,8.419-8.416,8.419c-4.65,0-8.42-3.766-8.42-8.419
		c0-4.646,3.769-8.417,8.42-8.417C42.124,286.973,45.89,290.742,45.89,295.39"/>
</g>
<g>
	<path fill="#0B9D49" d="M43.105,295.39c0,3.116-2.522,5.633-5.635,5.633c-3.106,0-5.631-2.517-5.631-5.633
		c0-3.112,2.524-5.63,5.631-5.63C40.583,289.76,43.105,292.277,43.105,295.39"/>
</g>
<g>
	<path fill="#FFFFFF" d="M82.229,189.271c2.725,0,4.947,2.225,4.947,4.947"/>
	<path fill="#FFFFFF" d="M87.176,194.217v53.112c0,2.741-2.223,4.94-4.947,4.94"/>
</g>
<g>
	<path fill="#2887C8" d="M82.229,188.754c3.013,0,5.463,2.451,5.463,5.463v53.112c-0.002,3.008-2.451,5.456-5.463,5.456
		 M82.229,251.752c2.444,0,4.431-1.983,4.431-4.423v-53.112c0-2.442-1.989-4.43-4.431-4.43"/>
</g>
<g>
	<path fill="#B1D465" d="M73.118,218.295c0,4.65-3.771,8.424-8.418,8.424c-4.649,0-8.418-3.773-8.418-8.424
		c0-4.648,3.769-8.416,8.418-8.416C69.348,209.879,73.118,213.646,73.118,218.295"/>
</g>
<g>
	<path fill="#0B9D49" d="M70.333,218.295c0,3.114-2.527,5.633-5.641,5.633c-3.106,0-5.628-2.519-5.628-5.633s2.522-5.63,5.628-5.63
		C67.808,212.665,70.333,215.181,70.333,218.295"/>
</g>
<g>
	<path fill="#B1D465" d="M45.89,218.295c0,4.65-3.766,8.424-8.416,8.424c-4.65,0-8.42-3.773-8.42-8.424
		c0-4.648,3.769-8.416,8.42-8.416C42.124,209.879,45.89,213.646,45.89,218.295"/>
</g>
<g>
	<path fill="#0B9D49" d="M43.105,218.295c0,3.114-2.522,5.633-5.635,5.633c-3.106,0-5.631-2.519-5.631-5.633s2.524-5.63,5.631-5.63
		C40.583,212.665,43.105,215.181,43.105,218.295"/>
</g>
<g>
	<path fill="#FFFFFF" d="M87.176,170.234c0,2.739-2.223,4.94-4.947,4.94"/>
</g>
<g>
	<path fill="#2887C8" d="M87.692,170.234c-0.002,3.008-2.451,5.457-5.463,5.457 M82.229,174.658c2.444,0,4.431-1.985,4.431-4.423"/>
</g>
<g>
	<path fill="#0B9D49" d="M64.692,135.571c3.115-0.002,5.641,2.52,5.641,5.629"/>
	<path fill="#0B9D49" d="M70.333,141.2"/>
</g>
<g>
	<path fill="#FFFFFF" d="M88.517,242.559l-4.96-21.798l-4.961,21.798H66.372l-11.016-38.463h13.032l4.961,23.53l5.822-23.53h8.769
		l5.823,23.53l4.902-23.53h13.093l-11.018,38.463H88.517z"/>
	<path fill="#FFFFFF" d="M145.6,242.559l-4.956-21.798l-4.964,21.798h-12.224l-11.014-38.463h13.033l4.958,23.53l5.825-23.53h8.768
		l5.823,23.53l4.902-23.53h13.091l-11.016,38.463H145.6z"/>
	<path fill="#FFFFFF" d="M202.687,242.559l-4.958-21.798l-4.96,21.798h-12.228l-11.014-38.463h13.033l4.958,23.53l5.826-23.53h8.767
		l5.826,23.53l4.902-23.53h13.089l-11.017,38.463H202.687z"/>
</g>
<g>
	<path fill="#FFFFFF" d="M88.517,242.559l-4.96-21.798l-4.961,21.798H66.372l-11.016-38.463h13.032l4.961,23.53l5.822-23.53h8.769
		l5.823,23.53l4.902-23.53h13.093l-11.018,38.463H88.517z"/>
	<path fill="#FFFFFF" d="M145.6,242.559l-4.956-21.798l-4.964,21.798h-12.224l-11.014-38.463h13.033l4.958,23.53l5.825-23.53h8.768
		l5.823,23.53l4.902-23.53h13.091l-11.016,38.463H145.6z"/>
	<path fill="#FFFFFF" d="M202.687,242.559l-4.958-21.798l-4.96,21.798h-12.228l-11.014-38.463h13.033l4.958,23.53l5.826-23.53h8.767
		l5.826,23.53l4.902-23.53h13.089l-11.017,38.463H202.687z"/>
</g>
<g>
	<line fill="none" x1="96.653" y1="281.713" x2="183.589" y2="281.713"/>
</g>
<g>
	<line fill="none" x1="197.872" y1="281.713" x2="219.916" y2="281.713"/>
</g>
<g>
	<line fill="none" x1="96.653" y1="325.557" x2="183.589" y2="325.557"/>
</g>
<g>
	<line fill="none" x1="197.872" y1="325.557" x2="219.916" y2="325.557"/>
</g>
<g>
	<path fill="#FFFFFF" d="M282.996,142.39v224.648c0,6.813-5.393,12.315-12.043,12.315H15.008"/>
</g>
<g>
	<path fill="#E4F2FC" d="M297.527,181.49H17.559v-27.398c0-9.504,7.7-17.202,17.203-17.202h245.562c9.497,0,17.2,7.698,17.2,17.202
		v27.398H297.527z"/>
</g>
<g>
	<path fill="#2887C8" d="M297.527,182.007H17.559c-0.284,0-0.516-0.23-0.516-0.517v-27.398c0-9.771,7.948-17.718,17.719-17.718
		h245.562c9.77,0,17.717,7.948,17.717,17.718v27.398C298.041,181.776,297.811,182.007,297.527,182.007z M18.076,180.976h278.936
		v-26.884c0-9.2-7.486-16.685-16.688-16.685H34.762c-9.201,0-16.687,7.485-16.687,16.685V180.976z"/>
</g>
<g>
	<path fill="#B6DDF5" d="M297.527,176.195H196.66V136.89h83.667c9.496,0,17.201,7.695,17.201,17.201V176.195z"/>
</g>
<g>
	<path fill="#2887C8" d="M297.527,176.711H196.66c-0.287,0-0.516-0.232-0.516-0.516V136.89c0-0.286,0.229-0.516,0.516-0.516h83.667
		c9.767,0,17.716,7.948,17.716,17.717v22.104C298.041,176.479,297.811,176.711,297.527,176.711z M197.174,175.678h99.837v-21.586
		c0-9.2-7.486-16.685-16.688-16.685h-83.149V175.678z"/>
</g>
<g>
	<path fill="#FFFFFF" d="M297.527,297.176V176.195H17.558v202.542c0,6.805,5.383,12.328,12.032,12.328H285.5
		c6.639,0,12.027-5.523,12.027-12.328V347.78"/>
</g>
<g>
	<path fill="#2887C8" d="M285.5,391.582H29.589c-6.92,0-12.546-5.761-12.546-12.845V176.195c0-0.287,0.23-0.517,0.515-0.517h279.97
		c0.283,0,0.516,0.23,0.516,0.517v120.981c0,0.285-0.232,0.517-0.516,0.517c-0.287,0-0.516-0.232-0.516-0.517V176.711H18.074
		v202.026c0,6.513,5.164,11.811,11.516,11.811H285.5c6.346,0,11.512-5.294,11.512-11.811V347.78c0-0.283,0.229-0.516,0.516-0.516
		c0.283,0,0.516,0.232,0.516,0.516v30.957C298.041,385.821,292.414,391.582,285.5,391.582z"/>
</g>
<g>
	<line fill="none" x1="297.527" y1="331.259" x2="297.527" y2="312.501"/>
</g>
<g>
	<path fill="#2887C8" d="M297.527,331.774c-0.287,0-0.516-0.232-0.516-0.516v-18.758c0-0.285,0.229-0.518,0.516-0.518
		c0.283,0,0.516,0.232,0.516,0.518v18.758C298.041,331.544,297.811,331.774,297.527,331.774z"/>
</g>
<g>
	<path fill="#FFFFFF" d="M117.952,260.289h-12.226c-0.241,0-0.45-0.166-0.503-0.4l-4.455-19.586l-4.456,19.586
		c-0.055,0.234-0.263,0.4-0.504,0.4H83.581c-0.229,0-0.431-0.152-0.494-0.374l-11.014-38.462c-0.045-0.153-0.013-0.323,0.085-0.45
		c0.096-0.13,0.25-0.206,0.412-0.206h13.03c0.245,0,0.455,0.17,0.506,0.409l4.496,21.325l5.284-21.344
		c0.055-0.229,0.263-0.391,0.498-0.391h8.765c0.236,0,0.445,0.161,0.501,0.391l5.279,21.333l4.441-21.314
		c0.052-0.239,0.262-0.409,0.505-0.409h13.09c0.162,0,0.315,0.074,0.412,0.203c0.096,0.132,0.128,0.297,0.085,0.453l-11.015,38.462
		C118.384,260.137,118.183,260.289,117.952,260.289z M106.138,259.258h11.426l10.716-37.428h-11.981l-4.822,23.117
		c-0.05,0.236-0.255,0.407-0.495,0.411c-0.003,0-0.006,0-0.01,0c-0.235,0-0.443-0.161-0.501-0.391l-5.727-23.138H96.79
		l-5.725,23.138c-0.058,0.231-0.287,0.388-0.51,0.391c-0.242-0.004-0.447-0.175-0.496-0.409l-4.875-23.119H73.254l10.719,37.428
		h11.424l4.867-21.396c0.055-0.236,0.261-0.401,0.503-0.401c0.239,0,0.447,0.165,0.503,0.401L106.138,259.258z"/>
</g>
<g>
	<path fill="#FFFFFF" d="M175.049,260.289h-12.227c-0.239,0-0.449-0.166-0.504-0.4l-4.453-19.586l-4.458,19.586
		c-0.056,0.234-0.263,0.4-0.503,0.4H140.68c-0.23,0-0.431-0.152-0.496-0.374l-11.015-38.462c-0.045-0.153-0.013-0.323,0.085-0.45
		c0.1-0.13,0.252-0.206,0.412-0.206h13.03c0.243,0,0.455,0.17,0.505,0.409l4.496,21.325l5.285-21.344
		c0.058-0.229,0.265-0.391,0.502-0.391h8.759c0.237,0,0.446,0.161,0.502,0.391l5.282,21.333l4.44-21.314
		c0.05-0.239,0.263-0.409,0.506-0.409h13.091c0.162,0,0.314,0.074,0.412,0.203c0.097,0.13,0.129,0.297,0.085,0.453l-11.016,38.462
		C175.484,260.137,175.281,260.289,175.049,260.289z M163.235,259.258h11.426l10.719-37.428h-11.986l-4.82,23.117
		c-0.049,0.236-0.252,0.407-0.494,0.411c-0.002,0-0.006,0-0.01,0c-0.237,0-0.443-0.161-0.5-0.391l-5.73-23.138h-7.951l-5.73,23.138
		c-0.055,0.229-0.264,0.391-0.5,0.391c-0.004,0-0.005,0-0.01,0c-0.239-0.004-0.444-0.175-0.494-0.409l-4.875-23.119h-11.924
		l10.716,37.428h11.421l4.869-21.396c0.056-0.236,0.264-0.401,0.503-0.401l0,0c0.242,0,0.45,0.165,0.503,0.401L163.235,259.258z"/>
</g>
<g>
	<path fill="#FFFFFF" d="M232.144,260.289H219.92c-0.242,0-0.45-0.166-0.504-0.4l-4.456-19.586l-4.458,19.586
		c-0.053,0.234-0.263,0.4-0.504,0.4h-12.224c-0.229,0-0.433-0.152-0.495-0.374l-11.016-38.462c-0.043-0.153-0.013-0.323,0.087-0.45
		c0.098-0.13,0.25-0.206,0.41-0.206h13.031c0.247,0,0.457,0.17,0.508,0.409l4.492,21.325l5.285-21.341
		c0.056-0.229,0.265-0.394,0.501-0.394h8.765c0.234,0,0.442,0.164,0.5,0.394l5.28,21.33l4.438-21.313
		c0.051-0.239,0.261-0.411,0.505-0.411h13.093c0.16,0,0.315,0.076,0.411,0.206c0.098,0.129,0.13,0.297,0.085,0.453l-11.014,38.459
		C232.576,260.137,232.375,260.289,232.144,260.289z M220.333,259.258h11.422l10.718-37.428h-11.985l-4.815,23.117
		c-0.048,0.236-0.255,0.407-0.493,0.411c-0.202-0.003-0.454-0.159-0.513-0.391l-5.729-23.138h-7.953l-5.729,23.138
		c-0.059,0.231-0.287,0.388-0.51,0.391c-0.242-0.004-0.447-0.175-0.497-0.409l-4.872-23.119h-11.927l10.716,37.428h11.424
		l4.869-21.396c0.053-0.236,0.261-0.401,0.503-0.401c0.24,0,0.448,0.165,0.503,0.401L220.333,259.258z"/>
</g>
<g>
	<path fill="#2887C8" d="M105.726,259.772l-4.96-21.798l-4.961,21.798H83.581l-11.016-38.464h13.033l4.96,23.529l5.823-23.529h8.768
		l5.825,23.529l4.901-23.529h13.09l-11.015,38.464H105.726z"/>
	<path fill="#2887C8" d="M162.811,259.772l-4.96-21.798l-4.959,21.798h-12.225l-11.017-38.464h13.034l4.96,23.529l5.825-23.529
		h8.765l5.826,23.529l4.902-23.529h13.089l-11.014,38.464H162.811z"/>
	<path fill="#2887C8" d="M219.898,259.772l-4.96-21.798l-4.958,21.798h-12.228l-11.014-38.464h13.034l4.957,23.529l5.827-23.529
		h8.766l5.823,23.529l4.902-23.529h13.093l-11.018,38.464H219.898z"/>
</g>
<g>
	<rect x="73.263" y="285.141" fill="#FFFFFF" width="26.557" height="26.558"/>
</g>
<g>
	<path fill="#2887C8" d="M99.823,312.217H73.266c-0.287,0-0.516-0.232-0.516-0.519v-26.558c0-0.285,0.229-0.518,0.516-0.518h26.557
		c0.283,0,0.516,0.232,0.516,0.518v26.558C100.337,311.984,100.106,312.217,99.823,312.217z M73.779,311.184h25.526v-25.528H73.779
		V311.184z"/>
</g>
<g>
	<path fill="#2887C8" d="M200.799,299.438h-86.936c-0.283,0-0.516-0.23-0.516-0.516s0.232-0.518,0.516-0.518h86.936
		c0.283,0,0.516,0.232,0.516,0.518S201.083,299.438,200.799,299.438z"/>
</g>
<g>
	<path fill="#2887C8" d="M237.126,299.438h-22.046c-0.287,0-0.516-0.23-0.516-0.516s0.229-0.518,0.516-0.518h22.046
		c0.287,0,0.518,0.232,0.518,0.518S237.414,299.438,237.126,299.438z"/>
</g>
<g>
	<rect x="73.263" y="328.991" fill="#FFFFFF" width="26.557" height="26.557"/>
</g>
<g>
	<path fill="#2887C8" d="M99.823,356.063H73.266c-0.287,0-0.516-0.232-0.516-0.519v-26.554c0-0.287,0.229-0.519,0.516-0.519h26.557
		c0.283,0,0.516,0.232,0.516,0.519v26.554C100.337,355.831,100.106,356.063,99.823,356.063z M73.779,355.03h25.526v-25.523H73.779
		V355.03z"/>
</g>
<g>
	<path fill="#2887C8" d="M200.799,343.285h-86.936c-0.283,0-0.516-0.23-0.516-0.516s0.232-0.518,0.516-0.518h86.936
		c0.283,0,0.516,0.232,0.516,0.518S201.083,343.285,200.799,343.285z"/>
</g>
<g>
	<path fill="#2887C8" d="M237.126,343.285h-22.046c-0.287,0-0.516-0.23-0.516-0.516s0.229-0.518,0.516-0.518h22.046
		c0.287,0,0.518,0.232,0.518,0.518S237.414,343.285,237.126,343.285z"/>
</g>
<g>
	<path fill="#2887C8" d="M223.618,156.542c0,2.766-2.242,5.011-5.013,5.011c-2.772,0-5.01-2.245-5.01-5.011
		c0-2.764,2.238-5.009,5.01-5.009C221.375,151.532,223.618,153.777,223.618,156.542"/>
</g>
<g>
	<path fill="#2887C8" d="M252.104,156.542c0,2.766-2.244,5.011-5.012,5.011c-2.764,0-5.013-2.245-5.013-5.011
		c0-2.764,2.249-5.009,5.013-5.009C249.86,151.532,252.104,153.777,252.104,156.542"/>
</g>
<g>
	<path fill="#2887C8" d="M280.588,156.542c0,2.766-2.245,5.011-5.011,5.011c-2.768,0-5.013-2.245-5.013-5.011
		c0-2.764,2.245-5.009,5.013-5.009C278.343,151.532,280.588,153.777,280.588,156.542"/>
</g>
</svg>
