<?xml version="1.0" encoding="utf-8"?>
<!-- Generator: Adobe Illustrator 16.0.0, SVG Export Plug-In . SVG Version: 6.00 Build 0)  -->
<!DOCTYPE svg PUBLIC "-//W3C//DTD SVG 1.0//EN" "http://www.w3.org/TR/2001/REC-SVG-20010904/DTD/svg10.dtd">
<svg version="1.0" id="Layer_1" xmlns="http://www.w3.org/2000/svg" xmlns:xlink="http://www.w3.org/1999/xlink" x="0px" y="0px"
	 width="800px" height="800px" viewBox="0 0 800 800" enable-background="new 0 0 800 800" xml:space="preserve">
<path fill="#B6DDF5" d="M359.333,519.185c-5.272,4.519-9.792,9.95-13.181,16.031c-8.445-10.546-17.32-22.595-26.251-36.259
	c-0.754-1.185-1.561-2.367-2.314-3.549c1.453-0.162,2.905-0.215,4.413-0.215c16.837,0,31.683,8.66,40.291,21.678
	C361.269,517.625,360.299,518.432,359.333,519.185"/>
<path fill="#B6DDF5" d="M538.789,445.107c-0.914,1.615-1.775,3.23-2.689,4.844c-19.259,34.373-42.121,69.449-69.233,102.316
	c-1.13,1.345-2.204,2.635-3.334,3.979c-1.132,1.345-2.313,2.745-3.498,4.09c-7.639,8.983-15.652,17.807-24.045,26.358l-0.055,0.053
	c-1.346,1.4-2.635,2.8-4.035,4.145c-1.345,1.397-2.742,2.742-4.142,4.088c-1.613,1.612-3.281,3.228-5.002,4.896
	c-1.236,1.183-2.529,2.367-3.766,3.549c0,0-3.121-1.668-8.608-5.487c-1.988-1.452-4.357-3.173-6.992-5.164
	c-0.538-0.431-1.13-0.861-1.72-1.345c-2.745-2.151-5.758-4.626-9.039-7.476c-8.607-7.317-18.775-17-30.018-29.427
	c-1.129-1.185-2.206-2.421-3.335-3.658c-1.022-1.183-2.096-2.419-3.229-3.656c2.585-4.896,5.703-9.31,9.414-13.233
	c0.271-0.323,0.594-0.701,0.917-1.024c0.699-0.751,1.397-1.45,2.151-2.151c1.022-0.969,2.044-1.883,3.121-2.797
	c1.828-1.453,3.764-2.851,5.755-4.143c0.699-0.429,1.4-0.914,2.099-1.345c0.215,1.723,0.323,3.443,0.375,5.166
	c3.927-2.584,8.232-4.681,12.75-6.296c3.444-1.182,7.048-2.099,10.759-2.635c2.851-0.431,5.755-0.646,8.716-0.646
	c6.725,0,13.232,1.129,19.312,3.28c1.184,0.376,2.366,0.807,3.496,1.345c0.322,0.108,0.646,0.216,0.969,0.376
	c1.074,0.485,2.151,0.969,3.173,1.508c0.431-1.453,0.914-2.905,1.452-4.303c10.867-31.578,35.721-56.807,67.136-68.428
	c4.788-1.828,9.737-3.28,14.793-4.41C527.763,446.293,533.194,445.486,538.789,445.107"/>
<path fill="#E4F2FC" d="M392.631,505.411c-5.865,0.485-11.513,1.83-16.731,3.874c-7.423-16.837-24.423-28.673-44.165-28.673
	c-7.315,0-14.362,1.615-20.604,4.626c-1.397-2.26-2.797-4.57-4.142-6.885c-4.035-6.777-8.122-13.824-12.104-21.303
	c-0.052-0.055-0.052-0.107-0.105-0.16c-29.694-54.871-58.583-128.407-78.811-225.56l176.985-67.35l10.759-4.087l7.691-2.96
	l4.84-1.828l168.162,62.617l37.601,13.984c0,0-20.655,94.948-76.493,200.869c-4.25-0.486-8.607-0.754-12.966-0.754
	c-0.538,0-1.129,0-1.668,0.053c-4.302,0-8.5,0.322-12.642,0.861c-44.593,5.646-81.175,37.225-93.816,78.971
	c-6.401-3.281-13.502-5.487-21.032-6.186c-1.938-0.216-3.874-0.323-5.865-0.323C395.856,505.198,394.244,505.25,392.631,505.411"/>
<path fill="#2887C8" d="M321.083,571.635c-0.914-0.163-1.828-0.216-2.742-0.216c0.376-0.056,0.699-0.107,1.075-0.107
	C320.009,571.312,320.547,571.419,321.083,571.635"/>
<path fill="#2887C8" d="M563.804,446.021c-0.754,1.455-1.506,2.854-2.314,4.306c-71.921,136.153-156.702,208.99-157.991,210.067
	c-0.97,0.859-2.207,1.29-3.444,1.29c-1.185,0-2.422-0.376-3.389-1.185c-13.02-10.437-25.336-21.355-37.065-32.708
	c-1.292-1.182-2.582-2.474-3.874-3.708c-1.29-1.24-2.527-2.478-3.764-3.768c-3.551-3.551-7.047-7.154-10.491-10.813
	c-6.241-6.562-12.264-13.233-18.021-20.01c-1.182-1.292-2.259-2.638-3.389-3.982c-1.129-1.29-2.259-2.582-3.336-3.871
	c0.754-0.216,1.508-0.431,2.314-0.592c3.28-0.753,6.671-1.239,10.005-1.345c1.345,1.558,2.689,3.065,4.034,4.626
	c1.453,1.668,2.905,3.333,4.413,5.001c6.078,6.832,12.372,13.557,18.88,20.173c3.551,3.659,7.21,7.263,10.921,10.813
	c1.29,1.29,2.582,2.527,3.927,3.768c1.29,1.234,2.634,2.474,3.979,3.708c7.909,7.371,16.193,14.526,24.693,21.466
	c16.028-14.631,87.469-83.113,149.922-199.845c0.807-1.505,1.616-3.013,2.422-4.521
	C556.165,445.055,560.036,445.431,563.804,446.021"/>
<path fill="#2887C8" d="M287.732,525.584c0.428,0.701,0.644,1.507,0.644,2.369c0,2.904-2.367,5.271-5.271,5.271
	c-1.505,0-2.85-0.646-3.819-1.721l-0.215,0.16c-21.57-31.738-39.592-64.122-54.653-95.592c4.57,0.646,8.983,1.561,13.341,2.85
	c13.018,26.469,28.187,53.471,45.885,80.101c1.345,2.151,2.798,4.302,4.25,6.456L287.732,525.584z"/>
<path fill="#2887C8" d="M646.485,207.552c-16.732,89.191-45.888,166.171-78.324,229.97c-3.443-1.129-6.995-2.096-10.544-2.902
	c31.846-62.349,60.571-137.498,77.463-224.646l-235.026-90.536l-236.156,91.828c3.065,19.902,18.665,108.77,65.251,209.634
	c-2.637-0.215-5.271-0.32-7.961-0.32c-1.345,0-2.689,0.053-3.982,0.053c-51.428-113.399-64.39-210.496-64.605-212.164
	c-0.271-2.475,1.129-4.789,3.388-5.703l242.074-94.14c1.292-0.483,2.637-0.483,3.927,0l241.159,92.955
	C645.571,202.498,646.969,205.025,646.485,207.552"/>
<path fill="#2887C8" d="M579.458,315.844h0.053c-13.879,43.303-30.824,82.088-48.631,116.033c-4.302,0-8.5,0.323-12.639,0.861
	c18.772-35.073,36.687-75.419,51.264-120.929l0.269,0.105L579.458,315.844z"/>
<path fill="#2887C8" d="M299.729,499.711c0.107,0.268,0.16,0.536,0.268,0.807c-0.215-0.216-0.323-0.376-0.431-0.592
	c-0.483-0.701-0.966-1.345-1.397-2.046c-8.231-12.316-15.815-24.745-22.81-37.17c10.543,9.95,18.667,22.377,23.509,36.312
	C299.19,497.88,299.458,498.797,299.729,499.711"/>
<path fill="#2887C8" d="M312.639,499.979c9.466,13.72,19.742,27.223,30.984,40.346c-1.72,3.822-3.013,7.909-3.819,12.104
	c-13.771-15.813-26.359-32.166-37.656-48.79l-0.052-0.053l-2.099-3.065c1.077-0.594,2.207-1.076,3.388-1.56
	c2.207-0.97,4.521-1.724,6.887-2.314c0.751,1.13,1.56,2.259,2.312,3.333H312.639z"/>
<path fill="#2887C8" d="M522.436,447.477c-1.021,1.881-2.099,3.712-3.12,5.54c-20.013,35.452-40.613,64.983-58.851,88.329
	c-0.97,1.293-1.937,2.475-2.905,3.712c-1.021,1.24-1.991,2.475-2.957,3.714c-6.081,7.476-11.783,14.2-17.056,20.278
	c-2.526,2.905-4.948,5.595-7.26,8.179c-1.022,1.13-2.047,2.204-3.013,3.227c-1.077,1.185-2.099,2.313-3.176,3.388
	c-5.433,5.865-10.112,10.544-13.717,14.095c-5.271,5.111-8.284,7.802-8.499,7.962c-0.807,0.701-1.776,1.129-2.798,1.237
	c-0.268,0.055-0.591,0.107-0.914,0.107h-0.16c-0.163,0-0.378,0-0.539-0.053c-0.483-0.107-0.914-0.271-1.4-0.486
	c-0.053,0-0.053-0.052-0.108-0.052c-0.32-0.163-0.644-0.379-0.967-0.646c-0.486-0.431-1.021-0.807-1.507-1.29
	c-12.587-10.383-24.368-21.305-35.397-32.654c-1.45-1.397-2.794-2.798-4.14-4.195c-1.345-1.396-2.637-2.797-3.929-4.197
	c0.754-3.28,1.668-6.453,2.905-9.629c0.271-0.699,0.594-1.397,0.917-2.096c1.074,1.236,2.204,2.474,3.333,3.711
	c1.185,1.237,2.314,2.475,3.552,3.711c9.952,10.597,20.656,20.765,31.9,30.557c1.828,1.612,3.712,3.229,5.595,4.788
	c0.967-0.861,2.096-1.991,3.441-3.283c0.538-0.483,1.13-1.021,1.723-1.612c4.303-4.197,10.058-10.061,16.837-17.539
	c0.914-0.914,1.775-1.883,2.689-2.904c0.862-0.914,1.721-1.884,2.582-2.851c2.69-2.957,5.487-6.133,8.393-9.521
	c3.927-4.626,8.069-9.685,12.372-15.063c0.485-0.592,0.969-1.13,1.399-1.721c0.053-0.053,0.108-0.16,0.216-0.216
	c0.914-1.237,1.936-2.419,2.85-3.711c0.969-1.183,1.883-2.422,2.85-3.656c15.764-20.229,33.139-45.082,50.354-74.346
	c1.237-2.096,2.475-4.25,3.712-6.401C512.431,450.059,517.38,448.606,522.436,447.477"/>
<path fill="#2887C8" d="M584.462,217.076c0,0.215,0,0.431-0.056,0.646c-0.323,2.579-2.526,4.57-5.164,4.57
	c-0.913,0-1.827-0.268-2.581-0.699l-0.108,0.215l-165.148-64.876l-7.691-3.013l-5.327-2.096l-5.432,2.148L204.89,228.534
	c3.121,20.281,19.419,112.484,70.2,209.314c-5.216-3.767-10.919-6.995-16.892-9.629c-51.855-105.277-64.39-200.978-64.553-202.482
	c-0.323-2.422,1.077-4.733,3.336-5.65l198.985-78.916c0.699-0.32,1.505-0.536,2.367-0.536c0.751,0,1.453,0.161,2.096,0.431
	l180.157,70.736l-0.052,0.163C582.794,212.556,584.462,214.654,584.462,217.076"/>
<path fill="#2887C8" d="M398.36,219.225c-2.976,0-5.379-2.408-5.379-5.379V146.03c0-2.976,2.403-5.379,5.379-5.379
	c2.973,0,5.379,2.403,5.379,5.379v67.815C403.739,216.816,401.333,219.225,398.36,219.225"/>
<path fill="#2887C8" d="M403.39,447.424v58.098c-1.938-0.216-3.874-0.323-5.865-0.323c-1.668,0-3.28,0.055-4.894,0.215v-57.989
	c0-3.012,2.419-5.379,5.38-5.379C400.968,442.045,403.39,444.412,403.39,447.424"/>
<path fill="#2887C8" d="M392.631,521.392c3.441-1.185,7.048-2.099,10.759-2.638v83.113c0,2.582-1.831,4.786-4.305,5.271
	c-0.268,0.053-0.591,0.107-0.914,0.107h-0.16c-0.163,0-0.378,0-0.539-0.055c-0.483-0.107-0.914-0.268-1.4-0.483
	c-0.053,0-0.053-0.055-0.108-0.055c-1.022-0.431-1.881-1.022-2.474-1.937c-0.536-0.806-0.859-1.828-0.859-2.85V521.392z"/>
<path fill="#2887C8" d="M397.992,428.275c-2.976,0-5.379-2.41-5.379-5.379v-14.488c0-2.969,2.403-5.38,5.379-5.38
	c2.973,0,5.379,2.411,5.379,5.38v14.488C403.371,425.865,400.965,428.275,397.992,428.275"/>
<path fill="#2887C8" d="M306.085,566.412c-1.705,0-3.388-0.809-4.426-2.324l-10.599-15.332c-1.689-2.442-1.074-5.794,1.366-7.483
	c2.448-1.688,5.794-1.085,7.483,1.368l10.593,15.335c1.694,2.442,1.074,5.794-1.366,7.483
	C308.205,566.1,307.141,566.412,306.085,566.412"/>
<path fill="#2887C8" d="M579.873,313.79c0,2.9-2.351,5.248-5.245,5.248s-5.246-2.348-5.246-5.248c0-2.897,2.352-5.243,5.246-5.243
	S579.873,310.893,579.873,313.79"/>
<path fill="#2887C8" d="M585.83,298.077c0,2.9-2.351,5.248-5.243,5.248c-2.895,0-5.245-2.348-5.245-5.248
	c0-2.897,2.351-5.243,5.245-5.243C583.479,292.834,585.83,295.18,585.83,298.077"/>
<path fill="#2887C8" d="M585.836,289.499c-0.489,0-0.99-0.071-1.479-0.21c-2.854-0.814-4.513-3.788-3.701-6.646
	c5.078-17.833,12.9-46.148,13.594-51.065c0.426-2.939,3.165-4.972,6.091-4.563c2.942,0.42,4.985,3.146,4.565,6.089
	c-1.027,7.21-12.587,47.873-13.9,52.483C590.332,287.954,588.176,289.499,585.836,289.499"/>
<polygon fill="#E4F0CC" points="397.984,236.514 426.447,294.192 490.097,303.441 444.043,348.331 454.915,411.723 397.984,381.792 
	341.054,411.723 351.926,348.331 305.872,303.441 369.521,294.192 "/>
<path fill="#2887C8" d="M493.603,302.125c-0.646-1.936-2.314-3.336-4.357-3.659l-59.712-8.66l-26.736-54.117
	c-0.859-1.828-2.743-3.013-4.786-3.013c-2.046,0-3.927,1.185-4.841,3.013l-26.737,54.117l-59.712,8.66
	c-2.043,0.323-3.711,1.723-4.357,3.659c-0.591,1.988-0.108,4.087,1.4,5.54l43.195,42.121l-10.22,59.497
	c-0.323,1.988,0.483,4.034,2.151,5.271c1.668,1.182,3.874,1.345,5.65,0.375l53.471-28.079l53.416,28.079
	c0.754,0.432,1.615,0.646,2.475,0.646c1.131,0,2.261-0.376,3.175-1.021c1.668-1.237,2.475-3.283,2.151-5.271l-10.221-59.497
	l43.251-42.121C493.71,306.212,494.246,304.113,493.603,302.125 M439.485,344.028c-1.292,1.24-1.83,3.068-1.561,4.789l8.823,51.535
	l-46.263-24.314c-1.56-0.862-3.444-0.862-5.004,0l-46.263,24.314l8.823-51.535c0.323-1.721-0.268-3.549-1.56-4.789l-37.44-36.471
	l51.75-7.531c1.776-0.215,3.281-1.345,4.035-2.905l23.186-46.907l23.13,46.907c0.754,1.561,2.26,2.69,4.035,2.905l51.75,7.531
	L439.485,344.028z"/>
<path fill="#B6DDF5" d="M306.991,478.355c-4.035-6.779-8.124-13.826-12.104-21.302C299.836,463.508,303.923,470.662,306.991,478.355
	"/>
<path fill="#B6DDF5" d="M316.513,571.366c-23.348,0-42.93,16.354-47.663,38.14H83.475c-24.531-9.793-45.026-35.612-45.026-63.424
	c0-5.379,0.646-10.596,1.883-15.6c1.077-4.573,2.689-8.931,4.681-13.073c12.211-14.039,30.233-22.915,50.351-22.915
	c8.555,0,16.677,1.613,24.208,4.57c1.129,0.431,2.259,0.917,3.388,1.455c0.378-1.185,0.754-2.369,1.185-3.551
	c1.505-4.303,3.281-8.447,5.379-12.427c1.077,0.431,2.099,0.858,3.173,1.345c1.723-5.703,4.034-11.135,6.724-16.354l0.055-0.055
	c16.945-20.925,42.928-34.32,71.976-34.32c4.41,0,8.715,0.322,12.965,0.914c4.57,0.646,8.983,1.561,13.341,2.853
	c14.255,4.194,27.112,11.78,37.548,21.733c0.053,0,0.053,0,0.053,0.052c10.543,9.952,18.667,22.327,23.509,36.259v0.053
	c0.323,0.861,0.591,1.775,0.861,2.689c0.107,0.271,0.16,0.538,0.268,0.809c1.077-0.594,2.207-1.076,3.388-1.56
	c2.207-0.97,4.521-1.724,6.887-2.314s4.841-1.021,7.315-1.237c1.453-0.162,2.905-0.215,4.411-0.215
	c16.839,0,31.685,8.66,40.293,21.68c-1.022,0.752-1.991,1.559-2.958,2.312c-5.274,4.519-9.792,9.953-13.181,16.031
	c-0.969,1.668-1.828,3.388-2.53,5.111c-1.72,3.819-3.013,7.906-3.819,12.104c-0.699,3.604-1.074,7.315-1.074,11.135
	c0,4.896,0.591,9.576,1.72,14.095c-5.81-3.283-12.372-5.435-19.367-6.025c-0.914-0.163-1.828-0.216-2.742-0.216
	C317.748,571.366,317.104,571.366,316.513,571.366"/>
<path fill="#B6DDF5" d="M437.98,574.377c0,4.25-0.701,8.444-1.991,12.318l-0.055,0.053c-1.074,3.389-2.635,6.562-4.573,9.467
	c-1.612,2.422-3.496,4.628-5.539,6.619l-0.161,0.16c-2.099,1.991-4.413,3.764-6.887,5.271c-0.754,0.431-1.452,0.861-2.206,1.237
	H283.215c0.375-0.754,0.751-1.505,1.182-2.259c6.832-12.479,18.56-21.733,32.332-25.607c0.751-0.216,1.505-0.431,2.312-0.591
	c3.283-0.754,6.671-1.237,10.007-1.345c1.45-0.108,2.958-0.053,4.41,0.055c5.272,0.216,10.543,1.29,15.6,3.065
	c-0.215-2.099-0.323-4.194-0.323-6.349c0-3.173,0.215-6.294,0.698-9.307c0.163-1.182,0.378-2.366,0.594-3.496
	c0.751-3.28,1.668-6.456,2.905-9.629c0.268-0.699,0.591-1.397,0.914-2.096c0.375-1.025,0.859-2.047,1.29-3.068
	c0.271-0.539,0.594-1.13,0.914-1.668c2.585-4.894,5.703-9.307,9.414-13.233c0.271-0.323,0.594-0.698,0.917-1.021
	c0.699-0.754,1.397-1.452,2.151-2.151c1.022-0.969,2.044-1.883,3.121-2.797c1.828-1.453,3.764-2.854,5.755-4.143
	c0.699-0.431,1.4-0.914,2.099-1.345c0.215,1.72,0.323,3.443,0.375,5.164v0.698c0,1.721-0.108,3.443-0.323,5.111
	c-0.215,2.151-0.591,4.303-1.129,6.401c4.305-2.422,9.091-4.087,14.202-4.733c1.776-0.271,3.604-0.378,5.432-0.378
	c1.831,0,3.607,0.107,5.327,0.378c13.448,1.775,24.746,10.165,30.501,21.838c1.884,3.715,3.12,7.749,3.659,12.052
	C437.873,570.772,437.98,572.546,437.98,574.377"/>
<path fill="#B6DDF5" d="M306.991,478.355c-4.035-6.779-8.124-13.826-12.104-21.302C299.836,463.508,303.923,470.662,306.991,478.355
	"/>
<path fill="#B6DDF5" d="M316.513,571.366c-23.348,0-42.93,16.354-47.663,38.14H83.475c-24.531-9.793-45.026-35.612-45.026-63.424
	c0-5.379,0.646-10.596,1.883-15.6c1.077-4.573,2.689-8.931,4.681-13.073c12.211-14.039,30.233-22.915,50.351-22.915
	c8.555,0,16.677,1.613,24.208,4.57c1.129,0.431,2.259,0.917,3.388,1.455c0.378-1.185,0.754-2.369,1.185-3.551
	c1.505-4.303,3.281-8.447,5.379-12.427c1.077,0.431,2.099,0.858,3.173,1.345c1.723-5.703,4.034-11.135,6.724-16.354l0.055-0.055
	c16.945-20.925,42.928-34.32,71.976-34.32c4.41,0,8.715,0.322,12.965,0.914c4.57,0.646,8.983,1.561,13.341,2.853
	c14.255,4.194,27.112,11.78,37.548,21.733c0.053,0,0.053,0,0.053,0.052c10.543,9.952,18.667,22.327,23.509,36.259v0.053
	c0.323,0.861,0.591,1.775,0.861,2.689c0.107,0.271,0.16,0.538,0.268,0.809c1.077-0.594,2.207-1.076,3.388-1.56
	c2.207-0.97,4.521-1.724,6.887-2.314s4.841-1.021,7.315-1.237c1.453-0.162,2.905-0.215,4.411-0.215
	c16.839,0,31.685,8.66,40.293,21.68c-1.022,0.752-1.991,1.559-2.958,2.312c-5.274,4.519-9.792,9.953-13.181,16.031
	c-0.969,1.668-1.828,3.388-2.53,5.111c-1.72,3.819-3.013,7.906-3.819,12.104c-0.699,3.604-1.074,7.315-1.074,11.135
	c0,4.896,0.591,9.576,1.72,14.095c-5.81-3.283-12.372-5.435-19.367-6.025c-0.914-0.163-1.828-0.216-2.742-0.216
	C317.748,571.366,317.104,571.366,316.513,571.366"/>
<path fill="#B6DDF5" d="M437.98,574.377c0,4.25-0.701,8.444-1.991,12.318l-0.055,0.053c-1.074,3.389-2.635,6.562-4.573,9.467
	c-1.612,2.422-3.496,4.628-5.539,6.619l-0.161,0.16c-2.099,1.991-4.413,3.764-6.887,5.271c-0.754,0.431-1.452,0.861-2.206,1.237
	H283.215c0.375-0.754,0.751-1.505,1.182-2.259c6.832-12.479,18.56-21.733,32.332-25.607c0.751-0.216,1.505-0.431,2.312-0.591
	c3.283-0.754,6.671-1.237,10.007-1.345c1.45-0.108,2.958-0.053,4.41,0.055c5.272,0.216,10.543,1.29,15.6,3.065
	c-0.215-2.099-0.323-4.194-0.323-6.349c0-3.173,0.215-6.294,0.698-9.307c0.163-1.182,0.378-2.366,0.594-3.496
	c0.751-3.28,1.668-6.456,2.905-9.629c0.268-0.699,0.591-1.397,0.914-2.096c0.375-1.025,0.859-2.047,1.29-3.068
	c0.271-0.539,0.594-1.13,0.914-1.668c2.585-4.894,5.703-9.307,9.414-13.233c0.271-0.323,0.594-0.698,0.917-1.021
	c0.699-0.754,1.397-1.452,2.151-2.151c1.022-0.969,2.044-1.883,3.121-2.797c1.828-1.453,3.764-2.854,5.755-4.143
	c0.699-0.431,1.4-0.914,2.099-1.345c0.215,1.72,0.323,3.443,0.375,5.164v0.698c0,1.721-0.108,3.443-0.323,5.111
	c-0.215,2.151-0.591,4.303-1.129,6.401c4.305-2.422,9.091-4.087,14.202-4.733c1.776-0.271,3.604-0.378,5.432-0.378
	c1.831,0,3.607,0.107,5.327,0.378c13.448,1.775,24.746,10.165,30.501,21.838c1.884,3.715,3.12,7.749,3.659,12.052
	C437.873,570.772,437.98,572.546,437.98,574.377"/>
<path fill="#B6DDF5" d="M132.717,485.895c0,0,7.649,2.724,14.825,15.808L132.717,485.895z"/>
<path fill="#B6DDF5" d="M298.867,497.021c0.323,0.858,0.591,1.775,0.861,2.689l-0.163,0.215l-1.991,2.795l-0.053,0.056
	l-8.875,12.264c0.376-1.561,0.859-3.12,1.561-4.678v-0.056c1.883-4.41,4.841-8.715,7.961-12.427
	C298.384,497.557,298.599,497.289,298.867,497.021"/>
<path fill="#B6DDF5" d="M154.453,511.158c0,0,6.75,10.128,6.861,12.555L154.453,511.158z"/>
<path fill="#FFFFFF" d="M267.72,619.781v0.535c0,1.293,0.056,2.53,0.216,3.768H73.738c-24.53-9.737-45.026-35.558-45.026-63.371
	c0-16.514,6.133-31.684,16.301-43.304c12.211-14.039,30.233-22.915,50.351-22.915c8.553,0,16.677,1.613,24.208,4.57
	c1.129,0.431,2.259,0.917,3.388,1.455c0.378-1.185,0.754-2.369,1.185-3.551c1.505-4.303,3.281-8.447,5.379-12.427
	c2.85-5.324,6.133-10.384,9.897-15.009l0.055-0.055c16.945-20.925,42.928-34.32,71.976-34.32c4.41,0,8.715,0.322,12.965,0.914
	c4.57,0.646,8.983,1.561,13.341,2.853c14.255,4.194,27.112,11.78,37.548,21.733c0.053,0,0.053,0,0.053,0.052
	c10.543,9.952,18.667,22.327,23.509,36.259v0.053c0.323,0.861,0.591,1.775,0.861,2.689c0.107,0.271,0.16,0.538,0.268,0.809
	c1.077-0.594,2.207-1.076,3.388-1.56c2.207-0.97,4.521-1.724,6.887-2.314s4.841-1.021,7.315-1.237
	c1.453-0.162,2.905-0.215,4.411-0.215c16.839,0,31.685,8.66,40.293,21.68c-1.022,0.752-1.991,1.559-2.958,2.312
	c-5.274,4.519-9.792,9.953-13.181,16.031c-0.969,1.668-1.828,3.388-2.53,5.111c-1.72,3.819-3.013,7.906-3.819,12.104
	c-0.699,3.604-1.074,7.315-1.074,11.135c0,4.896,0.591,9.576,1.72,14.095c-5.81-3.283-12.372-5.435-19.367-6.025
	c-0.914-0.163-1.828-0.216-2.742-0.216c-0.593-0.053-1.237-0.053-1.831-0.053c-23.346,0-42.928,16.354-47.661,38.14
	C268.096,612.842,267.72,616.229,267.72,619.781"/>
<path fill="#FFFFFF" d="M428.24,589.007c0,2.046-0.16,4.035-0.482,5.974c-0.432,2.797-1.13,5.486-2.1,8.017
	c-2.096,5.484-5.432,10.38-9.574,14.415c-2.689,2.637-5.862,4.896-9.253,6.672H278.479c0-0.271,0.056-0.539,0.108-0.81
	c0.215-1.021,0.431-1.991,0.699-2.958c0.861-3.766,2.207-7.37,3.927-10.811c0.378-0.754,0.754-1.508,1.185-2.262
	c6.832-12.479,18.56-21.73,32.329-25.604c0.754-0.216,1.508-0.431,2.314-0.592c3.28-0.753,6.671-1.239,10.005-1.345
	c1.452-0.11,2.96-0.055,4.413,0.053c5.272,0.216,10.543,1.292,15.6,3.068c-0.215-2.1-0.323-4.197-0.323-6.349
	c0-3.176,0.215-6.297,0.698-9.307c0.163-1.185,0.378-2.369,0.594-3.499c0.751-3.28,1.666-6.453,2.902-9.629
	c0.271-0.699,0.594-1.397,0.917-2.096c0.375-1.022,0.859-2.044,1.29-3.068c0.271-0.536,0.591-1.13,0.914-1.665
	c2.582-4.896,5.703-9.31,9.414-13.233c0.271-0.323,0.594-0.701,0.914-1.024c0.702-0.751,1.4-1.45,2.154-2.151
	c0.483,1.721,0.859,3.496,1.13,5.327c0.323,2.043,0.483,4.194,0.483,6.349v0.483c0,3.979-0.483,7.854-1.453,11.564
	c5.811-3.28,12.535-5.163,19.635-5.163c1.452,0,2.853,0.052,4.305,0.268c3.764,0.375,7.368,1.292,10.759,2.689
	c8.284,3.336,15.169,9.414,19.526,17.055c2.044,3.389,3.496,7.101,4.358,11.08C427.92,583.199,428.24,586.05,428.24,589.007"/>
<path fill="#2887C8" d="M430.931,579.648c-0.16-0.807-0.376-1.668-0.644-2.42c-0.97-3.498-2.367-6.779-4.143-9.684
	c-0.215-0.376-0.431-0.699-0.646-1.022c-4.788-7.961-12.104-14.199-20.711-17.644c-0.431-0.215-0.914-0.378-1.397-0.538
	c-3.283-1.237-6.779-2.099-10.22-2.422c-0.163-0.052-0.378-0.052-0.539-0.052c-6.509-0.862-12.91,0.16-18.991,2.311
	c0.163-1.72,0.271-3.44,0.271-5.216c0-1.453-0.055-2.905-0.215-4.358c-0.055-1.021-0.163-2.043-0.323-3.013
	c-0.107-0.861-0.271-1.72-0.431-2.526v-0.056c-0.323-1.72-0.754-3.336-1.29-5.003c-1.077,0.914-2.099,1.83-3.121,2.8
	c-0.754,0.698-1.452,1.397-2.154,2.148c-0.32,0.325-0.644,0.701-0.914,1.024c0.215,0.914,0.378,1.775,0.486,2.689
	c0.16,1.074,0.268,2.151,0.323,3.281c0.105,0.969,0.105,1.99,0.105,3.013c0,1.775-0.105,3.496-0.32,5.216
	c-0.215,1.831-0.539,3.659-0.969,5.38c-0.375,1.455,0.107,3.013,1.345,3.93c1.185,0.914,2.797,1.019,4.087,0.32
	c5.435-3.065,11.568-4.733,17.807-4.733c1.292,0,2.474,0.053,3.927,0.268c0.107,0,0.271,0,0.378,0.056
	c3.229,0.323,6.346,1.185,9.359,2.366c0.482,0.216,0.969,0.379,1.399,0.646c6.832,3.065,12.587,8.284,16.299,14.901
	c0.216,0.323,0.378,0.644,0.538,0.969c1.561,2.742,2.689,5.755,3.389,9.036c0.215,0.807,0.375,1.668,0.486,2.529
	c0.268,1.668,0.375,3.443,0.375,5.164c0,1.828-0.107,3.604-0.431,5.379c-0.268,1.937-0.698,3.765-1.29,5.487
	c-0.162,0.591-0.378,1.183-0.594,1.776c-0.861,2.259-1.99,4.518-3.388,6.613c-1.508,2.314-3.28,4.521-5.327,6.456
	c-2.151,2.154-4.733,4.035-7.53,5.595H279.285c-0.268,0.97-0.483,1.939-0.699,2.958c-0.052,0.271-0.108,0.538-0.108,0.81
	c-0.215,1.236-0.375,2.474-0.431,3.711h128.783c0.593,0,1.185-0.107,1.723-0.375c3.819-1.991,7.208-4.466,10.168-7.318
	c4.57-4.518,8.229-9.95,10.436-15.76c1.021-2.529,1.721-5.274,2.204-8.125c0.056-0.215,0.056-0.431,0.107-0.646
	c0.216-1.505,0.431-3.118,0.431-4.679c0.107-0.646,0.107-1.239,0.107-1.883C432.007,585.781,431.632,582.608,430.931,579.648
	 M295.694,499.333c0.108,0.325,0.268,0.753,0.375,1.185c0.056,0.215,0.16,0.431,0.216,0.701c0.055,0.053,0.215,0.591,0.215,0.644
	c0.16,0.485,0.431,0.861,0.806,1.237c0.323,0.378,0.807,0.698,1.345,0.914c1.022,0.378,2.099,0.322,3.068-0.16
	c0.052,0,0.052,0,0.105-0.056h0.055c0.107-0.053,0.16-0.104,0.268-0.16c2.798-1.4,5.866-2.582,9.039-3.389
	c0.483-0.107,0.914-0.215,1.397-0.271h0.055c1.775-0.431,3.551-0.698,5.379-0.858c0.591-0.056,1.237-0.108,1.883-0.163
	c0.699-0.053,1.397-0.053,2.096-0.053c15.008,0,28.888,7.479,37.172,20.01c0.055,0.108,0.108,0.163,0.163,0.271
	c0.966-0.753,1.936-1.56,2.958-2.313s2.043-1.453,3.065-2.151c-9.737-14.578-25.875-23.294-43.358-23.294
	c-1.666,0-3.226,0.108-4.733,0.269c-2.582,0.216-5.272,0.646-7.906,1.345c-2.474,0.594-4.844,1.4-7.103,2.314
	c-5.001-14.095-13.394-27.005-24.26-37.28c-0.055-0.053-0.055-0.105-0.108-0.105c-11.029-10.544-24.53-18.345-39.056-22.647
	c-4.41-1.292-8.928-2.262-13.879-2.96c-4.625-0.646-9.036-0.914-13.501-0.914c-29.211,0-56.484,12.963-74.937,35.72
	c-3.764,4.626-7.208,9.897-10.328,15.652c-2.096,4.035-3.927,8.285-5.487,12.695c-8.069-3.174-16.569-4.733-25.337-4.733
	c-20.388,0-39.807,8.768-53.148,24.155C31.081,527.63,25,543.876,25,560.713c0,27.811,19.905,55.947,47.341,66.867
	c0.483,0.16,0.914,0.215,1.397,0.215h194.681c-0.216-1.237-0.376-2.475-0.483-3.711c-0.16-1.237-0.216-2.475-0.216-3.768H74.492
	c-24.422-9.952-42.013-34.913-42.013-59.604c0-10.651,2.745-21.035,7.854-30.233c2.099-3.764,4.625-7.315,7.478-10.596
	c11.996-13.771,29.319-21.681,47.553-21.681c9.091,0,17.861,1.938,26.038,5.705c0.053,0.053,0.108,0.053,0.16,0.053
	c0.053,0,0.053,0.053,0.108,0.053c0,0,0.16,0.055,0.483,0.162c0.806,0.16,1.615,0.108,2.314-0.215
	c0.969-0.483,1.721-1.293,2.043-2.314c0.323-1.021,0.646-1.988,1.022-2.957c1.453-4.306,3.283-8.5,5.271-12.375
	c0.055-0.053,0.055-0.16,0.108-0.215l0.055-0.053c2.797-5.217,5.97-9.952,9.414-14.202c16.944-20.927,42.121-32.976,69.071-32.976
	c4.142,0,8.177,0.323,12.427,0.914c0.861,0.107,1.72,0.271,2.582,0.432c3.659,0.59,6.992,1.344,10.22,2.313
	c1.129,0.32,2.314,0.698,3.443,1.13c12.104,4.034,23.238,10.811,32.544,19.634c0.055,0.056,0.055,0.108,0.108,0.16
	c10.168,9.577,17.969,21.628,22.595,34.861C295.479,498.634,295.586,498.957,295.694,499.333"/>
<path fill="#2887C8" d="M137.815,520.036c-1.324,0-2.603-0.699-3.281-1.941c-6.267-11.426-12.787-14.076-12.857-14.097
	c-1.904-0.749-2.884-2.89-2.167-4.808c0.709-1.906,2.776-2.915,4.733-2.225c0.914,0.328,9.204,3.604,16.842,17.536
	c0.995,1.807,0.333,4.079-1.479,5.072C139.042,519.887,138.42,520.036,137.815,520.036"/>
<path fill="#2887C8" d="M278.936,533.358c-0.273,0-0.554-0.031-0.827-0.095c-2.012-0.451-3.281-2.453-2.824-4.471
	c3.404-15.061,21.507-30.484,22.274-31.136c1.571-1.329,3.94-1.124,5.262,0.446c1.334,1.576,1.135,3.938-0.441,5.267
	c-0.166,0.145-16.95,14.465-19.8,27.073C282.185,532.182,280.641,533.358,278.936,533.358"/>
<path fill="#2887C8" d="M151.574,542.042c-1.986,0-3.641-1.57-3.728-3.575c-0.302-1.132-3.48-6.503-6.235-10.646
	c-1.14-1.718-0.683-4.04,1.04-5.18c1.731-1.143,4.045-0.678,5.185,1.038c4.862,7.294,7.381,12.166,7.478,14.465
	c0.089,2.064-1.513,3.809-3.572,3.897C151.687,542.042,151.634,542.042,151.574,542.042"/>
<path fill="#B6DDF5" d="M755.849,585.24c0,33.947-25.068,65.522-55.031,77.41H293.863c-0.644-0.322-1.237-0.698-1.881-1.074
	c-3.443-1.938-6.617-4.305-9.414-7.047c-0.055-0.055-0.055-0.055-0.055-0.107c-3.121-6.725-4.733-14.095-4.733-21.681
	c0-1.613,0.052-3.281,0.268-4.949c0.055-1.237,0.216-2.474,0.431-3.711c0-0.269,0.056-0.538,0.108-0.807
	c0.215-1.021,0.431-1.991,0.699-2.958c0.861-3.766,2.207-7.37,3.927-10.813c0.378-0.754,0.754-1.505,1.185-2.259
	c6.832-12.479,18.56-21.733,32.329-25.607c0.754-0.216,1.508-0.431,2.314-0.591c3.28-0.754,6.671-1.237,10.005-1.345
	c1.452-0.108,2.96-0.053,4.413,0.055c5.272,0.216,10.543,1.29,15.6,3.065c-0.215-2.099-0.323-4.194-0.323-6.349
	c0-3.173,0.215-6.294,0.698-9.307c0.163-1.182,0.378-2.366,0.594-3.496c0.751-3.28,1.666-6.456,2.902-9.629
	c0.271-0.699,0.594-1.397,0.917-2.096c0.375-1.025,0.859-2.047,1.29-3.068c0.271-0.539,0.591-1.13,0.914-1.668
	c2.582-4.894,5.703-9.307,9.414-13.233c0.271-0.323,0.594-0.698,0.914-1.021c0.702-0.754,1.4-1.452,2.154-2.151
	c1.022-0.969,2.044-1.883,3.121-2.797c1.828-1.453,3.764-2.854,5.755-4.143c0.699-0.431,1.397-0.914,2.099-1.345
	c0.215,1.72,0.32,3.443,0.375,5.164c3.927-2.582,8.229-4.681,12.75-6.294c3.441-1.185,7.048-2.099,10.759-2.637
	c2.851-0.429,5.755-0.644,8.713-0.644c6.724,0,13.235,1.129,19.314,3.28c0.375,0.107,0.754,0.268,1.129,0.376
	c0.375,0.163,0.754,0.268,1.129,0.431c0.432,0.163,0.807,0.323,1.238,0.538c0.322,0.108,0.646,0.216,0.969,0.376
	c1.074,0.483,2.151,0.969,3.173,1.508c0.431-1.453,0.914-2.905,1.452-4.306c0.592-1.668,1.183-3.28,1.884-4.948
	c0.053-0.323,0.16-0.646,0.323-0.914c0.053-0.271,0.16-0.539,0.32-0.754c0-0.16,0.107-0.323,0.215-0.483
	c0.432-1.13,0.917-2.206,1.508-3.336c-0.055,0,0-0.053,0-0.053c0-0.163,0.108-0.323,0.216-0.485
	c0.216-0.539,0.483-1.074,0.751-1.613c0.271-0.538,0.539-1.021,0.81-1.561c0.323-0.698,0.698-1.452,1.129-2.15
	c0.216-0.483,0.483-0.97,0.751-1.4c0.216-0.428,0.432-0.754,0.646-1.182l0.055-0.056c0.108-0.268,0.269-0.483,0.432-0.751
	c0.268-0.486,0.535-0.969,0.859-1.455c0.43-0.751,0.914-1.505,1.452-2.259c0.591-0.967,1.237-1.937,1.883-2.905
	c0.538-0.859,1.13-1.721,1.776-2.527c0.215-0.322,0.43-0.646,0.698-0.969c0.216-0.323,0.483-0.644,0.754-0.967
	c0.216-0.323,0.483-0.646,0.754-0.969c0.376-0.539,0.751-1.022,1.182-1.508c0.056-0.105,0.163-0.213,0.269-0.32
	c0.322-0.432,0.646-0.862,1.023-1.293c0.321-0.431,0.752-0.861,1.13-1.289c0.269-0.379,0.536-0.701,0.858-1.022
	c0.379-0.431,0.754-0.861,1.238-1.292c0.27-0.376,0.594-0.754,0.969-1.129c0.431-0.484,0.861-0.914,1.293-1.346
	c0.914-1.021,1.936-1.99,2.902-2.904c0.43-0.484,0.861-0.862,1.292-1.238c0.483-0.482,1.021-0.969,1.505-1.399
	c0.539-0.483,1.077-0.967,1.668-1.397c0.378-0.431,0.754-0.754,1.129-1.021c0.163-0.16,0.379-0.323,0.539-0.486
	c0.271-0.213,0.486-0.375,0.754-0.591c0.107-0.108,0.268-0.213,0.375-0.269c0.163-0.16,0.379-0.322,0.539-0.485
	c0.807-0.698,1.668-1.345,2.529-1.988c0.107-0.056,0.215-0.108,0.323-0.216c0.858-0.646,1.72-1.289,2.582-1.883
	c0.858-0.646,1.772-1.237,2.689-1.828c0.698-0.483,1.397-0.914,2.097-1.346c0.754-0.482,1.508-0.969,2.313-1.452
	c0.323-0.216,0.698-0.431,1.077-0.646c0.591-0.323,1.129-0.646,1.721-0.97c0.914-0.483,1.775-0.967,2.689-1.45
	c0.215-0.162,0.431-0.271,0.699-0.378c0.322-0.216,0.698-0.376,1.076-0.538c1.775-0.914,3.549-1.773,5.38-2.527
	c0.591-0.271,1.182-0.538,1.775-0.754c1.397-0.591,2.85-1.182,4.303-1.721c4.788-1.83,9.737-3.28,14.793-4.412
	c5.324-1.182,10.759-1.988,16.354-2.367c2.742-0.215,5.54-0.322,8.393-0.322c1.72,0,3.388,0.055,5.056,0.107
	c3.928,0.162,7.799,0.538,11.566,1.129c18.883,2.745,36.258,10.168,50.836,21.087c6.131,6.404,11.457,13.56,15.923,21.25
	c4.194,7.263,7.639,15.062,10.112,23.293c1.293-0.591,2.582-1.129,3.927-1.668c1.4-0.591,2.851-1.074,4.358-1.56
	c1.452-0.483,2.904-0.914,4.41-1.29c6.724-1.831,13.771-2.798,21.034-2.798c17.215,0,33.19,5.324,46.315,14.416
	c5.487,3.767,10.437,8.177,14.794,13.125c4.25,4.788,7.909,10.008,10.922,15.655C752.458,558.774,755.849,571.632,755.849,585.24"/>
<path fill="#B6DDF5" d="M755.849,585.24c0,33.947-25.068,65.522-55.031,77.41H293.863c-0.644-0.322-1.237-0.698-1.881-1.074
	c-3.443-1.938-6.617-4.305-9.414-7.047c-0.055-0.055-0.055-0.055-0.055-0.107c-3.121-6.725-4.733-14.095-4.733-21.681
	c0-1.613,0.052-3.281,0.268-4.949c0.055-1.237,0.216-2.474,0.431-3.711c0-0.269,0.056-0.538,0.108-0.807
	c0.215-1.021,0.431-1.991,0.699-2.958c0.861-3.766,2.207-7.37,3.927-10.813c0.378-0.754,0.754-1.505,1.185-2.259
	c6.832-12.479,18.56-21.733,32.329-25.607c0.754-0.216,1.508-0.431,2.314-0.591c3.28-0.754,6.671-1.237,10.005-1.345
	c1.452-0.108,2.96-0.053,4.413,0.055c5.272,0.216,10.543,1.29,15.6,3.065c-0.215-2.099-0.323-4.194-0.323-6.349
	c0-3.173,0.215-6.294,0.698-9.307c0.163-1.182,0.378-2.366,0.594-3.496c0.751-3.28,1.666-6.456,2.902-9.629
	c0.271-0.699,0.594-1.397,0.917-2.096c0.375-1.025,0.859-2.047,1.29-3.068c0.271-0.539,0.591-1.13,0.914-1.668
	c2.582-4.894,5.703-9.307,9.414-13.233c0.271-0.323,0.594-0.698,0.914-1.021c0.702-0.754,1.4-1.452,2.154-2.151
	c1.022-0.969,2.044-1.883,3.121-2.797c1.828-1.453,3.764-2.854,5.755-4.143c0.699-0.431,1.397-0.914,2.099-1.345
	c0.215,1.72,0.32,3.443,0.375,5.164c3.927-2.582,8.229-4.681,12.75-6.294c3.441-1.185,7.048-2.099,10.759-2.637
	c2.851-0.429,5.755-0.644,8.713-0.644c6.724,0,13.235,1.129,19.314,3.28c0.375,0.107,0.754,0.268,1.129,0.376
	c0.375,0.163,0.754,0.268,1.129,0.431c0.432,0.163,0.807,0.323,1.238,0.538c0.322,0.108,0.646,0.216,0.969,0.376
	c1.074,0.483,2.151,0.969,3.173,1.508c0.431-1.453,0.914-2.905,1.452-4.306c0.592-1.668,1.183-3.28,1.884-4.948
	c0.053-0.323,0.16-0.646,0.323-0.914c0.053-0.271,0.16-0.539,0.32-0.754c0-0.16,0.107-0.323,0.215-0.483
	c0.432-1.13,0.917-2.206,1.508-3.336c-0.055,0,0-0.053,0-0.053c0-0.163,0.108-0.323,0.216-0.485
	c0.216-0.539,0.483-1.074,0.751-1.613c0.271-0.538,0.539-1.021,0.81-1.561c0.323-0.698,0.698-1.452,1.129-2.15
	c0.216-0.483,0.483-0.97,0.751-1.4c0.216-0.428,0.432-0.754,0.646-1.182l0.055-0.056c0.108-0.268,0.269-0.483,0.432-0.751
	c0.268-0.486,0.535-0.969,0.859-1.455c0.43-0.751,0.914-1.505,1.452-2.259c0.591-0.967,1.237-1.937,1.883-2.905
	c0.538-0.859,1.13-1.721,1.776-2.527c0.215-0.322,0.43-0.646,0.698-0.969c0.216-0.323,0.483-0.644,0.754-0.967
	c0.216-0.323,0.483-0.646,0.754-0.969c0.376-0.539,0.751-1.022,1.182-1.508c0.056-0.105,0.163-0.213,0.269-0.32
	c0.322-0.432,0.646-0.862,1.023-1.293c0.321-0.431,0.752-0.861,1.13-1.289c0.269-0.379,0.536-0.701,0.858-1.022
	c0.379-0.431,0.754-0.861,1.238-1.292c0.27-0.376,0.594-0.754,0.969-1.129c0.431-0.484,0.861-0.914,1.293-1.346
	c0.914-1.021,1.936-1.99,2.902-2.904c0.43-0.484,0.861-0.862,1.292-1.238c0.483-0.482,1.021-0.969,1.505-1.399
	c0.539-0.483,1.077-0.967,1.668-1.397c0.378-0.431,0.754-0.754,1.129-1.021c0.163-0.16,0.379-0.323,0.539-0.486
	c0.271-0.213,0.486-0.375,0.754-0.591c0.107-0.108,0.268-0.213,0.375-0.269c0.163-0.16,0.379-0.322,0.539-0.485
	c0.807-0.698,1.668-1.345,2.529-1.988c0.107-0.056,0.215-0.108,0.323-0.216c0.858-0.646,1.72-1.289,2.582-1.883
	c0.858-0.646,1.772-1.237,2.689-1.828c0.698-0.483,1.397-0.914,2.097-1.346c0.754-0.482,1.508-0.969,2.313-1.452
	c0.323-0.216,0.698-0.431,1.077-0.646c0.591-0.323,1.129-0.646,1.721-0.97c0.914-0.483,1.775-0.967,2.689-1.45
	c0.215-0.162,0.431-0.271,0.699-0.378c0.322-0.216,0.698-0.376,1.076-0.538c1.775-0.914,3.549-1.773,5.38-2.527
	c0.591-0.271,1.182-0.538,1.775-0.754c1.397-0.591,2.85-1.182,4.303-1.721c4.788-1.83,9.737-3.28,14.793-4.412
	c5.324-1.182,10.759-1.988,16.354-2.367c2.742-0.215,5.54-0.322,8.393-0.322c1.72,0,3.388,0.055,5.056,0.107
	c3.928,0.162,7.799,0.538,11.566,1.129c18.883,2.745,36.258,10.168,50.836,21.087c6.131,6.404,11.457,13.56,15.923,21.25
	c4.194,7.263,7.639,15.062,10.112,23.293c1.293-0.591,2.582-1.129,3.927-1.668c1.4-0.591,2.851-1.074,4.358-1.56
	c1.452-0.483,2.904-0.914,4.41-1.29c6.724-1.831,13.771-2.798,21.034-2.798c17.215,0,33.19,5.324,46.315,14.416
	c5.487,3.767,10.437,8.177,14.794,13.125c4.25,4.788,7.909,10.008,10.922,15.655C752.458,558.774,755.849,571.632,755.849,585.24"/>
<path fill="#B6DDF5" d="M640.665,511.673c0,0-9.352,3.328-18.114,19.312L640.665,511.673z"/>
<path fill="#B6DDF5" d="M450.137,547.264l-3.874-5.326l-14.846-20.549c1.504,0.483,3.012,1.074,4.465,1.721
	c4.303,4.896,8.875,10.922,11.78,17.107C448.737,542.583,449.599,544.95,450.137,547.264"/>
<path fill="#B6DDF5" d="M614.106,542.536c0,0-8.253,12.371-8.382,15.34L614.106,542.536z"/>
<path fill="#FFFFFF" d="M770.427,598.153c0,33.946-25.016,65.522-55.031,77.41H308.444c-4.145-2.151-7.964-4.894-11.297-8.122
	c-1.883-1.83-3.606-3.766-5.164-5.865c-6.081-8.068-9.629-18.074-9.629-28.832c0-2.958,0.268-5.863,0.751-8.66
	c0.969-5.217,2.745-10.113,5.271-14.578c6.509-11.943,17.969-20.819,31.686-23.992c3.551-0.809,7.21-1.237,11.029-1.237
	c0.644,0,1.345,0,1.988,0.053c7.962,0.323,15.439,2.582,21.949,6.241c-1.129-4.521-1.721-9.199-1.721-14.095
	c0-2.905,0.215-5.811,0.646-8.608c0.644-4.25,1.721-8.284,3.226-12.208c0.646-1.616,1.345-3.231,2.099-4.789
	c2.689-5.435,6.186-10.436,10.383-14.74c3.065-3.173,6.509-6.023,10.22-8.445c3.927-2.582,8.229-4.681,12.75-6.293
	c3.441-1.185,7.048-2.099,10.759-2.638c2.851-0.431,5.755-0.646,8.713-0.646c6.724,0,13.233,1.129,19.314,3.283
	c1.504,0.483,3.012,1.074,4.465,1.72c1.074,0.483,2.151,0.97,3.173,1.506c10.112-33.566,35.772-60.571,68.588-72.728
	c4.788-1.831,9.737-3.283,14.793-4.413c5.324-1.182,10.759-1.99,16.354-2.366c2.742-0.216,5.54-0.323,8.393-0.323
	c1.72,0,3.388,0.053,5.056,0.107c3.928,0.16,7.799,0.539,11.566,1.13c18.88,2.745,36.258,10.168,50.836,21.087
	c14.522,10.759,26.358,24.961,34.32,41.314c2.474,5.164,4.625,10.544,6.293,16.139c10.275-4.681,21.733-7.263,33.729-7.263
	c17.268,0,33.354,5.379,46.531,14.578C756.601,546.458,770.427,570.721,770.427,598.153"/>
<path fill="#2887C8" d="M738.15,528.113c-5.487-3.767-11.35-6.939-17.431-9.361c-10.005-3.979-20.708-6.023-31.737-6.023
	c-10.704,0-21.087,1.936-30.932,5.7c-1.29-3.765-2.851-7.476-4.681-11.295c-0.108-0.216-0.213-0.485-0.32-0.701
	c-8.232-16.944-20.552-31.79-35.668-42.98c-15.438-11.567-33.729-19.151-52.88-21.948c-3.872-0.591-7.962-1.021-12.104-1.182
	c-4.625-0.163-9.413-0.11-13.932,0.213c-5.646,0.378-11.404,1.236-17.052,2.477c-5.38,1.234-10.544,2.742-15.385,4.57
	c-32.547,12.104-58.314,38.302-69.717,70.741c-1.13-0.485-2.313-0.917-3.392-1.239c-9.573-3.389-20.28-4.355-30.177-2.851
	c-3.819,0.539-7.747,1.505-11.673,2.851c-4.142,1.508-8.017,3.283-11.565,5.435c-0.699,0.431-1.4,0.914-2.099,1.345
	c-1.991,1.289-3.927,2.689-5.755,4.143c-1.077,0.914-2.099,1.828-3.121,2.797c-0.754,0.699-1.452,1.397-2.151,2.151
	c-0.323,0.323-0.646,0.698-0.917,1.021c-3.711,3.927-6.829,8.34-9.414,13.233c-0.32,0.538-0.643,1.129-0.914,1.668
	c-0.431,1.021-0.914,2.043-1.29,3.068c-0.323,0.698-0.646,1.396-0.914,2.096c-1.237,3.173-2.154,6.349-2.905,9.629
	c-0.215,1.13-0.431,2.314-0.594,3.496c-0.483,3.013-0.698,6.134-0.698,9.307c0,2.154,0.107,4.25,0.323,6.349
	c-5.056-1.775-10.328-2.85-15.6-3.065c-1.453-0.11-2.96-0.163-4.41-0.055c-3.336,0.107-6.724,0.591-10.007,1.345
	c-0.807,0.16-1.561,0.375-2.312,0.591c-13.772,3.874-25.5,13.128-32.332,25.607c-0.431,0.754-0.806,1.505-1.182,2.259
	c-1.723,3.443-3.068,7.048-3.927,10.813c-0.271,0.967-0.486,1.937-0.702,2.958c-0.052,0.269-0.108,0.538-0.108,0.807
	c-0.215,1.237-0.375,2.474-0.431,3.711c-0.213,1.668-0.268,3.336-0.268,4.949c0,7.586,1.612,14.956,4.733,21.681
	c0,0.053,0,0.053,0.055,0.107c1.505,3.443,3.444,6.725,5.755,9.789c1.668,2.207,3.496,4.303,5.65,6.401
	c3.656,3.552,7.798,6.509,12.372,8.876c0.646,0.378,1.345,0.538,2.099,0.538h406.952c0.592,0,1.13-0.107,1.668-0.323
	C750.63,666.525,775,632.15,775,598.153C775,570.287,761.229,544.088,738.15,528.113 M309.573,670.99
	c-3.389-1.883-6.509-4.142-9.254-6.832c-0.538-0.485-1.021-1.021-1.452-1.508c-1.182-1.236-2.259-2.474-3.229-3.818
	c-5.7-7.584-8.712-16.569-8.712-26.091c0-1.613,0.107-3.281,0.323-4.949c0.053-0.966,0.213-1.936,0.376-2.904
	c0.052-0.269,0.107-0.536,0.16-0.807c0.271-1.29,0.594-2.529,0.969-3.765c0.861-3.015,2.043-5.865,3.604-8.607
	c0.431-0.754,0.862-1.508,1.345-2.206c6.133-9.845,15.978-16.944,27.38-19.526c0.81-0.163,1.561-0.323,2.37-0.486
	c2.527-0.431,5.056-0.644,7.638-0.644c0.539,0,1.074,0,1.828,0.053c1.508,0.055,3.065,0.216,4.573,0.431
	c5.324,0.754,10.543,2.529,15.276,5.219c1.616,0.914,3.604,0.752,5.057-0.322c1.453-1.133,2.099-3.014,1.615-4.789
	c-1.021-4.197-1.56-8.552-1.56-12.965c0-1.453,0.052-2.958,0.215-4.41c0.053-1.185,0.215-2.367,0.375-3.496
	c0.483-3.173,1.237-6.241,2.259-9.199c0.215-0.646,0.431-1.345,0.698-1.99c0.378-0.97,0.754-1.938,1.185-2.853
	c0.216-0.536,0.483-1.074,0.754-1.613c0.807-1.612,1.668-3.228,2.69-4.733c1.182-1.99,2.582-3.927,4.087-5.702
	c0.862-1.13,1.831-2.151,2.797-3.176c0.271-0.268,0.486-0.483,0.754-0.698c1.828-1.881,3.767-3.549,5.863-5.109
	c0.914-0.701,1.883-1.345,2.853-1.99c3.121-2.044,6.509-3.819,10.22-5.22c0.483-0.216,0.97-0.431,1.505-0.591
	c3.068-1.074,6.188-1.828,9.253-2.314c0.216-0.053,0.483-0.053,0.699-0.104c8.499-1.293,17.591-0.486,25.928,2.474
	c1.345,0.431,2.689,0.967,3.982,1.561c0.914,0.376,1.72,0.751,2.529,1.182c0.053,0.053,0.107,0.053,0.107,0.108
	c0.105-0.056,0.16,0,0.268,0.055c1.182,0.591,2.475,0.699,3.712,0.216c0.055,0,0.16,0,0.216-0.056
	c1.236-0.483,2.206-1.56,2.582-2.85c0.268-0.914,0.59-1.831,0.914-2.745c9.576-28.94,31.521-52.772,59.604-64.929
	c1.775-0.754,3.551-1.507,5.327-2.153c3.226-1.182,6.562-2.26,10.058-3.118c1.345-0.431,2.689-0.754,4.09-1.077
	c4.194-0.969,8.444-1.612,12.694-1.99c1.021-0.108,2.044-0.213,3.065-0.269c3.443-0.323,7.154-0.376,10.65-0.271
	c0.754,0,1.508,0.055,2.262,0.055c3.174,0.16,6.347,0.376,9.414,0.862c0.592,0.052,1.13,0.107,1.666,0.212
	c17.646,2.585,34.482,9.577,48.737,20.229c6.888,5.111,13.181,11.029,18.668,17.591c5.487,6.616,10.22,13.879,14.039,21.625
	c0.056,0.161,0.163,0.271,0.216,0.431c1.936,4.035,3.604,8.069,4.948,11.996c0.431,1.13,0.807,2.312,1.13,3.441
	c0.378,1.292,1.237,2.314,2.475,2.853c1.185,0.538,2.582,0.538,3.767,0c0.055,0.053,0.055,0,0.055,0
	c0.105-0.053,0.216-0.107,0.32-0.163l0.056-0.105c9.897-4.305,20.388-6.563,31.415-6.563c15.814,0,31.039,4.733,43.949,13.771
	c5.004,3.496,9.521,7.479,13.504,11.889c12.371,13.826,19.419,31.737,19.419,50.621c0,30.178-21.518,60.679-51.32,72.837H309.573z"
	/>
<path fill="#2887C8" d="M637.14,548.462c-0.74,0-1.489-0.182-2.188-0.557c-2.211-1.217-3.022-3.993-1.807-6.204
	c9.327-17.016,19.456-21.021,20.58-21.421c2.377-0.843,4.993,0.386,5.836,2.771c0.841,2.355-0.37,4.948-2.71,5.815
	c-0.273,0.112-8.146,3.44-15.703,17.226C640.32,547.608,638.755,548.462,637.14,548.462"/>
<path fill="#2887C8" d="M464.73,564.742c-2.085,0-3.969-1.442-4.45-3.563c-3.479-15.407-23.991-32.901-24.193-33.077
	c-1.934-1.626-2.176-4.51-0.544-6.436c1.628-1.925,4.513-2.161,6.438-0.544c0.938,0.799,23.057,19.638,27.209,38.045
	c0.56,2.459-0.984,4.906-3.449,5.458C465.403,564.702,465.063,564.742,464.73,564.742"/>
<path fill="#2887C8" d="M620.323,575.521c-0.068,0-0.139,0-0.21-0.005c-2.521-0.11-4.46-2.401-4.357-4.923
	c0.124-2.815,3.202-8.762,9.151-17.683c1.395-2.093,4.234-2.658,6.328-1.266c2.101,1.399,2.666,4.239,1.269,6.338
	c-3.368,5.051-7.247,11.615-7.649,13.33C624.747,573.762,622.751,575.521,620.323,575.521"/>
</svg>
