<?xml version="1.0" encoding="utf-8"?>
<!-- Generator: Adobe Illustrator 16.0.0, SVG Export Plug-In . SVG Version: 6.00 Build 0)  -->
<!DOCTYPE svg PUBLIC "-//W3C//DTD SVG 1.0//EN" "http://www.w3.org/TR/2001/REC-SVG-20010904/DTD/svg10.dtd">
<svg version="1.0" id="Layer_1" xmlns="http://www.w3.org/2000/svg" xmlns:xlink="http://www.w3.org/1999/xlink" x="0px" y="0px"
	 width="800px" height="800px" viewBox="0 0 800 800" enable-background="new 0 0 800 800" xml:space="preserve">
<g>
	<path fill="#2887C8" d="M229.95,349.336c0-0.495,0.102-1.046,0.25-1.491h-0.055c0.055-0.152,0.151-0.3,0.204-0.449v-0.046
		c6.564-15.032,14.475-27.671,24.478-40.357c0,0,0.053,0,0.053,0.05c0.795-1.69,2.488-2.838,4.476-2.838
		c2.738,0,4.976,2.191,4.976,4.979c0,0.848-0.195,1.594-0.597,2.284c0.05,0,0.05,0.055,0.102,0.055
		c-0.102,0.149-0.25,0.297-0.353,0.446c-0.195,0.25-0.399,0.495-0.594,0.746c-9.202,11.593-17.068,24.381-23.184,38.113h-0.052
		c-0.644,2.04-2.488,3.484-4.726,3.484C232.138,354.313,229.95,352.076,229.95,349.336"/>
</g>
<g>
	<path fill="#2887C8" d="M270.054,291.816c0-1.096,0.399-2.139,0.997-2.984l0.049-0.052c0.297-0.297,0.548-0.595,0.798-0.839
		c23.982-24.737,50.703-39.116,85.084-47.673c0.347-0.149,0.746-0.25,1.148-0.297c0.292-0.102,0.588-0.198,0.889-0.25
		c-0.049,0.052-0.096,0.099-0.096,0.149c2.739,0,4.977,2.237,4.977,4.976c0,2.59-1.993,4.726-4.528,4.927l0.047,0.049
		c-30.553,7.762-57.917,23.438-80.009,44.634c-0.052,0-0.099-0.047-0.148-0.047c-0.848,1.437-2.439,2.386-4.231,2.386
		C272.292,296.795,270.054,294.604,270.054,291.816"/>
</g>
<g>
	<path fill="#2887C8" d="M339.02,301.419c0-0.046,0-0.099-0.05-0.146c3.928-2.092,7.812-4.036,11.94-5.723
		c0.102-0.055,0.25-0.151,0.347-0.151c0.597-0.25,1.247-0.399,1.891-0.399c2.738,0,4.976,2.237,4.976,4.977
		c0,1.938-1.145,3.633-2.785,4.426c-0.096,0.104-0.149,0.104-0.25,0.151c-5.77,2.29-7.261,2.937-12.389,5.871
		c-0.195,0.102-0.393,0.25-0.594,0.347c-0.647,0.303-1.393,0.501-2.191,0.501c-2.733,0-4.977-2.191-4.977-4.977
		C334.938,303.855,336.68,301.815,339.02,301.419"/>
</g>
<g>
	<path fill="#2887C8" d="M509.936,334.559c-0.102,0.052-0.197,0.099-0.297,0.148c0.697,0.848,1.09,1.943,1.09,3.085
		c0,2.739-2.236,4.976-4.971,4.976c-2.141,0-3.93-1.343-4.629-3.234c-6.219-7.167-13.234-13.682-20.896-19.358v-0.047
		c-1.396-0.897-2.291-2.441-2.291-4.184c0-2.779,2.244-4.971,4.977-4.971c1.043,0,1.992,0.297,2.785,0.842
		C495.455,318.685,502.227,325.451,509.936,334.559"/>
</g>
<g>
	<path fill="#2887C8" d="M360.315,598.424c-2.089,1.445-4.184,2.984-6.27,4.775c-1.092,0.949-1.69,2.09-1.894,3.336
		c-64.535-18.309-115.235-69.959-132.005-135.09c-0.047-0.104-0.099-0.15-0.047-0.252c-0.099-0.297-0.204-0.598-0.25-0.895
		c-0.052-0.102-0.052-0.197-0.099-0.297c0,0,0.047,0,0.047,0.047c-0.047-0.148-0.047-0.348-0.047-0.543
		c0-2.738,2.188-4.975,4.977-4.975c2.739,0,4.977,2.236,4.977,4.975v0.047c0.046-0.047,0.099-0.047,0.148-0.047
		C246.421,532.793,296.722,582.6,360.315,598.424"/>
</g>
<g>
	<path fill="#2887C8" d="M364.246,294.554c0-2.089,1.343-3.933,3.182-4.626c0.303-0.149,0.604-0.201,0.947-0.25
		c11.94-3.383,22.295-4.63,35.379-4.63c24.484,0,47.469,6.422,67.473,17.566c0,0.049-0.051,0.151-0.051,0.198
		c1.891,0.699,3.283,2.541,3.283,4.679c0,2.733-2.236,4.976-4.977,4.976c-0.299,0-0.596-0.049-0.896-0.102
		c0,0.052-0.047,0.102-0.047,0.148c-0.203-0.096-0.352-0.198-0.547-0.297c-0.699-0.198-1.344-0.597-1.895-1.046
		c-18.455-10.3-39.705-16.17-62.344-16.17c-11.494,0-22.638,1.541-33.235,4.379v-0.052c-0.402,0.154-0.848,0.204-1.297,0.204
		C366.483,299.531,364.246,297.34,364.246,294.554"/>
</g>
<g>
	<path fill="#2887C8" d="M431.816,242.359c0-2.739,2.189-4.976,4.977-4.976c0.346,0,0.699,0.046,1.043,0.099
		c10.35,1.839,20.348,4.578,30.051,8.112c0.352,0.099,0.699,0.195,1.051,0.344c0.348,0.102,0.645,0.25,0.992,0.353
		c-0.051,0.096-0.098,0.148-0.098,0.198c1.242,0.895,2.041,2.339,2.041,3.98c0,2.739-2.244,4.977-4.977,4.977
		c-1.043,0-1.994-0.3-2.74-0.795c0.057,0.049,0.057,0.146,0.057,0.198c-9.16-3.336-18.662-5.871-28.418-7.613
		c-0.346-0.102-0.693-0.148-1.043-0.198c0-0.052,0.047-0.052,0.047-0.102C433.01,246.188,431.816,244.446,431.816,242.359"/>
</g>
<g>
	<path fill="#2887C8" d="M531.83,476.965c0,0.645-0.104,1.242-0.348,1.789c-0.053,0.148-0.102,0.252-0.201,0.4
		c-21.346,49.313-70.455,83.84-127.529,83.84c-58.862,0-109.265-36.816-129.471-88.619c-0.297-0.643-0.542-1.342-0.746-1.986
		c-0.149-0.395-0.297-0.746-0.446-1.145c0.102,0.098,0.195,0.201,0.353,0.297c0.047-2.734,2.238-4.924,4.971-4.924
		c2.541,0,4.63,1.893,4.927,4.326c0.049-0.096,0.102-0.148,0.198-0.244c18.761,48.111,65.583,82.348,120.214,82.348
		c53.291,0,99.119-32.492,118.773-78.672c0,0.053,0,0.053,0.051,0.102c0.844-1.49,2.438-2.482,4.277-2.482
		C529.592,471.994,531.83,474.178,531.83,476.965"/>
</g>
<g>
	<path fill="#2887C8" d="M524.916,356.155c11.295,20.049,17.811,43.189,17.811,67.871c0,8.854-0.398,14.924-1.986,23.334
		c-0.053-0.051-0.053-0.051-0.104-0.051c-0.494,2.193-2.488,3.83-4.828,3.83c-2.738,0-4.975-2.236-4.975-4.977
		c0-0.891,0.25-1.736,0.652-2.436c-0.057,0-0.158-0.047-0.205-0.047c0.996-6.422,1.492-12.992,1.492-19.654
		c0-22.844-6.02-44.235-16.471-62.894c0.055,0,0.055,0,0.102,0.046c-0.699-0.842-1.145-1.987-1.145-3.182
		c0-2.786,2.188-4.977,4.977-4.977c2.141,0,3.934,1.343,4.629,3.234C524.916,356.201,524.916,356.201,524.916,356.155"/>
</g>
<g>
	<path fill="#2887C8" d="M580.941,480.648c0,0.846-0.197,1.592-0.547,2.291h0.098c-4.426,22.49-17.912,43.584-29.607,62.494
		c-0.148-0.996-0.297-1.994-0.496-3.039c-0.648-3.73-3.434-5.125-6.316-4.922c10.547-17.717,23.086-37.373,27.018-58.316
		c0.047,0.047,0.098,0.047,0.15,0.1c0.547-2.086,2.488-3.584,4.725-3.584C578.705,475.672,580.941,477.859,580.941,480.648"/>
</g>
<g>
	<path fill="#2887C8" d="M581.938,359.435c0.1,0.402,0.148,0.796,0.148,1.195c0,2.738-2.242,4.976-4.977,4.976
		c-2.537,0-4.576-1.835-4.873-4.23c0,0-0.057-0.046-0.057-0.093c-16.115-43.096-48.41-78.47-89.41-98.574
		c-0.449-0.25-0.895-0.446-1.344-0.696c-0.148-0.05-0.297-0.149-0.445-0.198c0.047,0,0.047-0.053,0.094-0.053
		c-1.043-0.895-1.688-2.237-1.688-3.729c0-2.738,2.238-4.976,4.977-4.976c1.043,0,1.986,0.297,2.785,0.848
		c0-0.049,0.049-0.049,0.049-0.102c43.787,21.494,78.02,59.36,94.889,105.588C582.037,359.389,581.984,359.389,581.938,359.435"/>
</g>
<g>
	<path fill="#2887C8" d="M220.743,404.818c-2.786,0-4.977-2.238-4.977-4.977h-0.148c1.043-8.112,2.692-16.022,4.726-23.833
		c0.052,0,0.148,0.047,0.204,0.047c0.792-1.585,2.433-2.684,4.379-2.684c2.733,0,4.971,2.237,4.971,4.977
		c0,0.195,0,0.393-0.05,0.597h0.05c-0.05,0.149-0.05,0.251-0.096,0.394c-1.743,6.669-3.138,13.388-4.082,20.305v0.198
		c0,0.548-0.102,1.043-0.25,1.545c-0.047,0.046-0.047,0.148-0.047,0.197h-0.049C224.676,403.475,222.885,404.818,220.743,404.818"/>
</g>
<g>
	<path fill="#2887C8" d="M265.875,440.789c-0.644-5.471-1.046-11.088-1.046-16.764c0-27.916,8.313-53.841,22.54-75.635
		c0.845-1.492,2.438-2.535,4.329-2.535c2.733,0,4.977,2.237,4.977,4.977c0,0.696-0.154,1.39-0.451,1.987
		c0.052,0.055,0.052,0.055,0.102,0.055c-0.151,0.242-0.347,0.496-0.495,0.746c-13.289,20.3-21.048,44.43-21.048,70.406
		c0,5.023,0.347,10.051,0.897,14.924c0.149,0.398,0.195,0.9,0.195,1.348c0,2.73-2.238,4.969-4.977,4.969
		c-2.584,0-4.676-1.984-4.921-4.477H265.875z"/>
</g>
<g>
	<path fill="#2887C8" d="M671.23,396.393h-36.488c-50.672,0-60.842-42.759-60.939-43.19c-0.1-0.45,0.182-0.895,0.631-0.996
		c0.447-0.101,0.896,0.182,0.996,0.631c0.023,0.105,2.465,10.619,10.971,20.981c7.83,9.538,22.572,20.907,48.342,20.907h36.488
		c0.461,0,0.834,0.374,0.834,0.833C672.064,396.02,671.691,396.393,671.23,396.393z"/>
</g>
<g>
	<path fill="#2887C8" d="M357.316,246.62c-0.382,0-0.726-0.263-0.813-0.651c-0.101-0.449,0.182-0.895,0.631-0.996
		c0.105-0.024,10.621-2.464,20.984-10.971c9.539-7.83,20.91-22.573,20.91-48.342v-36.491c0-0.46,0.374-0.834,0.834-0.834
		s0.833,0.374,0.833,0.834v36.491c0,50.671-42.764,60.843-43.196,60.94C357.438,246.614,357.376,246.62,357.316,246.62z"/>
</g>
<g>
	<path fill="#2887C8" d="M224.877,469.211c-0.382,0-0.726-0.264-0.813-0.652c-0.023-0.104-2.462-10.619-10.969-20.982
		c-7.83-9.541-22.573-20.91-48.343-20.91h-36.487c-0.46,0-0.834-0.374-0.834-0.834c0-0.461,0.374-0.834,0.834-0.834h36.487
		c50.674,0,60.843,42.764,60.94,43.195c0.101,0.449-0.182,0.896-0.631,0.996C224.999,469.203,224.937,469.211,224.877,469.211z"/>
</g>
<g>
	<path fill="#2887C8" d="M434.318,184.466c-0.213,0-0.426-0.082-0.59-0.244l-33.87-33.873l-33.87,33.873
		c-0.326,0.325-0.854,0.325-1.18,0c-0.326-0.326-0.326-0.854,0-1.18l34.459-34.463l0,0c0.001,0,0,0,0.002-0.002
		c0.001,0,0.001-0.001,0.002-0.002c0,0,0.001,0,0.002-0.001c0,0,0,0,0,0c0.145-0.141,0.327-0.22,0.514-0.235l0,0
		c0.007-0.001,0.014,0,0.021-0.001c0.017-0.001,0.06,0.002,0.049-0.001l0,0h0c0.011-0.003,0.017,0,0.024,0c0.008,0,0.013,0,0.019,0
		c0.001,0,0.002,0,0.003,0h0h0c0.009,0,0.019,0.001,0.029,0.002c0,0,0,0,0.001,0h0c0,0,0.001,0,0.002,0h0c0.002,0,0.004,0,0.007,0h0
		c0.18,0.019,0.355,0.097,0.495,0.232l0,0c0,0.001,0.001,0.001,0.002,0.002v0c0,0.001,0.002,0.001,0.002,0.002
		s0.002,0.001,0.002,0.002c0,0,0.001,0,0.002,0.001l0,0l34.459,34.463c0.326,0.326,0.326,0.854,0,1.18
		C434.746,184.385,434.531,184.466,434.318,184.466z"/>
</g>
<g>
	<path fill="#2887C8" d="M636.768,430.855c-0.215,0-0.428-0.082-0.59-0.244c-0.326-0.326-0.326-0.855,0-1.18l33.873-33.873
		l-33.873-33.867c-0.326-0.326-0.326-0.854,0-1.18c0.326-0.325,0.854-0.325,1.18,0l34.463,34.457
		c0.064,0.064,0.115,0.136,0.154,0.213c0,0,0,0.001,0,0.003c0.002,0,0,0.002,0.002,0.002c0,0,0,0.001,0.002,0.002l0,0
		c0.152,0.31,0.102,0.693-0.152,0.953l0,0c-0.002,0.001-0.002,0.002-0.002,0.002l0,0c-0.002,0.001-0.002,0.002-0.002,0.002
		c0,0.001-0.002,0.002-0.002,0.002l0,0l0,0l-34.463,34.463C637.193,430.773,636.98,430.855,636.768,430.855z"/>
</g>
<g>
	<path fill="#2887C8" d="M162.724,461.127c-0.213,0-0.427-0.08-0.59-0.244l-34.46-34.461l0,0c0-0.002-0.002-0.002-0.002-0.002
		s0,0,0-0.001c-0.324-0.325-0.323-0.853,0.002-1.177c0.001-0.001,0.002-0.002,0.002-0.003l34.458-34.455
		c0.326-0.325,0.854-0.325,1.18,0c0.326,0.326,0.326,0.854,0,1.18l-33.87,33.868l33.87,33.871c0.326,0.326,0.326,0.854,0,1.18
		C163.151,461.047,162.938,461.127,162.724,461.127z"/>
</g>
<g>
	<path fill="#FFFFFF" d="M794.398,395.559c0,28.668-23.236,51.904-51.904,51.904c-28.662,0-51.895-23.236-51.895-51.904
		c0-28.659,23.232-51.895,51.895-51.895C771.162,343.664,794.398,366.9,794.398,395.559"/>
</g>
<g>
	<path fill="#2887C8" d="M742.494,448.033c-28.93,0-52.465-23.539-52.465-52.475c0-28.93,23.535-52.466,52.465-52.466
		c28.936,0,52.475,23.536,52.475,52.466C794.969,424.494,771.43,448.033,742.494,448.033z M742.494,344.234
		c-28.299,0-51.322,23.024-51.322,51.324c0,28.305,23.023,51.332,51.322,51.332c28.305,0,51.332-23.027,51.332-51.332
		C793.826,367.259,770.799,344.234,742.494,344.234z"/>
</g>
<g>
	<path fill="#E4F0CC" d="M779.18,395.559c0,20.268-16.422,36.689-36.686,36.689c-20.258,0-36.68-16.422-36.68-36.689
		c0-20.255,16.422-36.677,36.68-36.677C762.758,358.882,779.18,375.303,779.18,395.559"/>
</g>
<g>
	<path fill="#0B9D49" d="M767.555,383.857c0,0.863-0.303,1.597-0.906,2.2l-23.406,23.412l-4.402,4.396
		c-0.602,0.604-1.336,0.906-2.193,0.906c-0.867,0-1.602-0.303-2.197-0.906l-4.404-4.396l-11.701-11.707
		c-0.602-0.606-0.906-1.338-0.906-2.197c0-0.865,0.305-1.6,0.906-2.203l4.398-4.396c0.602-0.604,1.336-0.9,2.195-0.9
		s1.594,0.297,2.201,0.9l9.508,9.542l21.211-21.247c0.604-0.601,1.338-0.906,2.197-0.906s1.592,0.306,2.203,0.906l4.391,4.399
		C767.252,382.264,767.555,382.998,767.555,383.857"/>
</g>
<g>
	<path fill="#FFFFFF" d="M109.369,427.266c0,28.66-23.236,51.896-51.903,51.896c-28.659,0-51.895-23.236-51.895-51.896
		c0-28.665,23.236-51.901,51.895-51.901C86.133,375.364,109.369,398.601,109.369,427.266"/>
</g>
<g>
	<path fill="#2887C8" d="M57.466,479.734C28.536,479.734,5,456.197,5,427.266c0-28.934,23.536-52.472,52.466-52.472
		c28.935,0,52.474,23.539,52.474,52.472C109.94,456.197,86.4,479.734,57.466,479.734z M57.466,375.935
		c-28.3,0-51.324,23.027-51.324,51.331c0,28.301,23.024,51.326,51.324,51.326c28.305,0,51.333-23.025,51.333-51.326
		C108.798,398.962,85.771,375.935,57.466,375.935z"/>
</g>
<g>
	<path fill="#E4F0CC" d="M94.151,427.266c0,20.26-16.421,36.682-36.686,36.682c-20.259,0-36.68-16.422-36.68-36.682
		c0-20.262,16.421-36.683,36.68-36.683C77.73,390.583,94.151,407.004,94.151,427.266"/>
</g>
<g>
	<path fill="#0B9D49" d="M82.526,415.559c0,0.867-0.303,1.602-0.906,2.202l-23.402,23.411l-4.405,4.396
		c-0.603,0.604-1.329,0.906-2.197,0.906c-0.863,0-1.597-0.303-2.194-0.906l-4.403-4.396l-11.704-11.711
		c-0.603-0.6-0.906-1.334-0.906-2.193c0-0.865,0.303-1.6,0.906-2.203l4.4-4.396c0.603-0.603,1.337-0.902,2.194-0.902
		c0.859,0,1.594,0.3,2.203,0.902l9.504,9.539l21.214-21.24c0.603-0.603,1.337-0.908,2.197-0.908c0.859,0,1.594,0.306,2.2,0.908
		l4.394,4.396C82.223,413.967,82.526,414.701,82.526,415.559"/>
</g>
<g>
	<path fill="#FFFFFF" d="M451.76,76.474c0,28.659-23.236,51.895-51.904,51.895c-28.661,0-51.895-23.236-51.895-51.895
		c0-28.667,23.233-51.903,51.895-51.903C428.523,24.571,451.76,47.807,451.76,76.474"/>
</g>
<g>
	<path fill="#2887C8" d="M399.856,128.94c-28.93,0-52.465-23.536-52.465-52.466C347.391,47.54,370.926,24,399.856,24
		c28.935,0,52.474,23.54,52.474,52.474C452.33,105.404,428.791,128.94,399.856,128.94z M399.856,25.142
		c-28.3,0-51.324,23.028-51.324,51.333c0,28.3,23.024,51.324,51.324,51.324c28.304,0,51.333-23.024,51.333-51.324
		C451.189,48.169,428.16,25.142,399.856,25.142z"/>
</g>
<g>
	<path fill="#E4F0CC" d="M436.545,76.474c0,20.256-16.424,36.68-36.686,36.68c-20.261,0-36.683-16.424-36.683-36.68
		c0-20.267,16.421-36.688,36.683-36.688C420.121,39.786,436.545,56.207,436.545,76.474"/>
</g>
<g>
	<path fill="#0B9D49" d="M424.916,64.767c0,0.863-0.303,1.597-0.906,2.2l-23.404,23.411l-4.403,4.396
		c-0.604,0.603-1.332,0.906-2.194,0.906c-0.868,0-1.603-0.303-2.197-0.906l-4.405-4.396l-11.701-11.707
		c-0.6-0.606-0.906-1.337-0.906-2.197c0-0.865,0.306-1.6,0.906-2.202l4.399-4.397c0.6-0.603,1.334-0.9,2.2-0.9
		c0.854,0,1.594,0.297,2.197,0.9l9.507,9.542l21.21-21.246c0.604-0.6,1.338-0.906,2.197-0.906s1.6,0.306,2.203,0.906l4.391,4.4
		C424.613,63.173,424.916,63.908,424.916,64.767"/>
</g>
<g>
	<path fill="#B6DDF5" d="M483.373,425.662c0,45.609-36.98,82.584-82.588,82.584c-45.61,0-82.589-36.975-82.589-82.584
		c0-45.613,36.979-82.586,82.589-82.586C446.393,343.076,483.373,380.049,483.373,425.662"/>
</g>
<g>
	<path fill="#B1D465" d="M313.697,388.053c0.376-0.874,0.758-1.748,1.183-2.602c-0.023,0-0.023-0.021-0.049-0.021
		c-2.457-1.865-4.039-4.819-4.039-8.126c0-5.644,4.56-10.198,10.204-10.198c1.556,0,3.019,0.329,4.344,0.968
		c0.023,0,0.023,0.023,0.046,0.023c1.087,0.519,2.055,1.201,2.882,2.078l0.026,0.023c1.812,1.812,2.928,4.32,2.928,7.106
		c0,5.621-4.583,10.23-10.227,10.23c-1.014,0-2.01-0.169-2.954-0.472h-0.023c-0.399,0.845-0.775,1.699-1.157,2.546
		c-0.921,2.156-1.774,4.345-2.526,6.588c-1.061,3.193-1.987,6.451-2.712,9.805c0,0-0.688,0.688-1.751,0.564
		c-1.11-0.117-1.771-0.971-1.771-0.971c0.757-3.705,1.797-7.339,2.978-10.859C311.853,392.467,312.729,390.224,313.697,388.053"/>
</g>
<g>
	<path fill="#B1D465" d="M400.818,342.665c-0.615,0-1.23-0.053-1.798-0.189v32.496h-19.434c-1.299,0-2.363,1.058-2.363,2.36
		c0,1.299,1.063,2.36,2.363,2.36h19.434v35.661c-3.992,0.688-7.203,3.762-8.12,7.674h-24.513c-1.299,0-2.363,1.07-2.363,2.363
		c0,1.299,1.063,2.363,2.363,2.363H390.9c0.917,3.945,4.128,6.986,8.12,7.697v35.637h-19.434c-1.299,0-2.363,1.061-2.363,2.363
		c0,1.299,1.063,2.363,2.363,2.363h19.434v32.752c0.568-0.096,1.183-0.166,1.798-0.166c0.614,0,1.229,0.07,1.82,0.166v-76.822
		c-0.592,0.166-1.184,0.234-1.82,0.234c-0.639,0-1.23-0.068-1.798-0.234c-2.005-0.566-3.633-2.076-4.368-4.037
		c-0.286-0.711-0.422-1.492-0.422-2.316c0-0.822,0.137-1.605,0.422-2.313c0.734-1.958,2.363-3.468,4.368-4.042
		c0.568-0.137,1.16-0.232,1.798-0.232c0.637,0,1.229,0.096,1.82,0.232v-76.535C402.021,342.612,401.433,342.665,400.818,342.665
		 M424.643,374.971h-12.375c-1.297,0-2.357,1.058-2.357,2.36c0,1.299,1.061,2.36,2.357,2.36h12.375
		c-0.184-0.757-0.279-1.556-0.279-2.36C424.363,376.53,424.459,375.723,424.643,374.971 M402.639,415.352v3.682
		c-0.592-0.137-1.184-0.232-1.82-0.232c-0.639,0-1.23,0.096-1.798,0.232c-2.005,0.574-3.633,2.084-4.368,4.042
		c-0.286,0.708-0.422,1.491-0.422,2.313c0,0.824,0.137,1.605,0.422,2.316c0.734,1.961,2.363,3.471,4.368,4.037
		c0.568,0.166,1.16,0.234,1.798,0.234c0.637,0,1.229-0.068,1.82-0.234v3.707c4.768-0.848,8.4-5.031,8.4-10.061
		C411.039,420.383,407.406,416.176,402.639,415.352 M495.188,415.543c-1.469-13.836-5.908-26.805-12.662-38.212
		c-0.018-0.049-0.047-0.073-0.064-0.096l-1.398-2.264c-15.113-23.904-40.617-40.622-70.113-43.763v-0.023
		c-0.613-5.053-4.939-8.951-10.131-8.951c-5.199,0-9.496,3.898-10.108,8.951v0.023c-0.665,0.073-1.349,0.146-2.031,0.239
		c-1.868,0.233-3.709,0.519-5.53,0.874c-1.815,0.327-3.61,0.731-5.408,1.181c-1.771,0.445-3.543,0.94-5.285,1.509
		c-1.749,0.545-3.45,1.134-5.151,1.771c-1.699,0.638-3.377,1.343-5.029,2.078c-1.652,0.734-3.283,1.509-4.863,2.339
		c-1.611,0.831-3.17,1.699-4.726,2.62c-1.532,0.9-3.05,1.868-4.536,2.858c-1.486,0.991-2.946,2.034-4.368,3.115
		c-1.439,1.066-2.835,2.202-4.178,3.354c-1.369,1.133-2.695,2.34-3.992,3.569c-1.299,1.229-2.552,2.482-3.758,3.776
		c0,0-0.088,1.086,0.568,1.725c0.638,0.638,2.171,0.472,2.171,0.472h0.023c0.641-0.658,1.279-1.343,1.94-1.981
		c1.276-1.276,2.596-2.482,3.922-3.683c1.346-1.183,2.739-2.313,4.158-3.427c1.39-1.107,2.829-2.17,4.321-3.19
		c1.462-1.014,2.972-2.004,4.51-2.925c1.532-0.947,3.115-1.845,4.697-2.672c1.605-0.848,3.21-1.649,4.869-2.407
		c1.652-0.757,3.33-1.465,5.032-2.098c1.699-0.664,3.417-1.279,5.143-1.821c1.771-0.568,3.52-1.063,5.317-1.515
		c1.795-0.449,3.584-0.848,5.428-1.2c1.821-0.335,3.66-0.615,5.527-0.854c0.472-0.047,0.917-0.114,1.396-0.143v0.029
		c0.306,1.297,0.871,2.503,1.652,3.563c-6.873,7.538-17.525,20.475-26.118,36.607h-25.669c-1.302,0-2.363,1.058-2.363,2.36
		c0,1.299,1.061,2.36,2.363,2.36h23.283c-6.332,12.992-11.075,27.795-11.506,43.334h-25.692c-1.296,0-2.357,1.07-2.357,2.363
		c0,1.299,1.061,2.363,2.357,2.363h25.692c0.432,15.658,5.222,30.559,11.626,43.643h-23.403c-1.302,0-2.363,1.064-2.363,2.357
		c0,1.303,1.061,2.363,2.363,2.363h25.806c8.552,16.105,19.154,29.025,26.004,36.561c-0.804,1.063-1.37,2.289-1.675,3.586v0.023
		c-39.086-4.225-70.831-33.248-79.208-70.967c-0.501-2.291-0.926-4.625-1.276-6.988c-0.123-0.924-0.239-1.816-0.335-2.738h0.046
		c4.487-1.061,7.84-5.102,7.84-9.918c0-4.846-3.377-8.906-7.887-9.947h-0.023c-0.755-0.184-1.512-0.279-2.311-0.279
		c-0.431,0-0.828,0.023-1.253,0.096h-0.023c-5.032,0.609-8.927,4.91-8.927,10.131c0,5.215,3.922,9.514,8.974,10.105h0.023
		c0.096,0.945,0.186,1.891,0.329,2.838c0.358,2.406,0.781,4.77,1.276,7.109c8.575,39.436,41.752,69.783,82.587,74.105v0.045
		c0.612,5.029,4.909,8.951,10.108,8.951c5.191,0,9.518-3.922,10.131-8.951v-0.023c29.754-3.164,55.469-20.168,70.516-44.42
		c0.381-0.596,0.734-1.156,1.061-1.748c6.73-11.338,11.146-24.184,12.615-37.906h0.023c5.029-0.592,8.951-4.891,8.951-10.105
		C504.115,420.453,500.217,416.176,495.188,415.543 M424.643,374.971h-12.375c-1.297,0-2.357,1.058-2.357,2.36
		c0,1.299,1.061,2.36,2.357,2.36h12.375c1.063,4.514,5.127,7.844,9.941,7.844c0.879,0,1.725-0.096,2.531-0.312
		c4.607,10.841,8.002,23.027,8.383,35.802h-24.984c-1.299,0-2.363,1.07-2.363,2.363c0,1.299,1.064,2.363,2.363,2.363h24.984
		c-0.355,12.729-3.711,24.938-8.479,36.059c-0.781-0.166-1.58-0.279-2.436-0.279c-4.693,0-8.686,3.211-9.846,7.555h-12.471
		c-1.297,0-2.357,1.061-2.357,2.363c0,1.299,1.061,2.363,2.357,2.363h12.328c0.449,2.236,1.654,4.225,3.33,5.666
		c-7.482,12.441-15.754,22.455-21.414,28.691c-1.135-0.799-2.46-1.344-3.873-1.605v-73.115c4.768-0.848,8.4-5.031,8.4-10.061
		c0-5.006-3.633-9.213-8.4-10.037v-72.853c1.437-0.263,2.785-0.831,3.937-1.629c4.327,4.743,10.181,11.666,16.017,20.168
		c1.795,2.597,3.633,5.432,5.453,8.45C426.393,370.886,425.164,372.794,424.643,374.971 M370.259,475.434
		c-0.734-1.324-1.442-2.672-2.13-4.039c-6.611-13.158-11.643-28.271-11.992-44.139v-3.734c0.35-15.988,5.501-31.124,11.855-43.831
		c0.679-1.419,1.413-2.785,2.147-4.134c2.881-5.358,5.95-10.221,8.854-14.452c5.859-8.546,11.739-15.492,16.083-20.235
		c1.18,0.798,2.482,1.366,3.942,1.605v32.496h-19.434c-1.299,0-2.363,1.058-2.363,2.36c0,1.299,1.063,2.36,2.363,2.36h19.434v35.661
		c-3.992,0.688-7.203,3.762-8.12,7.674h-24.513c-1.299,0-2.363,1.07-2.363,2.363c0,1.299,1.063,2.363,2.363,2.363H390.9
		c0.917,3.945,4.128,6.986,8.12,7.697v35.637h-19.434c-1.299,0-2.363,1.061-2.363,2.363c0,1.299,1.063,2.363,2.363,2.363h19.434
		v32.752c-1.437,0.262-2.762,0.807-3.919,1.605C388.56,502.943,378.502,490.686,370.259,475.434 M479.955,471.086h-25.25
		c-1.293,0-2.354,1.061-2.354,2.363c0,1.299,1.061,2.363,2.354,2.363h22.318c-14.645,22.102-38.637,37.5-66.287,40.498v-0.049
		c-0.307-1.297-0.848-2.549-1.652-3.609c5.809-6.355,14.281-16.602,21.939-29.357c1.109,0.453,2.313,0.684,3.561,0.684
		c5.646,0,10.23-4.605,10.23-10.25c0-3.49-1.799-6.611-4.514-8.455c5.055-11.779,8.623-24.818,8.857-38.422
		c0.023-0.496,0.023-0.968,0.023-1.463c0-0.496,0-0.99-0.023-1.463c-0.234-13.531-3.779-26.477-8.762-38.189
		c2.668-1.844,4.418-4.909,4.418-8.406c0-5.624-4.584-10.224-10.23-10.224c-1.203,0-2.377,0.233-3.473,0.609
		c-7.672-12.727-16.172-22.948-22.004-29.353c0.781-1.061,1.322-2.267,1.629-3.563v-0.052c27.467,2.978,51.34,18.187,65.984,40.057
		h-22.016c-1.293,0-2.354,1.063-2.354,2.357c0,1.299,1.061,2.363,2.354,2.363h24.994c6.346,10.842,10.553,23.124,11.945,36.202
		h-0.072c-3.658,0.854-6.564,3.666-7.533,7.299h-21.158c-1.299,0-2.363,1.07-2.363,2.363c0,1.299,1.064,2.363,2.363,2.363h21.016
		c0.803,3.871,3.803,6.939,7.652,7.84h0.047C490.182,448.414,486.117,460.434,479.955,471.086 M379.586,374.971
		c-1.299,0-2.363,1.058-2.363,2.36c0,1.299,1.063,2.36,2.363,2.36h19.434v-4.72H379.586z M399.02,419.033v-3.682
		c-3.992,0.688-7.203,3.762-8.12,7.674h-24.513c-1.299,0-2.363,1.07-2.363,2.363c0,1.299,1.063,2.363,2.363,2.363H390.9
		c0.917,3.945,4.128,6.986,8.12,7.697v-3.707c-2.005-0.566-3.633-2.076-4.368-4.037c-0.286-0.711-0.422-1.492-0.422-2.316
		c0-0.822,0.137-1.605,0.422-2.313C395.387,421.117,397.015,419.607,399.02,419.033 M379.586,471.086
		c-1.299,0-2.363,1.061-2.363,2.363c0,1.299,1.063,2.363,2.363,2.363h19.434v-4.727H379.586z"/>
</g>
<g>
	<path fill="#2887C8" d="M328.292,370.199l-0.023-0.023c-0.83-0.877-1.795-1.562-2.882-2.075c-0.023,0-0.023-0.023-0.046-0.023
		c-1.32-0.641-2.789-0.967-4.344-0.967c-5.646,0-10.207,4.551-10.207,10.198c0,3.304,1.583,6.258,4.042,8.121
		c0.023,0,0.023,0.023,0.049,0.023c0.941,0.734,2.004,1.279,3.138,1.611h0.023c0.947,0.303,1.938,0.472,2.954,0.472
		c5.644,0,10.227-4.606,10.227-10.227C331.223,374.519,330.112,372.014,328.292,370.199 M320.996,383.893
		c-0.449,0-0.895-0.046-1.326-0.117c-0.023,0-0.023,0-0.041-0.018c-1.207-0.262-2.299-0.83-3.147-1.631l-0.023-0.029
		c-1.252-1.201-2.051-2.899-2.051-4.79c0-3.636,2.946-6.587,6.588-6.587c0.758,0,1.483,0.119,2.147,0.353
		c0.023,0,0.023,0,0.046,0.023c1.136,0.399,2.15,1.107,2.908,2.004l0.023,0.023c0.918,1.163,1.486,2.602,1.486,4.184
		C327.607,380.941,324.629,383.893,320.996,383.893"/>
</g>
<g>
	<path fill="#2887C8" d="M428.045,369.491c-1.654,1.39-2.885,3.307-3.402,5.478h1.986c0.615,0,1.184,0.239,1.605,0.638
		c0.279-1.11,0.871-2.124,1.676-2.928C429.299,371.591,428.682,370.531,428.045,369.491 M434.59,367.104
		c-1.207,0-2.387,0.239-3.473,0.615c-1.135,0.399-2.172,1.014-3.072,1.771c-1.654,1.39-2.885,3.307-3.402,5.478
		c-0.188,0.757-0.279,1.559-0.279,2.363c0,0.807,0.092,1.605,0.279,2.363c1.068,4.514,5.125,7.841,9.947,7.841
		c0.871,0,1.725-0.093,2.523-0.309c1.205-0.307,2.293-0.802,3.283-1.486c2.666-1.844,4.414-4.912,4.414-8.409
		C444.811,371.71,440.236,367.104,434.59,367.104 M438.887,382.36c-0.895,0.755-2.037,1.297-3.26,1.463
		c-0.332,0.073-0.686,0.096-1.037,0.096c-3.049,0-5.598-2.051-6.355-4.862c-0.166-0.548-0.238-1.134-0.238-1.725
		c0-0.588,0.072-1.18,0.238-1.725c0.279-1.11,0.871-2.124,1.676-2.928c0.83-0.825,1.895-1.463,3.068-1.749
		c0.518-0.12,1.045-0.187,1.611-0.187c3.66,0,6.611,2.949,6.611,6.588C441.201,379.335,440.301,381.133,438.887,382.36"/>
</g>
<g>
	<path fill="#2887C8" d="M434.586,463.527c-4.701,0-8.688,3.211-9.844,7.557h1.885c0.639,0,1.229,0.262,1.652,0.66
		c0.879-2.643,3.354-4.6,6.307-4.6c0.313,0,0.639,0.025,0.918,0.066c0.521-1.109,1.047-2.244,1.518-3.396
		C436.238,463.646,435.439,463.527,434.586,463.527 M440.303,465.275c-0.99-0.66-2.076-1.18-3.281-1.461
		c-0.783-0.168-1.582-0.287-2.436-0.287c-4.701,0-8.688,3.211-9.844,7.557c-0.264,0.854-0.383,1.725-0.383,2.648
		c0,0.705,0.072,1.416,0.24,2.076c0.445,2.244,1.65,4.225,3.33,5.668c0.918,0.801,1.955,1.416,3.088,1.82
		c1.109,0.449,2.316,0.682,3.568,0.682c5.645,0,10.23-4.605,10.23-10.246C444.816,470.234,443.02,467.121,440.303,465.275
		 M434.586,480.369c-0.59,0-1.18-0.072-1.725-0.238c-1.18-0.307-2.242-0.969-3.068-1.846c-0.779-0.824-1.346-1.885-1.625-3.045
		c-0.123-0.494-0.17-0.99-0.17-1.508c0-0.686,0.098-1.348,0.281-1.965v-0.023c0.879-2.643,3.354-4.6,6.307-4.6
		c0.313,0,0.639,0.025,0.918,0.066c1.254,0.166,2.367,0.686,3.289,1.445c1.463,1.227,2.404,3.041,2.404,5.076
		C441.197,477.391,438.25,480.369,434.586,480.369"/>
</g>
<g>
	<path fill="#2887C8" d="M310.058,415.73h-0.023c-0.752-0.189-1.512-0.286-2.311-0.286c-0.428,0-0.828,0.022-1.253,0.097h-0.023
		c-5.029,0.614-8.927,4.914-8.927,10.131c0,5.221,3.922,9.518,8.974,10.107h0.023c0.402,0.072,0.801,0.096,1.206,0.096
		c0.798,0,1.605-0.096,2.334-0.285h0.046c4.487-1.064,7.84-5.102,7.84-9.918C317.945,420.832,314.568,416.77,310.058,415.73
		 M309.778,431.932h-0.05c-0.638,0.213-1.317,0.328-2.004,0.328c-0.542,0-1.043-0.07-1.539-0.189h-0.018
		c-2.908-0.705-5.032-3.326-5.032-6.398c0-3.092,2.124-5.717,5-6.402h0.032c0.513-0.137,1.014-0.209,1.556-0.209
		c0.688,0,1.366,0.119,1.981,0.285c0.023,0.023,0.023,0.023,0.046,0.023c2.646,0.874,4.583,3.373,4.583,6.303
		S312.421,431.078,309.778,431.932"/>
</g>
<g>
	<path fill="#2887C8" d="M491.574,415.727c-3.666,0.857-6.564,3.666-7.537,7.299h1.867c0.119,0,0.262,0,0.377,0.05
		c0.072,0,0.119,0,0.166,0.022c0.215,0.047,0.4,0.121,0.59,0.234c0.074,0.029,0.166,0.075,0.24,0.143
		c0.072,0.047,0.137,0.096,0.209,0.166l0.096,0.096h0.023c0.639-2.077,2.221-3.68,4.271-4.367
		C491.814,418.139,491.717,416.934,491.574,415.727 M491.574,415.727c-3.666,0.857-6.564,3.666-7.537,7.299h1.867
		c0.119,0,0.262,0,0.377,0.05c0.072,0,0.119,0,0.166,0.022c0.215,0.047,0.4,0.121,0.59,0.234c0.074,0.029,0.166,0.075,0.24,0.143
		c0.072,0.047,0.137,0.096,0.209,0.166l0.096,0.096h0.023c0.639-2.077,2.221-3.68,4.271-4.367
		C491.814,418.139,491.717,416.934,491.574,415.727 M491.574,415.727c-3.666,0.857-6.564,3.666-7.537,7.299h1.867
		c0.119,0,0.262,0,0.377,0.05c0.072,0,0.119,0,0.166,0.022c0.215,0.047,0.4,0.121,0.59,0.234c0.074,0.029,0.166,0.075,0.24,0.143
		c0.072,0.047,0.137,0.096,0.209,0.166l0.096,0.096h0.023c0.639-2.077,2.221-3.68,4.271-4.367
		C491.814,418.139,491.717,416.934,491.574,415.727 M491.574,415.727c-3.666,0.857-6.564,3.666-7.537,7.299h1.867
		c0.119,0,0.262,0,0.377,0.05c0.072,0,0.119,0,0.166,0.022c0.215,0.047,0.4,0.121,0.59,0.234c0.074,0.029,0.166,0.075,0.24,0.143
		c0.072,0.047,0.137,0.096,0.209,0.166l0.096,0.096h0.023c0.639-2.077,2.221-3.68,4.271-4.367
		C491.814,418.139,491.717,416.934,491.574,415.727 M491.574,415.727c-3.666,0.857-6.564,3.666-7.537,7.299h1.867
		c0.119,0,0.262,0,0.377,0.05c0.072,0,0.119,0,0.166,0.022c0.215,0.047,0.4,0.121,0.59,0.234c0.074,0.029,0.166,0.075,0.24,0.143
		c0.072,0.047,0.137,0.096,0.209,0.166l0.096,0.096h0.023c0.639-2.077,2.221-3.68,4.271-4.367
		C491.814,418.139,491.717,416.934,491.574,415.727 M491.574,415.727c-3.666,0.857-6.564,3.666-7.537,7.299h1.867
		c0.119,0,0.262,0,0.377,0.05c0.072,0,0.119,0,0.166,0.022c0.215,0.047,0.4,0.121,0.59,0.234c0.074,0.029,0.166,0.075,0.24,0.143
		c0.072,0.047,0.137,0.096,0.209,0.166l0.096,0.096h0.023c0.639-2.077,2.221-3.68,4.271-4.367
		C491.814,418.139,491.717,416.934,491.574,415.727 M491.574,415.727c-3.666,0.857-6.564,3.666-7.537,7.299h1.867
		c0.119,0,0.262,0,0.377,0.05c0.072,0,0.119,0,0.166,0.022c0.215,0.047,0.4,0.121,0.59,0.234c0.074,0.029,0.166,0.075,0.24,0.143
		c0.072,0.047,0.137,0.096,0.209,0.166l0.096,0.096h0.023c0.639-2.077,2.221-3.68,4.271-4.367
		C491.814,418.139,491.717,416.934,491.574,415.727 M491.645,415.727h-0.07c-3.666,0.857-6.564,3.666-7.537,7.299h1.867
		c0.119,0,0.262,0,0.377,0.05c0.072,0,0.119,0,0.166,0.022c0.215,0.047,0.4,0.121,0.59,0.234c0.074,0.029,0.166,0.075,0.24,0.143
		c0.072,0.047,0.137,0.096,0.209,0.166l0.096,0.096h0.023c0.639-2.077,2.221-3.68,4.271-4.367c0.023,0,0.047-0.023,0.074-0.023
		C491.877,418.139,491.758,416.934,491.645,415.727 M491.645,415.727h-0.07c-3.666,0.857-6.564,3.666-7.537,7.299h1.867
		c0.119,0,0.262,0,0.377,0.05c0.072,0,0.119,0,0.166,0.022c0.215,0.047,0.4,0.121,0.59,0.234c0.074,0.029,0.166,0.075,0.24,0.143
		c0.072,0.047,0.137,0.096,0.209,0.166l0.096,0.096h0.023c0.639-2.077,2.221-3.68,4.271-4.367c0.023,0,0.047-0.023,0.074-0.023
		C491.877,418.139,491.758,416.934,491.645,415.727 M491.645,415.727h-0.07c-3.666,0.857-6.564,3.666-7.537,7.299h1.867
		c0.119,0,0.262,0,0.377,0.05c0.072,0,0.119,0,0.166,0.022c0.215,0.047,0.4,0.121,0.59,0.234c0.074,0.029,0.166,0.075,0.24,0.143
		c0.072,0.047,0.137,0.096,0.209,0.166l0.096,0.096h0.023c0.639-2.077,2.221-3.68,4.271-4.367c0.023,0,0.047-0.023,0.074-0.023
		C491.877,418.139,491.758,416.934,491.645,415.727 M495.186,415.543c-0.4-0.053-0.85-0.096-1.273-0.096
		c-0.781,0-1.533,0.096-2.268,0.279h-0.07c-3.666,0.857-6.564,3.666-7.537,7.299c-0.232,0.854-0.354,1.725-0.354,2.652
		c0,0.701,0.074,1.412,0.217,2.074c0.799,3.871,3.799,6.939,7.65,7.84h0.047c0.729,0.188,1.51,0.283,2.314,0.283
		c0.4,0,0.801-0.027,1.223-0.096h0.029c5.025-0.592,8.945-4.891,8.945-10.102C504.109,420.455,500.213,416.176,495.186,415.543
		 M495.471,432.072c-0.496,0.119-1.014,0.191-1.559,0.191c-0.686,0-1.324-0.119-1.961-0.311c-0.027,0-0.074-0.023-0.098-0.023
		c-2.174-0.705-3.848-2.523-4.344-4.793v-0.023c-0.143-0.473-0.184-0.943-0.184-1.436c0-0.665,0.088-1.303,0.279-1.918v-0.023
		c0.639-2.077,2.221-3.68,4.271-4.367c0.023,0,0.047-0.023,0.074-0.023c0.613-0.169,1.275-0.285,1.961-0.285
		c0.545,0,1.086,0.07,1.582,0.213c2.881,0.678,5.008,3.307,5.008,6.404C500.502,428.742,498.352,431.361,495.471,432.072
		 M491.645,415.727h-0.07c-3.666,0.857-6.564,3.666-7.537,7.299h1.867c0.119,0,0.262,0,0.377,0.05c0.072,0,0.119,0,0.166,0.022
		c0.215,0.047,0.4,0.121,0.59,0.234c0.074,0.029,0.166,0.075,0.24,0.143c0.072,0.047,0.137,0.096,0.209,0.166l0.096,0.096h0.023
		c0.639-2.077,2.221-3.68,4.271-4.367c0.023,0,0.047-0.023,0.074-0.023C491.877,418.139,491.758,416.934,491.645,415.727
		 M491.645,415.727h-0.07c-3.666,0.857-6.564,3.666-7.537,7.299h1.867c0.119,0,0.262,0,0.377,0.05c0.072,0,0.119,0,0.166,0.022
		c0.215,0.047,0.4,0.121,0.59,0.234c0.074,0.029,0.166,0.075,0.24,0.143c0.072,0.047,0.137,0.096,0.209,0.166l0.096,0.096h0.023
		c0.639-2.077,2.221-3.68,4.271-4.367c0.023,0,0.047-0.023,0.074-0.023C491.877,418.139,491.758,416.934,491.645,415.727
		 M491.645,415.727h-0.07c-3.666,0.857-6.564,3.666-7.537,7.299h1.867c0.119,0,0.262,0,0.377,0.05c0.072,0,0.119,0,0.166,0.022
		c0.215,0.047,0.4,0.121,0.59,0.234c0.074,0.029,0.166,0.075,0.24,0.143c0.072,0.047,0.137,0.096,0.209,0.166l0.096,0.096h0.023
		c0.639-2.077,2.221-3.68,4.271-4.367c0.023,0,0.047-0.023,0.074-0.023C491.877,418.139,491.758,416.934,491.645,415.727
		 M491.574,415.727c-3.666,0.857-6.564,3.666-7.537,7.299h1.867c0.119,0,0.262,0,0.377,0.05c0.072,0,0.119,0,0.166,0.022
		c0.215,0.047,0.4,0.121,0.59,0.234c0.074,0.029,0.166,0.075,0.24,0.143c0.072,0.047,0.137,0.096,0.209,0.166l0.096,0.096h0.023
		c0.639-2.077,2.221-3.68,4.271-4.367C491.814,418.139,491.717,416.934,491.574,415.727 M491.574,415.727
		c-3.666,0.857-6.564,3.666-7.537,7.299h1.867c0.119,0,0.262,0,0.377,0.05c0.072,0,0.119,0,0.166,0.022
		c0.215,0.047,0.4,0.121,0.59,0.234c0.074,0.029,0.166,0.075,0.24,0.143c0.072,0.047,0.137,0.096,0.209,0.166l0.096,0.096h0.023
		c0.639-2.077,2.221-3.68,4.271-4.367C491.814,418.139,491.717,416.934,491.574,415.727 M491.574,415.727
		c-3.666,0.857-6.564,3.666-7.537,7.299h1.867c0.119,0,0.262,0,0.377,0.05c0.072,0,0.119,0,0.166,0.022
		c0.215,0.047,0.4,0.121,0.59,0.234c0.074,0.029,0.166,0.075,0.24,0.143c0.072,0.047,0.137,0.096,0.209,0.166l0.096,0.096h0.023
		c0.639-2.077,2.221-3.68,4.271-4.367C491.814,418.139,491.717,416.934,491.574,415.727 M491.574,415.727
		c-3.666,0.857-6.564,3.666-7.537,7.299h1.867c0.119,0,0.262,0,0.377,0.05c0.072,0,0.119,0,0.166,0.022
		c0.215,0.047,0.4,0.121,0.59,0.234c0.074,0.029,0.166,0.075,0.24,0.143c0.072,0.047,0.137,0.096,0.209,0.166l0.096,0.096h0.023
		c0.639-2.077,2.221-3.68,4.271-4.367C491.814,418.139,491.717,416.934,491.574,415.727 M491.574,415.727
		c-3.666,0.857-6.564,3.666-7.537,7.299h1.867c0.119,0,0.262,0,0.377,0.05c0.072,0,0.119,0,0.166,0.022
		c0.215,0.047,0.4,0.121,0.59,0.234c0.074,0.029,0.166,0.075,0.24,0.143c0.072,0.047,0.137,0.096,0.209,0.166l0.096,0.096h0.023
		c0.639-2.077,2.221-3.68,4.271-4.367C491.814,418.139,491.717,416.934,491.574,415.727 M491.574,415.727
		c-3.666,0.857-6.564,3.666-7.537,7.299h1.867c0.119,0,0.262,0,0.377,0.05c0.072,0,0.119,0,0.166,0.022
		c0.215,0.047,0.4,0.121,0.59,0.234c0.074,0.029,0.166,0.075,0.24,0.143c0.072,0.047,0.137,0.096,0.209,0.166l0.096,0.096h0.023
		c0.639-2.077,2.221-3.68,4.271-4.367C491.814,418.139,491.717,416.934,491.574,415.727 M491.574,415.727
		c-3.666,0.857-6.564,3.666-7.537,7.299h1.867c0.119,0,0.262,0,0.377,0.05c0.072,0,0.119,0,0.166,0.022
		c0.215,0.047,0.4,0.121,0.59,0.234c0.074,0.029,0.166,0.075,0.24,0.143c0.072,0.047,0.137,0.096,0.209,0.166l0.096,0.096h0.023
		c0.639-2.077,2.221-3.68,4.271-4.367C491.814,418.139,491.717,416.934,491.574,415.727 M491.574,415.727
		c-3.666,0.857-6.564,3.666-7.537,7.299h1.867c0.119,0,0.262,0,0.377,0.05c0.072,0,0.119,0,0.166,0.022
		c0.215,0.047,0.4,0.121,0.59,0.234c0.074,0.029,0.166,0.075,0.24,0.143c0.072,0.047,0.137,0.096,0.209,0.166l0.119,0.119v-0.023
		c0.639-2.077,2.221-3.68,4.271-4.367C491.814,418.139,491.717,416.934,491.574,415.727"/>
</g>
<g>
	<path fill="#2887C8" d="M404.052,338.201c-0.446,0.257-0.917,0.446-1.419,0.589c-0.586,0.163-1.178,0.256-1.814,0.256
		c-0.639,0-1.23-0.093-1.795-0.256c-0.521-0.143-0.991-0.332-1.439-0.589c-1.063-0.591-1.938-1.492-2.529-2.555
		c-0.21-0.375-0.376-0.751-0.522-1.174c-1.227,0.064-2.456,0.184-3.656,0.326c0.306,1.297,0.871,2.506,1.652,3.563
		c0.659,0.997,1.559,1.845,2.549,2.506c1.18,0.807,2.482,1.372,3.945,1.605c0.565,0.143,1.18,0.192,1.795,0.192
		c0.614,0,1.205-0.05,1.814-0.169c1.442-0.257,2.785-0.822,3.945-1.629C405.657,339.876,404.81,338.999,404.052,338.201
		 M404.052,338.201c-0.446,0.257-0.917,0.446-1.419,0.589c-0.586,0.163-1.178,0.256-1.814,0.256c-0.639,0-1.23-0.093-1.795-0.256
		c-0.521-0.143-0.991-0.332-1.439-0.589c-1.063-0.591-1.938-1.492-2.529-2.555c-0.21-0.375-0.376-0.751-0.522-1.174
		c-1.227,0.064-2.456,0.184-3.656,0.326c0.306,1.297,0.871,2.506,1.652,3.563c0.659,0.997,1.559,1.845,2.549,2.506
		c1.18,0.807,2.482,1.372,3.945,1.605c0.565,0.143,1.18,0.192,1.795,0.192c0.614,0,1.205-0.05,1.814-0.169
		c1.442-0.257,2.785-0.822,3.945-1.629C405.657,339.876,404.81,338.999,404.052,338.201 M404.052,338.201
		c-0.446,0.257-0.917,0.446-1.419,0.589c-0.586,0.163-1.178,0.256-1.814,0.256c-0.639,0-1.23-0.093-1.795-0.256
		c-0.521-0.143-0.991-0.332-1.439-0.589c-1.063-0.591-1.938-1.492-2.529-2.555c-0.21-0.375-0.376-0.751-0.522-1.174
		c-1.227,0.064-2.456,0.184-3.656,0.326c0.306,1.297,0.871,2.506,1.652,3.563c0.659,0.997,1.559,1.845,2.549,2.506
		c1.18,0.807,2.482,1.372,3.945,1.605c0.565,0.143,1.18,0.192,1.795,0.192c0.614,0,1.205-0.05,1.814-0.169
		c1.442-0.257,2.785-0.822,3.945-1.629C405.657,339.876,404.81,338.999,404.052,338.201 M404.052,338.201
		c-0.446,0.257-0.917,0.446-1.419,0.589c-0.586,0.163-1.178,0.256-1.814,0.256c-0.639,0-1.23-0.093-1.795-0.256
		c-0.521-0.143-0.991-0.332-1.439-0.589c-1.063-0.591-1.938-1.492-2.529-2.555c-0.21-0.375-0.376-0.751-0.522-1.174
		c-1.227,0.064-2.456,0.184-3.656,0.326c0.306,1.297,0.871,2.506,1.652,3.563c0.659,0.997,1.559,1.845,2.549,2.506
		c1.18,0.807,2.482,1.372,3.945,1.605c0.565,0.143,1.18,0.192,1.795,0.192c0.614,0,1.205-0.05,1.814-0.169
		c1.442-0.257,2.785-0.822,3.945-1.629C405.657,339.876,404.81,338.999,404.052,338.201 M404.052,338.201
		c-0.446,0.257-0.917,0.446-1.419,0.589c-0.586,0.163-1.178,0.256-1.814,0.256c-0.639,0-1.23-0.093-1.795-0.256
		c-0.521-0.143-0.991-0.332-1.439-0.589c-1.063-0.591-1.938-1.492-2.529-2.555c-0.21-0.375-0.376-0.751-0.522-1.174
		c-1.227,0.064-2.456,0.184-3.656,0.326c0.306,1.297,0.871,2.506,1.652,3.563c0.659,0.997,1.559,1.845,2.549,2.506
		c1.18,0.807,2.482,1.372,3.945,1.605c0.565,0.143,1.18,0.192,1.795,0.192c0.614,0,1.205-0.05,1.814-0.169
		c1.442-0.257,2.785-0.822,3.945-1.629C405.657,339.876,404.81,338.999,404.052,338.201 M404.052,338.201
		c-0.446,0.257-0.917,0.446-1.419,0.589c-0.586,0.163-1.178,0.256-1.814,0.256c-0.639,0-1.23-0.093-1.795-0.256
		c-0.521-0.143-0.991-0.332-1.439-0.589c-1.063-0.591-1.938-1.492-2.529-2.555c-0.21-0.375-0.376-0.751-0.522-1.174
		c-1.227,0.064-2.456,0.184-3.656,0.326c0.306,1.297,0.871,2.506,1.652,3.563c0.659,0.997,1.559,1.845,2.549,2.506
		c1.18,0.807,2.482,1.372,3.945,1.605c0.565,0.143,1.18,0.192,1.795,0.192c0.614,0,1.205-0.05,1.814-0.169
		c1.442-0.257,2.785-0.822,3.945-1.629C405.657,339.876,404.81,338.999,404.052,338.201 M404.052,338.201
		c-0.446,0.257-0.917,0.446-1.419,0.589c-0.586,0.163-1.178,0.256-1.814,0.256c-0.639,0-1.23-0.093-1.795-0.256
		c-0.521-0.143-0.991-0.332-1.439-0.589c-1.063-0.591-1.938-1.492-2.529-2.555c-0.21-0.375-0.376-0.751-0.522-1.174
		c-1.227,0.064-2.456,0.184-3.656,0.326c0.306,1.297,0.871,2.506,1.652,3.563c0.659,0.997,1.559,1.845,2.549,2.506
		c1.18,0.807,2.482,1.372,3.945,1.605c0.565,0.143,1.18,0.192,1.795,0.192c0.614,0,1.205-0.05,1.814-0.169
		c1.442-0.257,2.785-0.822,3.945-1.629C405.657,339.876,404.81,338.999,404.052,338.201 M404.052,338.201
		c-0.446,0.257-0.917,0.446-1.419,0.589c-0.586,0.163-1.178,0.256-1.814,0.256c-0.639,0-1.23-0.093-1.795-0.256
		c-0.521-0.143-0.991-0.332-1.439-0.589c-0.757,0.798-1.588,1.676-2.506,2.666c1.18,0.807,2.482,1.372,3.945,1.605
		c0.565,0.143,1.18,0.192,1.795,0.192c0.614,0,1.205-0.05,1.814-0.169c1.442-0.257,2.785-0.822,3.945-1.629
		C405.657,339.876,404.81,338.999,404.052,338.201 M404.052,338.201c-0.446,0.257-0.917,0.446-1.419,0.589
		c-0.586,0.163-1.178,0.256-1.814,0.256c-0.639,0-1.23-0.093-1.795-0.256c-0.521-0.143-0.991-0.332-1.439-0.589
		c-1.063-0.591-1.938-1.492-2.529-2.555c-0.21-0.375-0.376-0.751-0.522-1.174c-1.227,0.064-2.456,0.184-3.656,0.326
		c0.306,1.297,0.871,2.506,1.652,3.563c0.659,0.997,1.559,1.845,2.549,2.506c1.18,0.807,2.482,1.372,3.945,1.605
		c0.565,0.143,1.18,0.192,1.795,0.192c0.614,0,1.205-0.05,1.814-0.169c1.442-0.257,2.785-0.822,3.945-1.629
		C405.657,339.876,404.81,338.999,404.052,338.201 M404.052,338.201c-0.446,0.257-0.917,0.446-1.419,0.589
		c-0.586,0.163-1.178,0.256-1.814,0.256c-0.639,0-1.23-0.093-1.795-0.256c-0.521-0.143-0.991-0.332-1.439-0.589
		c-1.063-0.591-1.938-1.492-2.529-2.555c-0.21-0.375-0.376-0.751-0.522-1.174c-1.227,0.064-2.456,0.184-3.656,0.326
		c0.306,1.297,0.871,2.506,1.652,3.563c0.659,0.997,1.559,1.845,2.549,2.506c1.18,0.807,2.482,1.372,3.945,1.605
		c0.565,0.143,1.18,0.192,1.795,0.192c0.614,0,1.205-0.05,1.814-0.169c1.442-0.257,2.785-0.822,3.945-1.629
		C405.657,339.876,404.81,338.999,404.052,338.201 M404.052,338.201c-0.446,0.257-0.917,0.446-1.419,0.589
		c-0.586,0.163-1.178,0.256-1.814,0.256c-0.639,0-1.23-0.093-1.795-0.256c-0.521-0.143-0.991-0.332-1.439-0.589
		c-1.063-0.591-1.938-1.492-2.529-2.555c-0.21-0.375-0.376-0.751-0.522-1.174c-1.227,0.064-2.456,0.184-3.656,0.326
		c0.306,1.297,0.871,2.506,1.652,3.563c0.659,0.997,1.559,1.845,2.549,2.506c1.18,0.807,2.482,1.372,3.945,1.605
		c0.565,0.143,1.18,0.192,1.795,0.192c0.614,0,1.205-0.05,1.814-0.169c1.442-0.257,2.785-0.822,3.945-1.629
		C405.657,339.876,404.81,338.999,404.052,338.201 M404.052,338.201c-0.446,0.257-0.917,0.446-1.419,0.589
		c-0.586,0.163-1.178,0.256-1.814,0.256c-0.639,0-1.23-0.093-1.795-0.256c-0.521-0.143-0.991-0.332-1.439-0.589
		c-1.063-0.591-1.938-1.492-2.529-2.555c-0.21-0.375-0.376-0.751-0.522-1.174c-1.227,0.064-2.456,0.184-3.656,0.326
		c0.306,1.297,0.871,2.506,1.652,3.563c0.659,0.997,1.559,1.845,2.549,2.506c1.18,0.807,2.482,1.372,3.945,1.605
		c0.565,0.143,1.18,0.192,1.795,0.192c0.614,0,1.205-0.05,1.814-0.169c1.442-0.257,2.785-0.822,3.945-1.629
		C405.657,339.876,404.81,338.999,404.052,338.201 M404.052,338.201c-0.446,0.257-0.917,0.446-1.419,0.589
		c-0.586,0.163-1.178,0.256-1.814,0.256c-0.639,0-1.23-0.093-1.795-0.256c-0.521-0.143-0.991-0.332-1.439-0.589
		c-1.063-0.591-1.938-1.492-2.529-2.555c-0.21-0.375-0.376-0.751-0.522-1.174c-1.227,0.064-2.456,0.184-3.656,0.326
		c0.306,1.297,0.871,2.506,1.652,3.563c0.659,0.997,1.559,1.845,2.549,2.506c1.18,0.807,2.482,1.372,3.945,1.605
		c0.565,0.143,1.18,0.192,1.795,0.192c0.614,0,1.205-0.05,1.814-0.169c1.442-0.257,2.785-0.822,3.945-1.629
		C405.657,339.876,404.81,338.999,404.052,338.201 M404.052,338.201c-0.446,0.257-0.917,0.446-1.419,0.589
		c-0.586,0.163-1.178,0.256-1.814,0.256c-0.639,0-1.23-0.093-1.795-0.256c-0.521-0.143-0.991-0.332-1.439-0.589
		c-1.063-0.591-1.938-1.492-2.529-2.555c-0.21-0.375-0.376-0.751-0.522-1.174c-1.227,0.064-2.456,0.184-3.656,0.326
		c0.306,1.297,0.871,2.506,1.652,3.563c0.659,0.997,1.559,1.845,2.549,2.506c1.18,0.807,2.482,1.372,3.945,1.605
		c0.565,0.143,1.18,0.192,1.795,0.192c0.614,0,1.205-0.05,1.814-0.169c1.442-0.257,2.785-0.822,3.945-1.629
		C405.657,339.876,404.81,338.999,404.052,338.201 M404.052,338.201c-0.446,0.257-0.917,0.446-1.419,0.589
		c-0.586,0.163-1.178,0.256-1.814,0.256c-0.639,0-1.23-0.093-1.795-0.256c-0.521-0.143-0.991-0.332-1.439-0.589
		c-1.063-0.591-1.938-1.492-2.529-2.555c-0.21-0.375-0.376-0.751-0.522-1.174c-1.227,0.064-2.456,0.184-3.656,0.326
		c0.306,1.297,0.871,2.506,1.652,3.563c0.659,0.997,1.559,1.845,2.549,2.506c1.18,0.807,2.482,1.372,3.945,1.605
		c0.565,0.143,1.18,0.192,1.795,0.192c0.614,0,1.205-0.05,1.814-0.169c1.442-0.257,2.785-0.822,3.945-1.629
		C405.657,339.876,404.81,338.999,404.052,338.201 M404.052,338.201c-0.446,0.257-0.917,0.446-1.419,0.589
		c-0.586,0.163-1.178,0.256-1.814,0.256c-0.639,0-1.23-0.093-1.795-0.256c-0.521-0.143-0.991-0.332-1.439-0.589
		c-1.063-0.591-1.938-1.492-2.529-2.555c-0.21-0.375-0.376-0.751-0.522-1.174c-1.227,0.064-2.456,0.184-3.656,0.326
		c0.306,1.297,0.871,2.506,1.652,3.563c0.659,0.997,1.559,1.845,2.549,2.506c1.18,0.807,2.482,1.372,3.945,1.605
		c0.565,0.143,1.18,0.192,1.795,0.192c0.614,0,1.205-0.05,1.814-0.169c1.442-0.257,2.785-0.822,3.945-1.629
		C405.657,339.876,404.81,338.999,404.052,338.201 M404.052,338.201c-0.446,0.257-0.917,0.446-1.419,0.589
		c-0.586,0.163-1.178,0.256-1.814,0.256c-0.639,0-1.23-0.093-1.795-0.256c-0.521-0.143-0.991-0.332-1.439-0.589
		c-0.757,0.798-1.588,1.676-2.506,2.666c1.18,0.807,2.482,1.372,3.945,1.605c0.565,0.143,1.18,0.192,1.795,0.192
		c0.614,0,1.205-0.05,1.814-0.169c1.442-0.257,2.785-0.822,3.945-1.629C405.657,339.876,404.81,338.999,404.052,338.201
		 M404.052,338.201c-0.446,0.257-0.917,0.446-1.419,0.589c-0.586,0.163-1.178,0.256-1.814,0.256c-0.639,0-1.23-0.093-1.795-0.256
		c-0.521-0.143-0.991-0.332-1.439-0.589c-0.757,0.798-1.588,1.676-2.506,2.666c1.18,0.807,2.482,1.372,3.945,1.605
		c0.565,0.143,1.18,0.192,1.795,0.192c0.614,0,1.205-0.05,1.814-0.169c1.442-0.257,2.785-0.822,3.945-1.629
		C405.657,339.876,404.81,338.999,404.052,338.201 M404.052,338.201c-0.446,0.257-0.917,0.446-1.419,0.589
		c-0.586,0.163-1.178,0.256-1.814,0.256c-0.639,0-1.23-0.093-1.795-0.256c-0.521-0.143-0.991-0.332-1.439-0.589
		c-0.757,0.798-1.588,1.676-2.506,2.666c1.18,0.807,2.482,1.372,3.945,1.605c0.565,0.143,1.18,0.192,1.795,0.192
		c0.614,0,1.205-0.05,1.814-0.169c1.442-0.257,2.785-0.822,3.945-1.629C405.657,339.876,404.81,338.999,404.052,338.201
		 M410.949,331.214v-0.032c-0.613-5.05-4.939-8.951-10.131-8.951c-5.199,0-9.493,3.901-10.108,8.951v0.032
		c-0.096,0.399-0.096,0.798-0.096,1.221c0,0.83,0.096,1.582,0.262,2.339v0.023c0.306,1.297,0.871,2.506,1.652,3.563
		c0.659,0.997,1.559,1.845,2.549,2.506c1.18,0.807,2.482,1.372,3.945,1.605c0.565,0.143,1.18,0.192,1.795,0.192
		c0.614,0,1.205-0.05,1.814-0.169c1.442-0.257,2.785-0.822,3.945-1.629c0.996-0.661,1.842-1.509,2.529-2.506
		c0.781-1.058,1.322-2.267,1.629-3.563v-0.046c0.213-0.734,0.303-1.509,0.303-2.316
		C411.039,332.012,411.016,331.613,410.949,331.214 M407.119,334.471c-0.162,0.423-0.328,0.822-0.541,1.198
		c-0.592,1.04-1.463,1.94-2.526,2.532c-0.446,0.257-0.917,0.446-1.419,0.589c-0.586,0.163-1.178,0.256-1.814,0.256
		c-0.639,0-1.23-0.093-1.795-0.256c-0.521-0.143-0.991-0.332-1.439-0.589c-1.063-0.591-1.938-1.492-2.529-2.555
		c-0.21-0.375-0.376-0.751-0.522-1.174v-0.049c-0.212-0.615-0.303-1.299-0.303-1.987c0-0.542,0.067-1.038,0.187-1.556v-0.026
		c0.708-2.881,3.304-5.005,6.402-5.005c3.091,0,5.693,2.124,6.395,5.005v0.026c0.123,0.519,0.216,1.014,0.216,1.556
		c0,0.688-0.12,1.372-0.31,1.987V334.471z M404.052,338.201c-0.446,0.257-0.917,0.446-1.419,0.589
		c-0.586,0.163-1.178,0.256-1.814,0.256c-0.639,0-1.23-0.093-1.795-0.256c-0.521-0.143-0.991-0.332-1.439-0.589
		c-0.757,0.798-1.588,1.676-2.506,2.666c1.18,0.807,2.482,1.372,3.945,1.605c0.565,0.143,1.18,0.192,1.795,0.192
		c0.614,0,1.205-0.05,1.814-0.169c1.442-0.257,2.785-0.822,3.945-1.629C405.657,339.876,404.81,338.999,404.052,338.201
		 M404.052,338.201c-0.446,0.257-0.917,0.446-1.419,0.589c-0.586,0.163-1.178,0.256-1.814,0.256c-0.639,0-1.23-0.093-1.795-0.256
		c-0.521-0.143-0.991-0.332-1.439-0.589c-0.757,0.798-1.588,1.676-2.506,2.666c1.18,0.807,2.482,1.372,3.945,1.605
		c0.565,0.143,1.18,0.192,1.795,0.192c0.614,0,1.205-0.05,1.814-0.169c1.442-0.257,2.785-0.822,3.945-1.629
		C405.657,339.876,404.81,338.999,404.052,338.201 M404.052,338.201c-0.446,0.257-0.917,0.446-1.419,0.589
		c-0.586,0.163-1.178,0.256-1.814,0.256c-0.639,0-1.23-0.093-1.795-0.256c-0.521-0.143-0.991-0.332-1.439-0.589
		c-0.757,0.798-1.588,1.676-2.506,2.666c1.18,0.807,2.482,1.372,3.945,1.605c0.565,0.143,1.18,0.192,1.795,0.192
		c0.614,0,1.205-0.05,1.814-0.169c1.442-0.257,2.785-0.822,3.945-1.629C405.657,339.876,404.81,338.999,404.052,338.201
		 M404.052,338.201c-0.446,0.257-0.917,0.446-1.419,0.589c-0.586,0.163-1.178,0.256-1.814,0.256c-0.639,0-1.23-0.093-1.795-0.256
		c-0.521-0.143-0.991-0.332-1.439-0.589c-1.063-0.591-1.938-1.492-2.529-2.555c-0.21-0.375-0.376-0.751-0.522-1.174
		c-1.227,0.064-2.456,0.184-3.656,0.326c0.306,1.297,0.871,2.506,1.652,3.563c0.659,0.997,1.559,1.845,2.549,2.506
		c1.18,0.807,2.482,1.372,3.945,1.605c0.565,0.143,1.18,0.192,1.795,0.192c0.614,0,1.205-0.05,1.814-0.169
		c1.442-0.257,2.785-0.822,3.945-1.629C405.657,339.876,404.81,338.999,404.052,338.201 M404.052,338.201
		c-0.446,0.257-0.917,0.446-1.419,0.589c-0.586,0.163-1.178,0.256-1.814,0.256c-0.639,0-1.23-0.093-1.795-0.256
		c-0.521-0.143-0.991-0.332-1.439-0.589c-1.063-0.591-1.938-1.492-2.529-2.555c-0.21-0.375-0.376-0.751-0.522-1.174
		c-1.227,0.064-2.456,0.184-3.656,0.326c0.306,1.297,0.871,2.506,1.652,3.563c0.659,0.997,1.559,1.845,2.549,2.506
		c1.18,0.807,2.482,1.372,3.945,1.605c0.565,0.143,1.18,0.192,1.795,0.192c0.614,0,1.205-0.05,1.814-0.169
		c1.442-0.257,2.785-0.822,3.945-1.629C405.657,339.876,404.81,338.999,404.052,338.201 M404.052,338.201
		c-0.446,0.257-0.917,0.446-1.419,0.589c-0.586,0.163-1.178,0.256-1.814,0.256c-0.639,0-1.23-0.093-1.795-0.256
		c-0.521-0.143-0.991-0.332-1.439-0.589c-1.063-0.591-1.938-1.492-2.529-2.555c-0.21-0.375-0.376-0.751-0.522-1.174
		c-1.227,0.064-2.456,0.184-3.656,0.326c0.306,1.297,0.871,2.506,1.652,3.563c0.659,0.997,1.559,1.845,2.549,2.506
		c1.18,0.807,2.482,1.372,3.945,1.605c0.565,0.143,1.18,0.192,1.795,0.192c0.614,0,1.205-0.05,1.814-0.169
		c1.442-0.257,2.785-0.822,3.945-1.629C405.657,339.876,404.81,338.999,404.052,338.201 M404.052,338.201
		c-0.446,0.257-0.917,0.446-1.419,0.589c-0.586,0.163-1.178,0.256-1.814,0.256c-0.639,0-1.23-0.093-1.795-0.256
		c-0.521-0.143-0.991-0.332-1.439-0.589c-1.063-0.591-1.938-1.492-2.529-2.555c-0.21-0.375-0.376-0.751-0.522-1.174
		c-1.227,0.064-2.456,0.184-3.656,0.326c0.306,1.297,0.871,2.506,1.652,3.563c0.659,0.997,1.559,1.845,2.549,2.506
		c1.18,0.807,2.482,1.372,3.945,1.605c0.565,0.143,1.18,0.192,1.795,0.192c0.614,0,1.205-0.05,1.814-0.169
		c1.442-0.257,2.785-0.822,3.945-1.629C405.657,339.876,404.81,338.999,404.052,338.201 M404.052,338.201
		c-0.446,0.257-0.917,0.446-1.419,0.589c-0.586,0.163-1.178,0.256-1.814,0.256c-0.639,0-1.23-0.093-1.795-0.256
		c-0.521-0.143-0.991-0.332-1.439-0.589c-1.063-0.591-1.938-1.492-2.529-2.555c-0.21-0.375-0.376-0.751-0.522-1.174
		c-1.227,0.064-2.456,0.184-3.656,0.326c0.306,1.297,0.871,2.506,1.652,3.563c0.659,0.997,1.559,1.845,2.549,2.506
		c1.18,0.807,2.482,1.372,3.945,1.605c0.565,0.143,1.18,0.192,1.795,0.192c0.614,0,1.205-0.05,1.814-0.169
		c1.442-0.257,2.785-0.822,3.945-1.629C405.657,339.876,404.81,338.999,404.052,338.201 M404.052,338.201
		c-0.446,0.257-0.917,0.446-1.419,0.589c-0.586,0.163-1.178,0.256-1.814,0.256c-0.639,0-1.23-0.093-1.795-0.256
		c-0.521-0.143-0.991-0.332-1.439-0.589c-1.063-0.591-1.938-1.492-2.529-2.555c-0.21-0.375-0.376-0.751-0.522-1.174
		c-1.227,0.064-2.456,0.184-3.656,0.326c0.306,1.297,0.871,2.506,1.652,3.563c0.659,0.997,1.559,1.845,2.549,2.506
		c1.18,0.807,2.482,1.372,3.945,1.605c0.565,0.143,1.18,0.192,1.795,0.192c0.614,0,1.205-0.05,1.814-0.169
		c1.442-0.257,2.785-0.822,3.945-1.629C405.657,339.876,404.81,338.999,404.052,338.201 M404.052,338.201
		c-0.446,0.257-0.917,0.446-1.419,0.589c-0.586,0.163-1.178,0.256-1.814,0.256c-0.639,0-1.23-0.093-1.795-0.256
		c-0.521-0.143-0.991-0.332-1.439-0.589c-1.063-0.591-1.938-1.492-2.529-2.555c-0.21-0.375-0.376-0.751-0.522-1.174
		c-1.227,0.064-2.456,0.184-3.656,0.326c0.306,1.297,0.871,2.506,1.652,3.563c0.659,0.997,1.559,1.845,2.549,2.506
		c1.18,0.807,2.482,1.372,3.945,1.605c0.565,0.143,1.18,0.192,1.795,0.192c0.614,0,1.205-0.05,1.814-0.169
		c1.442-0.257,2.785-0.822,3.945-1.629C405.657,339.876,404.81,338.999,404.052,338.201 M404.052,338.201
		c-0.446,0.257-0.917,0.446-1.419,0.589c-0.586,0.163-1.178,0.256-1.814,0.256c-0.639,0-1.23-0.093-1.795-0.256
		c-0.521-0.143-0.991-0.332-1.439-0.589c-0.757,0.798-1.588,1.676-2.506,2.666c1.18,0.807,2.482,1.372,3.945,1.605
		c0.565,0.143,1.18,0.192,1.795,0.192c0.614,0,1.205-0.05,1.814-0.169c1.442-0.257,2.785-0.822,3.945-1.629
		C405.657,339.876,404.81,338.999,404.052,338.201 M404.052,338.201c-0.446,0.257-0.917,0.446-1.419,0.589
		c-0.586,0.163-1.178,0.256-1.814,0.256c-0.639,0-1.23-0.093-1.795-0.256c-0.521-0.143-0.991-0.332-1.439-0.589
		c-0.757,0.798-1.588,1.676-2.506,2.666c1.18,0.807,2.482,1.372,3.945,1.605c0.565,0.143,1.18,0.192,1.795,0.192
		c0.614,0,1.205-0.05,1.814-0.169c1.442-0.257,2.785-0.822,3.945-1.629C405.657,339.876,404.81,338.999,404.052,338.201
		 M404.052,338.201c-0.446,0.257-0.917,0.446-1.419,0.589c-0.586,0.163-1.178,0.256-1.814,0.256c-0.639,0-1.23-0.093-1.795-0.256
		c-0.521-0.143-0.991-0.332-1.439-0.589c-1.063-0.591-1.938-1.492-2.529-2.555c-0.21-0.375-0.376-0.751-0.522-1.174
		c-1.227,0.064-2.456,0.184-3.656,0.326c0.306,1.297,0.871,2.506,1.652,3.563c0.659,0.997,1.559,1.845,2.549,2.506
		c1.18,0.807,2.482,1.372,3.945,1.605c0.565,0.143,1.18,0.192,1.795,0.192c0.614,0,1.205-0.05,1.814-0.169
		c1.442-0.257,2.785-0.822,3.945-1.629C405.657,339.876,404.81,338.999,404.052,338.201 M404.052,338.201
		c-0.446,0.257-0.917,0.446-1.419,0.589c-0.586,0.163-1.178,0.256-1.814,0.256c-0.639,0-1.23-0.093-1.795-0.256
		c-0.521-0.143-0.991-0.332-1.439-0.589c-1.063-0.591-1.938-1.492-2.529-2.555c-0.21-0.375-0.376-0.751-0.522-1.174
		c-1.227,0.064-2.456,0.184-3.656,0.326c0.306,1.297,0.871,2.506,1.652,3.563c0.659,0.997,1.559,1.845,2.549,2.506
		c1.18,0.807,2.482,1.372,3.945,1.605c0.565,0.143,1.18,0.192,1.795,0.192c0.614,0,1.205-0.05,1.814-0.169
		c1.442-0.257,2.785-0.822,3.945-1.629C405.657,339.876,404.81,338.999,404.052,338.201 M404.052,338.201
		c-0.446,0.257-0.917,0.446-1.419,0.589c-0.586,0.163-1.178,0.256-1.814,0.256c-0.639,0-1.23-0.093-1.795-0.256
		c-0.521-0.143-0.991-0.332-1.439-0.589c-1.063-0.591-1.938-1.492-2.529-2.555c-0.21-0.375-0.376-0.751-0.522-1.174
		c-1.227,0.064-2.456,0.184-3.656,0.326c0.306,1.297,0.871,2.506,1.652,3.563c0.659,0.997,1.559,1.845,2.549,2.506
		c1.18,0.807,2.482,1.372,3.945,1.605c0.565,0.143,1.18,0.192,1.795,0.192c0.614,0,1.205-0.05,1.814-0.169
		c1.442-0.257,2.785-0.822,3.945-1.629C405.657,339.876,404.81,338.999,404.052,338.201 M404.052,338.201
		c-0.446,0.257-0.917,0.446-1.419,0.589c-0.586,0.163-1.178,0.256-1.814,0.256c-0.639,0-1.23-0.093-1.795-0.256
		c-0.521-0.143-0.991-0.332-1.439-0.589c-1.063-0.591-1.938-1.492-2.529-2.555c-0.21-0.375-0.376-0.751-0.522-1.174
		c-1.227,0.064-2.456,0.184-3.656,0.326c0.306,1.297,0.871,2.506,1.652,3.563c0.659,0.997,1.559,1.845,2.549,2.506
		c1.18,0.807,2.482,1.372,3.945,1.605c0.565,0.143,1.18,0.192,1.795,0.192c0.614,0,1.205-0.05,1.814-0.169
		c1.442-0.257,2.785-0.822,3.945-1.629C405.657,339.876,404.81,338.999,404.052,338.201 M404.052,338.201
		c-0.446,0.257-0.917,0.446-1.419,0.589c-0.586,0.163-1.178,0.256-1.814,0.256c-0.639,0-1.23-0.093-1.795-0.256
		c-0.521-0.143-0.991-0.332-1.439-0.589c-1.063-0.591-1.938-1.492-2.529-2.555c-0.21-0.375-0.376-0.751-0.522-1.174
		c-1.227,0.064-2.456,0.184-3.656,0.326c0.306,1.297,0.871,2.506,1.652,3.563c0.659,0.997,1.559,1.845,2.549,2.506
		c1.18,0.807,2.482,1.372,3.945,1.605c0.565,0.143,1.18,0.192,1.795,0.192c0.614,0,1.205-0.05,1.814-0.169
		c1.442-0.257,2.785-0.822,3.945-1.629C405.657,339.876,404.81,338.999,404.052,338.201 M404.052,338.201
		c-0.446,0.257-0.917,0.446-1.419,0.589c-0.586,0.163-1.178,0.256-1.814,0.256c-0.639,0-1.23-0.093-1.795-0.256
		c-0.521-0.143-0.991-0.332-1.439-0.589c-1.063-0.591-1.938-1.492-2.529-2.555c-0.21-0.375-0.376-0.751-0.522-1.174
		c-1.227,0.064-2.456,0.184-3.656,0.326c0.306,1.297,0.871,2.506,1.652,3.563c0.659,0.997,1.559,1.845,2.549,2.506
		c1.18,0.807,2.482,1.372,3.945,1.605c0.565,0.143,1.18,0.192,1.795,0.192c0.614,0,1.205-0.05,1.814-0.169
		c1.442-0.257,2.785-0.822,3.945-1.629C405.657,339.876,404.81,338.999,404.052,338.201"/>
</g>
<g>
	<path fill="#2887C8" d="M402.636,415.352c-0.614-0.119-1.206-0.16-1.821-0.16c-0.614,0-1.223,0.041-1.789,0.16
		c-3.992,0.684-7.203,3.758-8.129,7.678c-0.189,0.751-0.28,1.559-0.28,2.365c0,0.799,0.09,1.602,0.28,2.354
		c0.926,3.945,4.137,6.99,8.129,7.699c0.565,0.096,1.174,0.145,1.789,0.145c0.615,0,1.207-0.049,1.821-0.145
		c4.772-0.846,8.405-5.029,8.405-10.053C411.041,420.381,407.408,416.182,402.636,415.352 M402.636,431.74
		c-0.591,0.168-1.183,0.238-1.821,0.238c-0.638,0-1.223-0.07-1.789-0.238c-2.011-0.564-3.642-2.074-4.376-4.039
		c-0.28-0.705-0.422-1.484-0.422-2.307c0-0.83,0.143-1.614,0.422-2.322c0.734-1.958,2.366-3.467,4.376-4.035
		c0.565-0.143,1.151-0.239,1.789-0.239c0.639,0,1.23,0.097,1.821,0.239c2.739,0.777,4.79,3.33,4.79,6.357
		C407.426,428.412,405.375,430.959,402.636,431.74"/>
</g>
<g>
	<path fill="#2887C8" d="M402.636,508.566c-0.591-0.096-1.206-0.168-1.821-0.168c-0.614,0-1.223,0.072-1.789,0.168
		c-1.445,0.258-2.771,0.799-3.922,1.604c0.921,0.99,1.766,1.887,2.523,2.691c0.425-0.232,0.897-0.449,1.398-0.588
		c0.565-0.17,1.151-0.232,1.789-0.232c0.639,0,1.23,0.063,1.821,0.232c0.47,0.139,0.94,0.332,1.366,0.564
		c0.781-0.797,1.609-1.678,2.506-2.668C405.375,509.365,404.055,508.824,402.636,508.566 M402.636,508.566
		c-0.591-0.096-1.206-0.168-1.821-0.168c-0.614,0-1.223,0.072-1.789,0.168c-1.445,0.258-2.771,0.799-3.922,1.604
		c0.921,0.99,1.766,1.887,2.523,2.691c0.425-0.232,0.897-0.449,1.398-0.588c0.565-0.17,1.151-0.232,1.789-0.232
		c0.639,0,1.23,0.063,1.821,0.232c0.47,0.139,0.94,0.332,1.366,0.564c0.781-0.797,1.609-1.678,2.506-2.668
		C405.375,509.365,404.055,508.824,402.636,508.566 M402.636,508.566c-0.591-0.096-1.206-0.168-1.821-0.168
		c-0.614,0-1.223,0.072-1.789,0.168c-1.445,0.258-2.771,0.799-3.922,1.604c0.921,0.99,1.766,1.887,2.523,2.691
		c0.425-0.232,0.897-0.449,1.398-0.588c0.565-0.17,1.151-0.232,1.789-0.232c0.639,0,1.23,0.063,1.821,0.232
		c0.47,0.139,0.94,0.332,1.366,0.564c0.781-0.797,1.609-1.678,2.506-2.668C405.375,509.365,404.055,508.824,402.636,508.566
		 M402.636,508.566c-0.591-0.096-1.206-0.168-1.821-0.168c-0.614,0-1.223,0.072-1.789,0.168c-1.445,0.258-2.771,0.799-3.922,1.604
		c0.921,0.99,1.766,1.887,2.523,2.691c0.425-0.232,0.897-0.449,1.398-0.588c0.565-0.17,1.151-0.232,1.789-0.232
		c0.639,0,1.23,0.063,1.821,0.232c0.47,0.139,0.94,0.332,1.366,0.564c0.781-0.797,1.609-1.678,2.506-2.668
		C405.375,509.365,404.055,508.824,402.636,508.566 M402.636,508.566v3.707c0.47,0.139,0.94,0.332,1.366,0.564
		c0.781-0.797,1.609-1.678,2.506-2.668C405.375,509.365,404.055,508.824,402.636,508.566 M402.636,508.566
		c-0.591-0.096-1.206-0.168-1.821-0.168c-0.614,0-1.223,0.072-1.789,0.168c-1.445,0.258-2.771,0.799-3.922,1.604
		c0.921,0.99,1.766,1.887,2.523,2.691c0.425-0.232,0.897-0.449,1.398-0.588c0.565-0.17,1.151-0.232,1.789-0.232
		c0.639,0,1.23,0.063,1.821,0.232c0.47,0.139,0.94,0.332,1.366,0.564c0.781-0.797,1.609-1.678,2.506-2.668
		C405.375,509.365,404.055,508.824,402.636,508.566 M402.636,508.566c-0.591-0.096-1.206-0.168-1.821-0.168
		c-0.614,0-1.223,0.072-1.789,0.168c-1.445,0.258-2.771,0.799-3.922,1.604c0.921,0.99,1.766,1.887,2.523,2.691
		c0.425-0.232,0.897-0.449,1.398-0.588c0.565-0.17,1.151-0.232,1.789-0.232c0.639,0,1.23,0.063,1.821,0.232
		c0.47,0.139,0.94,0.332,1.366,0.564c0.781-0.797,1.609-1.678,2.506-2.668C405.375,509.365,404.055,508.824,402.636,508.566
		 M402.636,508.566c-0.591-0.096-1.206-0.168-1.821-0.168c-0.614,0-1.223,0.072-1.789,0.168c-1.445,0.258-2.771,0.799-3.922,1.604
		c0.921,0.99,1.766,1.887,2.523,2.691c0.425-0.232,0.897-0.449,1.398-0.588c0.565-0.17,1.151-0.232,1.789-0.232
		c0.639,0,1.23,0.063,1.821,0.232c0.47,0.139,0.94,0.332,1.366,0.564c0.781-0.797,1.609-1.678,2.506-2.668
		C405.375,509.365,404.055,508.824,402.636,508.566 M402.636,508.566c-0.591-0.096-1.206-0.168-1.821-0.168
		c-0.614,0-1.223,0.072-1.789,0.168c-1.445,0.258-2.771,0.799-3.922,1.604c0.921,0.99,1.766,1.887,2.523,2.691
		c0.425-0.232,0.897-0.449,1.398-0.588c0.565-0.17,1.151-0.232,1.789-0.232c0.639,0,1.23,0.063,1.821,0.232
		c0.47,0.139,0.94,0.332,1.366,0.564c0.781-0.797,1.609-1.678,2.506-2.668C405.375,509.365,404.055,508.824,402.636,508.566
		 M402.636,508.566c-0.591-0.096-1.206-0.168-1.821-0.168c-0.614,0-1.223,0.072-1.789,0.168c-1.445,0.258-2.771,0.799-3.922,1.604
		c0.921,0.99,1.766,1.887,2.523,2.691c0.425-0.232,0.897-0.449,1.398-0.588c0.565-0.17,1.151-0.232,1.789-0.232
		c0.639,0,1.23,0.063,1.821,0.232c0.47,0.139,0.94,0.332,1.366,0.564c0.781-0.797,1.609-1.678,2.506-2.668
		C405.375,509.365,404.055,508.824,402.636,508.566 M402.636,508.566c-0.591-0.096-1.206-0.168-1.821-0.168
		c-0.614,0-1.223,0.072-1.789,0.168c-1.445,0.258-2.771,0.799-3.922,1.604c0.921,0.99,1.766,1.887,2.523,2.691
		c0.425-0.232,0.897-0.449,1.398-0.588c0.565-0.17,1.151-0.232,1.789-0.232c0.639,0,1.23,0.063,1.821,0.232
		c0.47,0.139,0.94,0.332,1.366,0.564c0.781-0.797,1.609-1.678,2.506-2.668C405.375,509.365,404.055,508.824,402.636,508.566
		 M402.636,508.566c-0.591-0.096-1.206-0.168-1.821-0.168c-0.614,0-1.223,0.072-1.789,0.168c-1.445,0.258-2.771,0.799-3.922,1.604
		c0.921,0.99,1.766,1.887,2.523,2.691c0.425-0.232,0.897-0.449,1.398-0.588c0.565-0.17,1.151-0.232,1.789-0.232
		c0.639,0,1.23,0.063,1.821,0.232c0.47,0.139,0.94,0.332,1.366,0.564c0.781-0.797,1.609-1.678,2.506-2.668
		C405.375,509.365,404.055,508.824,402.636,508.566 M402.636,508.566c-0.591-0.096-1.206-0.168-1.821-0.168
		c-0.614,0-1.223,0.072-1.789,0.168c-1.445,0.258-2.771,0.799-3.922,1.604c0.921,0.99,1.766,1.887,2.523,2.691
		c0.425-0.232,0.897-0.449,1.398-0.588c0.565-0.17,1.151-0.232,1.789-0.232c0.639,0,1.23,0.063,1.821,0.232
		c0.47,0.139,0.94,0.332,1.366,0.564c0.781-0.797,1.609-1.678,2.506-2.668C405.375,509.365,404.055,508.824,402.636,508.566
		 M402.636,508.566v3.707c0.47,0.139,0.94,0.332,1.366,0.564c0.781-0.797,1.609-1.678,2.506-2.668
		C405.375,509.365,404.055,508.824,402.636,508.566 M402.636,508.566v3.707c0.47,0.139,0.94,0.332,1.366,0.564
		c0.781-0.797,1.609-1.678,2.506-2.668C405.375,509.365,404.055,508.824,402.636,508.566 M402.636,508.566v3.707
		c0.47,0.139,0.94,0.332,1.366,0.564c0.781-0.797,1.609-1.678,2.506-2.668C405.375,509.365,404.055,508.824,402.636,508.566
		 M410.732,516.311v-0.045c-0.307-1.303-0.848-2.557-1.648-3.613c-0.686-0.971-1.563-1.818-2.576-2.482
		c-1.133-0.805-2.453-1.346-3.872-1.604c-0.591-0.096-1.206-0.168-1.821-0.168c-0.614,0-1.223,0.072-1.789,0.168
		c-1.445,0.258-2.771,0.799-3.922,1.604c-0.996,0.664-1.868,1.512-2.552,2.502c-0.801,1.066-1.37,2.291-1.678,3.594v0.023
		c-0.166,0.773-0.256,1.508-0.256,2.336c0,0.402,0,0.824,0.09,1.207v0.049c0.615,5.023,4.915,8.951,10.107,8.951
		c5.198,0,9.516-3.928,10.135-8.951v-0.027c0.068-0.404,0.092-0.803,0.092-1.229C411.041,517.82,410.949,517.063,410.732,516.311
		 M407.219,520.207c-0.711,2.881-3.307,5.008-6.404,5.008c-3.091,0-5.693-2.127-6.398-5.008v-0.047
		c-0.117-0.473-0.189-1.014-0.189-1.535c0-0.709,0.096-1.369,0.312-2.01v-0.023c0.134-0.4,0.327-0.799,0.542-1.18
		c0.565-1.088,1.463-1.959,2.547-2.551c0.425-0.232,0.897-0.449,1.398-0.588c0.565-0.17,1.151-0.232,1.789-0.232
		c0.639,0,1.23,0.063,1.821,0.232c0.47,0.139,0.94,0.332,1.366,0.564v0.023c1.066,0.568,1.965,1.463,2.576,2.529
		c0.215,0.379,0.379,0.801,0.545,1.201v0.053c0.189,0.611,0.303,1.295,0.303,1.98c0,0.545-0.09,1.063-0.207,1.559V520.207z
		 M402.636,508.566v3.707c0.47,0.139,0.94,0.332,1.366,0.564c0.781-0.797,1.609-1.678,2.506-2.668
		C405.375,509.365,404.055,508.824,402.636,508.566 M402.636,508.566v3.707c0.47,0.139,0.94,0.332,1.366,0.564
		c0.781-0.797,1.609-1.678,2.506-2.668C405.375,509.365,404.055,508.824,402.636,508.566 M402.636,508.566v3.707
		c0.47,0.139,0.94,0.332,1.366,0.564c0.781-0.797,1.609-1.678,2.506-2.668C405.375,509.365,404.055,508.824,402.636,508.566
		 M402.636,508.566c-0.591-0.096-1.206-0.168-1.821-0.168c-0.614,0-1.223,0.072-1.789,0.168c-1.445,0.258-2.771,0.799-3.922,1.604
		c0.921,0.99,1.766,1.887,2.523,2.691c0.425-0.232,0.897-0.449,1.398-0.588c0.565-0.17,1.151-0.232,1.789-0.232
		c0.639,0,1.23,0.063,1.821,0.232c0.47,0.139,0.94,0.332,1.366,0.564c0.781-0.797,1.609-1.678,2.506-2.668
		C405.375,509.365,404.055,508.824,402.636,508.566 M402.636,508.566c-0.591-0.096-1.206-0.168-1.821-0.168
		c-0.614,0-1.223,0.072-1.789,0.168c-1.445,0.258-2.771,0.799-3.922,1.604c0.921,0.99,1.766,1.887,2.523,2.691
		c0.425-0.232,0.897-0.449,1.398-0.588c0.565-0.17,1.151-0.232,1.789-0.232c0.639,0,1.23,0.063,1.821,0.232
		c0.47,0.139,0.94,0.332,1.366,0.564c0.781-0.797,1.609-1.678,2.506-2.668C405.375,509.365,404.055,508.824,402.636,508.566
		 M402.636,508.566c-0.591-0.096-1.206-0.168-1.821-0.168c-0.614,0-1.223,0.072-1.789,0.168c-1.445,0.258-2.771,0.799-3.922,1.604
		c0.921,0.99,1.766,1.887,2.523,2.691c0.425-0.232,0.897-0.449,1.398-0.588c0.565-0.17,1.151-0.232,1.789-0.232
		c0.639,0,1.23,0.063,1.821,0.232c0.47,0.139,0.94,0.332,1.366,0.564c0.781-0.797,1.609-1.678,2.506-2.668
		C405.375,509.365,404.055,508.824,402.636,508.566 M402.636,508.566c-0.591-0.096-1.206-0.168-1.821-0.168
		c-0.614,0-1.223,0.072-1.789,0.168c-1.445,0.258-2.771,0.799-3.922,1.604c0.921,0.99,1.766,1.887,2.523,2.691
		c0.425-0.232,0.897-0.449,1.398-0.588c0.565-0.17,1.151-0.232,1.789-0.232c0.639,0,1.23,0.063,1.821,0.232
		c0.47,0.139,0.94,0.332,1.366,0.564c0.781-0.797,1.609-1.678,2.506-2.668C405.375,509.365,404.055,508.824,402.636,508.566
		 M402.636,508.566c-0.591-0.096-1.206-0.168-1.821-0.168c-0.614,0-1.223,0.072-1.789,0.168c-1.445,0.258-2.771,0.799-3.922,1.604
		c0.921,0.99,1.766,1.887,2.523,2.691c0.425-0.232,0.897-0.449,1.398-0.588c0.565-0.17,1.151-0.232,1.789-0.232
		c0.639,0,1.23,0.063,1.821,0.232c0.47,0.139,0.94,0.332,1.366,0.564c0.781-0.797,1.609-1.678,2.506-2.668
		C405.375,509.365,404.055,508.824,402.636,508.566 M402.636,508.566c-0.591-0.096-1.206-0.168-1.821-0.168
		c-0.614,0-1.223,0.072-1.789,0.168c-1.445,0.258-2.771,0.799-3.922,1.604c0.921,0.99,1.766,1.887,2.523,2.691
		c0.425-0.232,0.897-0.449,1.398-0.588c0.565-0.17,1.151-0.232,1.789-0.232c0.639,0,1.23,0.063,1.821,0.232
		c0.47,0.139,0.94,0.332,1.366,0.564c0.781-0.797,1.609-1.678,2.506-2.668C405.375,509.365,404.055,508.824,402.636,508.566
		 M402.636,508.566c-0.591-0.096-1.206-0.168-1.821-0.168c-0.614,0-1.223,0.072-1.789,0.168c-1.445,0.258-2.771,0.799-3.922,1.604
		c0.921,0.99,1.766,1.887,2.523,2.691c0.425-0.232,0.897-0.449,1.398-0.588c0.565-0.17,1.151-0.232,1.789-0.232
		c0.639,0,1.23,0.063,1.821,0.232c0.47,0.139,0.94,0.332,1.366,0.564c0.781-0.797,1.609-1.678,2.506-2.668
		C405.375,509.365,404.055,508.824,402.636,508.566 M402.636,508.566v3.707c0.47,0.139,0.94,0.332,1.366,0.564
		c0.781-0.797,1.609-1.678,2.506-2.668C405.375,509.365,404.055,508.824,402.636,508.566 M402.636,508.566v3.707
		c0.47,0.139,0.94,0.332,1.366,0.564c0.781-0.797,1.609-1.678,2.506-2.668C405.375,509.365,404.055,508.824,402.636,508.566
		 M402.636,508.566c-0.591-0.096-1.206-0.168-1.821-0.168c-0.614,0-1.223,0.072-1.789,0.168c-1.445,0.258-2.771,0.799-3.922,1.604
		c0.921,0.99,1.766,1.887,2.523,2.691c0.425-0.232,0.897-0.449,1.398-0.588c0.565-0.17,1.151-0.232,1.789-0.232
		c0.639,0,1.23,0.063,1.821,0.232c0.47,0.139,0.94,0.332,1.366,0.564c0.781-0.797,1.609-1.678,2.506-2.668
		C405.375,509.365,404.055,508.824,402.636,508.566 M402.636,508.566c-0.591-0.096-1.206-0.168-1.821-0.168
		c-0.614,0-1.223,0.072-1.789,0.168c-1.445,0.258-2.771,0.799-3.922,1.604c0.921,0.99,1.766,1.887,2.523,2.691
		c0.425-0.232,0.897-0.449,1.398-0.588c0.565-0.17,1.151-0.232,1.789-0.232c0.639,0,1.23,0.063,1.821,0.232
		c0.47,0.139,0.94,0.332,1.366,0.564c0.781-0.797,1.609-1.678,2.506-2.668C405.375,509.365,404.055,508.824,402.636,508.566
		 M402.636,508.566c-0.591-0.096-1.206-0.168-1.821-0.168c-0.614,0-1.223,0.072-1.789,0.168c-1.445,0.258-2.771,0.799-3.922,1.604
		c0.921,0.99,1.766,1.887,2.523,2.691c0.425-0.232,0.897-0.449,1.398-0.588c0.565-0.17,1.151-0.232,1.789-0.232
		c0.639,0,1.23,0.063,1.821,0.232c0.47,0.139,0.94,0.332,1.366,0.564c0.781-0.797,1.609-1.678,2.506-2.668
		C405.375,509.365,404.055,508.824,402.636,508.566"/>
</g>
<g>
	<path fill="#2887C8" d="M397.627,512.861c-1.084,0.596-1.981,1.463-2.547,2.551c-0.784-0.826-1.611-1.727-2.532-2.74
		c-6.85-7.531-17.447-20.451-25.999-36.555c-0.827-1.537-1.629-3.119-2.409-4.725c-6.398-13.086-11.194-27.986-11.62-43.645
		c-0.046-0.774-0.046-1.555-0.046-2.357c0-0.779,0-1.582,0.046-2.361c0.426-15.539,5.175-30.349,11.5-43.333
		c0.781-1.608,1.585-3.193,2.386-4.726c8.598-16.13,19.25-29.072,26.118-36.61c0.9-0.99,1.749-1.908,2.532-2.715
		c0.588,1.063,1.459,1.964,2.523,2.555c-0.757,0.798-1.582,1.676-2.5,2.666c-4.35,4.749-10.229,11.689-16.089,20.241
		c-2.899,4.225-5.973,9.088-8.854,14.452c-0.729,1.343-1.463,2.715-2.147,4.137c-6.349,12.704-11.5,27.842-11.858,43.827v0.023
		c-0.041,0.615-0.041,1.23-0.041,1.844c0,0.633,0,1.225,0.041,1.84v0.023c0.358,15.873,5.39,30.986,12.001,44.139
		c0.685,1.371,1.396,2.715,2.124,4.041c8.24,15.256,18.301,27.508,24.848,34.738C396.022,511.162,396.875,512.057,397.627,512.861"
		/>
</g>
<g>
	<path fill="#2887C8" d="M432.865,480.131c-0.592,1.086-1.23,2.148-1.846,3.164c-7.65,12.752-16.129,23.002-21.936,29.357
		c-0.9,1.014-1.748,1.91-2.506,2.738c-0.615-1.066-1.51-1.963-2.57-2.529v-0.023c0.775-0.801,1.604-1.678,2.5-2.668
		c5.668-6.236,13.934-16.246,21.422-28.688c0.637-1.047,1.252-2.133,1.861-3.193C430.621,479.16,431.682,479.82,432.865,480.131"/>
</g>
<g>
	<path fill="#2887C8" d="M432.98,370.933c-1.182,0.28-2.242,0.917-3.064,1.743c-0.617-1.081-1.23-2.145-1.871-3.188
		c-1.818-3.019-3.662-5.854-5.453-8.45c-5.834-8.502-11.689-15.425-16.014-20.168c-0.921-0.996-1.766-1.868-2.523-2.669
		c1.061-0.588,1.932-1.492,2.523-2.529c0.781,0.781,1.629,1.702,2.529,2.692c5.83,6.401,14.332,16.631,22.006,29.353
		C431.752,368.783,432.391,369.846,432.98,370.933"/>
</g>
<g>
	<path fill="#2887C8" d="M449.182,425.389c0,0.495,0,0.967-0.023,1.463c-0.234,13.605-3.803,26.639-8.855,38.424
		c-0.471,1.137-0.99,2.268-1.512,3.375c-0.924-0.752-2.033-1.271-3.287-1.438c0.525-1.109,1.043-2.242,1.516-3.398
		c4.77-11.125,8.123-23.334,8.479-36.061c0.049-0.783,0.049-1.588,0.049-2.365c0-0.781-0.021-1.58-0.049-2.359
		c-0.379-12.777-3.775-24.962-8.383-35.803c-0.471-1.16-0.973-2.293-1.492-3.403c1.23-0.166,2.363-0.705,3.264-1.463
		c0.521,1.113,1.018,2.244,1.512,3.38c4.982,11.713,8.525,24.655,8.76,38.184C449.182,424.393,449.182,424.896,449.182,425.389"/>
</g>
<g>
	<path fill="#2887C8" d="M402.636,338.79v80.244c-0.591-0.137-1.183-0.232-1.821-0.232c-0.638,0-1.223,0.096-1.789,0.232V338.79
		c0.565,0.166,1.151,0.256,1.789,0.256C401.453,339.045,402.045,338.956,402.636,338.79"/>
</g>
<g>
	<path fill="#2887C8" d="M402.636,431.74v80.533c-0.591-0.166-1.183-0.238-1.821-0.238c-0.638,0-1.223,0.072-1.789,0.238V431.74
		c0.565,0.168,1.151,0.238,1.789,0.238C401.453,431.979,402.045,431.908,402.636,431.74"/>
</g>
<g>
	<path fill="#2887C8" d="M394.227,425.389c0,0.824,0.143,1.607,0.422,2.316c-0.134,0.025-0.28,0.049-0.422,0.049h-27.843
		c-1.299,0-2.363-1.068-2.363-2.365c0-1.299,1.063-2.359,2.363-2.359h27.843c0.143,0,0.289,0.022,0.422,0.046
		C394.37,423.78,394.227,424.561,394.227,425.389"/>
</g>
<g>
	<path fill="#2887C8" d="M402.636,375.845v2.995c-0.448,0.519-1.087,0.851-1.821,0.851h-21.231c-1.293,0-2.357-1.061-2.357-2.36
		c0-1.302,1.063-2.36,2.357-2.36h21.231C401.549,374.971,402.211,375.3,402.636,375.845"/>
</g>
<g>
	<path fill="#2887C8" d="M428.234,375.606v3.45c-0.422,0.402-0.99,0.641-1.605,0.641h-14.361c-1.297,0-2.357-1.069-2.357-2.366
		c0-1.299,1.061-2.36,2.357-2.36h14.361C427.244,374.971,427.813,375.21,428.234,375.606"/>
</g>
<g>
	<path fill="#2887C8" d="M428.281,471.744v0.027l-0.119,3.473c-0.422,0.357-0.943,0.564-1.533,0.564h-14.357
		c-1.301,0-2.363-1.061-2.363-2.363c0-1.299,1.063-2.361,2.363-2.361h14.357C427.268,471.084,427.859,471.348,428.281,471.744"/>
</g>
<g>
	<path fill="#2887C8" d="M402.636,471.961v3c-0.448,0.52-1.087,0.846-1.821,0.846h-21.231c-1.293,0-2.357-1.061-2.357-2.355
		c0-1.301,1.063-2.365,2.357-2.365h21.231C401.549,471.086,402.211,471.416,402.636,471.961"/>
</g>
<g>
	<path fill="#2887C8" d="M356.134,423.523v3.73c-0.399,0.309-0.918,0.494-1.463,0.494h-27.84c-1.302,0-2.366-1.063-2.366-2.357
		c0-1.301,1.063-2.361,2.366-2.361h27.84C355.216,423.029,355.735,423.219,356.134,423.523"/>
</g>
<g>
	<path fill="#2887C8" d="M370.14,375.56c-0.734,1.346-1.463,2.715-2.15,4.134h-27.251c-1.3,0-2.363-1.063-2.363-2.363
		s1.063-2.363,2.363-2.363h27.842C369.173,374.968,369.714,375.181,370.14,375.56"/>
</g>
<g>
	<path fill="#2887C8" d="M370.256,475.434c-0.422,0.422-1.037,0.684-1.675,0.684h-27.842c-1.303,0-2.363-1.063-2.363-2.363
		c0-1.299,1.061-2.361,2.363-2.361h27.394C368.817,472.764,369.522,474.107,370.256,475.434"/>
</g>
<g>
	<path fill="#2887C8" d="M449.158,423.926v2.928c-0.424,0.545-1.084,0.895-1.846,0.895h-26.801c-1.297,0-2.357-1.061-2.357-2.354
		c0-1.303,1.061-2.365,2.357-2.365h26.801C448.074,423.029,448.734,423.381,449.158,423.926"/>
</g>
<g>
	<path fill="#2887C8" d="M487.605,423.757c-0.191,0.618-0.281,1.256-0.281,1.917c0,0.496,0.043,0.967,0.186,1.439v0.023
		c-0.422,0.376-0.99,0.615-1.605,0.615h-23.025c-1.297,0-2.363-1.064-2.363-2.363c0-1.297,1.066-2.363,2.363-2.363h23.025
		c0.119,0,0.262,0,0.377,0.047c0.072,0,0.119,0,0.166,0.023c0.215,0.049,0.4,0.119,0.59,0.238c0.074,0.027,0.166,0.073,0.24,0.143
		c0.072,0.045,0.137,0.092,0.209,0.164l0.096,0.094h0.023V423.757z"/>
</g>
<g>
	<path fill="#2887C8" d="M482.527,377.331c-0.072,1.229-1.086,2.194-2.34,2.194h-25.479c-1.301,0-2.363-1.061-2.363-2.363
		c0-1.293,1.063-2.357,2.363-2.357h25.479c0.313,0,0.592,0.066,0.877,0.16l1.391,2.27
		C482.48,377.258,482.504,377.282,482.527,377.331"/>
</g>
<g>
	<path fill="#2887C8" d="M482.551,473.445c0,0.1,0,0.17-0.023,0.24c-0.328,0.592-0.684,1.152-1.063,1.748
		c-0.377,0.232-0.805,0.379-1.277,0.379h-25.479c-1.301,0-2.363-1.064-2.363-2.367c0-1.299,1.063-2.359,2.363-2.359h25.479
		C481.488,471.086,482.551,472.146,482.551,473.445"/>
</g>
<g>
	<path fill="#2887C8" d="M310.038,415.727c-0.146,1.207-0.257,2.412-0.329,3.619c-0.615-0.169-1.303-0.285-1.987-0.285
		c-0.542,0-1.037,0.07-1.559,0.213c0.072-1.254,0.169-2.506,0.306-3.73c0.428-0.072,0.83-0.096,1.253-0.096
		C308.528,415.447,309.28,415.543,310.038,415.727"/>
</g>
<g>
	<path fill="#2887C8" d="M394.536,334.419c-1.229,0.073-2.459,0.192-3.665,0.355c-0.472,0.023-0.918,0.093-1.39,0.14
		c-1.868,0.238-3.706,0.521-5.524,0.856c-1.844,0.35-3.642,0.751-5.431,1.197c-1.794,0.449-3.546,0.944-5.317,1.515
		c-1.725,0.539-3.45,1.157-5.148,1.815c-1.696,0.639-3.374,1.35-5.032,2.101c-1.652,0.757-3.257,1.564-4.863,2.41
		c-1.582,0.83-3.162,1.725-4.697,2.669c-1.539,0.923-3.048,1.914-4.51,2.928c-1.492,1.023-2.931,2.078-4.327,3.188
		c-1.413,1.11-2.803,2.244-4.152,3.43c-1.326,1.2-2.646,2.407-3.922,3.683c-0.661,0.638-1.299,1.32-1.938,1.981h-0.026
		c0,0-1.533,0.166-2.171-0.472c-0.661-0.639-0.568-1.725-0.568-1.725c1.206-1.299,2.459-2.546,3.755-3.776
		c1.299-1.229,2.625-2.436,3.992-3.569c1.349-1.157,2.739-2.29,4.181-3.354c1.416-1.078,2.884-2.124,4.371-3.115
		c1.486-0.99,3.001-1.955,4.533-2.858c1.556-0.918,3.115-1.795,4.726-2.62c1.583-0.83,3.211-1.605,4.863-2.339
		c1.652-0.734,3.331-1.442,5.032-2.075c1.698-0.641,3.4-1.229,5.148-1.771c1.742-0.568,3.514-1.063,5.288-1.512
		c1.795-0.446,3.59-0.854,5.405-1.187c1.821-0.353,3.663-0.635,5.533-0.871c0.679-0.096,1.364-0.16,2.028-0.233
		c1.206-0.143,2.386-0.239,3.566-0.335h0.14c-0.12,0.519-0.192,1.02-0.192,1.559C394.224,333.12,394.32,333.807,394.536,334.419"/>
</g>
<g>
	<path fill="#2887C8" d="M495.494,419.27c-0.496-0.133-1.041-0.213-1.582-0.213c-0.688,0-1.35,0.12-1.965,0.286
		c-0.064-1.204-0.184-2.409-0.303-3.616c-1.393-13.078-5.598-25.36-11.945-36.202c-0.951-1.605-1.941-3.188-2.979-4.72
		c-14.645-21.87-38.518-37.079-65.984-40.057c-1.207-0.137-2.41-0.233-3.617-0.329c0.189-0.615,0.31-1.299,0.31-1.981
		c0-0.542-0.093-1.043-0.216-1.556c1.254,0.087,2.508,0.183,3.736,0.326c29.496,3.147,55,19.859,70.113,43.763l1.393,2.267
		c0.023,0.021,0.047,0.044,0.07,0.09c6.756,11.41,11.193,24.375,12.662,38.213C495.307,416.77,495.42,418.023,495.494,419.27"/>
</g>
<g>
	<path fill="#2887C8" d="M394.227,518.625c0,0.518,0.073,1.061,0.192,1.533c-1.256-0.064-2.482-0.16-3.712-0.33
		c-40.829-4.32-74.01-34.67-82.587-74.105c-0.495-2.34-0.917-4.699-1.27-7.105c-0.143-0.951-0.239-1.893-0.332-2.836
		c-0.14-1.229-0.257-2.482-0.33-3.709c0.496,0.117,0.991,0.189,1.533,0.189c0.688,0,1.372-0.119,2.007-0.33
		c0.07,1.225,0.189,2.432,0.333,3.66c0.096,0.918,0.209,1.818,0.329,2.738c0.358,2.363,0.781,4.703,1.276,6.988
		c8.383,37.717,40.124,66.742,79.208,70.967c1.206,0.166,2.436,0.262,3.665,0.336C394.323,517.258,394.227,517.914,394.227,518.625"
		/>
</g>
<g>
	<path fill="#2887C8" d="M495.471,432.072c-0.074,1.252-0.188,2.482-0.33,3.713c-1.469,13.717-5.883,26.563-12.615,37.9
		c-0.326,0.592-0.68,1.152-1.061,1.748c-15.043,24.252-40.762,41.256-70.52,44.42c-1.225,0.145-2.477,0.234-3.729,0.328
		c0.119-0.496,0.212-1.016,0.212-1.557c0-0.688-0.116-1.373-0.31-1.98c1.23-0.098,2.436-0.193,3.617-0.336
		c27.652-2.996,51.643-18.396,66.287-40.496c1.014-1.535,1.982-3.119,2.932-4.727c6.166-10.652,10.227-22.672,11.643-35.494
		c0.143-1.205,0.262-2.412,0.35-3.639c0.641,0.189,1.277,0.309,1.965,0.309C494.453,432.262,494.975,432.189,495.471,432.072"/>
</g>
<g>
	<path fill="#2887C8" d="M319.626,383.752c-0.568,1.087-1.11,2.197-1.605,3.307c-0.402,0.848-0.781,1.702-1.16,2.549
		c-0.918,2.153-1.771,4.345-2.529,6.588c-1.061,3.189-1.981,6.447-2.715,9.805c0,0-0.685,0.684-1.748,0.564
		c-1.11-0.119-1.766-0.967-1.766-0.967c0.751-3.707,1.789-7.346,2.972-10.866c0.781-2.267,1.652-4.51,2.625-6.684
		c0.376-0.871,0.752-1.748,1.174-2.596c0.501-1.133,1.046-2.244,1.614-3.327C317.333,382.925,318.42,383.497,319.626,383.752"/>
</g>
<g>
	<path fill="#2887C8" d="M328.268,370.175c-0.758,0.973-1.463,1.938-2.171,2.928c-0.757-0.9-1.771-1.605-2.908-2.01
		c0.711-1.014,1.439-2.004,2.197-2.995C326.473,368.616,327.438,369.301,328.268,370.175"/>
</g>
<g>
	<path fill="#FFFFFF" d="M453.438,490.352c-0.445-0.252-0.895-0.449-1.344-0.598c-0.045,0-0.045,0-0.098-0.049h0.098
		C452.543,489.902,452.992,490.1,453.438,490.352"/>
</g>
<g>
	<path fill="#FFFFFF" d="M528.971,634.896c-3.83,12.438-10.996,41.645-13.932,47.268c-2.936,5.578-11.594,33.543-14.43,44.783
		c-2.141,8.408-1.938,28.361-1.695,37.668H396.118c0-13.182-2.04-47.668-22.292-67.971c-14.726-14.725-26.124-33.338-37.067-51.398
		l-2.637-4.277c-11.398-18.662-24.335-39.76-30.057-60.656c-3.581-12.986-6.366-26.322-8.359-39.605
		c-0.245-1.695-0.449-3.086-0.198-4.082c0.644-2.982,3.484-4.725,5.722-5.723c0.644-0.297,1.343-0.547,2.042-0.746
		c0.344-0.102,0.746-0.25,1.145-0.297c0.496-0.15,0.991-0.25,1.492-0.352h0.148c0.598-0.148,1.241-0.199,1.839-0.295
		c0.597-0.053,1.145-0.1,1.742-0.1l13.484,29.256l13.237,29.955c0,0,9.6,19.953,28.259,18.857c0.353,0.201,0.752,0.297,1.145,0.4
		c0.653,0.195,1.296,0.346,1.94,0.398c0.548,0.096,1.145,0.148,1.743,0.148c11.045,0,18.51-12.787,19.107-24.883l-0.402-132.154
		c-0.046-9.9-0.093-28.406,7.27-35.825c2.188-2.19,4.921-3.28,8.456-3.28c0.399,0,0.799,0.047,1.247,0.093
		c0.251,0.05,0.495,0.103,0.792,0.151c0.057,0,0.154,0.053,0.205,0.053l3.084,98.869l-0.055,41.795l5.926,2.535l6.219,1.695v1.191
		h9.953v-58.363c1.891-2.889,7.959-10.902,17.412-10.902c0.5,0,0.996,0.053,1.496,0.154c0.145,0,0.348,0,0.496,0.096v56.08
		l1.941,15.824l4.92,5.818h16.422v-60.703c2.59-2.738,9.609-9.35,17.418-9.35h0.197l1.195,26.117l0.398,22.293v21.643l3.635,14.93
		l8.256,1.547v1.34h9.957v-44.584c1.891-1.941,6.617-5.973,13.682-5.973c0.445,0,0.848,0.053,1.293,0.148
		c0.598,0.053,1.242,0.25,1.84,0.5v61.301C531.807,596.285,532.85,622.455,528.971,634.896"/>
</g>
<g>
	<path fill="#FFFFFF" d="M452.094,489.705h-0.102c0.057,0.045,0.057,0.045,0.102,0.045c0.449,0.154,0.895,0.354,1.344,0.598
		C452.988,490.104,452.543,489.904,452.094,489.705"/>
</g>
<g>
	<path fill="#2887C8" d="M453.438,490.352c-0.445-0.252-0.895-0.449-1.344-0.598v-0.049
		C452.543,489.902,452.992,490.1,453.438,490.352"/>
</g>
<g>
	<path fill="#2887C8" d="M459.857,488.959c-0.047-0.051-0.104-0.104-0.148-0.152l0.102,0.049L459.857,488.959z"/>
</g>
<g>
	<path fill="#2887C8" d="M550.666,598.725v-51.598c0-1.195,0-2.592-0.25-4.033c-0.297-1.643-0.793-3.283-1.539-4.828
		c-3.586-7.811-11.996-13.881-20.205-13.881c-5.473,0-10.051,1.594-13.637,3.582V513.09c0-1.789,0.055-3.879-0.393-6.07
		c-2.189-10.648-13.086-19.953-23.289-19.953c-8.559,0-15.873,4.678-20.6,8.658c-3.484-7.018-10.449-16.57-22.092-16.57
		c-7.313,0-13.137,2.887-17.418,6.318v-22.936c0-3.039,0.102-6.074,0.199-9.201c0.25-7.465,0.5-15.229-0.543-22.693
		c-1.742-11.996-12.041-28.613-27.021-28.613c-6.224,0-11.445,2.096-15.524,6.219C378.053,418.6,378.158,439,378.205,451.139
		l0.399,131.859c-0.353,6.865-4.481,15.176-9.16,15.176c-3.531,0-8.502-5.918-10.842-10.047l-19.804-48.764
		c-3.336-7.514-8.511-13.635-14.577-17.166c-6.821-3.934-18.414-4.131-26.975-0.402c-6.122,2.641-10.198,7.121-11.445,12.594
		c-0.696,2.934-0.245,5.768,0.049,7.807c2.04,13.684,4.927,27.371,8.61,40.758c6.124,22.238,19.404,44.029,31.149,63.24l2.637,4.23
		c10.746,17.662,22.937,37.713,38.513,53.295c21.744,21.736,19.309,65.127,19.309,65.576l-0.353,5.273h129.272v-7.121
		c0.102-11.492,0.598-25.023,3.188-38.006c1.191-5.781,2.732-12.594,5.668-19.357c1.193-2.74,2.488-5.426,3.738-8.113
		c1.789-3.781,3.623-7.668,5.221-11.689c4.629-11.549,7.965-23.592,11.199-35.182l2.781-9.801
		c1.992-6.965,4.082-14.178,3.979-21.895C550.666,615.195,550.666,606.934,550.666,598.725 M459.805,488.855l0.055,0.104
		c-0.055-0.053-0.102-0.104-0.148-0.148L459.805,488.855z M537.182,642.559l-2.789,9.852c-3.131,11.396-6.414,23.141-10.846,34.189
		c-1.438,3.729-3.133,7.313-4.926,11.088c-1.342,2.793-2.688,5.625-3.883,8.463c-3.281,7.615-5.023,15.027-6.32,21.299
		c-2.584,12.83-3.178,26.314-3.33,37.166h-108.97c0-13.182-2.04-47.668-22.295-67.971c-14.726-14.73-26.118-33.334-37.067-51.396
		l-2.637-4.283c-11.39-18.658-24.332-39.752-30.048-60.654c-3.589-12.986-6.375-26.322-8.362-39.605
		c-0.25-1.693-0.449-3.084-0.204-4.08c0.652-2.982,3.484-4.725,5.722-5.723c0.647-0.299,1.346-0.545,2.042-0.746
		c0.347-0.102,0.746-0.244,1.145-0.299c0.496-0.148,0.997-0.252,1.492-0.348h0.151c0.595-0.148,1.241-0.201,1.842-0.297
		c0.597-0.047,1.142-0.102,1.736-0.102c3.887-0.195,7.465,0.449,9.609,1.689c4.175,2.439,8.007,7.016,10.346,12.441l19.906,48.912
		l0.245,0.547c0.696,1.195,5.871,10.254,13.438,13.881c0.496,0.203,0.941,0.402,1.442,0.598c0.396,0.154,0.795,0.305,1.142,0.398
		c0.65,0.199,1.293,0.354,1.938,0.402c0.551,0.1,1.151,0.148,1.743,0.148c11.045,0,18.51-12.787,19.113-24.879l-0.399-132.158
		c-0.052-9.9-0.102-28.41,7.261-35.828c2.191-2.188,4.93-3.281,8.461-3.281c0.402,0,0.796,0.047,1.241,0.097
		c0.25,0.052,0.502,0.099,0.801,0.148c0.047,0,0.148,0.052,0.195,0.052c0.05,0,0.152,0.051,0.205,0.051
		c0.393,0.099,0.842,0.25,1.24,0.398c0.449,0.148,0.895,0.348,1.344,0.598c2.387,1.191,4.576,3.234,6.365,5.621
		c0.4,0.5,0.752,1.049,1.1,1.543c0.346,0.545,0.695,1.047,0.996,1.594c1.885,3.281,3.178,6.867,3.627,9.947
		c0.951,6.625,0.746,13.934,0.502,20.998c-0.102,3.188-0.205,6.373-0.205,9.508v95.83h9.953v-58.363
		c1.895-2.887,7.961-10.896,17.418-10.896c0.496,0,0.996,0.049,1.492,0.148c0.152,0,0.35,0,0.496,0.102
		c0.447,0.049,0.896,0.197,1.346,0.348h0.098c0.449,0.197,0.898,0.398,1.344,0.643c0.445,0.25,0.951,0.551,1.396,0.848
		c0.396,0.297,0.746,0.598,1.143,0.895c1.742,1.541,3.184,3.434,4.328,5.377c0.598,0.943,1.148,1.887,1.541,2.738
		c1.1,2.186,1.846,4.125,2.143,5.02v61.854h9.953v-60.707c2.584-2.734,9.6-9.352,17.412-9.352h0.398
		c0.301,0.047,0.551,0.047,0.848,0.098h0.047c0.652,0.098,1.242,0.25,1.895,0.5c4.623,1.688,9.35,6.568,10.346,11.391
		c0.201,1.193,0.201,2.637,0.201,4.035c-0.053,17.709-0.053,35.377-0.053,53.088v18.762h9.953v-44.588
		c1.891-1.938,6.617-5.967,13.684-5.967c0.447,0,0.848,0.051,1.293,0.148c0.6,0.051,1.24,0.246,1.848,0.496
		c0.494,0.197,0.99,0.402,1.537,0.699c0,0,0.047,0,0.104,0.047c0.445,0.25,0.895,0.551,1.342,0.848
		c0.746,0.494,1.492,1.092,2.133,1.838c0.254,0.25,0.504,0.502,0.746,0.746c0.605,0.65,1.102,1.344,1.5,2.096
		c0.195,0.195,0.299,0.445,0.395,0.695c0.25,0.443,0.449,0.898,0.598,1.393c0.25,0.502,0.352,0.996,0.445,1.492
		c0.156,0.746,0.102,1.498,0.102,2.291v51.598c0,8.26,0,16.568,0.102,24.779C540.912,629.771,539.119,635.988,537.182,642.559"/>
</g>
<g>
	<path fill="#B6DDF5" d="M540.813,623.504c0.102,6.271-1.688,12.488-3.633,19.053l-2.787,9.857
		c-3.135,11.393-6.414,23.137-10.85,34.18c-1.436,3.734-3.133,7.313-4.924,11.1c-1.34,2.787-2.684,5.619-3.875,8.463
		c-3.289,7.609-5.031,15.021-6.322,21.293c-2.588,12.836-3.186,26.326-3.334,37.166h-6.17c-0.252-9.301-0.449-29.254,1.689-37.668
		c2.838-11.24,11.496-39.205,14.434-44.777c2.938-5.629,10.102-34.836,13.934-47.27c3.877-12.441,2.834-38.619,2.834-38.619v-61.293
		c0.496,0.195,0.996,0.393,1.539,0.689c0,0,0.055,0,0.102,0.057c0.449,0.244,0.895,0.541,1.344,0.838
		c0.746,0.502,1.492,1.1,2.141,1.846c0.246,0.25,0.496,0.494,0.746,0.746c0.598,0.643,1.094,1.342,1.492,2.088
		c0.148,0.205,0.297,0.449,0.398,0.699c0.246,0.445,0.449,0.895,0.598,1.391c0.199,0.5,0.348,0.996,0.449,1.492
		c0.148,0.744,0.094,1.496,0.094,2.289v51.598C540.711,606.98,540.711,615.293,540.813,623.504"/>
</g>
<g>
	<path fill="#B6DDF5" d="M505.088,513.043c-0.049,17.709-0.049,35.377-0.049,53.088v17.418l-8.264-1.547l-3.627-14.924V545.43
		l-0.402-22.291l-1.191-26.119h0.195c0.299,0.047,0.551,0.047,0.848,0.104h0.049c0.65,0.092,1.248,0.244,1.891,0.494
		c4.631,1.688,9.355,6.568,10.354,11.391C505.088,510.201,505.088,511.645,505.088,513.043"/>
</g>
<g>
	<path fill="#B6DDF5" d="M459.857,488.959c-0.047-0.051-0.104-0.104-0.148-0.152l0.102,0.049L459.857,488.959z"/>
</g>
<g>
	<path fill="#B6DDF5" d="M463.988,505.229v61.848h-6.469l-4.93-5.818l-1.939-15.824v-56.08c0.447,0.053,0.896,0.205,1.342,0.348
		c0.057,0.053,0.057,0.053,0.102,0.053c0.449,0.148,0.895,0.346,1.344,0.598c0.445,0.25,0.947,0.547,1.396,0.848
		c0.393,0.297,0.746,0.598,1.139,0.895c1.742,1.537,3.188,3.432,4.332,5.369c0.598,0.949,1.146,1.891,1.539,2.738
		C462.941,502.393,463.688,504.33,463.988,505.229"/>
</g>
<g>
	<path fill="#B6DDF5" d="M453.438,490.352c-0.445-0.252-0.895-0.449-1.344-0.598c-0.045,0-0.045,0-0.098-0.049h0.098
		C452.543,489.902,452.992,490.1,453.438,490.352"/>
</g>
<g>
	<path fill="#B6DDF5" d="M421.492,453.033c-0.102,3.184-0.195,6.365-0.195,9.504v94.639l-6.223-1.693l-5.92-2.537l0.045-41.793
		l-3.076-98.869c0.047,0,0.143,0.047,0.195,0.047c0.394,0.102,0.848,0.25,1.242,0.402c0.447,0.148,0.895,0.344,1.348,0.594
		c2.387,1.195,4.578,3.234,6.367,5.623c0.393,0.502,0.746,1.043,1.092,1.539c0.348,0.547,0.699,1.049,0.996,1.594
		c1.893,3.286,3.188,6.867,3.635,9.953C421.941,438.65,421.744,445.967,421.492,453.033"/>
</g>
<g>
	<path fill="#B6DDF5" d="M364.622,607.182c-18.659,1.096-28.262-18.857-28.262-18.857l-13.24-29.955l-13.481-29.256
		c3.878-0.203,7.468,0.447,9.601,1.688c4.184,2.441,8.016,7.02,10.355,12.441l19.9,48.914l0.25,0.549
		c0.699,1.193,5.871,10.252,13.432,13.879C363.678,606.785,364.126,606.984,364.622,607.182"/>
</g>
</svg>
