<?xml version="1.0" encoding="utf-8"?>
<!-- Generator: Adobe Illustrator 16.0.0, SVG Export Plug-In . SVG Version: 6.00 Build 0)  -->
<!DOCTYPE svg PUBLIC "-//W3C//DTD SVG 1.0//EN" "http://www.w3.org/TR/2001/REC-SVG-20010904/DTD/svg10.dtd">
<svg version="1.0" id="Layer_1" xmlns="http://www.w3.org/2000/svg" xmlns:xlink="http://www.w3.org/1999/xlink" x="0px" y="0px"
	 width="800px" height="800px" viewBox="0 0 800 800" enable-background="new 0 0 800 800" xml:space="preserve">
<path fill="#E4F2FC" d="M422.557,19c-90.901,72.209-190.782,97.566-281.763,104.744v303.772C140.793,579.09,422.557,769,422.557,769
	s281.762-189.91,281.762-341.484V123.744C613.33,116.566,513.457,91.209,422.557,19"/>
<path fill="none" stroke="#2887C8" stroke-width="1.5" stroke-linecap="round" stroke-linejoin="round" stroke-miterlimit="10" d="
	M627.355,523.25c29.1-44.355,36.38-68.191,44.1-111.804V119.62C580.48,112.721,480.594,88.368,389.692,19
	c-90.901,69.368-190.767,93.721-281.755,100.62v54.565"/>
<path fill="none" stroke="#2887C8" stroke-width="1.5" stroke-linecap="round" stroke-linejoin="round" stroke-miterlimit="10" d="
	M599.627,559.783c3.369-3.951,6.672-7.924,9.887-11.924"/>
<path fill="none" stroke="#2887C8" stroke-width="1.5" stroke-linecap="round" stroke-linejoin="round" stroke-miterlimit="10" d="
	M107.937,346.708v64.736c0,145.611,281.763,328.047,281.763,328.047s109.783-71.082,192.297-159.928"/>
<line fill="none" stroke="#2887C8" stroke-width="1.5" stroke-linecap="round" stroke-linejoin="round" stroke-miterlimit="10" x1="107.937" y1="252.298" x2="107.937" y2="312.782"/>
<line fill="none" stroke="#2887C8" stroke-width="1.5" stroke-linecap="round" stroke-linejoin="round" stroke-miterlimit="10" x1="107.937" y1="200.538" x2="107.937" y2="218.373"/>
<path fill="#FFFFFF" d="M533.576,368.292c0,79.464-64.416,143.892-143.884,143.892c-79.46,0-143.884-64.428-143.884-143.892
	c0-79.46,64.424-143.877,143.884-143.877C469.16,224.415,533.576,288.832,533.576,368.292"/>
<path fill="#B1D465" d="M239.297,303.59c0.652-1.505,1.304-3.014,2.043-4.482c-0.044,0-0.044-0.037-0.088-0.037
	c-4.233-3.227-6.965-8.32-6.965-14.026c0-9.741,7.866-17.611,17.607-17.611c2.695,0,5.215,0.571,7.5,1.666
	c0.044,0,0.044,0.044,0.081,0.044c1.875,0.894,3.552,2.08,4.973,3.585l0.051,0.048c3.135,3.135,5.054,7.452,5.054,12.268
	c0,9.705-7.917,17.655-17.659,17.655c-1.75,0-3.464-0.285-5.098-0.816h-0.037c-0.703,1.469-1.348,2.93-2,4.402
	c-1.589,3.713-3.054,7.5-4.358,11.367c-1.846,5.508-3.428,11.14-4.688,16.922c0,0-1.187,1.183-3.018,0.981
	c-1.919-0.201-3.062-1.673-3.062-1.673c1.304-6.394,3.098-12.671,5.142-18.75C236.118,311.222,237.62,307.34,239.297,303.59"/>
<path fill="#B1D465" d="M389.7,225.232c-1.062,0-2.124-0.077-3.098-0.322v56.1h-33.552c-2.249,0-4.08,1.838-4.08,4.072
	c0,2.241,1.831,4.08,4.08,4.08h33.552v61.56c-6.892,1.187-12.437,6.485-14.026,13.253h-42.319c-2.249,0-4.087,1.835-4.087,4.072
	c0,2.249,1.838,4.08,4.087,4.08h42.319c1.589,6.808,7.134,12.066,14.026,13.29v61.523h-33.552c-2.249,0-4.08,1.838-4.08,4.08
	c0,2.24,1.831,4.072,4.08,4.072h33.552v56.549c0.974-0.164,2.036-0.285,3.098-0.285c1.055,0,2.109,0.121,3.135,0.285V379.018
	c-1.025,0.286-2.036,0.407-3.135,0.407c-1.106,0-2.124-0.121-3.098-0.407c-3.464-0.981-6.277-3.592-7.551-6.976
	c-0.483-1.223-0.732-2.563-0.732-3.996c0-1.417,0.249-2.769,0.732-3.991c1.274-3.38,4.087-5.991,7.551-6.969
	c0.974-0.246,1.992-0.41,3.098-0.41c1.099,0,2.109,0.165,3.135,0.41v-132.14C391.772,225.155,390.754,225.232,389.7,225.232
	 M430.832,281.009h-21.364c-2.241,0-4.079,1.838-4.079,4.072c0,2.241,1.838,4.08,4.079,4.08h21.364
	c-0.329-1.304-0.482-2.695-0.482-4.08C430.35,283.701,430.503,282.313,430.832,281.009 M392.834,350.721v6.365
	c-1.025-0.246-2.036-0.41-3.135-0.41c-1.106,0-2.124,0.165-3.098,0.41c-3.464,0.978-6.277,3.589-7.551,6.969
	c-0.483,1.223-0.732,2.574-0.732,3.991c0,1.432,0.249,2.772,0.732,3.996c1.274,3.384,4.087,5.995,7.551,6.976
	c0.974,0.286,1.992,0.407,3.098,0.407c1.099,0,2.109-0.121,3.135-0.407v6.398c8.232-1.465,14.517-8.679,14.517-17.37
	C407.352,359.408,401.066,352.153,392.834,350.721 M552.612,351.051c-2.526-23.895-10.188-46.274-21.855-65.969
	c-0.036-0.077-0.081-0.121-0.117-0.157l-2.409-3.915c-26.09-41.257-70.123-70.126-121.041-75.549v-0.037
	c-1.062-8.73-8.525-15.458-17.49-15.458c-8.972,0-16.392,6.728-17.454,15.458v0.037c-1.143,0.121-2.322,0.249-3.508,0.407
	c-3.215,0.414-6.401,0.897-9.536,1.512c-3.142,0.571-6.24,1.26-9.338,2.043c-3.054,0.769-6.108,1.626-9.133,2.6
	c-3.018,0.938-5.955,1.959-8.892,3.062c-2.93,1.102-5.823,2.326-8.672,3.585c-2.856,1.267-5.669,2.611-8.401,4.039
	c-2.776,1.428-5.471,2.934-8.152,4.526c-2.659,1.553-5.266,3.215-7.83,4.933c-2.571,1.71-5.105,3.505-7.551,5.38
	c-2.476,1.835-4.885,3.794-7.207,5.786c-2.373,1.959-4.658,4.036-6.899,6.16s-4.402,4.285-6.475,6.519c0,0-0.168,1.882,0.981,2.977
	c1.091,1.103,3.75,0.817,3.75,0.817h0.037c1.106-1.139,2.197-2.326,3.347-3.42c2.197-2.205,4.482-4.281,6.76-6.357
	c2.329-2.043,4.724-3.999,7.178-5.911c2.402-1.922,4.893-3.75,7.463-5.508c2.527-1.754,5.127-3.472,7.786-5.061
	c2.644-1.626,5.383-3.171,8.108-4.607c2.776-1.461,5.552-2.849,8.401-4.153c2.856-1.304,5.75-2.527,8.687-3.629
	c2.937-1.143,5.911-2.201,8.884-3.139c3.062-0.981,6.079-1.835,9.17-2.615c3.105-0.773,6.204-1.465,9.375-2.08
	c3.149-0.568,6.328-1.055,9.551-1.461c0.813-0.08,1.589-0.208,2.402-0.245v0.037c0.527,2.241,1.509,4.329,2.856,6.156
	c-11.865,13.004-30.256,35.351-45.088,63.197h-44.319c-2.249,0-4.08,1.838-4.08,4.072c0,2.241,1.831,4.08,4.08,4.08h40.188
	c-10.913,22.423-19.116,47.985-19.841,74.813h-44.363c-2.241,0-4.08,1.835-4.08,4.072c0,2.249,1.838,4.08,4.08,4.08h44.363
	c0.725,27.03,9.009,52.752,20.054,75.344h-40.4c-2.249,0-4.08,1.83-4.08,4.072c0,2.252,1.831,4.08,4.08,4.08h44.568
	c14.751,27.803,33.054,50.107,44.875,63.111c-1.384,1.832-2.366,3.951-2.893,6.197v0.037
	c-67.471-7.293-122.271-57.404-136.743-122.514c-0.85-3.951-1.589-7.986-2.197-12.066c-0.205-1.582-0.403-3.135-0.571-4.724h0.073
	c7.756-1.838,13.542-8.807,13.542-17.124c0-8.357-5.83-15.366-13.616-17.168h-0.044c-1.304-0.322-2.607-0.487-3.999-0.487
	c-0.732,0-1.421,0.044-2.153,0.165h-0.044c-8.687,1.058-15.41,8.481-15.41,17.49s6.775,16.424,15.498,17.454h0.037
	c0.161,1.626,0.33,3.252,0.564,4.889c0.615,4.157,1.355,8.236,2.212,12.272c14.795,68.083,72.078,120.468,142.566,127.933v0.084
	c1.062,8.682,8.481,15.449,17.454,15.449c8.964,0,16.428-6.768,17.49-15.449v-0.049c51.365-5.455,95.765-34.811,121.736-76.684
	c0.652-1.021,1.26-1.996,1.831-3.018c11.624-19.566,19.248-41.744,21.774-65.427h0.045c8.679-1.029,15.446-8.445,15.446-17.454
	S561.299,352.153,552.612,351.051 M430.832,281.009h-21.364c-2.241,0-4.079,1.838-4.079,4.072c0,2.241,1.838,4.08,4.079,4.08h21.364
	c1.832,7.786,8.848,13.535,17.161,13.535c1.509,0,2.981-0.161,4.365-0.531c7.946,18.713,13.821,39.752,14.466,61.809h-43.125
	c-2.242,0-4.072,1.835-4.072,4.072c0,2.249,1.83,4.08,4.072,4.08h43.125c-0.602,21.976-6.395,43.055-14.627,62.256
	c-1.348-0.283-2.732-0.488-4.204-0.488c-8.108,0-15,5.545-16.992,13.045h-21.533c-2.241,0-4.079,1.838-4.079,4.08
	c0,2.24,1.838,4.072,4.079,4.072h21.284c0.77,3.873,2.85,7.301,5.75,9.785c-12.928,21.488-27.203,38.773-36.98,49.541
	c-1.955-1.393-4.241-2.33-6.687-2.777V385.416c8.232-1.465,14.517-8.679,14.517-17.37c0-8.639-6.285-15.894-14.517-17.325V224.946
	c2.49-0.443,4.812-1.424,6.812-2.813c7.455,8.196,17.57,20.146,27.641,34.823c3.099,4.482,6.277,9.375,9.412,14.594
	C433.85,273.956,431.727,277.259,430.832,281.009 M336.943,454.439c-1.267-2.281-2.49-4.607-3.677-6.969
	c-11.418-22.709-20.09-48.801-20.706-76.202v-6.441c0.615-27.598,9.5-53.73,20.464-75.667c1.187-2.446,2.446-4.808,3.713-7.134
	c4.973-9.254,10.269-17.655,15.286-24.954c10.107-14.758,20.266-26.744,27.766-34.94c2.043,1.388,4.285,2.37,6.812,2.776v56.1
	h-33.552c-2.249,0-4.08,1.838-4.08,4.072c0,2.241,1.831,4.08,4.08,4.08h33.552v61.56c-6.892,1.187-12.437,6.485-14.026,13.253
	h-42.319c-2.249,0-4.087,1.835-4.087,4.072c0,2.249,1.838,4.08,4.087,4.08h42.319c1.589,6.808,7.134,12.066,14.026,13.29v61.523
	h-33.552c-2.249,0-4.08,1.838-4.08,4.08c0,2.24,1.831,4.072,4.08,4.072h33.552v56.549c-2.49,0.447-4.768,1.385-6.775,2.777
	C368.533,501.938,351.174,480.777,336.943,454.439 M526.318,446.939h-43.586c-2.242,0-4.08,1.838-4.08,4.08
	c0,2.24,1.838,4.072,4.08,4.072h38.532c-25.283,38.158-66.702,64.746-114.44,69.92v-0.08c-0.535-2.246-1.473-4.406-2.857-6.24
	c10.02-10.965,24.661-28.656,37.867-50.674c1.926,0.777,3.998,1.18,6.159,1.18c9.749,0,17.659-7.949,17.659-17.691
	c0-6.031-3.099-11.414-7.786-14.594c8.724-20.35,14.876-42.85,15.286-66.332c0.043-0.853,0.043-1.673,0.043-2.534
	c0-0.85,0-1.71-0.043-2.523c-0.41-23.361-6.52-45.703-15.125-65.933c4.607-3.171,7.625-8.474,7.625-14.509
	c0-9.697-7.91-17.647-17.659-17.647c-2.073,0-4.116,0.406-5.991,1.058c-13.25-21.976-27.92-39.631-37.99-50.68
	c1.34-1.827,2.277-3.915,2.813-6.156v-0.077c47.409,5.138,88.63,31.388,113.906,69.144h-37.998c-2.242,0-4.08,1.838-4.08,4.072
	c0,2.249,1.838,4.08,4.08,4.08h43.139c10.957,18.713,18.223,39.917,20.625,62.498h-0.124c-6.313,1.472-11.331,6.321-13.001,12.601
	h-36.533c-2.24,0-4.072,1.835-4.072,4.072c0,2.249,1.832,4.08,4.072,4.08h36.285c1.384,6.69,6.569,11.993,13.205,13.539h0.088
	C543.97,407.803,536.953,428.549,526.318,446.939 M353.049,281.009c-2.249,0-4.08,1.838-4.08,4.072c0,2.241,1.831,4.08,4.08,4.08
	h33.552v-8.152H353.049z M386.602,357.086v-6.365c-6.892,1.187-12.437,6.485-14.026,13.253h-42.319
	c-2.249,0-4.087,1.835-4.087,4.072c0,2.249,1.838,4.08,4.087,4.08h42.319c1.589,6.808,7.134,12.066,14.026,13.29v-6.398
	c-3.464-0.981-6.277-3.592-7.551-6.976c-0.483-1.223-0.732-2.563-0.732-3.996c0-1.417,0.249-2.769,0.732-3.991
	C380.325,360.675,383.137,358.064,386.602,357.086 M353.049,446.939c-2.249,0-4.08,1.838-4.08,4.08c0,2.24,1.831,4.072,4.08,4.072
	h33.552v-8.152H353.049z"/>
<path fill="#0B9D49" d="M264.5,272.77l-0.044-0.037c-1.428-1.509-3.098-2.691-4.973-3.593c-0.051,0-0.051-0.036-0.081-0.036
	c-2.292-1.103-4.819-1.674-7.5-1.674c-9.749,0-17.622,7.866-17.622,17.611c0,5.716,2.739,10.807,6.973,14.029
	c0.044,0,0.044,0.04,0.088,0.04c1.626,1.26,3.464,2.197,5.42,2.772h0.037c1.633,0.527,3.347,0.813,5.105,0.813
	c9.741,0,17.651-7.951,17.651-17.655C269.553,280.233,267.634,275.912,264.5,272.77 M251.902,296.419
	c-0.784,0-1.553-0.084-2.292-0.205c-0.037,0-0.037,0-0.073-0.044c-2.087-0.443-3.962-1.425-5.427-2.813l-0.044-0.037
	c-2.153-2.08-3.545-5.017-3.545-8.28c0-6.277,5.098-11.371,11.382-11.371c1.304,0,2.563,0.201,3.706,0.608
	c0.044,0,0.044,0,0.073,0.044c1.963,0.692,3.721,1.912,5.024,3.464l0.037,0.04c1.597,2.003,2.571,4.482,2.571,7.215
	C263.313,291.318,258.171,296.419,251.902,296.419"/>
<path fill="#0B9D49" d="M436.707,271.554c-2.857,2.399-4.98,5.706-5.875,9.456h3.428c1.055,0,2.037,0.403,2.77,1.095
	c0.49-1.911,1.508-3.666,2.9-5.054C438.859,275.175,437.805,273.344,436.707,271.554 M448,267.434c-2.087,0-4.115,0.406-5.99,1.058
	c-1.963,0.688-3.766,1.754-5.303,3.062c-2.857,2.399-4.98,5.706-5.875,9.456c-0.322,1.304-0.49,2.691-0.49,4.072
	c0,1.388,0.168,2.776,0.49,4.08c1.832,7.786,8.848,13.539,17.168,13.539c1.51,0,2.975-0.165,4.352-0.531
	c2.087-0.535,3.962-1.392,5.676-2.575c4.607-3.175,7.625-8.474,7.625-14.513C465.652,275.384,457.742,267.434,448,267.434
	 M455.412,293.768c-1.553,1.304-3.5,2.241-5.625,2.527c-0.57,0.125-1.186,0.165-1.787,0.165c-5.258,0-9.66-3.548-10.971-8.4
	c-0.293-0.938-0.41-1.959-0.41-2.978c0-1.011,0.117-2.032,0.41-2.978c0.49-1.911,1.508-3.666,2.9-5.054
	c1.42-1.424,3.252-2.523,5.295-3.018c0.9-0.201,1.795-0.322,2.775-0.322c6.321,0,11.412,5.094,11.412,11.371
	C459.412,288.546,457.859,291.651,455.412,293.768"/>
<path fill="#0B9D49" d="M448,433.895c-8.115,0-15,5.545-17.006,13.045h3.266c1.1,0,2.117,0.451,2.857,1.143
	c1.508-4.57,5.785-7.955,10.883-7.955c0.527,0,1.1,0.041,1.582,0.121c0.901-1.91,1.795-3.871,2.615-5.869
	C450.842,434.092,449.465,433.895,448,433.895 M457.859,436.912c-1.715-1.143-3.59-2.039-5.662-2.533
	c-1.355-0.287-2.732-0.484-4.197-0.484c-8.115,0-15,5.545-17.006,13.045c-0.455,1.473-0.652,2.977-0.652,4.566
	c0,1.223,0.125,2.447,0.41,3.586c0.776,3.871,2.85,7.299,5.75,9.789c1.589,1.379,3.383,2.441,5.339,3.135
	c1.919,0.771,3.991,1.182,6.159,1.182c9.742,0,17.652-7.947,17.652-17.691C465.652,445.471,462.554,440.092,457.859,436.912
	 M448,462.957c-1.025,0-2.035-0.117-2.98-0.402c-2.036-0.535-3.875-1.674-5.303-3.18c-1.34-1.428-2.322-3.262-2.813-5.258
	c-0.205-0.857-0.285-1.717-0.285-2.611c0-1.184,0.16-2.326,0.498-3.387v-0.037c1.508-4.57,5.785-7.955,10.883-7.955
	c0.527,0,1.1,0.041,1.582,0.121c2.168,0.287,4.088,1.188,5.67,2.49c2.533,2.117,4.16,5.26,4.16,8.768
	C459.412,457.822,454.314,462.957,448,462.957"/>
<path fill="#0B9D49" d="M233.02,351.376h-0.044c-1.304-0.326-2.607-0.487-3.999-0.487c-0.732,0-1.421,0.037-2.153,0.161h-0.044
	c-8.679,1.058-15.41,8.478-15.41,17.49c0,9.009,6.775,16.428,15.498,17.446h0.037c0.688,0.121,1.384,0.165,2.073,0.165
	c1.392,0,2.783-0.165,4.043-0.487h0.081c7.742-1.838,13.535-8.811,13.535-17.124C246.636,360.18,240.806,353.167,233.02,351.376
	 M232.529,379.344h-0.081c-1.099,0.366-2.285,0.567-3.472,0.567c-0.938,0-1.787-0.121-2.644-0.322h-0.044
	c-5.01-1.219-8.679-5.753-8.679-11.048c0-5.339,3.669-9.87,8.643-11.052h0.037c0.901-0.242,1.75-0.359,2.688-0.359
	c1.187,0,2.373,0.194,3.428,0.483c0.044,0.041,0.044,0.041,0.088,0.041c4.563,1.505,7.903,5.833,7.903,10.887
	C240.396,373.591,237.092,377.872,232.529,379.344"/>
<path fill="#0B9D49" d="M546.379,351.373c-6.328,1.472-11.338,6.325-13.008,12.601h3.216c0.205,0,0.446,0,0.651,0.077
	c0.117,0,0.205,0,0.286,0.044c0.366,0.081,0.696,0.201,1.019,0.403c0.124,0.047,0.285,0.132,0.41,0.249
	c0.124,0.084,0.248,0.165,0.373,0.286l0.154,0.165h0.043c1.1-3.593,3.838-6.361,7.376-7.544
	C546.782,355.537,546.613,353.453,546.379,351.373 M546.379,351.373c-6.328,1.472-11.338,6.325-13.008,12.601h3.216
	c0.205,0,0.446,0,0.651,0.077c0.117,0,0.205,0,0.286,0.044c0.366,0.081,0.696,0.201,1.019,0.403c0.124,0.047,0.285,0.132,0.41,0.249
	c0.124,0.084,0.248,0.165,0.373,0.286l0.154,0.165h0.043c1.1-3.593,3.838-6.361,7.376-7.544
	C546.782,355.537,546.613,353.453,546.379,351.373 M546.379,351.373c-6.328,1.472-11.338,6.325-13.008,12.601h3.216
	c0.205,0,0.446,0,0.651,0.077c0.117,0,0.205,0,0.286,0.044c0.366,0.081,0.696,0.201,1.019,0.403c0.124,0.047,0.285,0.132,0.41,0.249
	c0.124,0.084,0.248,0.165,0.373,0.286l0.154,0.165h0.043c1.1-3.593,3.838-6.361,7.376-7.544
	C546.782,355.537,546.613,353.453,546.379,351.373 M546.379,351.373c-6.328,1.472-11.338,6.325-13.008,12.601h3.216
	c0.205,0,0.446,0,0.651,0.077c0.117,0,0.205,0,0.286,0.044c0.366,0.081,0.696,0.201,1.019,0.403c0.124,0.047,0.285,0.132,0.41,0.249
	c0.124,0.084,0.248,0.165,0.373,0.286l0.154,0.165h0.043c1.1-3.593,3.838-6.361,7.376-7.544
	C546.782,355.537,546.613,353.453,546.379,351.373 M546.379,351.373c-6.328,1.472-11.338,6.325-13.008,12.601h3.216
	c0.205,0,0.446,0,0.651,0.077c0.117,0,0.205,0,0.286,0.044c0.366,0.081,0.696,0.201,1.019,0.403c0.124,0.047,0.285,0.132,0.41,0.249
	c0.124,0.084,0.248,0.165,0.373,0.286l0.154,0.165h0.043c1.1-3.593,3.838-6.361,7.376-7.544
	C546.782,355.537,546.613,353.453,546.379,351.373 M546.379,351.373c-6.328,1.472-11.338,6.325-13.008,12.601h3.216
	c0.205,0,0.446,0,0.651,0.077c0.117,0,0.205,0,0.286,0.044c0.366,0.081,0.696,0.201,1.019,0.403c0.124,0.047,0.285,0.132,0.41,0.249
	c0.124,0.084,0.248,0.165,0.373,0.286l0.154,0.165h0.043c1.1-3.593,3.838-6.361,7.376-7.544
	C546.782,355.537,546.613,353.453,546.379,351.373 M546.379,351.373c-6.328,1.472-11.338,6.325-13.008,12.601h3.216
	c0.205,0,0.446,0,0.651,0.077c0.117,0,0.205,0,0.286,0.044c0.366,0.081,0.696,0.201,1.019,0.403c0.124,0.047,0.285,0.132,0.41,0.249
	c0.124,0.084,0.248,0.165,0.373,0.286l0.154,0.165h0.043c1.1-3.593,3.838-6.361,7.376-7.544
	C546.782,355.537,546.613,353.453,546.379,351.373 M546.496,351.373h-0.117c-6.328,1.472-11.338,6.325-13.008,12.601h3.216
	c0.205,0,0.446,0,0.651,0.077c0.117,0,0.205,0,0.286,0.044c0.366,0.081,0.696,0.201,1.019,0.403c0.124,0.047,0.285,0.132,0.41,0.249
	c0.124,0.084,0.248,0.165,0.373,0.286l0.154,0.165h0.043c1.1-3.593,3.838-6.361,7.376-7.544c0.044,0,0.081-0.041,0.124-0.041
	C546.899,355.537,546.701,353.453,546.496,351.373 M546.496,351.373h-0.117c-6.328,1.472-11.338,6.325-13.008,12.601h3.216
	c0.205,0,0.446,0,0.651,0.077c0.117,0,0.205,0,0.286,0.044c0.366,0.081,0.696,0.201,1.019,0.403c0.124,0.047,0.285,0.132,0.41,0.249
	c0.124,0.084,0.248,0.165,0.373,0.286l0.154,0.165h0.043c1.1-3.593,3.838-6.361,7.376-7.544c0.044,0,0.081-0.041,0.124-0.041
	C546.899,355.537,546.701,353.453,546.496,351.373 M546.496,351.373h-0.117c-6.328,1.472-11.338,6.325-13.008,12.601h3.216
	c0.205,0,0.446,0,0.651,0.077c0.117,0,0.205,0,0.286,0.044c0.366,0.081,0.696,0.201,1.019,0.403c0.124,0.047,0.285,0.132,0.41,0.249
	c0.124,0.084,0.248,0.165,0.373,0.286l0.154,0.165h0.043c1.1-3.593,3.838-6.361,7.376-7.544c0.044,0,0.081-0.041,0.124-0.041
	C546.899,355.537,546.701,353.453,546.496,351.373 M552.612,351.051c-0.696-0.081-1.465-0.161-2.204-0.161
	c-1.348,0-2.645,0.161-3.912,0.483h-0.117c-6.328,1.472-11.338,6.325-13.008,12.601c-0.41,1.461-0.615,2.978-0.615,4.567
	c0,1.223,0.125,2.446,0.367,3.589c1.391,6.68,6.563,11.982,13.205,13.535h0.08c1.275,0.322,2.615,0.487,4,0.487
	c0.688,0,1.391-0.044,2.123-0.165h0.037c8.687-1.018,15.454-8.438,15.454-17.446C568.022,359.529,561.291,352.157,552.612,351.051
	 M553.096,379.589c-0.85,0.202-1.75,0.322-2.688,0.322c-1.188,0-2.285-0.201-3.385-0.531c-0.043,0-0.124-0.037-0.16-0.037
	c-3.75-1.223-6.644-4.365-7.5-8.284v-0.037c-0.25-0.816-0.33-1.626-0.33-2.483c0-1.146,0.168-2.241,0.49-3.307v-0.036
	c1.1-3.593,3.838-6.361,7.376-7.544c0.044,0,0.081-0.041,0.124-0.041c1.063-0.29,2.197-0.483,3.385-0.483
	c0.938,0,1.875,0.117,2.731,0.359c4.974,1.183,8.649,5.713,8.649,11.052C561.789,373.836,558.076,378.37,553.096,379.589
	 M546.496,351.373h-0.117c-6.328,1.472-11.338,6.325-13.008,12.601h3.216c0.205,0,0.446,0,0.651,0.077c0.117,0,0.205,0,0.286,0.044
	c0.366,0.081,0.696,0.201,1.019,0.403c0.124,0.047,0.285,0.132,0.41,0.249c0.124,0.084,0.248,0.165,0.373,0.286l0.154,0.165h0.043
	c1.1-3.593,3.838-6.361,7.376-7.544c0.044,0,0.081-0.041,0.124-0.041C546.899,355.537,546.701,353.453,546.496,351.373
	 M546.496,351.373h-0.117c-6.328,1.472-11.338,6.325-13.008,12.601h3.216c0.205,0,0.446,0,0.651,0.077c0.117,0,0.205,0,0.286,0.044
	c0.366,0.081,0.696,0.201,1.019,0.403c0.124,0.047,0.285,0.132,0.41,0.249c0.124,0.084,0.248,0.165,0.373,0.286l0.154,0.165h0.043
	c1.1-3.593,3.838-6.361,7.376-7.544c0.044,0,0.081-0.041,0.124-0.041C546.899,355.537,546.701,353.453,546.496,351.373
	 M546.496,351.373h-0.117c-6.328,1.472-11.338,6.325-13.008,12.601h3.216c0.205,0,0.446,0,0.651,0.077c0.117,0,0.205,0,0.286,0.044
	c0.366,0.081,0.696,0.201,1.019,0.403c0.124,0.047,0.285,0.132,0.41,0.249c0.124,0.084,0.248,0.165,0.373,0.286l0.154,0.165h0.043
	c1.1-3.593,3.838-6.361,7.376-7.544c0.044,0,0.081-0.041,0.124-0.041C546.899,355.537,546.701,353.453,546.496,351.373
	 M546.379,351.373c-6.328,1.472-11.338,6.325-13.008,12.601h3.216c0.205,0,0.446,0,0.651,0.077c0.117,0,0.205,0,0.286,0.044
	c0.366,0.081,0.696,0.201,1.019,0.403c0.124,0.047,0.285,0.132,0.41,0.249c0.124,0.084,0.248,0.165,0.373,0.286l0.154,0.165h0.043
	c1.1-3.593,3.838-6.361,7.376-7.544C546.782,355.537,546.613,353.453,546.379,351.373 M546.379,351.373
	c-6.328,1.472-11.338,6.325-13.008,12.601h3.216c0.205,0,0.446,0,0.651,0.077c0.117,0,0.205,0,0.286,0.044
	c0.366,0.081,0.696,0.201,1.019,0.403c0.124,0.047,0.285,0.132,0.41,0.249c0.124,0.084,0.248,0.165,0.373,0.286l0.154,0.165h0.043
	c1.1-3.593,3.838-6.361,7.376-7.544C546.782,355.537,546.613,353.453,546.379,351.373 M546.379,351.373
	c-6.328,1.472-11.338,6.325-13.008,12.601h3.216c0.205,0,0.446,0,0.651,0.077c0.117,0,0.205,0,0.286,0.044
	c0.366,0.081,0.696,0.201,1.019,0.403c0.124,0.047,0.285,0.132,0.41,0.249c0.124,0.084,0.248,0.165,0.373,0.286l0.154,0.165h0.043
	c1.1-3.593,3.838-6.361,7.376-7.544C546.782,355.537,546.613,353.453,546.379,351.373 M546.379,351.373
	c-6.328,1.472-11.338,6.325-13.008,12.601h3.216c0.205,0,0.446,0,0.651,0.077c0.117,0,0.205,0,0.286,0.044
	c0.366,0.081,0.696,0.201,1.019,0.403c0.124,0.047,0.285,0.132,0.41,0.249c0.124,0.084,0.248,0.165,0.373,0.286l0.154,0.165h0.043
	c1.1-3.593,3.838-6.361,7.376-7.544C546.782,355.537,546.613,353.453,546.379,351.373 M546.379,351.373
	c-6.328,1.472-11.338,6.325-13.008,12.601h3.216c0.205,0,0.446,0,0.651,0.077c0.117,0,0.205,0,0.286,0.044
	c0.366,0.081,0.696,0.201,1.019,0.403c0.124,0.047,0.285,0.132,0.41,0.249c0.124,0.084,0.248,0.165,0.373,0.286l0.154,0.165h0.043
	c1.1-3.593,3.838-6.361,7.376-7.544C546.782,355.537,546.613,353.453,546.379,351.373 M546.379,351.373
	c-6.328,1.472-11.338,6.325-13.008,12.601h3.216c0.205,0,0.446,0,0.651,0.077c0.117,0,0.205,0,0.286,0.044
	c0.366,0.081,0.696,0.201,1.019,0.403c0.124,0.047,0.285,0.132,0.41,0.249c0.124,0.084,0.248,0.165,0.373,0.286l0.154,0.165h0.043
	c1.1-3.593,3.838-6.361,7.376-7.544C546.782,355.537,546.613,353.453,546.379,351.373 M546.379,351.373
	c-6.328,1.472-11.338,6.325-13.008,12.601h3.216c0.205,0,0.446,0,0.651,0.077c0.117,0,0.205,0,0.286,0.044
	c0.366,0.081,0.696,0.201,1.019,0.403c0.124,0.047,0.285,0.132,0.41,0.249c0.124,0.084,0.248,0.165,0.373,0.286l0.154,0.165h0.043
	c1.1-3.593,3.838-6.361,7.376-7.544C546.782,355.537,546.613,353.453,546.379,351.373 M546.379,351.373
	c-6.328,1.472-11.338,6.325-13.008,12.601h3.216c0.205,0,0.446,0,0.651,0.077c0.117,0,0.205,0,0.286,0.044
	c0.366,0.081,0.696,0.201,1.019,0.403c0.124,0.047,0.285,0.132,0.41,0.249c0.124,0.084,0.248,0.165,0.373,0.286l0.197,0.201v-0.036
	c1.1-3.593,3.838-6.361,7.376-7.544C546.782,355.537,546.613,353.453,546.379,351.373"/>
<path fill="#0B9D49" d="M395.281,217.53c-0.776,0.447-1.589,0.776-2.446,1.018c-1.018,0.286-2.036,0.45-3.142,0.45
	c-1.091,0-2.117-0.165-3.098-0.45c-0.894-0.242-1.714-0.571-2.483-1.018c-1.838-1.022-3.347-2.567-4.365-4.402
	c-0.366-0.655-0.652-1.308-0.894-2.043c-2.117,0.128-4.241,0.33-6.321,0.571c0.535,2.241,1.509,4.321,2.856,6.16
	c1.143,1.714,2.688,3.179,4.402,4.317c2.043,1.388,4.277,2.37,6.804,2.776c0.981,0.245,2.036,0.322,3.098,0.322
	s2.087-0.077,3.142-0.286c2.49-0.443,4.804-1.424,6.812-2.813C398.057,220.423,396.584,218.915,395.281,217.53 M395.281,217.53
	c-0.776,0.447-1.589,0.776-2.446,1.018c-1.018,0.286-2.036,0.45-3.142,0.45c-1.091,0-2.117-0.165-3.098-0.45
	c-0.894-0.242-1.714-0.571-2.483-1.018c-1.838-1.022-3.347-2.567-4.365-4.402c-0.366-0.655-0.652-1.308-0.894-2.043
	c-2.117,0.128-4.241,0.33-6.321,0.571c0.535,2.241,1.509,4.321,2.856,6.16c1.143,1.714,2.688,3.179,4.402,4.317
	c2.043,1.388,4.277,2.37,6.804,2.776c0.981,0.245,2.036,0.322,3.098,0.322s2.087-0.077,3.142-0.286
	c2.49-0.443,4.804-1.424,6.812-2.813C398.057,220.423,396.584,218.915,395.281,217.53 M395.281,217.53
	c-0.776,0.447-1.589,0.776-2.446,1.018c-1.018,0.286-2.036,0.45-3.142,0.45c-1.091,0-2.117-0.165-3.098-0.45
	c-0.894-0.242-1.714-0.571-2.483-1.018c-1.838-1.022-3.347-2.567-4.365-4.402c-0.366-0.655-0.652-1.308-0.894-2.043
	c-2.117,0.128-4.241,0.33-6.321,0.571c0.535,2.241,1.509,4.321,2.856,6.16c1.143,1.714,2.688,3.179,4.402,4.317
	c2.043,1.388,4.277,2.37,6.804,2.776c0.981,0.245,2.036,0.322,3.098,0.322s2.087-0.077,3.142-0.286
	c2.49-0.443,4.804-1.424,6.812-2.813C398.057,220.423,396.584,218.915,395.281,217.53 M395.281,217.53
	c-0.776,0.447-1.589,0.776-2.446,1.018c-1.018,0.286-2.036,0.45-3.142,0.45c-1.091,0-2.117-0.165-3.098-0.45
	c-0.894-0.242-1.714-0.571-2.483-1.018c-1.838-1.022-3.347-2.567-4.365-4.402c-0.366-0.655-0.652-1.308-0.894-2.043
	c-2.117,0.128-4.241,0.33-6.321,0.571c0.535,2.241,1.509,4.321,2.856,6.16c1.143,1.714,2.688,3.179,4.402,4.317
	c2.043,1.388,4.277,2.37,6.804,2.776c0.981,0.245,2.036,0.322,3.098,0.322s2.087-0.077,3.142-0.286
	c2.49-0.443,4.804-1.424,6.812-2.813C398.057,220.423,396.584,218.915,395.281,217.53 M395.281,217.53
	c-0.776,0.447-1.589,0.776-2.446,1.018c-1.018,0.286-2.036,0.45-3.142,0.45c-1.091,0-2.117-0.165-3.098-0.45
	c-0.894-0.242-1.714-0.571-2.483-1.018c-1.838-1.022-3.347-2.567-4.365-4.402c-0.366-0.655-0.652-1.308-0.894-2.043
	c-2.117,0.128-4.241,0.33-6.321,0.571c0.535,2.241,1.509,4.321,2.856,6.16c1.143,1.714,2.688,3.179,4.402,4.317
	c2.043,1.388,4.277,2.37,6.804,2.776c0.981,0.245,2.036,0.322,3.098,0.322s2.087-0.077,3.142-0.286
	c2.49-0.443,4.804-1.424,6.812-2.813C398.057,220.423,396.584,218.915,395.281,217.53 M395.281,217.53
	c-0.776,0.447-1.589,0.776-2.446,1.018c-1.018,0.286-2.036,0.45-3.142,0.45c-1.091,0-2.117-0.165-3.098-0.45
	c-0.894-0.242-1.714-0.571-2.483-1.018c-1.838-1.022-3.347-2.567-4.365-4.402c-0.366-0.655-0.652-1.308-0.894-2.043
	c-2.117,0.128-4.241,0.33-6.321,0.571c0.535,2.241,1.509,4.321,2.856,6.16c1.143,1.714,2.688,3.179,4.402,4.317
	c2.043,1.388,4.277,2.37,6.804,2.776c0.981,0.245,2.036,0.322,3.098,0.322s2.087-0.077,3.142-0.286
	c2.49-0.443,4.804-1.424,6.812-2.813C398.057,220.423,396.584,218.915,395.281,217.53 M395.281,217.53
	c-0.776,0.447-1.589,0.776-2.446,1.018c-1.018,0.286-2.036,0.45-3.142,0.45c-1.091,0-2.117-0.165-3.098-0.45
	c-0.894-0.242-1.714-0.571-2.483-1.018c-1.838-1.022-3.347-2.567-4.365-4.402c-0.366-0.655-0.652-1.308-0.894-2.043
	c-2.117,0.128-4.241,0.33-6.321,0.571c0.535,2.241,1.509,4.321,2.856,6.16c1.143,1.714,2.688,3.179,4.402,4.317
	c2.043,1.388,4.277,2.37,6.804,2.776c0.981,0.245,2.036,0.322,3.098,0.322s2.087-0.077,3.142-0.286
	c2.49-0.443,4.804-1.424,6.812-2.813C398.057,220.423,396.584,218.915,395.281,217.53 M395.281,217.53
	c-0.776,0.447-1.589,0.776-2.446,1.018c-1.018,0.286-2.036,0.45-3.142,0.45c-1.091,0-2.117-0.165-3.098-0.45
	c-0.894-0.242-1.714-0.571-2.483-1.018c-1.304,1.384-2.732,2.893-4.321,4.603c2.043,1.388,4.277,2.37,6.804,2.776
	c0.981,0.245,2.036,0.322,3.098,0.322s2.087-0.077,3.142-0.286c2.49-0.443,4.804-1.424,6.812-2.813
	C398.057,220.423,396.584,218.915,395.281,217.53 M395.281,217.53c-0.776,0.447-1.589,0.776-2.446,1.018
	c-1.018,0.286-2.036,0.45-3.142,0.45c-1.091,0-2.117-0.165-3.098-0.45c-0.894-0.242-1.714-0.571-2.483-1.018
	c-1.838-1.022-3.347-2.567-4.365-4.402c-0.366-0.655-0.652-1.308-0.894-2.043c-2.117,0.128-4.241,0.33-6.321,0.571
	c0.535,2.241,1.509,4.321,2.856,6.16c1.143,1.714,2.688,3.179,4.402,4.317c2.043,1.388,4.277,2.37,6.804,2.776
	c0.981,0.245,2.036,0.322,3.098,0.322s2.087-0.077,3.142-0.286c2.49-0.443,4.804-1.424,6.812-2.813
	C398.057,220.423,396.584,218.915,395.281,217.53 M395.281,217.53c-0.776,0.447-1.589,0.776-2.446,1.018
	c-1.018,0.286-2.036,0.45-3.142,0.45c-1.091,0-2.117-0.165-3.098-0.45c-0.894-0.242-1.714-0.571-2.483-1.018
	c-1.838-1.022-3.347-2.567-4.365-4.402c-0.366-0.655-0.652-1.308-0.894-2.043c-2.117,0.128-4.241,0.33-6.321,0.571
	c0.535,2.241,1.509,4.321,2.856,6.16c1.143,1.714,2.688,3.179,4.402,4.317c2.043,1.388,4.277,2.37,6.804,2.776
	c0.981,0.245,2.036,0.322,3.098,0.322s2.087-0.077,3.142-0.286c2.49-0.443,4.804-1.424,6.812-2.813
	C398.057,220.423,396.584,218.915,395.281,217.53 M395.281,217.53c-0.776,0.447-1.589,0.776-2.446,1.018
	c-1.018,0.286-2.036,0.45-3.142,0.45c-1.091,0-2.117-0.165-3.098-0.45c-0.894-0.242-1.714-0.571-2.483-1.018
	c-1.838-1.022-3.347-2.567-4.365-4.402c-0.366-0.655-0.652-1.308-0.894-2.043c-2.117,0.128-4.241,0.33-6.321,0.571
	c0.535,2.241,1.509,4.321,2.856,6.16c1.143,1.714,2.688,3.179,4.402,4.317c2.043,1.388,4.277,2.37,6.804,2.776
	c0.981,0.245,2.036,0.322,3.098,0.322s2.087-0.077,3.142-0.286c2.49-0.443,4.804-1.424,6.812-2.813
	C398.057,220.423,396.584,218.915,395.281,217.53 M395.281,217.53c-0.776,0.447-1.589,0.776-2.446,1.018
	c-1.018,0.286-2.036,0.45-3.142,0.45c-1.091,0-2.117-0.165-3.098-0.45c-0.894-0.242-1.714-0.571-2.483-1.018
	c-1.838-1.022-3.347-2.567-4.365-4.402c-0.366-0.655-0.652-1.308-0.894-2.043c-2.117,0.128-4.241,0.33-6.321,0.571
	c0.535,2.241,1.509,4.321,2.856,6.16c1.143,1.714,2.688,3.179,4.402,4.317c2.043,1.388,4.277,2.37,6.804,2.776
	c0.981,0.245,2.036,0.322,3.098,0.322s2.087-0.077,3.142-0.286c2.49-0.443,4.804-1.424,6.812-2.813
	C398.057,220.423,396.584,218.915,395.281,217.53 M395.281,217.53c-0.776,0.447-1.589,0.776-2.446,1.018
	c-1.018,0.286-2.036,0.45-3.142,0.45c-1.091,0-2.117-0.165-3.098-0.45c-0.894-0.242-1.714-0.571-2.483-1.018
	c-1.838-1.022-3.347-2.567-4.365-4.402c-0.366-0.655-0.652-1.308-0.894-2.043c-2.117,0.128-4.241,0.33-6.321,0.571
	c0.535,2.241,1.509,4.321,2.856,6.16c1.143,1.714,2.688,3.179,4.402,4.317c2.043,1.388,4.277,2.37,6.804,2.776
	c0.981,0.245,2.036,0.322,3.098,0.322s2.087-0.077,3.142-0.286c2.49-0.443,4.804-1.424,6.812-2.813
	C398.057,220.423,396.584,218.915,395.281,217.53 M395.281,217.53c-0.776,0.447-1.589,0.776-2.446,1.018
	c-1.018,0.286-2.036,0.45-3.142,0.45c-1.091,0-2.117-0.165-3.098-0.45c-0.894-0.242-1.714-0.571-2.483-1.018
	c-1.838-1.022-3.347-2.567-4.365-4.402c-0.366-0.655-0.652-1.308-0.894-2.043c-2.117,0.128-4.241,0.33-6.321,0.571
	c0.535,2.241,1.509,4.321,2.856,6.16c1.143,1.714,2.688,3.179,4.402,4.317c2.043,1.388,4.277,2.37,6.804,2.776
	c0.981,0.245,2.036,0.322,3.098,0.322s2.087-0.077,3.142-0.286c2.49-0.443,4.804-1.424,6.812-2.813
	C398.057,220.423,396.584,218.915,395.281,217.53 M395.281,217.53c-0.776,0.447-1.589,0.776-2.446,1.018
	c-1.018,0.286-2.036,0.45-3.142,0.45c-1.091,0-2.117-0.165-3.098-0.45c-0.894-0.242-1.714-0.571-2.483-1.018
	c-1.838-1.022-3.347-2.567-4.365-4.402c-0.366-0.655-0.652-1.308-0.894-2.043c-2.117,0.128-4.241,0.33-6.321,0.571
	c0.535,2.241,1.509,4.321,2.856,6.16c1.143,1.714,2.688,3.179,4.402,4.317c2.043,1.388,4.277,2.37,6.804,2.776
	c0.981,0.245,2.036,0.322,3.098,0.322s2.087-0.077,3.142-0.286c2.49-0.443,4.804-1.424,6.812-2.813
	C398.057,220.423,396.584,218.915,395.281,217.53 M395.281,217.53c-0.776,0.447-1.589,0.776-2.446,1.018
	c-1.018,0.286-2.036,0.45-3.142,0.45c-1.091,0-2.117-0.165-3.098-0.45c-0.894-0.242-1.714-0.571-2.483-1.018
	c-1.838-1.022-3.347-2.567-4.365-4.402c-0.366-0.655-0.652-1.308-0.894-2.043c-2.117,0.128-4.241,0.33-6.321,0.571
	c0.535,2.241,1.509,4.321,2.856,6.16c1.143,1.714,2.688,3.179,4.402,4.317c2.043,1.388,4.277,2.37,6.804,2.776
	c0.981,0.245,2.036,0.322,3.098,0.322s2.087-0.077,3.142-0.286c2.49-0.443,4.804-1.424,6.812-2.813
	C398.057,220.423,396.584,218.915,395.281,217.53 M395.281,217.53c-0.776,0.447-1.589,0.776-2.446,1.018
	c-1.018,0.286-2.036,0.45-3.142,0.45c-1.091,0-2.117-0.165-3.098-0.45c-0.894-0.242-1.714-0.571-2.483-1.018
	c-1.304,1.384-2.732,2.893-4.321,4.603c2.043,1.388,4.277,2.37,6.804,2.776c0.981,0.245,2.036,0.322,3.098,0.322
	s2.087-0.077,3.142-0.286c2.49-0.443,4.804-1.424,6.812-2.813C398.057,220.423,396.584,218.915,395.281,217.53 M395.281,217.53
	c-0.776,0.447-1.589,0.776-2.446,1.018c-1.018,0.286-2.036,0.45-3.142,0.45c-1.091,0-2.117-0.165-3.098-0.45
	c-0.894-0.242-1.714-0.571-2.483-1.018c-1.304,1.384-2.732,2.893-4.321,4.603c2.043,1.388,4.277,2.37,6.804,2.776
	c0.981,0.245,2.036,0.322,3.098,0.322s2.087-0.077,3.142-0.286c2.49-0.443,4.804-1.424,6.812-2.813
	C398.057,220.423,396.584,218.915,395.281,217.53 M395.281,217.53c-0.776,0.447-1.589,0.776-2.446,1.018
	c-1.018,0.286-2.036,0.45-3.142,0.45c-1.091,0-2.117-0.165-3.098-0.45c-0.894-0.242-1.714-0.571-2.483-1.018
	c-1.304,1.384-2.732,2.893-4.321,4.603c2.043,1.388,4.277,2.37,6.804,2.776c0.981,0.245,2.036,0.322,3.098,0.322
	s2.087-0.077,3.142-0.286c2.49-0.443,4.804-1.424,6.812-2.813C398.057,220.423,396.584,218.915,395.281,217.53 M407.183,205.46
	v-0.037c-1.062-8.73-8.511-15.458-17.49-15.458c-8.965,0-16.384,6.728-17.446,15.458v0.037c-0.161,0.692-0.161,1.388-0.161,2.124
	c0,1.424,0.161,2.732,0.447,4.036v0.037c0.535,2.241,1.509,4.321,2.856,6.16c1.143,1.714,2.688,3.179,4.402,4.317
	c2.043,1.388,4.277,2.37,6.804,2.776c0.981,0.245,2.036,0.322,3.098,0.322s2.087-0.077,3.142-0.286
	c2.49-0.443,4.804-1.424,6.812-2.813c1.706-1.139,3.178-2.604,4.365-4.317c1.34-1.838,2.277-3.918,2.813-6.16v-0.073
	c0.358-1.267,0.527-2.619,0.527-3.999C407.352,206.848,407.307,206.152,407.183,205.46 M400.584,211.085
	c-0.286,0.736-0.572,1.436-0.938,2.08c-1.025,1.798-2.527,3.343-4.366,4.365c-0.776,0.447-1.589,0.776-2.446,1.018
	c-1.018,0.286-2.036,0.45-3.142,0.45c-1.091,0-2.117-0.165-3.098-0.45c-0.894-0.242-1.714-0.571-2.483-1.018
	c-1.838-1.022-3.347-2.567-4.365-4.402c-0.366-0.655-0.652-1.308-0.894-2.043v-0.081c-0.366-1.059-0.535-2.234-0.535-3.42
	c0-0.938,0.125-1.794,0.33-2.692v-0.04c1.223-4.977,5.706-8.646,11.045-8.646c5.347,0,9.821,3.67,11.052,8.646v0.04
	c0.205,0.897,0.367,1.754,0.367,2.692c0,1.187-0.205,2.362-0.527,3.42V211.085z M395.281,217.53
	c-0.776,0.447-1.589,0.776-2.446,1.018c-1.018,0.286-2.036,0.45-3.142,0.45c-1.091,0-2.117-0.165-3.098-0.45
	c-0.894-0.242-1.714-0.571-2.483-1.018c-1.304,1.384-2.732,2.893-4.321,4.603c2.043,1.388,4.277,2.37,6.804,2.776
	c0.981,0.245,2.036,0.322,3.098,0.322s2.087-0.077,3.142-0.286c2.49-0.443,4.804-1.424,6.812-2.813
	C398.057,220.423,396.584,218.915,395.281,217.53 M395.281,217.53c-0.776,0.447-1.589,0.776-2.446,1.018
	c-1.018,0.286-2.036,0.45-3.142,0.45c-1.091,0-2.117-0.165-3.098-0.45c-0.894-0.242-1.714-0.571-2.483-1.018
	c-1.304,1.384-2.732,2.893-4.321,4.603c2.043,1.388,4.277,2.37,6.804,2.776c0.981,0.245,2.036,0.322,3.098,0.322
	s2.087-0.077,3.142-0.286c2.49-0.443,4.804-1.424,6.812-2.813C398.057,220.423,396.584,218.915,395.281,217.53 M395.281,217.53
	c-0.776,0.447-1.589,0.776-2.446,1.018c-1.018,0.286-2.036,0.45-3.142,0.45c-1.091,0-2.117-0.165-3.098-0.45
	c-0.894-0.242-1.714-0.571-2.483-1.018c-1.304,1.384-2.732,2.893-4.321,4.603c2.043,1.388,4.277,2.37,6.804,2.776
	c0.981,0.245,2.036,0.322,3.098,0.322s2.087-0.077,3.142-0.286c2.49-0.443,4.804-1.424,6.812-2.813
	C398.057,220.423,396.584,218.915,395.281,217.53 M395.281,217.53c-0.776,0.447-1.589,0.776-2.446,1.018
	c-1.018,0.286-2.036,0.45-3.142,0.45c-1.091,0-2.117-0.165-3.098-0.45c-0.894-0.242-1.714-0.571-2.483-1.018
	c-1.838-1.022-3.347-2.567-4.365-4.402c-0.366-0.655-0.652-1.308-0.894-2.043c-2.117,0.128-4.241,0.33-6.321,0.571
	c0.535,2.241,1.509,4.321,2.856,6.16c1.143,1.714,2.688,3.179,4.402,4.317c2.043,1.388,4.277,2.37,6.804,2.776
	c0.981,0.245,2.036,0.322,3.098,0.322s2.087-0.077,3.142-0.286c2.49-0.443,4.804-1.424,6.812-2.813
	C398.057,220.423,396.584,218.915,395.281,217.53 M395.281,217.53c-0.776,0.447-1.589,0.776-2.446,1.018
	c-1.018,0.286-2.036,0.45-3.142,0.45c-1.091,0-2.117-0.165-3.098-0.45c-0.894-0.242-1.714-0.571-2.483-1.018
	c-1.838-1.022-3.347-2.567-4.365-4.402c-0.366-0.655-0.652-1.308-0.894-2.043c-2.117,0.128-4.241,0.33-6.321,0.571
	c0.535,2.241,1.509,4.321,2.856,6.16c1.143,1.714,2.688,3.179,4.402,4.317c2.043,1.388,4.277,2.37,6.804,2.776
	c0.981,0.245,2.036,0.322,3.098,0.322s2.087-0.077,3.142-0.286c2.49-0.443,4.804-1.424,6.812-2.813
	C398.057,220.423,396.584,218.915,395.281,217.53 M395.281,217.53c-0.776,0.447-1.589,0.776-2.446,1.018
	c-1.018,0.286-2.036,0.45-3.142,0.45c-1.091,0-2.117-0.165-3.098-0.45c-0.894-0.242-1.714-0.571-2.483-1.018
	c-1.838-1.022-3.347-2.567-4.365-4.402c-0.366-0.655-0.652-1.308-0.894-2.043c-2.117,0.128-4.241,0.33-6.321,0.571
	c0.535,2.241,1.509,4.321,2.856,6.16c1.143,1.714,2.688,3.179,4.402,4.317c2.043,1.388,4.277,2.37,6.804,2.776
	c0.981,0.245,2.036,0.322,3.098,0.322s2.087-0.077,3.142-0.286c2.49-0.443,4.804-1.424,6.812-2.813
	C398.057,220.423,396.584,218.915,395.281,217.53 M395.281,217.53c-0.776,0.447-1.589,0.776-2.446,1.018
	c-1.018,0.286-2.036,0.45-3.142,0.45c-1.091,0-2.117-0.165-3.098-0.45c-0.894-0.242-1.714-0.571-2.483-1.018
	c-1.838-1.022-3.347-2.567-4.365-4.402c-0.366-0.655-0.652-1.308-0.894-2.043c-2.117,0.128-4.241,0.33-6.321,0.571
	c0.535,2.241,1.509,4.321,2.856,6.16c1.143,1.714,2.688,3.179,4.402,4.317c2.043,1.388,4.277,2.37,6.804,2.776
	c0.981,0.245,2.036,0.322,3.098,0.322s2.087-0.077,3.142-0.286c2.49-0.443,4.804-1.424,6.812-2.813
	C398.057,220.423,396.584,218.915,395.281,217.53 M395.281,217.53c-0.776,0.447-1.589,0.776-2.446,1.018
	c-1.018,0.286-2.036,0.45-3.142,0.45c-1.091,0-2.117-0.165-3.098-0.45c-0.894-0.242-1.714-0.571-2.483-1.018
	c-1.838-1.022-3.347-2.567-4.365-4.402c-0.366-0.655-0.652-1.308-0.894-2.043c-2.117,0.128-4.241,0.33-6.321,0.571
	c0.535,2.241,1.509,4.321,2.856,6.16c1.143,1.714,2.688,3.179,4.402,4.317c2.043,1.388,4.277,2.37,6.804,2.776
	c0.981,0.245,2.036,0.322,3.098,0.322s2.087-0.077,3.142-0.286c2.49-0.443,4.804-1.424,6.812-2.813
	C398.057,220.423,396.584,218.915,395.281,217.53 M395.281,217.53c-0.776,0.447-1.589,0.776-2.446,1.018
	c-1.018,0.286-2.036,0.45-3.142,0.45c-1.091,0-2.117-0.165-3.098-0.45c-0.894-0.242-1.714-0.571-2.483-1.018
	c-1.838-1.022-3.347-2.567-4.365-4.402c-0.366-0.655-0.652-1.308-0.894-2.043c-2.117,0.128-4.241,0.33-6.321,0.571
	c0.535,2.241,1.509,4.321,2.856,6.16c1.143,1.714,2.688,3.179,4.402,4.317c2.043,1.388,4.277,2.37,6.804,2.776
	c0.981,0.245,2.036,0.322,3.098,0.322s2.087-0.077,3.142-0.286c2.49-0.443,4.804-1.424,6.812-2.813
	C398.057,220.423,396.584,218.915,395.281,217.53 M395.281,217.53c-0.776,0.447-1.589,0.776-2.446,1.018
	c-1.018,0.286-2.036,0.45-3.142,0.45c-1.091,0-2.117-0.165-3.098-0.45c-0.894-0.242-1.714-0.571-2.483-1.018
	c-1.838-1.022-3.347-2.567-4.365-4.402c-0.366-0.655-0.652-1.308-0.894-2.043c-2.117,0.128-4.241,0.33-6.321,0.571
	c0.535,2.241,1.509,4.321,2.856,6.16c1.143,1.714,2.688,3.179,4.402,4.317c2.043,1.388,4.277,2.37,6.804,2.776
	c0.981,0.245,2.036,0.322,3.098,0.322s2.087-0.077,3.142-0.286c2.49-0.443,4.804-1.424,6.812-2.813
	C398.057,220.423,396.584,218.915,395.281,217.53 M395.281,217.53c-0.776,0.447-1.589,0.776-2.446,1.018
	c-1.018,0.286-2.036,0.45-3.142,0.45c-1.091,0-2.117-0.165-3.098-0.45c-0.894-0.242-1.714-0.571-2.483-1.018
	c-1.304,1.384-2.732,2.893-4.321,4.603c2.043,1.388,4.277,2.37,6.804,2.776c0.981,0.245,2.036,0.322,3.098,0.322
	s2.087-0.077,3.142-0.286c2.49-0.443,4.804-1.424,6.812-2.813C398.057,220.423,396.584,218.915,395.281,217.53 M395.281,217.53
	c-0.776,0.447-1.589,0.776-2.446,1.018c-1.018,0.286-2.036,0.45-3.142,0.45c-1.091,0-2.117-0.165-3.098-0.45
	c-0.894-0.242-1.714-0.571-2.483-1.018c-1.304,1.384-2.732,2.893-4.321,4.603c2.043,1.388,4.277,2.37,6.804,2.776
	c0.981,0.245,2.036,0.322,3.098,0.322s2.087-0.077,3.142-0.286c2.49-0.443,4.804-1.424,6.812-2.813
	C398.057,220.423,396.584,218.915,395.281,217.53 M395.281,217.53c-0.776,0.447-1.589,0.776-2.446,1.018
	c-1.018,0.286-2.036,0.45-3.142,0.45c-1.091,0-2.117-0.165-3.098-0.45c-0.894-0.242-1.714-0.571-2.483-1.018
	c-1.838-1.022-3.347-2.567-4.365-4.402c-0.366-0.655-0.652-1.308-0.894-2.043c-2.117,0.128-4.241,0.33-6.321,0.571
	c0.535,2.241,1.509,4.321,2.856,6.16c1.143,1.714,2.688,3.179,4.402,4.317c2.043,1.388,4.277,2.37,6.804,2.776
	c0.981,0.245,2.036,0.322,3.098,0.322s2.087-0.077,3.142-0.286c2.49-0.443,4.804-1.424,6.812-2.813
	C398.057,220.423,396.584,218.915,395.281,217.53 M395.281,217.53c-0.776,0.447-1.589,0.776-2.446,1.018
	c-1.018,0.286-2.036,0.45-3.142,0.45c-1.091,0-2.117-0.165-3.098-0.45c-0.894-0.242-1.714-0.571-2.483-1.018
	c-1.838-1.022-3.347-2.567-4.365-4.402c-0.366-0.655-0.652-1.308-0.894-2.043c-2.117,0.128-4.241,0.33-6.321,0.571
	c0.535,2.241,1.509,4.321,2.856,6.16c1.143,1.714,2.688,3.179,4.402,4.317c2.043,1.388,4.277,2.37,6.804,2.776
	c0.981,0.245,2.036,0.322,3.098,0.322s2.087-0.077,3.142-0.286c2.49-0.443,4.804-1.424,6.812-2.813
	C398.057,220.423,396.584,218.915,395.281,217.53 M395.281,217.53c-0.776,0.447-1.589,0.776-2.446,1.018
	c-1.018,0.286-2.036,0.45-3.142,0.45c-1.091,0-2.117-0.165-3.098-0.45c-0.894-0.242-1.714-0.571-2.483-1.018
	c-1.838-1.022-3.347-2.567-4.365-4.402c-0.366-0.655-0.652-1.308-0.894-2.043c-2.117,0.128-4.241,0.33-6.321,0.571
	c0.535,2.241,1.509,4.321,2.856,6.16c1.143,1.714,2.688,3.179,4.402,4.317c2.043,1.388,4.277,2.37,6.804,2.776
	c0.981,0.245,2.036,0.322,3.098,0.322s2.087-0.077,3.142-0.286c2.49-0.443,4.804-1.424,6.812-2.813
	C398.057,220.423,396.584,218.915,395.281,217.53 M395.281,217.53c-0.776,0.447-1.589,0.776-2.446,1.018
	c-1.018,0.286-2.036,0.45-3.142,0.45c-1.091,0-2.117-0.165-3.098-0.45c-0.894-0.242-1.714-0.571-2.483-1.018
	c-1.838-1.022-3.347-2.567-4.365-4.402c-0.366-0.655-0.652-1.308-0.894-2.043c-2.117,0.128-4.241,0.33-6.321,0.571
	c0.535,2.241,1.509,4.321,2.856,6.16c1.143,1.714,2.688,3.179,4.402,4.317c2.043,1.388,4.277,2.37,6.804,2.776
	c0.981,0.245,2.036,0.322,3.098,0.322s2.087-0.077,3.142-0.286c2.49-0.443,4.804-1.424,6.812-2.813
	C398.057,220.423,396.584,218.915,395.281,217.53 M395.281,217.53c-0.776,0.447-1.589,0.776-2.446,1.018
	c-1.018,0.286-2.036,0.45-3.142,0.45c-1.091,0-2.117-0.165-3.098-0.45c-0.894-0.242-1.714-0.571-2.483-1.018
	c-1.838-1.022-3.347-2.567-4.365-4.402c-0.366-0.655-0.652-1.308-0.894-2.043c-2.117,0.128-4.241,0.33-6.321,0.571
	c0.535,2.241,1.509,4.321,2.856,6.16c1.143,1.714,2.688,3.179,4.402,4.317c2.043,1.388,4.277,2.37,6.804,2.776
	c0.981,0.245,2.036,0.322,3.098,0.322s2.087-0.077,3.142-0.286c2.49-0.443,4.804-1.424,6.812-2.813
	C398.057,220.423,396.584,218.915,395.281,217.53 M395.281,217.53c-0.776,0.447-1.589,0.776-2.446,1.018
	c-1.018,0.286-2.036,0.45-3.142,0.45c-1.091,0-2.117-0.165-3.098-0.45c-0.894-0.242-1.714-0.571-2.483-1.018
	c-1.838-1.022-3.347-2.567-4.365-4.402c-0.366-0.655-0.652-1.308-0.894-2.043c-2.117,0.128-4.241,0.33-6.321,0.571
	c0.535,2.241,1.509,4.321,2.856,6.16c1.143,1.714,2.688,3.179,4.402,4.317c2.043,1.388,4.277,2.37,6.804,2.776
	c0.981,0.245,2.036,0.322,3.098,0.322s2.087-0.077,3.142-0.286c2.49-0.443,4.804-1.424,6.812-2.813
	C398.057,220.423,396.584,218.915,395.281,217.53"/>
<path fill="#0B9D49" d="M392.834,350.729c-1.055-0.212-2.08-0.293-3.135-0.293c-1.069,0-2.124,0.081-3.105,0.293
	c-6.885,1.175-12.429,6.478-14.019,13.242c-0.33,1.307-0.498,2.695-0.498,4.08c0,1.388,0.168,2.769,0.498,4.08
	c1.589,6.804,7.134,12.063,14.019,13.293c0.981,0.154,2.036,0.238,3.105,0.238c1.055,0,2.08-0.084,3.135-0.238
	c8.232-1.472,14.517-8.687,14.517-17.373C407.352,359.404,401.066,352.153,392.834,350.729 M392.834,379.015
	c-1.025,0.286-2.036,0.407-3.135,0.407c-1.106,0-2.124-0.121-3.105-0.407c-3.457-0.974-6.27-3.589-7.537-6.973
	c-0.491-1.223-0.74-2.563-0.74-3.992c0-1.425,0.249-2.772,0.74-3.995c1.267-3.384,4.08-5.995,7.537-6.969
	c0.981-0.246,2-0.41,3.105-0.41c1.099,0,2.109,0.165,3.135,0.41c4.732,1.344,8.277,5.746,8.277,10.964
	C401.111,373.265,397.566,377.674,392.834,379.015"/>
<path fill="#0B9D49" d="M392.834,511.641c-1.025-0.168-2.08-0.285-3.135-0.285c-1.069,0-2.124,0.117-3.105,0.285
	c-2.483,0.447-4.761,1.385-6.768,2.777c1.589,1.705,3.062,3.258,4.365,4.639c0.732-0.406,1.545-0.771,2.402-1.014
	c0.981-0.289,2-0.41,3.105-0.41c1.099,0,2.109,0.121,3.135,0.41c0.82,0.242,1.633,0.57,2.358,0.979
	c1.355-1.389,2.776-2.898,4.329-4.604C397.566,513.025,395.281,512.088,392.834,511.641 M392.834,511.641
	c-1.025-0.168-2.08-0.285-3.135-0.285c-1.069,0-2.124,0.117-3.105,0.285c-2.483,0.447-4.761,1.385-6.768,2.777
	c1.589,1.705,3.062,3.258,4.365,4.639c0.732-0.406,1.545-0.771,2.402-1.014c0.981-0.289,2-0.41,3.105-0.41
	c1.099,0,2.109,0.121,3.135,0.41c0.82,0.242,1.633,0.57,2.358,0.979c1.355-1.389,2.776-2.898,4.329-4.604
	C397.566,513.025,395.281,512.088,392.834,511.641 M392.834,511.641c-1.025-0.168-2.08-0.285-3.135-0.285
	c-1.069,0-2.124,0.117-3.105,0.285c-2.483,0.447-4.761,1.385-6.768,2.777c1.589,1.705,3.062,3.258,4.365,4.639
	c0.732-0.406,1.545-0.771,2.402-1.014c0.981-0.289,2-0.41,3.105-0.41c1.099,0,2.109,0.121,3.135,0.41
	c0.82,0.242,1.633,0.57,2.358,0.979c1.355-1.389,2.776-2.898,4.329-4.604C397.566,513.025,395.281,512.088,392.834,511.641
	 M392.834,511.641c-1.025-0.168-2.08-0.285-3.135-0.285c-1.069,0-2.124,0.117-3.105,0.285c-2.483,0.447-4.761,1.385-6.768,2.777
	c1.589,1.705,3.062,3.258,4.365,4.639c0.732-0.406,1.545-0.771,2.402-1.014c0.981-0.289,2-0.41,3.105-0.41
	c1.099,0,2.109,0.121,3.135,0.41c0.82,0.242,1.633,0.57,2.358,0.979c1.355-1.389,2.776-2.898,4.329-4.604
	C397.566,513.025,395.281,512.088,392.834,511.641 M392.834,511.641v6.402c0.82,0.242,1.633,0.57,2.358,0.979
	c1.355-1.389,2.776-2.898,4.329-4.604C397.566,513.025,395.281,512.088,392.834,511.641 M392.834,511.641
	c-1.025-0.168-2.08-0.285-3.135-0.285c-1.069,0-2.124,0.117-3.105,0.285c-2.483,0.447-4.761,1.385-6.768,2.777
	c1.589,1.705,3.062,3.258,4.365,4.639c0.732-0.406,1.545-0.771,2.402-1.014c0.981-0.289,2-0.41,3.105-0.41
	c1.099,0,2.109,0.121,3.135,0.41c0.82,0.242,1.633,0.57,2.358,0.979c1.355-1.389,2.776-2.898,4.329-4.604
	C397.566,513.025,395.281,512.088,392.834,511.641 M392.834,511.641c-1.025-0.168-2.08-0.285-3.135-0.285
	c-1.069,0-2.124,0.117-3.105,0.285c-2.483,0.447-4.761,1.385-6.768,2.777c1.589,1.705,3.062,3.258,4.365,4.639
	c0.732-0.406,1.545-0.771,2.402-1.014c0.981-0.289,2-0.41,3.105-0.41c1.099,0,2.109,0.121,3.135,0.41
	c0.82,0.242,1.633,0.57,2.358,0.979c1.355-1.389,2.776-2.898,4.329-4.604C397.566,513.025,395.281,512.088,392.834,511.641
	 M392.834,511.641c-1.025-0.168-2.08-0.285-3.135-0.285c-1.069,0-2.124,0.117-3.105,0.285c-2.483,0.447-4.761,1.385-6.768,2.777
	c1.589,1.705,3.062,3.258,4.365,4.639c0.732-0.406,1.545-0.771,2.402-1.014c0.981-0.289,2-0.41,3.105-0.41
	c1.099,0,2.109,0.121,3.135,0.41c0.82,0.242,1.633,0.57,2.358,0.979c1.355-1.389,2.776-2.898,4.329-4.604
	C397.566,513.025,395.281,512.088,392.834,511.641 M392.834,511.641c-1.025-0.168-2.08-0.285-3.135-0.285
	c-1.069,0-2.124,0.117-3.105,0.285c-2.483,0.447-4.761,1.385-6.768,2.777c1.589,1.705,3.062,3.258,4.365,4.639
	c0.732-0.406,1.545-0.771,2.402-1.014c0.981-0.289,2-0.41,3.105-0.41c1.099,0,2.109,0.121,3.135,0.41
	c0.82,0.242,1.633,0.57,2.358,0.979c1.355-1.389,2.776-2.898,4.329-4.604C397.566,513.025,395.281,512.088,392.834,511.641
	 M392.834,511.641c-1.025-0.168-2.08-0.285-3.135-0.285c-1.069,0-2.124,0.117-3.105,0.285c-2.483,0.447-4.761,1.385-6.768,2.777
	c1.589,1.705,3.062,3.258,4.365,4.639c0.732-0.406,1.545-0.771,2.402-1.014c0.981-0.289,2-0.41,3.105-0.41
	c1.099,0,2.109,0.121,3.135,0.41c0.82,0.242,1.633,0.57,2.358,0.979c1.355-1.389,2.776-2.898,4.329-4.604
	C397.566,513.025,395.281,512.088,392.834,511.641 M392.834,511.641c-1.025-0.168-2.08-0.285-3.135-0.285
	c-1.069,0-2.124,0.117-3.105,0.285c-2.483,0.447-4.761,1.385-6.768,2.777c1.589,1.705,3.062,3.258,4.365,4.639
	c0.732-0.406,1.545-0.771,2.402-1.014c0.981-0.289,2-0.41,3.105-0.41c1.099,0,2.109,0.121,3.135,0.41
	c0.82,0.242,1.633,0.57,2.358,0.979c1.355-1.389,2.776-2.898,4.329-4.604C397.566,513.025,395.281,512.088,392.834,511.641
	 M392.834,511.641c-1.025-0.168-2.08-0.285-3.135-0.285c-1.069,0-2.124,0.117-3.105,0.285c-2.483,0.447-4.761,1.385-6.768,2.777
	c1.589,1.705,3.062,3.258,4.365,4.639c0.732-0.406,1.545-0.771,2.402-1.014c0.981-0.289,2-0.41,3.105-0.41
	c1.099,0,2.109,0.121,3.135,0.41c0.82,0.242,1.633,0.57,2.358,0.979c1.355-1.389,2.776-2.898,4.329-4.604
	C397.566,513.025,395.281,512.088,392.834,511.641 M392.834,511.641c-1.025-0.168-2.08-0.285-3.135-0.285
	c-1.069,0-2.124,0.117-3.105,0.285c-2.483,0.447-4.761,1.385-6.768,2.777c1.589,1.705,3.062,3.258,4.365,4.639
	c0.732-0.406,1.545-0.771,2.402-1.014c0.981-0.289,2-0.41,3.105-0.41c1.099,0,2.109,0.121,3.135,0.41
	c0.82,0.242,1.633,0.57,2.358,0.979c1.355-1.389,2.776-2.898,4.329-4.604C397.566,513.025,395.281,512.088,392.834,511.641
	 M392.834,511.641v6.402c0.82,0.242,1.633,0.57,2.358,0.979c1.355-1.389,2.776-2.898,4.329-4.604
	C397.566,513.025,395.281,512.088,392.834,511.641 M392.834,511.641v6.402c0.82,0.242,1.633,0.57,2.358,0.979
	c1.355-1.389,2.776-2.898,4.329-4.604C397.566,513.025,395.281,512.088,392.834,511.641 M392.834,511.641v6.402
	c0.82,0.242,1.633,0.57,2.358,0.979c1.355-1.389,2.776-2.898,4.329-4.604C397.566,513.025,395.281,512.088,392.834,511.641
	 M406.824,525.012v-0.08c-0.535-2.246-1.473-4.406-2.857-6.24c-1.179-1.666-2.695-3.135-4.445-4.273
	c-1.955-1.393-4.241-2.33-6.687-2.777c-1.025-0.168-2.08-0.285-3.135-0.285c-1.069,0-2.124,0.117-3.105,0.285
	c-2.483,0.447-4.761,1.385-6.768,2.777c-1.707,1.139-3.215,2.607-4.402,4.316c-1.384,1.832-2.366,3.951-2.893,6.197v0.037
	c-0.286,1.35-0.454,2.609-0.454,4.043c0,0.688,0,1.424,0.168,2.076v0.08c1.062,8.686,8.481,15.453,17.454,15.453
	c8.964,0,16.421-6.768,17.49-15.453v-0.045c0.117-0.688,0.162-1.377,0.162-2.111C407.352,527.623,407.189,526.318,406.824,525.012
	 M400.744,531.738c-1.223,4.975-5.705,8.65-11.044,8.65s-9.829-3.676-11.06-8.65v-0.08c-0.19-0.813-0.322-1.75-0.322-2.646
	c0-1.225,0.168-2.371,0.535-3.469v-0.045c0.242-0.688,0.571-1.377,0.938-2.031c0.974-1.883,2.527-3.389,4.402-4.41
	c0.732-0.406,1.545-0.771,2.402-1.014c0.981-0.289,2-0.41,3.105-0.41c1.099,0,2.109,0.121,3.135,0.41
	c0.82,0.242,1.633,0.57,2.358,0.979v0.035c1.838,0.986,3.391,2.527,4.454,4.365c0.365,0.652,0.651,1.389,0.938,2.076v0.086
	c0.329,1.057,0.527,2.24,0.527,3.428c0,0.938-0.162,1.834-0.367,2.684V531.738z M392.834,511.641v6.402
	c0.82,0.242,1.633,0.57,2.358,0.979c1.355-1.389,2.776-2.898,4.329-4.604C397.566,513.025,395.281,512.088,392.834,511.641
	 M392.834,511.641v6.402c0.82,0.242,1.633,0.57,2.358,0.979c1.355-1.389,2.776-2.898,4.329-4.604
	C397.566,513.025,395.281,512.088,392.834,511.641 M392.834,511.641v6.402c0.82,0.242,1.633,0.57,2.358,0.979
	c1.355-1.389,2.776-2.898,4.329-4.604C397.566,513.025,395.281,512.088,392.834,511.641 M392.834,511.641
	c-1.025-0.168-2.08-0.285-3.135-0.285c-1.069,0-2.124,0.117-3.105,0.285c-2.483,0.447-4.761,1.385-6.768,2.777
	c1.589,1.705,3.062,3.258,4.365,4.639c0.732-0.406,1.545-0.771,2.402-1.014c0.981-0.289,2-0.41,3.105-0.41
	c1.099,0,2.109,0.121,3.135,0.41c0.82,0.242,1.633,0.57,2.358,0.979c1.355-1.389,2.776-2.898,4.329-4.604
	C397.566,513.025,395.281,512.088,392.834,511.641 M392.834,511.641c-1.025-0.168-2.08-0.285-3.135-0.285
	c-1.069,0-2.124,0.117-3.105,0.285c-2.483,0.447-4.761,1.385-6.768,2.777c1.589,1.705,3.062,3.258,4.365,4.639
	c0.732-0.406,1.545-0.771,2.402-1.014c0.981-0.289,2-0.41,3.105-0.41c1.099,0,2.109,0.121,3.135,0.41
	c0.82,0.242,1.633,0.57,2.358,0.979c1.355-1.389,2.776-2.898,4.329-4.604C397.566,513.025,395.281,512.088,392.834,511.641
	 M392.834,511.641c-1.025-0.168-2.08-0.285-3.135-0.285c-1.069,0-2.124,0.117-3.105,0.285c-2.483,0.447-4.761,1.385-6.768,2.777
	c1.589,1.705,3.062,3.258,4.365,4.639c0.732-0.406,1.545-0.771,2.402-1.014c0.981-0.289,2-0.41,3.105-0.41
	c1.099,0,2.109,0.121,3.135,0.41c0.82,0.242,1.633,0.57,2.358,0.979c1.355-1.389,2.776-2.898,4.329-4.604
	C397.566,513.025,395.281,512.088,392.834,511.641 M392.834,511.641c-1.025-0.168-2.08-0.285-3.135-0.285
	c-1.069,0-2.124,0.117-3.105,0.285c-2.483,0.447-4.761,1.385-6.768,2.777c1.589,1.705,3.062,3.258,4.365,4.639
	c0.732-0.406,1.545-0.771,2.402-1.014c0.981-0.289,2-0.41,3.105-0.41c1.099,0,2.109,0.121,3.135,0.41
	c0.82,0.242,1.633,0.57,2.358,0.979c1.355-1.389,2.776-2.898,4.329-4.604C397.566,513.025,395.281,512.088,392.834,511.641
	 M392.834,511.641c-1.025-0.168-2.08-0.285-3.135-0.285c-1.069,0-2.124,0.117-3.105,0.285c-2.483,0.447-4.761,1.385-6.768,2.777
	c1.589,1.705,3.062,3.258,4.365,4.639c0.732-0.406,1.545-0.771,2.402-1.014c0.981-0.289,2-0.41,3.105-0.41
	c1.099,0,2.109,0.121,3.135,0.41c0.82,0.242,1.633,0.57,2.358,0.979c1.355-1.389,2.776-2.898,4.329-4.604
	C397.566,513.025,395.281,512.088,392.834,511.641 M392.834,511.641c-1.025-0.168-2.08-0.285-3.135-0.285
	c-1.069,0-2.124,0.117-3.105,0.285c-2.483,0.447-4.761,1.385-6.768,2.777c1.589,1.705,3.062,3.258,4.365,4.639
	c0.732-0.406,1.545-0.771,2.402-1.014c0.981-0.289,2-0.41,3.105-0.41c1.099,0,2.109,0.121,3.135,0.41
	c0.82,0.242,1.633,0.57,2.358,0.979c1.355-1.389,2.776-2.898,4.329-4.604C397.566,513.025,395.281,512.088,392.834,511.641
	 M392.834,511.641c-1.025-0.168-2.08-0.285-3.135-0.285c-1.069,0-2.124,0.117-3.105,0.285c-2.483,0.447-4.761,1.385-6.768,2.777
	c1.589,1.705,3.062,3.258,4.365,4.639c0.732-0.406,1.545-0.771,2.402-1.014c0.981-0.289,2-0.41,3.105-0.41
	c1.099,0,2.109,0.121,3.135,0.41c0.82,0.242,1.633,0.57,2.358,0.979c1.355-1.389,2.776-2.898,4.329-4.604
	C397.566,513.025,395.281,512.088,392.834,511.641 M392.834,511.641v6.402c0.82,0.242,1.633,0.57,2.358,0.979
	c1.355-1.389,2.776-2.898,4.329-4.604C397.566,513.025,395.281,512.088,392.834,511.641 M392.834,511.641v6.402
	c0.82,0.242,1.633,0.57,2.358,0.979c1.355-1.389,2.776-2.898,4.329-4.604C397.566,513.025,395.281,512.088,392.834,511.641
	 M392.834,511.641c-1.025-0.168-2.08-0.285-3.135-0.285c-1.069,0-2.124,0.117-3.105,0.285c-2.483,0.447-4.761,1.385-6.768,2.777
	c1.589,1.705,3.062,3.258,4.365,4.639c0.732-0.406,1.545-0.771,2.402-1.014c0.981-0.289,2-0.41,3.105-0.41
	c1.099,0,2.109,0.121,3.135,0.41c0.82,0.242,1.633,0.57,2.358,0.979c1.355-1.389,2.776-2.898,4.329-4.604
	C397.566,513.025,395.281,512.088,392.834,511.641 M392.834,511.641c-1.025-0.168-2.08-0.285-3.135-0.285
	c-1.069,0-2.124,0.117-3.105,0.285c-2.483,0.447-4.761,1.385-6.768,2.777c1.589,1.705,3.062,3.258,4.365,4.639
	c0.732-0.406,1.545-0.771,2.402-1.014c0.981-0.289,2-0.41,3.105-0.41c1.099,0,2.109,0.121,3.135,0.41
	c0.82,0.242,1.633,0.57,2.358,0.979c1.355-1.389,2.776-2.898,4.329-4.604C397.566,513.025,395.281,512.088,392.834,511.641
	 M392.834,511.641c-1.025-0.168-2.08-0.285-3.135-0.285c-1.069,0-2.124,0.117-3.105,0.285c-2.483,0.447-4.761,1.385-6.768,2.777
	c1.589,1.705,3.062,3.258,4.365,4.639c0.732-0.406,1.545-0.771,2.402-1.014c0.981-0.289,2-0.41,3.105-0.41
	c1.099,0,2.109,0.121,3.135,0.41c0.82,0.242,1.633,0.57,2.358,0.979c1.355-1.389,2.776-2.898,4.329-4.604
	C397.566,513.025,395.281,512.088,392.834,511.641"/>
<path fill="#0B9D49" d="M384.192,519.061c-1.875,1.018-3.428,2.527-4.402,4.402c-1.34-1.424-2.776-2.977-4.358-4.725
	c-11.829-13.008-30.132-35.311-44.89-63.113c-1.428-2.654-2.82-5.387-4.16-8.15c-11.052-22.592-19.329-48.318-20.054-75.348
	c-0.095-1.352-0.095-2.692-0.095-4.08c0-1.344,0-2.728,0.095-4.072c0.725-26.825,8.921-52.394,19.849-74.813
	c1.34-2.776,2.732-5.504,4.124-8.152c14.832-27.847,33.223-50.189,45.088-63.193c1.553-1.71,3.01-3.303,4.365-4.688
	c1.011,1.838,2.527,3.38,4.351,4.402c-1.304,1.388-2.725,2.893-4.314,4.603c-7.5,8.2-17.651,20.182-27.766,34.944
	c-5.017,7.298-10.313,15.699-15.286,24.953c-1.267,2.326-2.527,4.688-3.713,7.13c-10.964,21.932-19.849,48.069-20.464,75.667v0.04
	c-0.088,1.066-0.088,2.121-0.088,3.179c0,1.103,0,2.124,0.088,3.19v0.037c0.615,27.396,9.287,53.489,20.706,76.202
	c1.187,2.357,2.41,4.688,3.677,6.965c14.224,26.342,31.597,47.498,42.883,59.971C381.416,516.127,382.888,517.674,384.192,519.061"
	/>
<path fill="#0B9D49" d="M445.02,462.555c-1.018,1.875-2.117,3.713-3.179,5.463c-13.206,22.018-27.854,39.709-37.874,50.674
	c-1.553,1.754-3.018,3.307-4.32,4.73c-1.063-1.834-2.615-3.379-4.454-4.365v-0.035c1.355-1.389,2.776-2.898,4.329-4.604
	c9.777-10.775,24.053-28.053,36.98-49.541c1.098-1.791,2.152-3.666,3.215-5.504C441.145,460.881,442.983,462.02,445.02,462.555"/>
<path fill="#0B9D49" d="M445.225,274.037c-2.043,0.487-3.875,1.589-5.303,3.014c-1.063-1.875-2.117-3.706-3.215-5.504
	c-3.15-5.215-6.328-10.111-9.42-14.59c-10.07-14.678-20.186-26.624-27.641-34.819c-1.598-1.714-3.062-3.219-4.366-4.607
	c1.831-1.018,3.347-2.563,4.366-4.365c1.34,1.344,2.813,2.941,4.357,4.651c10.07,11.045,24.748,28.704,38.006,50.676
	C443.101,270.323,444.207,272.162,445.225,274.037"/>
<path fill="#0B9D49" d="M473.195,368.05c0,0.854,0,1.67-0.043,2.527c-0.41,23.481-6.563,45.989-15.293,66.335
	c-0.807,1.953-1.707,3.908-2.607,5.83c-1.59-1.307-3.502-2.205-5.662-2.49c0.894-1.912,1.795-3.871,2.607-5.873
	c8.24-19.201,14.019-40.276,14.634-62.249c0.081-1.351,0.081-2.732,0.081-4.08c0-1.344-0.037-2.732-0.081-4.072
	c-0.651-22.061-6.526-43.096-14.473-61.809c-0.813-2.003-1.663-3.958-2.571-5.874c2.125-0.286,4.072-1.223,5.625-2.527
	c0.908,1.919,1.758,3.871,2.615,5.83c8.605,20.219,14.715,42.561,15.125,65.925C473.195,366.34,473.195,367.193,473.195,368.05"/>
<path fill="#0B9D49" d="M392.834,218.548v138.534c-1.025-0.246-2.036-0.403-3.135-0.403c-1.106,0-2.124,0.158-3.105,0.403V218.548
	c0.981,0.286,2,0.454,3.105,0.454C390.798,219.002,391.809,218.834,392.834,218.548"/>
<path fill="#0B9D49" d="M392.834,379.015v139.028c-1.025-0.285-2.036-0.41-3.135-0.41c-1.106,0-2.124,0.125-3.105,0.41V379.015
	c0.981,0.286,2,0.407,3.105,0.407C390.798,379.421,391.809,379.3,392.834,379.015"/>
<path fill="#0B9D49" d="M378.318,368.05c0,1.425,0.249,2.776,0.74,3.995c-0.249,0.048-0.491,0.084-0.74,0.084h-48.062
	c-2.241,0-4.087-1.838-4.087-4.08c0-2.245,1.846-4.072,4.087-4.072h48.062c0.249,0,0.491,0.037,0.74,0.073
	C378.567,365.274,378.318,366.622,378.318,368.05"/>
<path fill="#0B9D49" d="M392.834,282.518v5.175c-0.776,0.897-1.875,1.468-3.135,1.468h-36.65c-2.241,0-4.087-1.838-4.087-4.08
	s1.846-4.072,4.087-4.072h36.65C390.959,281.009,392.102,281.581,392.834,282.518"/>
<path fill="#0B9D49" d="M437.029,282.108v5.955c-0.732,0.688-1.715,1.095-2.776,1.095h-24.778c-2.256,0-4.079-1.831-4.079-4.072
	c0-2.245,1.823-4.076,4.079-4.076h24.778C435.314,281.009,436.297,281.416,437.029,282.108"/>
<path fill="#0B9D49" d="M437.117,448.082v0.037l-0.205,5.998c-0.732,0.607-1.641,0.975-2.659,0.975h-24.785
	c-2.241,0-4.072-1.836-4.072-4.072c0-2.25,1.831-4.08,4.072-4.08h24.785C435.359,446.939,436.377,447.391,437.117,448.082"/>
<path fill="#0B9D49" d="M392.834,448.447v5.176c-0.776,0.896-1.875,1.469-3.135,1.469h-36.65c-2.241,0-4.087-1.832-4.087-4.072
	c0-2.25,1.846-4.08,4.087-4.08h36.65C390.959,446.939,392.102,447.51,392.834,448.447"/>
<path fill="#0B9D49" d="M312.561,364.828v6.445c-0.688,0.531-1.589,0.854-2.527,0.854h-48.069c-2.241,0-4.08-1.828-4.08-4.08
	c0-2.241,1.838-4.072,4.08-4.072h48.069C310.972,363.974,311.873,364.296,312.561,364.828"/>
<path fill="#0B9D49" d="M336.738,282.027c-1.26,2.322-2.527,4.688-3.713,7.13h-47.051c-2.241,0-4.072-1.828-4.072-4.072
	c0-2.241,1.831-4.08,4.072-4.08h48.069C335.061,281.005,335.999,281.375,336.738,282.027"/>
<path fill="#0B9D49" d="M336.936,454.439c-0.732,0.736-1.787,1.186-2.893,1.186h-48.062c-2.249,0-4.08-1.838-4.08-4.078
	c0-2.242,1.831-4.08,4.08-4.08h47.292C334.446,449.836,335.676,452.154,336.936,454.439"/>
<path fill="#0B9D49" d="M473.152,365.523v5.054c-0.732,0.938-1.875,1.553-3.18,1.553h-46.273c-2.242,0-4.072-1.838-4.072-4.08
	s1.83-4.08,4.072-4.08h46.273C471.277,363.971,472.42,364.586,473.152,365.523"/>
<path fill="#0B9D49" d="M539.523,365.238c-0.322,1.062-0.49,2.161-0.49,3.3c0,0.86,0.08,1.673,0.33,2.49v0.036
	c-0.74,0.652-1.715,1.066-2.77,1.066h-39.756c-2.24,0-4.079-1.838-4.079-4.08c0-2.245,1.839-4.072,4.079-4.072h39.756
	c0.198,0,0.439,0,0.645,0.073c0.125,0,0.205,0,0.293,0.044c0.367,0.084,0.689,0.205,1.019,0.406
	c0.117,0.044,0.286,0.121,0.403,0.246c0.117,0.084,0.248,0.168,0.365,0.286l0.169,0.168h0.036V365.238z"/>
<path fill="#0B9D49" d="M530.764,285.082c-0.131,2.124-1.875,3.798-4.043,3.798h-43.988c-2.242,0-4.072-1.839-4.072-4.08
	c0-2.245,1.83-4.079,4.072-4.079h43.988c0.527,0,1.025,0.128,1.51,0.289l2.402,3.918
	C530.676,284.964,530.721,285.001,530.764,285.082"/>
<path fill="#0B9D49" d="M530.801,451.02c0,0.156,0,0.285-0.037,0.402c-0.578,1.021-1.186,1.996-1.838,3.025
	c-0.652,0.402-1.385,0.645-2.197,0.645h-43.996c-2.242,0-4.08-1.832-4.08-4.072c0-2.246,1.838-4.08,4.08-4.08h43.996
	C528.963,446.939,530.801,448.773,530.801,451.02"/>
<path fill="#0B9D49" d="M232.976,351.373c-0.249,2.08-0.447,4.164-0.571,6.24c-1.055-0.29-2.241-0.483-3.428-0.483
	c-0.938,0-1.787,0.117-2.688,0.359c0.125-2.161,0.286-4.321,0.535-6.438c0.732-0.125,1.421-0.161,2.153-0.161
	C230.369,350.89,231.672,351.051,232.976,351.373"/>
<path fill="#0B9D49" d="M378.853,211.004c-2.124,0.125-4.241,0.326-6.321,0.615c-0.813,0.04-1.597,0.161-2.402,0.242
	c-3.223,0.407-6.401,0.901-9.551,1.472c-3.171,0.615-6.27,1.304-9.375,2.076c-3.091,0.773-6.108,1.634-9.17,2.611
	c-2.974,0.938-5.947,1.992-8.892,3.142c-2.93,1.091-5.823,2.322-8.672,3.622c-2.856,1.304-5.625,2.692-8.408,4.164
	c-2.725,1.421-5.464,2.974-8.108,4.604c-2.659,1.589-5.259,3.299-7.786,5.054c-2.571,1.754-5.061,3.592-7.463,5.504
	c-2.454,1.915-4.849,3.871-7.178,5.911c-2.278,2.08-4.563,4.164-6.76,6.361c-1.15,1.103-2.241,2.282-3.347,3.428h-0.037
	c0,0-2.659,0.286-3.75-0.816c-1.15-1.103-0.981-2.978-0.981-2.978c2.073-2.245,4.233-4.405,6.475-6.525
	c2.241-2.113,4.534-4.193,6.899-6.149c2.322-2.003,4.731-3.962,7.207-5.793c2.454-1.875,4.98-3.673,7.551-5.383
	s5.171-3.384,7.83-4.929c2.681-1.589,5.376-3.105,8.152-4.526c2.732-1.428,5.544-2.776,8.401-4.036
	c2.849-1.26,5.742-2.49,8.672-3.592c2.944-1.095,5.874-2.117,8.892-3.055c3.018-0.981,6.079-1.834,9.133-2.611
	c3.098-0.769,6.196-1.468,9.338-2.036c3.135-0.608,6.321-1.099,9.536-1.509c1.187-0.165,2.366-0.286,3.508-0.407
	c2.073-0.245,4.116-0.414,6.16-0.567h0.242c-0.198,0.89-0.33,1.747-0.33,2.685C378.318,208.763,378.486,209.942,378.853,211.004"/>
<path fill="#0B9D49" d="M553.146,357.489c-0.856-0.245-1.794-0.366-2.731-0.366c-1.187,0-2.329,0.205-3.384,0.491
	c-0.125-2.08-0.33-4.157-0.535-6.233c-2.402-22.592-9.668-43.795-20.632-62.498c-1.626-2.783-3.347-5.508-5.134-8.163
	c-25.276-37.753-66.497-64.003-113.914-69.141c-2.072-0.249-4.152-0.414-6.232-0.571c0.322-1.066,0.527-2.241,0.527-3.428
	c0-0.938-0.162-1.791-0.367-2.692c2.154,0.165,4.322,0.33,6.438,0.571c50.925,5.427,94.951,34.289,121.048,75.545l2.402,3.915
	c0.043,0.044,0.088,0.084,0.131,0.165c11.653,19.688,19.322,42.074,21.849,65.965C552.817,353.171,553.016,355.332,553.146,357.489"
	/>
<path fill="#0B9D49" d="M378.318,529.008c0,0.9,0.132,1.838,0.322,2.65c-2.153-0.121-4.27-0.285-6.394-0.57
	c-70.481-7.465-127.771-59.85-142.566-127.936c-0.864-4.037-1.589-8.116-2.205-12.272c-0.249-1.633-0.41-3.259-0.571-4.889
	c-0.249-2.12-0.447-4.281-0.571-6.405c0.857,0.205,1.707,0.33,2.644,0.33c1.187,0,2.373-0.209,3.472-0.575
	c0.125,2.121,0.33,4.201,0.571,6.321c0.161,1.593,0.366,3.142,0.571,4.735c0.608,4.072,1.348,8.115,2.197,12.059
	c14.473,65.117,69.272,115.221,136.743,122.514c2.08,0.289,4.197,0.449,6.321,0.574
	C378.486,526.648,378.318,527.787,378.318,529.008"/>
<path fill="#0B9D49" d="M553.104,379.586c-0.125,2.161-0.33,4.285-0.572,6.409c-2.533,23.683-10.15,45.861-21.774,65.427
	c-0.571,1.021-1.179,1.996-1.831,3.018c-25.972,41.873-70.371,71.229-121.736,76.684c-2.123,0.25-4.284,0.414-6.445,0.572
	c0.205-0.854,0.367-1.746,0.367-2.684c0-1.188-0.205-2.371-0.527-3.428c2.116-0.166,4.196-0.33,6.232-0.572
	c47.746-5.174,89.158-31.762,114.441-69.92c1.75-2.648,3.428-5.377,5.061-8.152c10.643-18.391,17.651-39.137,20.098-61.274
	c0.242-2.08,0.447-4.164,0.607-6.281c1.1,0.326,2.205,0.527,3.392,0.527C551.353,379.912,552.246,379.791,553.104,379.586"/>
<path fill="#0B9D49" d="M249.529,296.17c-0.974,1.875-1.912,3.798-2.769,5.709c-0.696,1.469-1.348,2.934-2,4.402
	c-1.589,3.713-3.062,7.511-4.365,11.378c-1.831,5.508-3.42,11.133-4.688,16.919c0,0-1.179,1.179-3.01,0.978
	c-1.919-0.201-3.062-1.673-3.062-1.673c1.304-6.398,3.091-12.674,5.134-18.75c1.34-3.915,2.856-7.786,4.519-11.543
	c0.667-1.501,1.318-3.014,2.043-4.475c0.857-1.967,1.794-3.882,2.776-5.757C245.581,294.75,247.456,295.724,249.529,296.17"/>
<path fill="#0B9D49" d="M264.456,272.733c-1.311,1.67-2.534,3.344-3.75,5.054c-1.311-1.553-3.062-2.776-5.017-3.464
	c1.223-1.758,2.483-3.464,3.787-5.182C261.35,270.038,263.027,271.224,264.456,272.733"/>
<path fill="#FFFFFF" d="M323.372,661.941c0,53.596-43.447,97.035-97.039,97.035s-97.039-43.439-97.039-97.035
	c0-53.598,43.447-97.039,97.039-97.039S323.372,608.344,323.372,661.941"/>
<path fill="none" stroke="#2887C8" stroke-width="1.5" stroke-miterlimit="10" d="M323.372,661.941
	c0,53.596-43.447,97.035-97.039,97.035s-97.039-43.439-97.039-97.035c0-53.598,43.447-97.039,97.039-97.039
	S323.372,608.344,323.372,661.941z"/>
<path fill="#E4F0CC" d="M294.924,661.941c0,37.881-30.718,68.584-68.599,68.584c-37.874,0-68.584-30.703-68.584-68.584
	c0-37.885,30.71-68.598,68.584-68.598C264.207,593.344,294.924,624.057,294.924,661.941"/>
<path fill="#0B9D49" d="M273.186,640.057c0,1.611-0.564,2.984-1.699,4.109l-43.755,43.77l-8.232,8.221
	c-1.128,1.133-2.498,1.703-4.109,1.703s-2.981-0.57-4.102-1.703l-8.24-8.221l-21.87-21.885c-1.135-1.131-1.699-2.498-1.699-4.109
	c0-1.615,0.564-2.977,1.699-4.109l8.21-8.229c1.128-1.123,2.505-1.688,4.116-1.688c1.604,0,2.981,0.564,4.109,1.688l17.776,17.842
	l39.661-39.727c1.128-1.117,2.505-1.695,4.109-1.695c1.611,0,2.981,0.578,4.116,1.695l8.21,8.227
	C272.622,637.076,273.186,638.441,273.186,640.057"/>
</svg>
