<?xml version="1.0" encoding="utf-8"?>
<!-- Generator: Adobe Illustrator 16.0.0, SVG Export Plug-In . SVG Version: 6.00 Build 0)  -->
<!DOCTYPE svg PUBLIC "-//W3C//DTD SVG 1.0//EN" "http://www.w3.org/TR/2001/REC-SVG-20010904/DTD/svg10.dtd">
<svg version="1.0" id="Layer_1" xmlns="http://www.w3.org/2000/svg" xmlns:xlink="http://www.w3.org/1999/xlink" x="0px" y="0px"
	 width="800px" height="800px" viewBox="0 0 800 800" enable-background="new 0 0 800 800" xml:space="preserve">
<g>
	<path fill="#E4F2FC" d="M648.766,324.793c0,135.975-110.227,246.197-246.198,246.197c-135.975,0-246.198-110.223-246.198-246.197
		c0-135.968,110.223-246.198,246.198-246.198C538.539,78.595,648.766,188.825,648.766,324.793"/>
</g>
<g>
	<path fill="#B1D465" d="M145.22,214.084c1.117-2.582,2.233-5.164,3.492-7.675c-0.075,0-0.075-0.064-0.146-0.064
		c-7.254-5.507-11.93-14.231-11.93-24.004c0-16.67,13.471-30.131,30.138-30.131c4.612,0,8.935,0.978,12.836,2.854
		c0.071,0,0.071,0.078,0.146,0.078c3.207,1.534,6.063,3.553,8.51,6.135l0.064,0.071c5.375,5.372,8.649,12.762,8.649,20.993
		c0,16.606-13.528,30.21-30.206,30.21c-2.992,0-5.931-0.485-8.72-1.391h-0.064c-1.191,2.503-2.3,5.022-3.42,7.525
		c-2.725,6.356-5.229,12.847-7.465,19.467c-3.139,9.416-5.856,19.046-8.021,28.954c0,0-2.022,2.019-5.161,1.669
		c-3.282-0.35-5.232-2.854-5.232-2.854c2.229-10.957,5.296-21.707,8.788-32.093C139.778,227.131,142.363,220.497,145.22,214.084"/>
</g>
<g>
	<path fill="#B1D465" d="M402.567,80.007c-1.818,0-3.631-0.143-5.303-0.556v95.985h-57.413c-3.834,0-6.976,3.146-6.976,6.976
		c0,3.838,3.142,6.977,6.976,6.977h57.413v105.337c-11.788,2.026-21.275,11.093-24,22.677h-72.41c-3.834,0-6.977,3.139-6.977,6.977
		c0,3.831,3.142,6.977,6.977,6.977h72.41c2.725,11.648,12.212,20.65,24,22.733v105.273h-57.413c-3.834,0-6.976,3.146-6.976,6.976
		c0,3.838,3.142,6.977,6.976,6.977h57.413v96.756c1.672-0.278,3.485-0.492,5.303-0.492c1.812,0,3.624,0.214,5.372,0.492V343.14
		c-1.748,0.492-3.485,0.706-5.372,0.706c-1.883,0-3.631-0.214-5.303-0.706c-5.931-1.669-10.743-6.135-12.904-11.927
		c-0.834-2.098-1.259-4.395-1.259-6.834s0.425-4.744,1.259-6.841c2.162-5.785,6.973-10.25,12.904-11.927
		c1.672-0.414,3.42-0.699,5.303-0.699c1.887,0,3.624,0.285,5.372,0.699V79.515C406.127,79.864,404.379,80.007,402.567,80.007
		 M472.955,175.436h-36.551c-3.845,0-6.977,3.146-6.977,6.976c0,3.838,3.132,6.977,6.977,6.977h36.551
		c-0.557-2.232-0.842-4.601-0.842-6.977C472.113,180.044,472.398,177.676,472.955,175.436 M407.939,294.726v10.886
		c-1.748-0.414-3.485-0.699-5.372-0.699c-1.883,0-3.631,0.285-5.303,0.699c-5.931,1.676-10.743,6.142-12.904,11.927
		c-0.834,2.097-1.259,4.401-1.259,6.841s0.425,4.736,1.259,6.834c2.162,5.792,6.973,10.257,12.904,11.927
		c1.672,0.492,3.42,0.706,5.303,0.706c1.887,0,3.624-0.214,5.372-0.706v10.949c14.088-2.504,24.834-14.852,24.834-29.71
		C432.773,309.584,422.027,297.166,407.939,294.726 M681.329,295.29c-4.323-40.881-17.434-79.179-37.393-112.877
		c-0.064-0.135-0.136-0.207-0.21-0.278l-4.113-6.698C594.97,104.838,519.625,55.447,432.495,46.174v-0.071
		c-1.812-14.93-14.58-26.436-29.928-26.436c-15.347,0-28.041,11.506-29.859,26.436v0.071c-1.951,0.2-3.974,0.414-5.996,0.692
		c-5.518,0.699-10.956,1.541-16.328,2.589c-5.367,0.978-10.671,2.162-15.975,3.481c-5.229,1.327-10.457,2.789-15.622,4.473
		c-5.164,1.598-10.189,3.345-15.208,5.229c-5.025,1.883-9.979,3.973-14.858,6.135c-4.887,2.161-9.701,4.473-14.374,6.912
		c-4.74,2.439-9.352,5.021-13.952,7.739c-4.537,2.654-8.999,5.514-13.396,8.438c-4.391,2.932-8.721,6.007-12.908,9.209
		c-4.251,3.138-8.371,6.484-12.344,9.908c-4.048,3.353-7.954,6.905-11.788,10.536c-3.838,3.624-7.533,7.319-11.089,11.156
		c0,0-0.285,3.21,1.673,5.101c1.883,1.876,6.413,1.391,6.413,1.391h0.071c1.887-1.954,3.771-3.98,5.721-5.863
		c3.77-3.759,7.675-7.319,11.584-10.878c3.973-3.488,8.085-6.834,12.272-10.115c4.12-3.281,8.371-6.42,12.769-9.423
		c4.323-2.996,8.785-5.921,13.322-8.646c4.537-2.797,9.212-5.443,13.885-7.883c4.744-2.518,9.484-4.879,14.37-7.119
		c4.886-2.233,9.836-4.323,14.855-6.206c5.025-1.955,10.119-3.766,15.208-5.372c5.239-1.669,10.397-3.139,15.7-4.465
		c5.3-1.327,10.604-2.518,16.047-3.559c5.368-0.971,10.811-1.813,16.317-2.504c1.401-0.15,2.725-0.35,4.119-0.428v0.079
		c0.906,3.831,2.579,7.39,4.887,10.528c-20.305,22.256-51.767,60.483-77.157,108.126h-75.827c-3.841,0-6.983,3.146-6.983,6.976
		c0,3.838,3.143,6.977,6.983,6.977h68.779c-18.693,38.363-32.717,82.111-33.972,128.014h-75.902c-3.834,0-6.976,3.139-6.976,6.977
		c0,3.831,3.142,6.977,6.976,6.977h75.902c1.255,46.252,15.418,90.265,34.322,128.912h-69.129c-3.841,0-6.983,3.146-6.983,6.977
		c0,3.838,3.143,6.977,6.983,6.977h76.244c25.252,47.572,56.574,85.734,76.808,107.99c-2.375,3.139-4.048,6.77-4.954,10.607v0.064
		c-115.452-12.483-209.215-98.219-233.975-209.626c-1.462-6.77-2.718-13.682-3.77-20.658c-0.35-2.718-0.695-5.364-0.97-8.082h0.139
		c13.25-3.139,23.155-15.073,23.155-29.296c0-14.302-9.972-26.308-23.293-29.375h-0.075c-2.236-0.556-4.462-0.842-6.837-0.842
		c-1.256,0-2.44,0.079-3.695,0.286h-0.075c-14.854,1.812-26.368,14.509-26.368,29.931c0,15.408,11.585,28.105,26.508,29.853h0.075
		c0.278,2.789,0.553,5.578,0.977,8.367c1.045,7.119,2.301,14.089,3.77,21.001c25.316,116.5,123.338,206.137,243.948,218.906v0.143
		c1.819,14.858,14.513,26.442,29.859,26.442c15.348,0,28.116-11.584,29.928-26.442v-0.064
		c87.896-9.352,163.869-59.584,208.303-131.224c1.116-1.741,2.161-3.425,3.139-5.165c19.884-33.483,32.931-71.433,37.253-111.964
		h0.075c14.855-1.748,26.433-14.444,26.433-29.853C707.697,309.799,696.188,297.166,681.329,295.29 M472.955,175.436h-36.551
		c-3.845,0-6.977,3.146-6.977,6.976c0,3.838,3.132,6.977,6.977,6.977h36.551c3.139,13.325,15.134,23.155,29.371,23.155
		c2.579,0,5.09-0.278,7.465-0.906c13.6,32.028,23.644,68.022,24.764,105.765H460.75c-3.845,0-6.977,3.139-6.977,6.977
		c0,3.831,3.132,6.977,6.977,6.977h73.805c-1.045,37.6-10.949,73.665-25.041,106.528c-2.308-0.492-4.676-0.842-7.188-0.842
		c-13.885,0-25.676,9.487-29.093,22.32h-36.829c-3.845,0-6.977,3.146-6.977,6.976c0,3.838,3.132,6.977,6.977,6.977h36.412
		c1.33,6.627,4.886,12.49,9.84,16.742c-22.12,36.765-46.537,66.347-63.279,84.765c-3.346-2.376-7.254-3.974-11.438-4.751V354.089
		c14.088-2.504,24.834-14.852,24.834-29.71c0-14.794-10.746-27.213-24.834-29.653V79.515c4.258-0.763,8.231-2.439,11.648-4.814
		c12.769,14.031,30.066,34.468,47.297,59.577c5.304,7.675,10.746,16.05,16.114,24.974
		C478.12,163.374,474.489,169.016,472.955,175.436 M312.3,472.202c-2.169-3.909-4.259-7.883-6.281-11.935
		c-19.534-38.848-34.39-83.502-35.441-130.382v-11.014c1.052-47.229,16.26-91.948,35.024-129.483
		c2.022-4.18,4.187-8.231,6.349-12.205c8.51-15.836,17.573-30.209,26.157-42.692c17.302-25.259,34.675-45.76,47.508-59.791
		c3.485,2.375,7.326,4.052,11.649,4.75v95.985h-57.413c-3.834,0-6.976,3.146-6.976,6.976c0,3.838,3.142,6.977,6.976,6.977h57.413
		v105.337c-11.788,2.026-21.275,11.093-24,22.677h-72.41c-3.834,0-6.977,3.139-6.977,6.977c0,3.831,3.142,6.977,6.977,6.977h72.41
		c2.725,11.648,12.212,20.65,24,22.733v105.273h-57.413c-3.834,0-6.976,3.146-6.976,6.976c0,3.838,3.142,6.977,6.976,6.977h57.413
		v96.756c-4.258,0.777-8.164,2.375-11.584,4.751C366.359,553.471,336.646,517.27,312.3,472.202 M636.332,459.362h-74.571
		c-3.841,0-6.973,3.146-6.973,6.976c0,3.838,3.132,6.977,6.973,6.977h65.926c-43.253,65.299-114.132,110.78-195.819,119.64v-0.136
		c-0.905-3.838-2.514-7.54-4.886-10.672c17.166-18.768,42.204-49.041,64.813-86.719c3.278,1.327,6.838,2.019,10.532,2.019
		c16.667,0,30.203-13.596,30.203-30.273c0-10.321-5.304-19.523-13.322-24.974c14.931-34.803,25.463-73.315,26.158-113.498
		c0.071-1.462,0.071-2.853,0.071-4.323s0-2.932-0.071-4.323c-0.695-39.975-11.164-78.202-25.88-112.806
		c7.879-5.443,13.044-14.509,13.044-24.838c0-16.599-13.536-30.202-30.203-30.202c-3.559,0-7.047,0.692-10.258,1.812
		c-22.673-37.6-47.785-67.809-65.016-86.712c2.301-3.139,3.909-6.698,4.814-10.528v-0.143
		c81.131,8.788,151.654,53.713,194.914,118.313h-65.021c-3.841,0-6.973,3.139-6.973,6.977c0,3.83,3.132,6.976,6.973,6.976h73.805
		c18.768,32.021,31.183,68.294,35.296,106.942h-0.203c-10.811,2.511-19.393,10.814-22.256,21.557h-62.506
		c-3.834,0-6.977,3.139-6.977,6.977c0,3.831,3.143,6.977,6.977,6.977h62.088c2.375,11.441,11.235,20.508,22.602,23.162h0.136
		C666.538,392.395,654.544,427.904,636.332,459.362 M339.852,175.436c-3.834,0-6.976,3.146-6.976,6.976
		c0,3.838,3.142,6.977,6.976,6.977h57.413v-13.953H339.852z M397.264,305.611v-10.886c-11.788,2.026-21.275,11.093-24,22.677h-72.41
		c-3.834,0-6.977,3.139-6.977,6.977c0,3.831,3.142,6.977,6.977,6.977h72.41c2.725,11.648,12.212,20.65,24,22.733V343.14
		c-5.931-1.669-10.743-6.135-12.904-11.927c-0.834-2.098-1.259-4.395-1.259-6.834s0.425-4.744,1.259-6.841
		C386.521,311.753,391.333,307.288,397.264,305.611 M339.852,459.362c-3.834,0-6.976,3.146-6.976,6.976
		c0,3.838,3.142,6.977,6.976,6.977h57.413v-13.952H339.852z"/>
</g>
<g>
	<path fill="#2887C8" d="M188.33,161.348l-0.071-0.071c-2.439-2.582-5.296-4.608-8.51-6.142c-0.068,0-0.068-0.064-0.139-0.064
		c-3.909-1.883-8.232-2.86-12.833-2.86c-16.671,0-30.138,13.461-30.138,30.131c0,9.773,4.672,18.497,11.927,24.004
		c0.071,0,0.071,0.064,0.139,0.064c2.789,2.168,5.931,3.766,9.284,4.751h0.064c2.792,0.899,5.721,1.391,8.724,1.391
		c16.667,0,30.202-13.61,30.202-30.21C196.979,174.109,193.709,166.712,188.33,161.348 M166.777,201.808
		c-1.323,0-2.654-0.143-3.909-0.342c-0.064,0-0.064,0-0.139-0.079c-3.556-0.763-6.762-2.446-9.277-4.808l-0.071-0.078
		c-3.699-3.553-6.07-8.574-6.07-14.16c0-10.735,8.72-19.459,19.467-19.459c2.232,0,4.394,0.349,6.345,1.041
		c0.075,0,0.075,0,0.139,0.079c3.353,1.177,6.349,3.274,8.585,5.928l0.071,0.064c2.718,3.424,4.391,7.676,4.391,12.348
		C186.308,193.084,177.52,201.808,166.777,201.808"/>
</g>
<g>
	<path fill="#2887C8" d="M482.999,159.251c-4.879,4.116-8.51,9.765-10.044,16.192h5.856c1.819,0,3.492,0.692,4.747,1.883
		c0.835-3.281,2.579-6.284,4.954-8.66C486.701,165.464,484.882,162.318,482.999,159.251 M502.326,152.21
		c-3.559,0-7.047,0.699-10.258,1.812c-3.352,1.184-6.42,2.996-9.069,5.229c-4.879,4.116-8.51,9.765-10.044,16.192
		c-0.557,2.226-0.842,4.601-0.842,6.969c0,2.376,0.285,4.744,0.842,6.977c3.139,13.325,15.134,23.155,29.371,23.155
		c2.579,0,5.09-0.271,7.465-0.906c3.557-0.899,6.763-2.361,9.694-4.387c7.879-5.443,13.044-14.516,13.044-24.838
		C532.529,165.813,518.993,152.21,502.326,152.21 M515.021,197.271c-2.65,2.24-5.996,3.837-9.627,4.323
		c-0.978,0.214-2.022,0.278-3.067,0.278c-8.998,0-16.538-6.07-18.768-14.366c-0.488-1.605-0.699-3.346-0.699-5.094
		c0-1.74,0.211-3.488,0.699-5.086c0.835-3.281,2.579-6.284,4.954-8.66c2.44-2.439,5.582-4.323,9.066-5.165
		c1.541-0.342,3.075-0.549,4.747-0.549c10.811,0,19.531,8.717,19.531,19.459C521.857,188.34,519.207,193.64,515.021,197.271"/>
</g>
<g>
	<path fill="#2887C8" d="M502.323,437.035c-13.878,0-25.666,9.494-29.086,22.334h5.581c1.884,0,3.624,0.764,4.88,1.947
		c2.578-7.818,9.904-13.604,18.625-13.604c0.905,0,1.887,0.072,2.725,0.207c1.534-3.281,3.067-6.627,4.462-10.043
		C507.209,437.392,504.838,437.035,502.323,437.035 M519.204,442.199c-2.929-1.947-6.135-3.488-9.694-4.322
		c-2.301-0.485-4.672-0.842-7.187-0.842c-13.878,0-25.666,9.494-29.086,22.334c-0.767,2.504-1.116,5.086-1.116,7.804
		c0,2.097,0.21,4.188,0.691,6.149c1.33,6.619,4.887,12.482,9.841,16.741c2.718,2.361,5.792,4.173,9.138,5.364
		c3.281,1.334,6.837,2.025,10.532,2.025c16.677,0,30.206-13.603,30.206-30.28C532.529,456.852,527.232,447.643,519.204,442.199
		 M502.323,486.782c-1.744,0-3.485-0.214-5.09-0.699c-3.491-0.905-6.627-2.86-9.073-5.442c-2.301-2.439-3.974-5.578-4.815-9.002
		c-0.343-1.463-0.481-2.932-0.481-4.466c0-2.019,0.278-3.974,0.835-5.792v-0.064c2.578-7.818,9.904-13.604,18.625-13.604
		c0.905,0,1.887,0.072,2.725,0.207c3.695,0.492,6.977,2.026,9.694,4.259c4.322,3.624,7.115,9.002,7.115,14.994
		C521.857,477.987,513.134,486.782,502.323,486.782"/>
</g>
<g>
	<path fill="#2887C8" d="M134.481,295.846h-0.075c-2.232-0.556-4.462-0.842-6.837-0.842c-1.256,0-2.44,0.071-3.695,0.286h-0.071
		c-14.858,1.812-26.372,14.502-26.372,29.924c0,15.422,11.585,28.112,26.511,29.859h0.071c1.184,0.207,2.375,0.278,3.556,0.278
		c2.375,0,4.75-0.278,6.912-0.842h0.139c13.25-3.139,23.155-15.065,23.155-29.296C157.775,310.911,147.803,298.92,134.481,295.846
		 M133.64,343.703H133.5c-1.883,0.628-3.906,0.977-5.931,0.977c-1.605,0-3.067-0.214-4.533-0.563h-0.068
		c-8.582-2.09-14.866-9.836-14.866-18.903c0-9.138,6.284-16.878,14.794-18.903h0.072c1.534-0.414,2.996-0.628,4.601-0.628
		c2.025,0,4.048,0.35,5.86,0.842c0.071,0.064,0.071,0.064,0.139,0.064c7.814,2.575,13.535,9.979,13.535,18.625
		S141.458,341.192,133.64,343.703"/>
</g>
<g>
	<path fill="#2887C8" d="M670.658,295.846c-10.811,2.511-19.396,10.807-22.26,21.557h5.518c0.35,0,0.767,0,1.116,0.136
		c0.203,0,0.343,0,0.481,0.071c0.628,0.143,1.191,0.35,1.748,0.699c0.21,0.071,0.488,0.207,0.699,0.421
		c0.213,0.143,0.417,0.278,0.627,0.492l0.278,0.278h0.075c1.876-6.149,6.552-10.886,12.622-12.911
		C671.35,302.958,671.071,299.405,670.658,295.846 M670.658,295.846c-10.811,2.511-19.396,10.807-22.26,21.557h5.518
		c0.35,0,0.767,0,1.116,0.136c0.203,0,0.343,0,0.481,0.071c0.628,0.143,1.191,0.35,1.748,0.699c0.21,0.071,0.488,0.207,0.699,0.421
		c0.213,0.143,0.417,0.278,0.627,0.492l0.278,0.278h0.075c1.876-6.149,6.552-10.886,12.622-12.911
		C671.35,302.958,671.071,299.405,670.658,295.846 M670.658,295.846c-10.811,2.511-19.396,10.807-22.26,21.557h5.518
		c0.35,0,0.767,0,1.116,0.136c0.203,0,0.343,0,0.481,0.071c0.628,0.143,1.191,0.35,1.748,0.699c0.21,0.071,0.488,0.207,0.699,0.421
		c0.213,0.143,0.417,0.278,0.627,0.492l0.278,0.278h0.075c1.876-6.149,6.552-10.886,12.622-12.911
		C671.35,302.958,671.071,299.405,670.658,295.846 M670.658,295.846c-10.811,2.511-19.396,10.807-22.26,21.557h5.518
		c0.35,0,0.767,0,1.116,0.136c0.203,0,0.343,0,0.481,0.071c0.628,0.143,1.191,0.35,1.748,0.699c0.21,0.071,0.488,0.207,0.699,0.421
		c0.213,0.143,0.417,0.278,0.627,0.492l0.278,0.278h0.075c1.876-6.149,6.552-10.886,12.622-12.911
		C671.35,302.958,671.071,299.405,670.658,295.846 M670.658,295.846c-10.811,2.511-19.396,10.807-22.26,21.557h5.518
		c0.35,0,0.767,0,1.116,0.136c0.203,0,0.343,0,0.481,0.071c0.628,0.143,1.191,0.35,1.748,0.699c0.21,0.071,0.488,0.207,0.699,0.421
		c0.213,0.143,0.417,0.278,0.627,0.492l0.278,0.278h0.075c1.876-6.149,6.552-10.886,12.622-12.911
		C671.35,302.958,671.071,299.405,670.658,295.846 M670.658,295.846c-10.811,2.511-19.396,10.807-22.26,21.557h5.518
		c0.35,0,0.767,0,1.116,0.136c0.203,0,0.343,0,0.481,0.071c0.628,0.143,1.191,0.35,1.748,0.699c0.21,0.071,0.488,0.207,0.699,0.421
		c0.213,0.143,0.417,0.278,0.627,0.492l0.278,0.278h0.075c1.876-6.149,6.552-10.886,12.622-12.911
		C671.35,302.958,671.071,299.405,670.658,295.846 M670.658,295.846c-10.811,2.511-19.396,10.807-22.26,21.557h5.518
		c0.35,0,0.767,0,1.116,0.136c0.203,0,0.343,0,0.481,0.071c0.628,0.143,1.191,0.35,1.748,0.699c0.21,0.071,0.488,0.207,0.699,0.421
		c0.213,0.143,0.417,0.278,0.627,0.492l0.278,0.278h0.075c1.876-6.149,6.552-10.886,12.622-12.911
		C671.35,302.958,671.071,299.405,670.658,295.846 M670.868,295.846h-0.21c-10.811,2.511-19.396,10.807-22.26,21.557h5.518
		c0.35,0,0.767,0,1.116,0.136c0.203,0,0.343,0,0.481,0.071c0.628,0.143,1.191,0.35,1.748,0.699c0.21,0.071,0.488,0.207,0.699,0.421
		c0.213,0.143,0.417,0.278,0.627,0.492l0.278,0.278h0.075c1.876-6.149,6.552-10.886,12.622-12.911c0.071,0,0.136-0.072,0.21-0.072
		C671.563,302.958,671.211,299.405,670.868,295.846 M670.868,295.846h-0.21c-10.811,2.511-19.396,10.807-22.26,21.557h5.518
		c0.35,0,0.767,0,1.116,0.136c0.203,0,0.343,0,0.481,0.071c0.628,0.143,1.191,0.35,1.748,0.699c0.21,0.071,0.488,0.207,0.699,0.421
		c0.213,0.143,0.417,0.278,0.627,0.492l0.278,0.278h0.075c1.876-6.149,6.552-10.886,12.622-12.911c0.071,0,0.136-0.072,0.21-0.072
		C671.563,302.958,671.211,299.405,670.868,295.846 M670.868,295.846h-0.21c-10.811,2.511-19.396,10.807-22.26,21.557h5.518
		c0.35,0,0.767,0,1.116,0.136c0.203,0,0.343,0,0.481,0.071c0.628,0.143,1.191,0.35,1.748,0.699c0.21,0.071,0.488,0.207,0.699,0.421
		c0.213,0.143,0.417,0.278,0.627,0.492l0.278,0.278h0.075c1.876-6.149,6.552-10.886,12.622-12.911c0.071,0,0.136-0.072,0.21-0.072
		C671.563,302.958,671.211,299.405,670.868,295.846 M681.329,295.29c-1.185-0.136-2.515-0.286-3.763-0.286
		c-2.308,0-4.537,0.286-6.698,0.842h-0.21c-10.811,2.511-19.396,10.807-22.26,21.557c-0.692,2.511-1.045,5.086-1.045,7.812
		c0,2.09,0.214,4.187,0.631,6.142c2.372,11.441,11.231,20.508,22.599,23.162h0.146c2.162,0.549,4.463,0.828,6.838,0.828
		c1.184,0,2.368-0.064,3.623-0.278h0.072c14.858-1.733,26.436-14.438,26.436-29.853S696.184,297.173,681.329,295.29
		 M682.167,344.117c-1.466,0.357-2.999,0.563-4.601,0.563c-2.029,0-3.909-0.349-5.793-0.913c-0.074,0-0.21-0.064-0.277-0.064
		c-6.42-2.098-11.374-7.461-12.84-14.16v-0.071c-0.418-1.398-0.557-2.796-0.557-4.258c0-1.955,0.278-3.831,0.842-5.65V319.5
		c1.876-6.149,6.552-10.886,12.622-12.911c0.071,0,0.136-0.072,0.21-0.072c1.813-0.485,3.764-0.834,5.793-0.834
		c1.602,0,3.206,0.207,4.668,0.628c8.511,2.019,14.791,9.765,14.791,18.903C697.025,334.28,690.678,342.026,682.167,344.117
		 M670.868,295.846h-0.21c-10.811,2.511-19.396,10.807-22.26,21.557h5.518c0.35,0,0.767,0,1.116,0.136c0.203,0,0.343,0,0.481,0.071
		c0.628,0.143,1.191,0.35,1.748,0.699c0.21,0.071,0.488,0.207,0.699,0.421c0.213,0.143,0.417,0.278,0.627,0.492l0.278,0.278h0.075
		c1.876-6.149,6.552-10.886,12.622-12.911c0.071,0,0.136-0.072,0.21-0.072C671.563,302.958,671.211,299.405,670.868,295.846
		 M670.868,295.846h-0.21c-10.811,2.511-19.396,10.807-22.26,21.557h5.518c0.35,0,0.767,0,1.116,0.136c0.203,0,0.343,0,0.481,0.071
		c0.628,0.143,1.191,0.35,1.748,0.699c0.21,0.071,0.488,0.207,0.699,0.421c0.213,0.143,0.417,0.278,0.627,0.492l0.278,0.278h0.075
		c1.876-6.149,6.552-10.886,12.622-12.911c0.071,0,0.136-0.072,0.21-0.072C671.563,302.958,671.211,299.405,670.868,295.846
		 M670.868,295.846h-0.21c-10.811,2.511-19.396,10.807-22.26,21.557h5.518c0.35,0,0.767,0,1.116,0.136c0.203,0,0.343,0,0.481,0.071
		c0.628,0.143,1.191,0.35,1.748,0.699c0.21,0.071,0.488,0.207,0.699,0.421c0.213,0.143,0.417,0.278,0.627,0.492l0.278,0.278h0.075
		c1.876-6.149,6.552-10.886,12.622-12.911c0.071,0,0.136-0.072,0.21-0.072C671.563,302.958,671.211,299.405,670.868,295.846
		 M670.658,295.846c-10.811,2.511-19.396,10.807-22.26,21.557h5.518c0.35,0,0.767,0,1.116,0.136c0.203,0,0.343,0,0.481,0.071
		c0.628,0.143,1.191,0.35,1.748,0.699c0.21,0.071,0.488,0.207,0.699,0.421c0.213,0.143,0.417,0.278,0.627,0.492l0.278,0.278h0.075
		c1.876-6.149,6.552-10.886,12.622-12.911C671.35,302.958,671.071,299.405,670.658,295.846 M670.658,295.846
		c-10.811,2.511-19.396,10.807-22.26,21.557h5.518c0.35,0,0.767,0,1.116,0.136c0.203,0,0.343,0,0.481,0.071
		c0.628,0.143,1.191,0.35,1.748,0.699c0.21,0.071,0.488,0.207,0.699,0.421c0.213,0.143,0.417,0.278,0.627,0.492l0.278,0.278h0.075
		c1.876-6.149,6.552-10.886,12.622-12.911C671.35,302.958,671.071,299.405,670.658,295.846 M670.658,295.846
		c-10.811,2.511-19.396,10.807-22.26,21.557h5.518c0.35,0,0.767,0,1.116,0.136c0.203,0,0.343,0,0.481,0.071
		c0.628,0.143,1.191,0.35,1.748,0.699c0.21,0.071,0.488,0.207,0.699,0.421c0.213,0.143,0.417,0.278,0.627,0.492l0.278,0.278h0.075
		c1.876-6.149,6.552-10.886,12.622-12.911C671.35,302.958,671.071,299.405,670.658,295.846 M670.658,295.846
		c-10.811,2.511-19.396,10.807-22.26,21.557h5.518c0.35,0,0.767,0,1.116,0.136c0.203,0,0.343,0,0.481,0.071
		c0.628,0.143,1.191,0.35,1.748,0.699c0.21,0.071,0.488,0.207,0.699,0.421c0.213,0.143,0.417,0.278,0.627,0.492l0.278,0.278h0.075
		c1.876-6.149,6.552-10.886,12.622-12.911C671.35,302.958,671.071,299.405,670.658,295.846 M670.658,295.846
		c-10.811,2.511-19.396,10.807-22.26,21.557h5.518c0.35,0,0.767,0,1.116,0.136c0.203,0,0.343,0,0.481,0.071
		c0.628,0.143,1.191,0.35,1.748,0.699c0.21,0.071,0.488,0.207,0.699,0.421c0.213,0.143,0.417,0.278,0.627,0.492l0.278,0.278h0.075
		c1.876-6.149,6.552-10.886,12.622-12.911C671.35,302.958,671.071,299.405,670.658,295.846 M670.658,295.846
		c-10.811,2.511-19.396,10.807-22.26,21.557h5.518c0.35,0,0.767,0,1.116,0.136c0.203,0,0.343,0,0.481,0.071
		c0.628,0.143,1.191,0.35,1.748,0.699c0.21,0.071,0.488,0.207,0.699,0.421c0.213,0.143,0.417,0.278,0.627,0.492l0.278,0.278h0.075
		c1.876-6.149,6.552-10.886,12.622-12.911C671.35,302.958,671.071,299.405,670.658,295.846 M670.658,295.846
		c-10.811,2.511-19.396,10.807-22.26,21.557h5.518c0.35,0,0.767,0,1.116,0.136c0.203,0,0.343,0,0.481,0.071
		c0.628,0.143,1.191,0.35,1.748,0.699c0.21,0.071,0.488,0.207,0.699,0.421c0.213,0.143,0.417,0.278,0.627,0.492l0.278,0.278h0.075
		c1.876-6.149,6.552-10.886,12.622-12.911C671.35,302.958,671.071,299.405,670.658,295.846 M670.658,295.846
		c-10.811,2.511-19.396,10.807-22.26,21.557h5.518c0.35,0,0.767,0,1.116,0.136c0.203,0,0.343,0,0.481,0.071
		c0.628,0.143,1.191,0.35,1.748,0.699c0.21,0.071,0.488,0.207,0.699,0.421c0.213,0.143,0.417,0.278,0.627,0.492l0.354,0.342V319.5
		c1.876-6.149,6.552-10.886,12.622-12.911C671.35,302.958,671.071,299.405,670.658,295.846"/>
</g>
<g>
	<path fill="#2887C8" d="M412.123,66.817c-1.32,0.771-2.719,1.334-4.184,1.748c-1.748,0.492-3.492,0.771-5.372,0.771
		c-1.883,0-3.627-0.278-5.3-0.771c-1.534-0.414-2.932-0.978-4.259-1.748c-3.135-1.74-5.721-4.394-7.465-7.525
		c-0.631-1.12-1.12-2.24-1.537-3.495c-3.62,0.214-7.251,0.563-10.811,0.977c0.906,3.838,2.579,7.397,4.89,10.536
		c1.948,2.932,4.602,5.443,7.529,7.391c3.485,2.375,7.326,4.044,11.652,4.75c1.673,0.414,3.484,0.556,5.3,0.556
		c1.812,0,3.56-0.143,5.372-0.492c4.258-0.77,8.231-2.439,11.648-4.814C416.863,71.775,414.359,69.193,412.123,66.817
		 M412.123,66.817c-1.32,0.771-2.719,1.334-4.184,1.748c-1.748,0.492-3.492,0.771-5.372,0.771c-1.883,0-3.627-0.278-5.3-0.771
		c-1.534-0.414-2.932-0.978-4.259-1.748c-3.135-1.74-5.721-4.394-7.465-7.525c-0.631-1.12-1.12-2.24-1.537-3.495
		c-3.62,0.214-7.251,0.563-10.811,0.977c0.906,3.838,2.579,7.397,4.89,10.536c1.948,2.932,4.602,5.443,7.529,7.391
		c3.485,2.375,7.326,4.044,11.652,4.75c1.673,0.414,3.484,0.556,5.3,0.556c1.812,0,3.56-0.143,5.372-0.492
		c4.258-0.77,8.231-2.439,11.648-4.814C416.863,71.775,414.359,69.193,412.123,66.817 M412.123,66.817
		c-1.32,0.771-2.719,1.334-4.184,1.748c-1.748,0.492-3.492,0.771-5.372,0.771c-1.883,0-3.627-0.278-5.3-0.771
		c-1.534-0.414-2.932-0.978-4.259-1.748c-3.135-1.74-5.721-4.394-7.465-7.525c-0.631-1.12-1.12-2.24-1.537-3.495
		c-3.62,0.214-7.251,0.563-10.811,0.977c0.906,3.838,2.579,7.397,4.89,10.536c1.948,2.932,4.602,5.443,7.529,7.391
		c3.485,2.375,7.326,4.044,11.652,4.75c1.673,0.414,3.484,0.556,5.3,0.556c1.812,0,3.56-0.143,5.372-0.492
		c4.258-0.77,8.231-2.439,11.648-4.814C416.863,71.775,414.359,69.193,412.123,66.817 M412.123,66.817
		c-1.32,0.771-2.719,1.334-4.184,1.748c-1.748,0.492-3.492,0.771-5.372,0.771c-1.883,0-3.627-0.278-5.3-0.771
		c-1.534-0.414-2.932-0.978-4.259-1.748c-3.135-1.74-5.721-4.394-7.465-7.525c-0.631-1.12-1.12-2.24-1.537-3.495
		c-3.62,0.214-7.251,0.563-10.811,0.977c0.906,3.838,2.579,7.397,4.89,10.536c1.948,2.932,4.602,5.443,7.529,7.391
		c3.485,2.375,7.326,4.044,11.652,4.75c1.673,0.414,3.484,0.556,5.3,0.556c1.812,0,3.56-0.143,5.372-0.492
		c4.258-0.77,8.231-2.439,11.648-4.814C416.863,71.775,414.359,69.193,412.123,66.817 M412.123,66.817
		c-1.32,0.771-2.719,1.334-4.184,1.748c-1.748,0.492-3.492,0.771-5.372,0.771c-1.883,0-3.627-0.278-5.3-0.771
		c-1.534-0.414-2.932-0.978-4.259-1.748c-3.135-1.74-5.721-4.394-7.465-7.525c-0.631-1.12-1.12-2.24-1.537-3.495
		c-3.62,0.214-7.251,0.563-10.811,0.977c0.906,3.838,2.579,7.397,4.89,10.536c1.948,2.932,4.602,5.443,7.529,7.391
		c3.485,2.375,7.326,4.044,11.652,4.75c1.673,0.414,3.484,0.556,5.3,0.556c1.812,0,3.56-0.143,5.372-0.492
		c4.258-0.77,8.231-2.439,11.648-4.814C416.863,71.775,414.359,69.193,412.123,66.817 M412.123,66.817
		c-1.32,0.771-2.719,1.334-4.184,1.748c-1.748,0.492-3.492,0.771-5.372,0.771c-1.883,0-3.627-0.278-5.3-0.771
		c-1.534-0.414-2.932-0.978-4.259-1.748c-3.135-1.74-5.721-4.394-7.465-7.525c-0.631-1.12-1.12-2.24-1.537-3.495
		c-3.62,0.214-7.251,0.563-10.811,0.977c0.906,3.838,2.579,7.397,4.89,10.536c1.948,2.932,4.602,5.443,7.529,7.391
		c3.485,2.375,7.326,4.044,11.652,4.75c1.673,0.414,3.484,0.556,5.3,0.556c1.812,0,3.56-0.143,5.372-0.492
		c4.258-0.77,8.231-2.439,11.648-4.814C416.863,71.775,414.359,69.193,412.123,66.817 M412.123,66.817
		c-1.32,0.771-2.719,1.334-4.184,1.748c-1.748,0.492-3.492,0.771-5.372,0.771c-1.883,0-3.627-0.278-5.3-0.771
		c-1.534-0.414-2.932-0.978-4.259-1.748c-3.135-1.74-5.721-4.394-7.465-7.525c-0.631-1.12-1.12-2.24-1.537-3.495
		c-3.62,0.214-7.251,0.563-10.811,0.977c0.906,3.838,2.579,7.397,4.89,10.536c1.948,2.932,4.602,5.443,7.529,7.391
		c3.485,2.375,7.326,4.044,11.652,4.75c1.673,0.414,3.484,0.556,5.3,0.556c1.812,0,3.56-0.143,5.372-0.492
		c4.258-0.77,8.231-2.439,11.648-4.814C416.863,71.775,414.359,69.193,412.123,66.817 M412.123,66.817
		c-1.32,0.771-2.719,1.334-4.184,1.748c-1.748,0.492-3.492,0.771-5.372,0.771c-1.883,0-3.627-0.278-5.3-0.771
		c-1.534-0.414-2.932-0.978-4.259-1.748c-2.229,2.376-4.676,4.958-7.394,7.883c3.485,2.375,7.326,4.044,11.652,4.75
		c1.673,0.414,3.484,0.556,5.3,0.556c1.812,0,3.56-0.143,5.372-0.492c4.258-0.77,8.231-2.439,11.648-4.814
		C416.863,71.775,414.359,69.193,412.123,66.817 M412.123,66.817c-1.32,0.771-2.719,1.334-4.184,1.748
		c-1.748,0.492-3.492,0.771-5.372,0.771c-1.883,0-3.627-0.278-5.3-0.771c-1.534-0.414-2.932-0.978-4.259-1.748
		c-3.135-1.74-5.721-4.394-7.465-7.525c-0.631-1.12-1.12-2.24-1.537-3.495c-3.62,0.214-7.251,0.563-10.811,0.977
		c0.906,3.838,2.579,7.397,4.89,10.536c1.948,2.932,4.602,5.443,7.529,7.391c3.485,2.375,7.326,4.044,11.652,4.75
		c1.673,0.414,3.484,0.556,5.3,0.556c1.812,0,3.56-0.143,5.372-0.492c4.258-0.77,8.231-2.439,11.648-4.814
		C416.863,71.775,414.359,69.193,412.123,66.817 M412.123,66.817c-1.32,0.771-2.719,1.334-4.184,1.748
		c-1.748,0.492-3.492,0.771-5.372,0.771c-1.883,0-3.627-0.278-5.3-0.771c-1.534-0.414-2.932-0.978-4.259-1.748
		c-3.135-1.74-5.721-4.394-7.465-7.525c-0.631-1.12-1.12-2.24-1.537-3.495c-3.62,0.214-7.251,0.563-10.811,0.977
		c0.906,3.838,2.579,7.397,4.89,10.536c1.948,2.932,4.602,5.443,7.529,7.391c3.485,2.375,7.326,4.044,11.652,4.75
		c1.673,0.414,3.484,0.556,5.3,0.556c1.812,0,3.56-0.143,5.372-0.492c4.258-0.77,8.231-2.439,11.648-4.814
		C416.863,71.775,414.359,69.193,412.123,66.817 M412.123,66.817c-1.32,0.771-2.719,1.334-4.184,1.748
		c-1.748,0.492-3.492,0.771-5.372,0.771c-1.883,0-3.627-0.278-5.3-0.771c-1.534-0.414-2.932-0.978-4.259-1.748
		c-3.135-1.74-5.721-4.394-7.465-7.525c-0.631-1.12-1.12-2.24-1.537-3.495c-3.62,0.214-7.251,0.563-10.811,0.977
		c0.906,3.838,2.579,7.397,4.89,10.536c1.948,2.932,4.602,5.443,7.529,7.391c3.485,2.375,7.326,4.044,11.652,4.75
		c1.673,0.414,3.484,0.556,5.3,0.556c1.812,0,3.56-0.143,5.372-0.492c4.258-0.77,8.231-2.439,11.648-4.814
		C416.863,71.775,414.359,69.193,412.123,66.817 M412.123,66.817c-1.32,0.771-2.719,1.334-4.184,1.748
		c-1.748,0.492-3.492,0.771-5.372,0.771c-1.883,0-3.627-0.278-5.3-0.771c-1.534-0.414-2.932-0.978-4.259-1.748
		c-3.135-1.74-5.721-4.394-7.465-7.525c-0.631-1.12-1.12-2.24-1.537-3.495c-3.62,0.214-7.251,0.563-10.811,0.977
		c0.906,3.838,2.579,7.397,4.89,10.536c1.948,2.932,4.602,5.443,7.529,7.391c3.485,2.375,7.326,4.044,11.652,4.75
		c1.673,0.414,3.484,0.556,5.3,0.556c1.812,0,3.56-0.143,5.372-0.492c4.258-0.77,8.231-2.439,11.648-4.814
		C416.863,71.775,414.359,69.193,412.123,66.817 M412.123,66.817c-1.32,0.771-2.719,1.334-4.184,1.748
		c-1.748,0.492-3.492,0.771-5.372,0.771c-1.883,0-3.627-0.278-5.3-0.771c-1.534-0.414-2.932-0.978-4.259-1.748
		c-3.135-1.74-5.721-4.394-7.465-7.525c-0.631-1.12-1.12-2.24-1.537-3.495c-3.62,0.214-7.251,0.563-10.811,0.977
		c0.906,3.838,2.579,7.397,4.89,10.536c1.948,2.932,4.602,5.443,7.529,7.391c3.485,2.375,7.326,4.044,11.652,4.75
		c1.673,0.414,3.484,0.556,5.3,0.556c1.812,0,3.56-0.143,5.372-0.492c4.258-0.77,8.231-2.439,11.648-4.814
		C416.863,71.775,414.359,69.193,412.123,66.817 M412.123,66.817c-1.32,0.771-2.719,1.334-4.184,1.748
		c-1.748,0.492-3.492,0.771-5.372,0.771c-1.883,0-3.627-0.278-5.3-0.771c-1.534-0.414-2.932-0.978-4.259-1.748
		c-3.135-1.74-5.721-4.394-7.465-7.525c-0.631-1.12-1.12-2.24-1.537-3.495c-3.62,0.214-7.251,0.563-10.811,0.977
		c0.906,3.838,2.579,7.397,4.89,10.536c1.948,2.932,4.602,5.443,7.529,7.391c3.485,2.375,7.326,4.044,11.652,4.75
		c1.673,0.414,3.484,0.556,5.3,0.556c1.812,0,3.56-0.143,5.372-0.492c4.258-0.77,8.231-2.439,11.648-4.814
		C416.863,71.775,414.359,69.193,412.123,66.817 M412.123,66.817c-1.32,0.771-2.719,1.334-4.184,1.748
		c-1.748,0.492-3.492,0.771-5.372,0.771c-1.883,0-3.627-0.278-5.3-0.771c-1.534-0.414-2.932-0.978-4.259-1.748
		c-3.135-1.74-5.721-4.394-7.465-7.525c-0.631-1.12-1.12-2.24-1.537-3.495c-3.62,0.214-7.251,0.563-10.811,0.977
		c0.906,3.838,2.579,7.397,4.89,10.536c1.948,2.932,4.602,5.443,7.529,7.391c3.485,2.375,7.326,4.044,11.652,4.75
		c1.673,0.414,3.484,0.556,5.3,0.556c1.812,0,3.56-0.143,5.372-0.492c4.258-0.77,8.231-2.439,11.648-4.814
		C416.863,71.775,414.359,69.193,412.123,66.817 M412.123,66.817c-1.32,0.771-2.719,1.334-4.184,1.748
		c-1.748,0.492-3.492,0.771-5.372,0.771c-1.883,0-3.627-0.278-5.3-0.771c-1.534-0.414-2.932-0.978-4.259-1.748
		c-3.135-1.74-5.721-4.394-7.465-7.525c-0.631-1.12-1.12-2.24-1.537-3.495c-3.62,0.214-7.251,0.563-10.811,0.977
		c0.906,3.838,2.579,7.397,4.89,10.536c1.948,2.932,4.602,5.443,7.529,7.391c3.485,2.375,7.326,4.044,11.652,4.75
		c1.673,0.414,3.484,0.556,5.3,0.556c1.812,0,3.56-0.143,5.372-0.492c4.258-0.77,8.231-2.439,11.648-4.814
		C416.863,71.775,414.359,69.193,412.123,66.817 M412.123,66.817c-1.32,0.771-2.719,1.334-4.184,1.748
		c-1.748,0.492-3.492,0.771-5.372,0.771c-1.883,0-3.627-0.278-5.3-0.771c-1.534-0.414-2.932-0.978-4.259-1.748
		c-2.229,2.376-4.676,4.958-7.394,7.883c3.485,2.375,7.326,4.044,11.652,4.75c1.673,0.414,3.484,0.556,5.3,0.556
		c1.812,0,3.56-0.143,5.372-0.492c4.258-0.77,8.231-2.439,11.648-4.814C416.863,71.775,414.359,69.193,412.123,66.817
		 M412.123,66.817c-1.32,0.771-2.719,1.334-4.184,1.748c-1.748,0.492-3.492,0.771-5.372,0.771c-1.883,0-3.627-0.278-5.3-0.771
		c-1.534-0.414-2.932-0.978-4.259-1.748c-2.229,2.376-4.676,4.958-7.394,7.883c3.485,2.375,7.326,4.044,11.652,4.75
		c1.673,0.414,3.484,0.556,5.3,0.556c1.812,0,3.56-0.143,5.372-0.492c4.258-0.77,8.231-2.439,11.648-4.814
		C416.863,71.775,414.359,69.193,412.123,66.817 M412.123,66.817c-1.32,0.771-2.719,1.334-4.184,1.748
		c-1.748,0.492-3.492,0.771-5.372,0.771c-1.883,0-3.627-0.278-5.3-0.771c-1.534-0.414-2.932-0.978-4.259-1.748
		c-2.229,2.376-4.676,4.958-7.394,7.883c3.485,2.375,7.326,4.044,11.652,4.75c1.673,0.414,3.484,0.556,5.3,0.556
		c1.812,0,3.56-0.143,5.372-0.492c4.258-0.77,8.231-2.439,11.648-4.814C416.863,71.775,414.359,69.193,412.123,66.817
		 M432.495,46.167v-0.064c-1.812-14.93-14.58-26.443-29.928-26.443c-15.344,0-28.041,11.513-29.859,26.443v0.064
		c-0.278,1.184-0.278,2.375-0.278,3.631c0,2.439,0.278,4.679,0.767,6.905v0.071c0.906,3.838,2.579,7.397,4.89,10.536
		c1.948,2.932,4.602,5.443,7.529,7.391c3.485,2.375,7.326,4.044,11.652,4.75c1.673,0.414,3.484,0.556,5.3,0.556
		c1.812,0,3.56-0.143,5.372-0.492c4.258-0.77,8.231-2.439,11.648-4.814c2.932-1.948,5.442-4.458,7.465-7.391
		c2.301-3.139,3.909-6.698,4.814-10.536v-0.135c0.628-2.162,0.906-4.466,0.906-6.841C432.773,48.542,432.699,47.351,432.495,46.167
		 M421.196,55.797c-0.489,1.255-0.981,2.446-1.608,3.566c-1.744,3.061-4.323,5.714-7.465,7.454c-1.32,0.771-2.719,1.334-4.184,1.748
		c-1.748,0.492-3.492,0.771-5.372,0.771c-1.883,0-3.627-0.278-5.3-0.771c-1.534-0.414-2.932-0.978-4.259-1.748
		c-3.135-1.74-5.721-4.394-7.465-7.525c-0.631-1.12-1.12-2.24-1.537-3.495v-0.136c-0.628-1.812-0.902-3.838-0.902-5.863
		c0-1.605,0.21-3.067,0.56-4.601v-0.071c2.09-8.51,9.765-14.794,18.903-14.794c9.142,0,16.81,6.284,18.907,14.794v0.071
		c0.35,1.534,0.627,2.996,0.627,4.601c0,2.025-0.349,4.052-0.905,5.863V55.797z M412.123,66.817
		c-1.32,0.771-2.719,1.334-4.184,1.748c-1.748,0.492-3.492,0.771-5.372,0.771c-1.883,0-3.627-0.278-5.3-0.771
		c-1.534-0.414-2.932-0.978-4.259-1.748c-2.229,2.376-4.676,4.958-7.394,7.883c3.485,2.375,7.326,4.044,11.652,4.75
		c1.673,0.414,3.484,0.556,5.3,0.556c1.812,0,3.56-0.143,5.372-0.492c4.258-0.77,8.231-2.439,11.648-4.814
		C416.863,71.775,414.359,69.193,412.123,66.817 M412.123,66.817c-1.32,0.771-2.719,1.334-4.184,1.748
		c-1.748,0.492-3.492,0.771-5.372,0.771c-1.883,0-3.627-0.278-5.3-0.771c-1.534-0.414-2.932-0.978-4.259-1.748
		c-2.229,2.376-4.676,4.958-7.394,7.883c3.485,2.375,7.326,4.044,11.652,4.75c1.673,0.414,3.484,0.556,5.3,0.556
		c1.812,0,3.56-0.143,5.372-0.492c4.258-0.77,8.231-2.439,11.648-4.814C416.863,71.775,414.359,69.193,412.123,66.817
		 M412.123,66.817c-1.32,0.771-2.719,1.334-4.184,1.748c-1.748,0.492-3.492,0.771-5.372,0.771c-1.883,0-3.627-0.278-5.3-0.771
		c-1.534-0.414-2.932-0.978-4.259-1.748c-2.229,2.376-4.676,4.958-7.394,7.883c3.485,2.375,7.326,4.044,11.652,4.75
		c1.673,0.414,3.484,0.556,5.3,0.556c1.812,0,3.56-0.143,5.372-0.492c4.258-0.77,8.231-2.439,11.648-4.814
		C416.863,71.775,414.359,69.193,412.123,66.817 M412.123,66.817c-1.32,0.771-2.719,1.334-4.184,1.748
		c-1.748,0.492-3.492,0.771-5.372,0.771c-1.883,0-3.627-0.278-5.3-0.771c-1.534-0.414-2.932-0.978-4.259-1.748
		c-3.135-1.74-5.721-4.394-7.465-7.525c-0.631-1.12-1.12-2.24-1.537-3.495c-3.62,0.214-7.251,0.563-10.811,0.977
		c0.906,3.838,2.579,7.397,4.89,10.536c1.948,2.932,4.602,5.443,7.529,7.391c3.485,2.375,7.326,4.044,11.652,4.75
		c1.673,0.414,3.484,0.556,5.3,0.556c1.812,0,3.56-0.143,5.372-0.492c4.258-0.77,8.231-2.439,11.648-4.814
		C416.863,71.775,414.359,69.193,412.123,66.817 M412.123,66.817c-1.32,0.771-2.719,1.334-4.184,1.748
		c-1.748,0.492-3.492,0.771-5.372,0.771c-1.883,0-3.627-0.278-5.3-0.771c-1.534-0.414-2.932-0.978-4.259-1.748
		c-3.135-1.74-5.721-4.394-7.465-7.525c-0.631-1.12-1.12-2.24-1.537-3.495c-3.62,0.214-7.251,0.563-10.811,0.977
		c0.906,3.838,2.579,7.397,4.89,10.536c1.948,2.932,4.602,5.443,7.529,7.391c3.485,2.375,7.326,4.044,11.652,4.75
		c1.673,0.414,3.484,0.556,5.3,0.556c1.812,0,3.56-0.143,5.372-0.492c4.258-0.77,8.231-2.439,11.648-4.814
		C416.863,71.775,414.359,69.193,412.123,66.817 M412.123,66.817c-1.32,0.771-2.719,1.334-4.184,1.748
		c-1.748,0.492-3.492,0.771-5.372,0.771c-1.883,0-3.627-0.278-5.3-0.771c-1.534-0.414-2.932-0.978-4.259-1.748
		c-3.135-1.74-5.721-4.394-7.465-7.525c-0.631-1.12-1.12-2.24-1.537-3.495c-3.62,0.214-7.251,0.563-10.811,0.977
		c0.906,3.838,2.579,7.397,4.89,10.536c1.948,2.932,4.602,5.443,7.529,7.391c3.485,2.375,7.326,4.044,11.652,4.75
		c1.673,0.414,3.484,0.556,5.3,0.556c1.812,0,3.56-0.143,5.372-0.492c4.258-0.77,8.231-2.439,11.648-4.814
		C416.863,71.775,414.359,69.193,412.123,66.817 M412.123,66.817c-1.32,0.771-2.719,1.334-4.184,1.748
		c-1.748,0.492-3.492,0.771-5.372,0.771c-1.883,0-3.627-0.278-5.3-0.771c-1.534-0.414-2.932-0.978-4.259-1.748
		c-3.135-1.74-5.721-4.394-7.465-7.525c-0.631-1.12-1.12-2.24-1.537-3.495c-3.62,0.214-7.251,0.563-10.811,0.977
		c0.906,3.838,2.579,7.397,4.89,10.536c1.948,2.932,4.602,5.443,7.529,7.391c3.485,2.375,7.326,4.044,11.652,4.75
		c1.673,0.414,3.484,0.556,5.3,0.556c1.812,0,3.56-0.143,5.372-0.492c4.258-0.77,8.231-2.439,11.648-4.814
		C416.863,71.775,414.359,69.193,412.123,66.817 M412.123,66.817c-1.32,0.771-2.719,1.334-4.184,1.748
		c-1.748,0.492-3.492,0.771-5.372,0.771c-1.883,0-3.627-0.278-5.3-0.771c-1.534-0.414-2.932-0.978-4.259-1.748
		c-3.135-1.74-5.721-4.394-7.465-7.525c-0.631-1.12-1.12-2.24-1.537-3.495c-3.62,0.214-7.251,0.563-10.811,0.977
		c0.906,3.838,2.579,7.397,4.89,10.536c1.948,2.932,4.602,5.443,7.529,7.391c3.485,2.375,7.326,4.044,11.652,4.75
		c1.673,0.414,3.484,0.556,5.3,0.556c1.812,0,3.56-0.143,5.372-0.492c4.258-0.77,8.231-2.439,11.648-4.814
		C416.863,71.775,414.359,69.193,412.123,66.817 M412.123,66.817c-1.32,0.771-2.719,1.334-4.184,1.748
		c-1.748,0.492-3.492,0.771-5.372,0.771c-1.883,0-3.627-0.278-5.3-0.771c-1.534-0.414-2.932-0.978-4.259-1.748
		c-3.135-1.74-5.721-4.394-7.465-7.525c-0.631-1.12-1.12-2.24-1.537-3.495c-3.62,0.214-7.251,0.563-10.811,0.977
		c0.906,3.838,2.579,7.397,4.89,10.536c1.948,2.932,4.602,5.443,7.529,7.391c3.485,2.375,7.326,4.044,11.652,4.75
		c1.673,0.414,3.484,0.556,5.3,0.556c1.812,0,3.56-0.143,5.372-0.492c4.258-0.77,8.231-2.439,11.648-4.814
		C416.863,71.775,414.359,69.193,412.123,66.817 M412.123,66.817c-1.32,0.771-2.719,1.334-4.184,1.748
		c-1.748,0.492-3.492,0.771-5.372,0.771c-1.883,0-3.627-0.278-5.3-0.771c-1.534-0.414-2.932-0.978-4.259-1.748
		c-3.135-1.74-5.721-4.394-7.465-7.525c-0.631-1.12-1.12-2.24-1.537-3.495c-3.62,0.214-7.251,0.563-10.811,0.977
		c0.906,3.838,2.579,7.397,4.89,10.536c1.948,2.932,4.602,5.443,7.529,7.391c3.485,2.375,7.326,4.044,11.652,4.75
		c1.673,0.414,3.484,0.556,5.3,0.556c1.812,0,3.56-0.143,5.372-0.492c4.258-0.77,8.231-2.439,11.648-4.814
		C416.863,71.775,414.359,69.193,412.123,66.817 M412.123,66.817c-1.32,0.771-2.719,1.334-4.184,1.748
		c-1.748,0.492-3.492,0.771-5.372,0.771c-1.883,0-3.627-0.278-5.3-0.771c-1.534-0.414-2.932-0.978-4.259-1.748
		c-2.229,2.376-4.676,4.958-7.394,7.883c3.485,2.375,7.326,4.044,11.652,4.75c1.673,0.414,3.484,0.556,5.3,0.556
		c1.812,0,3.56-0.143,5.372-0.492c4.258-0.77,8.231-2.439,11.648-4.814C416.863,71.775,414.359,69.193,412.123,66.817
		 M412.123,66.817c-1.32,0.771-2.719,1.334-4.184,1.748c-1.748,0.492-3.492,0.771-5.372,0.771c-1.883,0-3.627-0.278-5.3-0.771
		c-1.534-0.414-2.932-0.978-4.259-1.748c-2.229,2.376-4.676,4.958-7.394,7.883c3.485,2.375,7.326,4.044,11.652,4.75
		c1.673,0.414,3.484,0.556,5.3,0.556c1.812,0,3.56-0.143,5.372-0.492c4.258-0.77,8.231-2.439,11.648-4.814
		C416.863,71.775,414.359,69.193,412.123,66.817 M412.123,66.817c-1.32,0.771-2.719,1.334-4.184,1.748
		c-1.748,0.492-3.492,0.771-5.372,0.771c-1.883,0-3.627-0.278-5.3-0.771c-1.534-0.414-2.932-0.978-4.259-1.748
		c-3.135-1.74-5.721-4.394-7.465-7.525c-0.631-1.12-1.12-2.24-1.537-3.495c-3.62,0.214-7.251,0.563-10.811,0.977
		c0.906,3.838,2.579,7.397,4.89,10.536c1.948,2.932,4.602,5.443,7.529,7.391c3.485,2.375,7.326,4.044,11.652,4.75
		c1.673,0.414,3.484,0.556,5.3,0.556c1.812,0,3.56-0.143,5.372-0.492c4.258-0.77,8.231-2.439,11.648-4.814
		C416.863,71.775,414.359,69.193,412.123,66.817 M412.123,66.817c-1.32,0.771-2.719,1.334-4.184,1.748
		c-1.748,0.492-3.492,0.771-5.372,0.771c-1.883,0-3.627-0.278-5.3-0.771c-1.534-0.414-2.932-0.978-4.259-1.748
		c-3.135-1.74-5.721-4.394-7.465-7.525c-0.631-1.12-1.12-2.24-1.537-3.495c-3.62,0.214-7.251,0.563-10.811,0.977
		c0.906,3.838,2.579,7.397,4.89,10.536c1.948,2.932,4.602,5.443,7.529,7.391c3.485,2.375,7.326,4.044,11.652,4.75
		c1.673,0.414,3.484,0.556,5.3,0.556c1.812,0,3.56-0.143,5.372-0.492c4.258-0.77,8.231-2.439,11.648-4.814
		C416.863,71.775,414.359,69.193,412.123,66.817 M412.123,66.817c-1.32,0.771-2.719,1.334-4.184,1.748
		c-1.748,0.492-3.492,0.771-5.372,0.771c-1.883,0-3.627-0.278-5.3-0.771c-1.534-0.414-2.932-0.978-4.259-1.748
		c-3.135-1.74-5.721-4.394-7.465-7.525c-0.631-1.12-1.12-2.24-1.537-3.495c-3.62,0.214-7.251,0.563-10.811,0.977
		c0.906,3.838,2.579,7.397,4.89,10.536c1.948,2.932,4.602,5.443,7.529,7.391c3.485,2.375,7.326,4.044,11.652,4.75
		c1.673,0.414,3.484,0.556,5.3,0.556c1.812,0,3.56-0.143,5.372-0.492c4.258-0.77,8.231-2.439,11.648-4.814
		C416.863,71.775,414.359,69.193,412.123,66.817 M412.123,66.817c-1.32,0.771-2.719,1.334-4.184,1.748
		c-1.748,0.492-3.492,0.771-5.372,0.771c-1.883,0-3.627-0.278-5.3-0.771c-1.534-0.414-2.932-0.978-4.259-1.748
		c-3.135-1.74-5.721-4.394-7.465-7.525c-0.631-1.12-1.12-2.24-1.537-3.495c-3.62,0.214-7.251,0.563-10.811,0.977
		c0.906,3.838,2.579,7.397,4.89,10.536c1.948,2.932,4.602,5.443,7.529,7.391c3.485,2.375,7.326,4.044,11.652,4.75
		c1.673,0.414,3.484,0.556,5.3,0.556c1.812,0,3.56-0.143,5.372-0.492c4.258-0.77,8.231-2.439,11.648-4.814
		C416.863,71.775,414.359,69.193,412.123,66.817 M412.123,66.817c-1.32,0.771-2.719,1.334-4.184,1.748
		c-1.748,0.492-3.492,0.771-5.372,0.771c-1.883,0-3.627-0.278-5.3-0.771c-1.534-0.414-2.932-0.978-4.259-1.748
		c-3.135-1.74-5.721-4.394-7.465-7.525c-0.631-1.12-1.12-2.24-1.537-3.495c-3.62,0.214-7.251,0.563-10.811,0.977
		c0.906,3.838,2.579,7.397,4.89,10.536c1.948,2.932,4.602,5.443,7.529,7.391c3.485,2.375,7.326,4.044,11.652,4.75
		c1.673,0.414,3.484,0.556,5.3,0.556c1.812,0,3.56-0.143,5.372-0.492c4.258-0.77,8.231-2.439,11.648-4.814
		C416.863,71.775,414.359,69.193,412.123,66.817 M412.123,66.817c-1.32,0.771-2.719,1.334-4.184,1.748
		c-1.748,0.492-3.492,0.771-5.372,0.771c-1.883,0-3.627-0.278-5.3-0.771c-1.534-0.414-2.932-0.978-4.259-1.748
		c-3.135-1.74-5.721-4.394-7.465-7.525c-0.631-1.12-1.12-2.24-1.537-3.495c-3.62,0.214-7.251,0.563-10.811,0.977
		c0.906,3.838,2.579,7.397,4.89,10.536c1.948,2.932,4.602,5.443,7.529,7.391c3.485,2.375,7.326,4.044,11.652,4.75
		c1.673,0.414,3.484,0.556,5.3,0.556c1.812,0,3.56-0.143,5.372-0.492c4.258-0.77,8.231-2.439,11.648-4.814
		C416.863,71.775,414.359,69.193,412.123,66.817"/>
</g>
<g>
	<path fill="#2887C8" d="M407.939,294.726c-1.813-0.349-3.561-0.485-5.372-0.485c-1.815,0-3.627,0.136-5.3,0.485
		c-11.791,2.026-21.278,11.1-24.003,22.677c-0.556,2.233-0.834,4.602-0.834,6.977c0,2.375,0.278,4.744,0.834,6.977
		c2.725,11.648,12.212,20.644,24.003,22.741c1.673,0.278,3.484,0.421,5.3,0.421c1.812,0,3.56-0.143,5.372-0.421
		c14.088-2.511,24.834-14.859,24.834-29.717C432.773,309.584,422.027,297.173,407.939,294.726 M407.939,343.14
		c-1.748,0.492-3.492,0.706-5.372,0.706c-1.883,0-3.627-0.214-5.3-0.706c-5.931-1.669-10.746-6.135-12.908-11.927
		c-0.841-2.09-1.255-4.395-1.255-6.834s0.414-4.744,1.255-6.841c2.162-5.785,6.977-10.25,12.908-11.927
		c1.673-0.414,3.417-0.692,5.3-0.692c1.88,0,3.624,0.278,5.372,0.692c8.092,2.304,14.162,9.83,14.162,18.768
		C422.102,333.303,416.031,340.843,407.939,343.14"/>
</g>
<g>
	<path fill="#2887C8" d="M407.939,570.07c-1.748-0.278-3.561-0.484-5.372-0.484c-1.815,0-3.627,0.206-5.3,0.484
		c-4.259,0.771-8.167,2.375-11.584,4.744c2.721,2.938,5.236,5.585,7.465,7.953c1.255-0.691,2.649-1.319,4.119-1.74
		c1.673-0.485,3.417-0.699,5.3-0.699c1.88,0,3.624,0.214,5.372,0.699c1.395,0.421,2.789,0.97,4.044,1.676
		c2.301-2.375,4.744-4.95,7.394-7.889C416.031,572.445,412.123,570.841,407.939,570.07 M407.939,570.07
		c-1.748-0.278-3.561-0.484-5.372-0.484c-1.815,0-3.627,0.206-5.3,0.484c-4.259,0.771-8.167,2.375-11.584,4.744
		c2.721,2.938,5.236,5.585,7.465,7.953c1.255-0.691,2.649-1.319,4.119-1.74c1.673-0.485,3.417-0.699,5.3-0.699
		c1.88,0,3.624,0.214,5.372,0.699c1.395,0.421,2.789,0.97,4.044,1.676c2.301-2.375,4.744-4.95,7.394-7.889
		C416.031,572.445,412.123,570.841,407.939,570.07 M407.939,570.07c-1.748-0.278-3.561-0.484-5.372-0.484
		c-1.815,0-3.627,0.206-5.3,0.484c-4.259,0.771-8.167,2.375-11.584,4.744c2.721,2.938,5.236,5.585,7.465,7.953
		c1.255-0.691,2.649-1.319,4.119-1.74c1.673-0.485,3.417-0.699,5.3-0.699c1.88,0,3.624,0.214,5.372,0.699
		c1.395,0.421,2.789,0.97,4.044,1.676c2.301-2.375,4.744-4.95,7.394-7.889C416.031,572.445,412.123,570.841,407.939,570.07
		 M407.939,570.07c-1.748-0.278-3.561-0.484-5.372-0.484c-1.815,0-3.627,0.206-5.3,0.484c-4.259,0.771-8.167,2.375-11.584,4.744
		c2.721,2.938,5.236,5.585,7.465,7.953c1.255-0.691,2.649-1.319,4.119-1.74c1.673-0.485,3.417-0.699,5.3-0.699
		c1.88,0,3.624,0.214,5.372,0.699c1.395,0.421,2.789,0.97,4.044,1.676c2.301-2.375,4.744-4.95,7.394-7.889
		C416.031,572.445,412.123,570.841,407.939,570.07 M407.939,570.07v10.957c1.395,0.421,2.789,0.97,4.044,1.676
		c2.301-2.375,4.744-4.95,7.394-7.889C416.031,572.445,412.123,570.841,407.939,570.07 M407.939,570.07
		c-1.748-0.278-3.561-0.484-5.372-0.484c-1.815,0-3.627,0.206-5.3,0.484c-4.259,0.771-8.167,2.375-11.584,4.744
		c2.721,2.938,5.236,5.585,7.465,7.953c1.255-0.691,2.649-1.319,4.119-1.74c1.673-0.485,3.417-0.699,5.3-0.699
		c1.88,0,3.624,0.214,5.372,0.699c1.395,0.421,2.789,0.97,4.044,1.676c2.301-2.375,4.744-4.95,7.394-7.889
		C416.031,572.445,412.123,570.841,407.939,570.07 M407.939,570.07c-1.748-0.278-3.561-0.484-5.372-0.484
		c-1.815,0-3.627,0.206-5.3,0.484c-4.259,0.771-8.167,2.375-11.584,4.744c2.721,2.938,5.236,5.585,7.465,7.953
		c1.255-0.691,2.649-1.319,4.119-1.74c1.673-0.485,3.417-0.699,5.3-0.699c1.88,0,3.624,0.214,5.372,0.699
		c1.395,0.421,2.789,0.97,4.044,1.676c2.301-2.375,4.744-4.95,7.394-7.889C416.031,572.445,412.123,570.841,407.939,570.07
		 M407.939,570.07c-1.748-0.278-3.561-0.484-5.372-0.484c-1.815,0-3.627,0.206-5.3,0.484c-4.259,0.771-8.167,2.375-11.584,4.744
		c2.721,2.938,5.236,5.585,7.465,7.953c1.255-0.691,2.649-1.319,4.119-1.74c1.673-0.485,3.417-0.699,5.3-0.699
		c1.88,0,3.624,0.214,5.372,0.699c1.395,0.421,2.789,0.97,4.044,1.676c2.301-2.375,4.744-4.95,7.394-7.889
		C416.031,572.445,412.123,570.841,407.939,570.07 M407.939,570.07c-1.748-0.278-3.561-0.484-5.372-0.484
		c-1.815,0-3.627,0.206-5.3,0.484c-4.259,0.771-8.167,2.375-11.584,4.744c2.721,2.938,5.236,5.585,7.465,7.953
		c1.255-0.691,2.649-1.319,4.119-1.74c1.673-0.485,3.417-0.699,5.3-0.699c1.88,0,3.624,0.214,5.372,0.699
		c1.395,0.421,2.789,0.97,4.044,1.676c2.301-2.375,4.744-4.95,7.394-7.889C416.031,572.445,412.123,570.841,407.939,570.07
		 M407.939,570.07c-1.748-0.278-3.561-0.484-5.372-0.484c-1.815,0-3.627,0.206-5.3,0.484c-4.259,0.771-8.167,2.375-11.584,4.744
		c2.721,2.938,5.236,5.585,7.465,7.953c1.255-0.691,2.649-1.319,4.119-1.74c1.673-0.485,3.417-0.699,5.3-0.699
		c1.88,0,3.624,0.214,5.372,0.699c1.395,0.421,2.789,0.97,4.044,1.676c2.301-2.375,4.744-4.95,7.394-7.889
		C416.031,572.445,412.123,570.841,407.939,570.07 M407.939,570.07c-1.748-0.278-3.561-0.484-5.372-0.484
		c-1.815,0-3.627,0.206-5.3,0.484c-4.259,0.771-8.167,2.375-11.584,4.744c2.721,2.938,5.236,5.585,7.465,7.953
		c1.255-0.691,2.649-1.319,4.119-1.74c1.673-0.485,3.417-0.699,5.3-0.699c1.88,0,3.624,0.214,5.372,0.699
		c1.395,0.421,2.789,0.97,4.044,1.676c2.301-2.375,4.744-4.95,7.394-7.889C416.031,572.445,412.123,570.841,407.939,570.07
		 M407.939,570.07c-1.748-0.278-3.561-0.484-5.372-0.484c-1.815,0-3.627,0.206-5.3,0.484c-4.259,0.771-8.167,2.375-11.584,4.744
		c2.721,2.938,5.236,5.585,7.465,7.953c1.255-0.691,2.649-1.319,4.119-1.74c1.673-0.485,3.417-0.699,5.3-0.699
		c1.88,0,3.624,0.214,5.372,0.699c1.395,0.421,2.789,0.97,4.044,1.676c2.301-2.375,4.744-4.95,7.394-7.889
		C416.031,572.445,412.123,570.841,407.939,570.07 M407.939,570.07c-1.748-0.278-3.561-0.484-5.372-0.484
		c-1.815,0-3.627,0.206-5.3,0.484c-4.259,0.771-8.167,2.375-11.584,4.744c2.721,2.938,5.236,5.585,7.465,7.953
		c1.255-0.691,2.649-1.319,4.119-1.74c1.673-0.485,3.417-0.699,5.3-0.699c1.88,0,3.624,0.214,5.372,0.699
		c1.395,0.421,2.789,0.97,4.044,1.676c2.301-2.375,4.744-4.95,7.394-7.889C416.031,572.445,412.123,570.841,407.939,570.07
		 M407.939,570.07v10.957c1.395,0.421,2.789,0.97,4.044,1.676c2.301-2.375,4.744-4.95,7.394-7.889
		C416.031,572.445,412.123,570.841,407.939,570.07 M407.939,570.07v10.957c1.395,0.421,2.789,0.97,4.044,1.676
		c2.301-2.375,4.744-4.95,7.394-7.889C416.031,572.445,412.123,570.841,407.939,570.07 M407.939,570.07v10.957
		c1.395,0.421,2.789,0.97,4.044,1.676c2.301-2.375,4.744-4.95,7.394-7.889C416.031,572.445,412.123,570.841,407.939,570.07
		 M431.867,592.954v-0.136c-0.905-3.845-2.514-7.54-4.886-10.679c-2.022-2.853-4.601-5.371-7.604-7.325
		c-3.346-2.369-7.254-3.974-11.438-4.744c-1.748-0.278-3.561-0.484-5.372-0.484c-1.815,0-3.627,0.206-5.3,0.484
		c-4.259,0.771-8.167,2.375-11.584,4.744c-2.932,1.954-5.51,4.473-7.533,7.396c-2.375,3.139-4.048,6.763-4.954,10.607v0.064
		c-0.488,2.304-0.767,4.465-0.767,6.912c0,1.184,0,2.439,0.278,3.56v0.136c1.819,14.858,14.516,26.436,29.859,26.436
		c15.348,0,28.116-11.577,29.928-26.436v-0.072c0.204-1.184,0.278-2.367,0.278-3.623
		C432.773,597.42,432.495,595.187,431.867,592.954 M421.475,604.46c-2.098,8.517-9.766,14.794-18.907,14.794
		c-9.138,0-16.813-6.277-18.903-14.794v-0.136c-0.35-1.391-0.56-2.996-0.56-4.529c0-2.098,0.274-4.045,0.906-5.936v-0.07
		c0.413-1.185,0.977-2.376,1.604-3.481c1.673-3.21,4.326-5.792,7.533-7.54c1.255-0.691,2.649-1.319,4.119-1.74
		c1.673-0.485,3.417-0.699,5.3-0.699c1.88,0,3.624,0.214,5.372,0.699c1.395,0.421,2.789,0.97,4.044,1.676v0.064
		c3.143,1.669,5.792,4.33,7.604,7.469c0.627,1.113,1.119,2.368,1.608,3.553v0.149c0.557,1.812,0.905,3.831,0.905,5.856
		c0,1.598-0.277,3.139-0.627,4.601V604.46z M407.939,570.07v10.957c1.395,0.421,2.789,0.97,4.044,1.676
		c2.301-2.375,4.744-4.95,7.394-7.889C416.031,572.445,412.123,570.841,407.939,570.07 M407.939,570.07v10.957
		c1.395,0.421,2.789,0.97,4.044,1.676c2.301-2.375,4.744-4.95,7.394-7.889C416.031,572.445,412.123,570.841,407.939,570.07
		 M407.939,570.07v10.957c1.395,0.421,2.789,0.97,4.044,1.676c2.301-2.375,4.744-4.95,7.394-7.889
		C416.031,572.445,412.123,570.841,407.939,570.07 M407.939,570.07c-1.748-0.278-3.561-0.484-5.372-0.484
		c-1.815,0-3.627,0.206-5.3,0.484c-4.259,0.771-8.167,2.375-11.584,4.744c2.721,2.938,5.236,5.585,7.465,7.953
		c1.255-0.691,2.649-1.319,4.119-1.74c1.673-0.485,3.417-0.699,5.3-0.699c1.88,0,3.624,0.214,5.372,0.699
		c1.395,0.421,2.789,0.97,4.044,1.676c2.301-2.375,4.744-4.95,7.394-7.889C416.031,572.445,412.123,570.841,407.939,570.07
		 M407.939,570.07c-1.748-0.278-3.561-0.484-5.372-0.484c-1.815,0-3.627,0.206-5.3,0.484c-4.259,0.771-8.167,2.375-11.584,4.744
		c2.721,2.938,5.236,5.585,7.465,7.953c1.255-0.691,2.649-1.319,4.119-1.74c1.673-0.485,3.417-0.699,5.3-0.699
		c1.88,0,3.624,0.214,5.372,0.699c1.395,0.421,2.789,0.97,4.044,1.676c2.301-2.375,4.744-4.95,7.394-7.889
		C416.031,572.445,412.123,570.841,407.939,570.07 M407.939,570.07c-1.748-0.278-3.561-0.484-5.372-0.484
		c-1.815,0-3.627,0.206-5.3,0.484c-4.259,0.771-8.167,2.375-11.584,4.744c2.721,2.938,5.236,5.585,7.465,7.953
		c1.255-0.691,2.649-1.319,4.119-1.74c1.673-0.485,3.417-0.699,5.3-0.699c1.88,0,3.624,0.214,5.372,0.699
		c1.395,0.421,2.789,0.97,4.044,1.676c2.301-2.375,4.744-4.95,7.394-7.889C416.031,572.445,412.123,570.841,407.939,570.07
		 M407.939,570.07c-1.748-0.278-3.561-0.484-5.372-0.484c-1.815,0-3.627,0.206-5.3,0.484c-4.259,0.771-8.167,2.375-11.584,4.744
		c2.721,2.938,5.236,5.585,7.465,7.953c1.255-0.691,2.649-1.319,4.119-1.74c1.673-0.485,3.417-0.699,5.3-0.699
		c1.88,0,3.624,0.214,5.372,0.699c1.395,0.421,2.789,0.97,4.044,1.676c2.301-2.375,4.744-4.95,7.394-7.889
		C416.031,572.445,412.123,570.841,407.939,570.07 M407.939,570.07c-1.748-0.278-3.561-0.484-5.372-0.484
		c-1.815,0-3.627,0.206-5.3,0.484c-4.259,0.771-8.167,2.375-11.584,4.744c2.721,2.938,5.236,5.585,7.465,7.953
		c1.255-0.691,2.649-1.319,4.119-1.74c1.673-0.485,3.417-0.699,5.3-0.699c1.88,0,3.624,0.214,5.372,0.699
		c1.395,0.421,2.789,0.97,4.044,1.676c2.301-2.375,4.744-4.95,7.394-7.889C416.031,572.445,412.123,570.841,407.939,570.07
		 M407.939,570.07c-1.748-0.278-3.561-0.484-5.372-0.484c-1.815,0-3.627,0.206-5.3,0.484c-4.259,0.771-8.167,2.375-11.584,4.744
		c2.721,2.938,5.236,5.585,7.465,7.953c1.255-0.691,2.649-1.319,4.119-1.74c1.673-0.485,3.417-0.699,5.3-0.699
		c1.88,0,3.624,0.214,5.372,0.699c1.395,0.421,2.789,0.97,4.044,1.676c2.301-2.375,4.744-4.95,7.394-7.889
		C416.031,572.445,412.123,570.841,407.939,570.07 M407.939,570.07c-1.748-0.278-3.561-0.484-5.372-0.484
		c-1.815,0-3.627,0.206-5.3,0.484c-4.259,0.771-8.167,2.375-11.584,4.744c2.721,2.938,5.236,5.585,7.465,7.953
		c1.255-0.691,2.649-1.319,4.119-1.74c1.673-0.485,3.417-0.699,5.3-0.699c1.88,0,3.624,0.214,5.372,0.699
		c1.395,0.421,2.789,0.97,4.044,1.676c2.301-2.375,4.744-4.95,7.394-7.889C416.031,572.445,412.123,570.841,407.939,570.07
		 M407.939,570.07v10.957c1.395,0.421,2.789,0.97,4.044,1.676c2.301-2.375,4.744-4.95,7.394-7.889
		C416.031,572.445,412.123,570.841,407.939,570.07 M407.939,570.07v10.957c1.395,0.421,2.789,0.97,4.044,1.676
		c2.301-2.375,4.744-4.95,7.394-7.889C416.031,572.445,412.123,570.841,407.939,570.07 M407.939,570.07
		c-1.748-0.278-3.561-0.484-5.372-0.484c-1.815,0-3.627,0.206-5.3,0.484c-4.259,0.771-8.167,2.375-11.584,4.744
		c2.721,2.938,5.236,5.585,7.465,7.953c1.255-0.691,2.649-1.319,4.119-1.74c1.673-0.485,3.417-0.699,5.3-0.699
		c1.88,0,3.624,0.214,5.372,0.699c1.395,0.421,2.789,0.97,4.044,1.676c2.301-2.375,4.744-4.95,7.394-7.889
		C416.031,572.445,412.123,570.841,407.939,570.07 M407.939,570.07c-1.748-0.278-3.561-0.484-5.372-0.484
		c-1.815,0-3.627,0.206-5.3,0.484c-4.259,0.771-8.167,2.375-11.584,4.744c2.721,2.938,5.236,5.585,7.465,7.953
		c1.255-0.691,2.649-1.319,4.119-1.74c1.673-0.485,3.417-0.699,5.3-0.699c1.88,0,3.624,0.214,5.372,0.699
		c1.395,0.421,2.789,0.97,4.044,1.676c2.301-2.375,4.744-4.95,7.394-7.889C416.031,572.445,412.123,570.841,407.939,570.07
		 M407.939,570.07c-1.748-0.278-3.561-0.484-5.372-0.484c-1.815,0-3.627,0.206-5.3,0.484c-4.259,0.771-8.167,2.375-11.584,4.744
		c2.721,2.938,5.236,5.585,7.465,7.953c1.255-0.691,2.649-1.319,4.119-1.74c1.673-0.485,3.417-0.699,5.3-0.699
		c1.88,0,3.624,0.214,5.372,0.699c1.395,0.421,2.789,0.97,4.044,1.676c2.301-2.375,4.744-4.95,7.394-7.889
		C416.031,572.445,412.123,570.841,407.939,570.07"/>
</g>
<g>
	<path fill="#2887C8" d="M393.148,582.768c-3.207,1.748-5.856,4.33-7.529,7.533c-2.301-2.439-4.751-5.094-7.465-8.09
		c-20.234-22.256-51.556-60.411-76.808-107.983c-2.447-4.536-4.815-9.216-7.116-13.96c-18.911-38.647-33.066-82.66-34.322-128.912
		c-0.139-2.304-0.139-4.608-0.139-6.983c0-2.297,0-4.673,0.139-6.977c1.256-45.896,15.272-89.637,33.972-128
		c2.3-4.75,4.676-9.423,7.048-13.96c25.391-47.65,56.852-85.871,77.15-108.126c2.653-2.932,5.165-5.649,7.465-8.024
		c1.748,3.146,4.326,5.785,7.465,7.532c-2.232,2.376-4.672,4.951-7.39,7.883c-12.844,14.023-30.213,34.532-47.508,59.784
		c-8.585,12.491-17.647,26.864-26.165,42.7c-2.165,3.98-4.326,8.018-6.349,12.212c-18.764,37.528-33.972,82.24-35.017,129.469v0.064
		c-0.139,1.819-0.139,3.631-0.139,5.443c0,1.883,0,3.631,0.139,5.442v0.071c1.045,46.88,15.9,91.527,35.442,130.382
		c2.022,4.052,4.112,8.025,6.273,11.935c24.346,45.061,54.067,81.269,73.387,102.612
		C388.408,577.753,390.912,580.399,393.148,582.768"/>
</g>
<g>
	<path fill="#2887C8" d="M497.233,486.083c-1.747,3.203-3.631,6.349-5.442,9.353c-22.599,37.663-47.646,67.943-64.807,86.704
		c-2.649,3.003-5.164,5.649-7.396,8.097c-1.813-3.139-4.466-5.792-7.604-7.461v-0.079c2.308-2.368,4.747-4.95,7.397-7.882
		c16.742-18.411,41.162-47.986,63.272-84.758c1.883-3.067,3.694-6.277,5.507-9.416C490.606,483.216,493.742,485.178,497.233,486.083
		"/>
</g>
<g>
	<path fill="#2887C8" d="M497.579,163.509c-3.484,0.842-6.623,2.725-9.063,5.165c-1.819-3.21-3.631-6.349-5.518-9.423
		c-5.368-8.924-10.811-17.299-16.11-24.967c-17.234-25.116-34.529-45.561-47.297-59.584c-2.726-2.932-5.24-5.507-7.466-7.883
		c3.139-1.747,5.718-4.387,7.466-7.454c2.3,2.297,4.811,5.015,7.465,7.946c17.23,18.903,42.343,49.113,65.016,86.712
		C493.948,157.161,495.835,160.299,497.579,163.509"/>
</g>
<g>
	<path fill="#2887C8" d="M545.437,324.379c0,1.47,0,2.86-0.071,4.323c-0.695,40.182-11.228,78.695-26.158,113.498
		c-1.395,3.353-2.928,6.698-4.465,9.979c-2.722-2.239-6.003-3.773-9.697-4.251c1.533-3.281,3.066-6.635,4.469-10.044
		c14.092-32.863,23.996-68.929,25.041-106.528c0.136-2.304,0.136-4.68,0.136-6.977c0-2.304-0.064-4.68-0.136-6.977
		c-1.12-37.742-11.164-73.736-24.764-105.765c-1.395-3.41-2.863-6.763-4.397-10.044c3.631-0.478,6.977-2.083,9.627-4.323
		c1.533,3.281,3.003,6.627,4.465,9.979c14.716,34.604,25.185,72.831,25.88,112.806C545.437,321.447,545.437,322.909,545.437,324.379
		"/>
</g>
<g>
	<path fill="#2887C8" d="M407.939,68.565v237.046c-1.748-0.421-3.492-0.699-5.372-0.699c-1.883,0-3.627,0.278-5.3,0.699V68.565
		c1.673,0.485,3.417,0.763,5.3,0.763C404.447,69.329,406.191,69.05,407.939,68.565"/>
</g>
<g>
	<path fill="#2887C8" d="M407.939,343.14v237.888c-1.748-0.492-3.492-0.692-5.372-0.692c-1.883,0-3.627,0.2-5.3,0.692V343.14
		c1.673,0.492,3.417,0.706,5.3,0.706C404.447,343.846,406.191,343.632,407.939,343.14"/>
</g>
<g>
	<path fill="#2887C8" d="M383.104,324.379c0,2.439,0.414,4.736,1.255,6.834c-0.417,0.064-0.841,0.143-1.255,0.143h-82.25
		c-3.834,0-6.977-3.146-6.977-6.977c0-3.838,3.142-6.977,6.977-6.977h82.25c0.414,0,0.838,0.071,1.255,0.136
		C383.519,319.635,383.104,321.939,383.104,324.379"/>
</g>
<g>
	<path fill="#2887C8" d="M407.939,178.019v8.859c-1.324,1.534-3.207,2.518-5.372,2.518h-62.716c-3.834,0-6.973-3.146-6.973-6.976
		c0-3.845,3.139-6.984,6.973-6.984h62.716C404.732,175.436,406.684,176.413,407.939,178.019"/>
</g>
<g>
	<path fill="#2887C8" d="M483.559,177.319v10.193c-1.255,1.184-2.928,1.876-4.74,1.876H436.4c-3.834,0-6.976-3.131-6.976-6.977
		c0-3.837,3.142-6.976,6.976-6.976h42.418C480.631,175.436,482.304,176.135,483.559,177.319"/>
</g>
<g>
	<path fill="#2887C8" d="M483.698,461.316v0.071l-0.35,10.251c-1.256,1.056-2.789,1.684-4.53,1.684H436.4
		c-3.834,0-6.973-3.146-6.973-6.984s3.139-6.976,6.973-6.976h42.418C480.695,459.362,482.442,460.125,483.698,461.316"/>
</g>
<g>
	<path fill="#2887C8" d="M407.939,461.944v8.859c-1.324,1.534-3.207,2.519-5.372,2.519h-62.716c-3.834,0-6.973-3.146-6.973-6.977
		c0-3.846,3.139-6.983,6.973-6.983h62.716C404.732,459.362,406.684,460.339,407.939,461.944"/>
</g>
<g>
	<path fill="#2887C8" d="M270.581,318.865v11.028c-1.184,0.899-2.718,1.455-4.327,1.455h-82.246c-3.834,0-6.977-3.131-6.977-6.976
		c0-3.831,3.142-6.977,6.977-6.977h82.246C267.863,317.396,269.396,317.952,270.581,318.865"/>
</g>
<g>
	<path fill="#2887C8" d="M311.946,177.184c-2.161,3.974-4.322,8.018-6.349,12.205h-80.502c-3.834,0-6.973-3.131-6.973-6.977
		c0-3.837,3.139-6.976,6.973-6.976h82.25C309.09,175.436,310.691,176.063,311.946,177.184"/>
</g>
<g>
	<path fill="#2887C8" d="M312.296,472.202c-1.255,1.255-3.067,2.019-4.95,2.019h-82.25c-3.834,0-6.976-3.139-6.976-6.969
		c0-3.846,3.142-6.977,6.976-6.977h80.92C308.037,464.319,310.135,468.293,312.296,472.202"/>
</g>
<g>
	<path fill="#2887C8" d="M545.365,320.049v8.66c-1.256,1.598-3.207,2.639-5.439,2.639H460.75c-3.841,0-6.983-3.131-6.983-6.969
		s3.143-6.977,6.983-6.977h79.176C542.158,317.402,544.109,318.444,545.365,320.049"/>
</g>
<g>
	<path fill="#2887C8" d="M658.938,319.564c-0.557,1.819-0.842,3.695-0.842,5.65c0,1.462,0.146,2.86,0.563,4.251v0.079
		c-1.255,1.113-2.928,1.812-4.739,1.812H585.9c-3.834,0-6.977-3.139-6.977-6.977s3.143-6.977,6.977-6.977h68.02
		c0.342,0,0.76,0,1.108,0.136c0.211,0,0.35,0,0.489,0.071c0.627,0.143,1.184,0.35,1.747,0.699c0.211,0.071,0.489,0.207,0.692,0.421
		c0.214,0.143,0.424,0.278,0.627,0.492l0.279,0.278h0.074V319.564z"/>
</g>
<g>
	<path fill="#2887C8" d="M643.939,182.412c-0.213,3.631-3.206,6.492-6.912,6.492h-75.263c-3.845,0-6.977-3.146-6.977-6.976
		c0-3.838,3.132-6.977,6.977-6.977h75.263c0.914,0,1.748,0.207,2.586,0.485l4.113,6.698
		C643.801,182.206,643.865,182.277,643.939,182.412"/>
</g>
<g>
	<path fill="#2887C8" d="M644.008,466.338c0,0.278,0,0.492-0.071,0.699c-0.974,1.74-2.026,3.417-3.136,5.165
		c-1.115,0.691-2.371,1.112-3.77,1.112h-75.271c-3.834,0-6.976-3.139-6.976-6.977c0-3.83,3.142-6.976,6.976-6.976h75.271
		C640.869,459.362,644.008,462.508,644.008,466.338"/>
</g>
<g>
	<path fill="#2887C8" d="M134.406,295.846c-0.417,3.56-0.767,7.112-0.977,10.671c-1.812-0.485-3.838-0.834-5.86-0.834
		c-1.605,0-3.067,0.207-4.601,0.628c0.203-3.702,0.489-7.397,0.906-11.021c1.255-0.214,2.439-0.286,3.695-0.286
		C129.944,295.004,132.17,295.29,134.406,295.846"/>
</g>
<g>
	<path fill="#2887C8" d="M384.011,55.661c-3.631,0.214-7.255,0.557-10.811,1.042c-1.395,0.071-2.725,0.278-4.12,0.428
		c-5.507,0.691-10.95,1.533-16.325,2.504c-5.442,1.041-10.739,2.232-16.043,3.559c-5.3,1.327-10.464,2.796-15.696,4.465
		c-5.09,1.598-10.19,3.41-15.208,5.372c-5.025,1.883-9.976,3.973-14.855,6.206c-4.886,2.24-9.63,4.601-14.377,7.119
		c-4.676,2.44-9.348,5.086-13.878,7.883c-4.537,2.725-8.999,5.649-13.325,8.646c-4.394,3.003-8.646,6.142-12.769,9.423
		c-4.184,3.281-8.303,6.627-12.276,10.115c-3.909,3.559-7.818,7.119-11.577,10.878c-1.958,1.883-3.834,3.916-5.721,5.863h-0.071
		c0,0-4.537,0.492-6.424-1.391c-1.947-1.891-1.672-5.101-1.672-5.101c3.559-3.837,7.254-7.532,11.096-11.156
		c3.837-3.631,7.743-7.183,11.792-10.536c3.973-3.424,8.093-6.77,12.344-9.908c4.188-3.21,8.51-6.277,12.908-9.202
		c4.398-2.932,8.86-5.792,13.396-8.446c4.601-2.718,9.202-5.3,13.953-7.739c4.665-2.439,9.487-4.751,14.366-6.912
		c4.887-2.154,9.841-4.252,14.859-6.135c5.025-1.883,10.051-3.631,15.205-5.229c5.164-1.684,10.396-3.146,15.625-4.473
		c5.311-1.327,10.607-2.504,15.982-3.488c5.368-1.042,10.811-1.883,16.317-2.582c2.026-0.278,4.048-0.492,6.006-0.692
		c3.556-0.421,7.041-0.706,10.532-0.984h0.417c-0.343,1.534-0.557,3.003-0.557,4.615C383.104,51.823,383.383,53.842,384.011,55.661"
		/>
</g>
<g>
	<path fill="#2887C8" d="M682.238,306.311c-1.469-0.421-3.07-0.628-4.676-0.628c-2.022,0-3.973,0.35-5.792,0.842
		c-0.203-3.56-0.557-7.119-0.906-10.686c-4.112-38.648-16.531-74.914-35.295-106.935c-2.789-4.744-5.722-9.423-8.796-13.953
		c-43.249-64.599-113.771-109.532-194.906-118.32c-3.556-0.414-7.111-0.692-10.678-0.97c0.563-1.819,0.905-3.838,0.905-5.863
		c0-1.598-0.278-3.067-0.62-4.601c3.695,0.278,7.394,0.556,11.024,0.977c87.126,9.28,162.464,58.664,207.118,129.262l4.112,6.698
		c0.071,0.071,0.14,0.143,0.21,0.286c19.949,33.683,33.066,71.989,37.393,112.87C681.682,298.92,682.024,302.615,682.238,306.311"/>
</g>
<g>
	<path fill="#2887C8" d="M383.104,599.795c0,1.533,0.21,3.139,0.553,4.537c-3.695-0.215-7.318-0.492-10.949-0.978
		C252.091,590.586,154.08,500.941,128.753,384.441c-1.458-6.905-2.718-13.882-3.763-21.001c-0.421-2.789-0.699-5.578-0.977-8.367
		c-0.417-3.631-0.767-7.326-0.977-10.949c1.466,0.342,2.928,0.556,4.533,0.556c2.025,0,4.048-0.357,5.931-0.984
		c0.207,3.631,0.556,7.19,0.974,10.814c0.285,2.725,0.627,5.379,0.977,8.097c1.052,6.969,2.301,13.881,3.77,20.644
		C163.984,494.657,257.744,580.399,373.2,592.883c3.556,0.492,7.187,0.771,10.811,0.977
		C383.379,595.75,383.104,597.697,383.104,599.795"/>
</g>
<g>
	<path fill="#2887C8" d="M682.167,344.117c-0.214,3.695-0.556,7.326-0.98,10.957c-4.323,40.524-17.362,78.48-37.247,111.964
		c-0.977,1.74-2.021,3.417-3.139,5.165c-44.439,71.646-120.405,121.872-208.309,131.216c-3.624,0.422-7.319,0.699-11.021,0.971
		c0.35-1.455,0.628-2.988,0.628-4.602c0-2.018-0.346-4.044-0.906-5.855c3.631-0.278,7.187-0.557,10.672-0.978
		c81.693-8.853,152.566-54.349,195.819-119.64c2.999-4.537,5.863-9.201,8.652-13.952c18.204-31.458,30.206-66.968,34.39-104.853
		c0.417-3.552,0.767-7.112,1.045-10.743c1.887,0.564,3.77,0.913,5.792,0.913C679.164,344.68,680.705,344.466,682.167,344.117"/>
</g>
<g>
	<path fill="#2887C8" d="M162.729,201.387c-1.673,3.21-3.278,6.491-4.74,9.766c-1.191,2.518-2.308,5.029-3.417,7.54
		c-2.725,6.349-5.232,12.833-7.465,19.459c-3.142,9.416-5.86,19.046-8.028,28.954c0,0-2.015,2.019-5.157,1.676
		c-3.282-0.35-5.236-2.868-5.236-2.868c2.232-10.957,5.3-21.692,8.792-32.085c2.301-6.698,4.879-13.325,7.743-19.745
		c1.12-2.575,2.229-5.164,3.485-7.675c1.469-3.345,3.074-6.626,4.747-9.836C155.967,198.947,159.173,200.624,162.729,201.387"/>
</g>
<g>
	<path fill="#2887C8" d="M188.263,161.276c-2.229,2.86-4.326,5.721-6.417,8.653c-2.233-2.646-5.236-4.744-8.582-5.928
		c2.09-3.003,4.251-5.935,6.488-8.86C182.959,156.676,185.823,158.694,188.263,161.276"/>
</g>
<g>
	<polygon fill="#2887C8" points="375.782,769.66 352.182,769.66 322.554,687.092 348.112,687.092 363.873,738.58 364.166,738.58 
		379.994,687.092 405.553,687.092 	"/>
</g>
<g>
	<path fill="#2887C8" d="M468.736,769.66v-45.098c0-5.371-0.774-9.365-2.326-11.983c-1.986-3.389-5.521-5.086-10.604-5.086
		c-5.371,0-9.177,1.647-11.402,4.943c-1.84,2.71-2.754,6.826-2.754,12.333v44.891h-24.691v-82.568h23.02v8.781h0.363
		c4.74-7.74,12.22-11.613,22.441-11.613c8.378,0,15.411,2.396,21.129,7.19c3.581,3.003,6.146,7.04,7.693,12.127
		c1.213,3.966,1.818,8.788,1.818,14.452v51.631H468.736z"/>
</g>
<g>
	<path fill="#B1D465" d="M285.179,724.599c0,15.158-12.287,27.435-27.435,27.435c-15.158,0-27.438-12.276-27.438-27.435
		c0-15.144,12.28-27.435,27.438-27.435C272.892,697.164,285.179,709.455,285.179,724.599"/>
</g>
<g>
	<path fill="#2887C8" d="M257.744,753.033c-15.681,0-28.438-12.756-28.438-28.435s12.757-28.435,28.438-28.435
		c15.679,0,28.435,12.756,28.435,28.435S273.423,753.033,257.744,753.033z M257.744,698.164c-14.578,0-26.438,11.858-26.438,26.435
		s11.86,26.435,26.438,26.435c14.576,0,26.435-11.858,26.435-26.435S272.32,698.164,257.744,698.164z"/>
</g>
</svg>
